<?xml version="1.0" encoding="utf-8"?>
<!-- Generator: Adobe Illustrator 24.0.0, SVG Export Plug-In . SVG Version: 6.00 Build 0)  -->
<svg version="1.1" xmlns="http://www.w3.org/2000/svg" xmlns:xlink="http://www.w3.org/1999/xlink" x="0px" y="0px"
	 viewBox="0 0 1074.12 278" style="enable-background:new 0 0 1074.12 278;" xml:space="preserve">
<g id="Calque_1">
	<path class="main-color" style="fill:#ED6B6E;" d="M648.25,73.37C468.8,76.01,315.5,110.75,315.5,110.75c-17.07-1.04-111.93-40.99-146.72-71.63
		C129,4.09,90.05-6.9,32.59,4.09c0,0,27.95,44.4,59.59,73.21c4.21,3.83-83.09-34.57-83.09-34.57
		c-9.72,59.53,110.36,95.87,110.36,95.87S5.19,161.78,0,232.7l98.67-35.46c-31.64,28.81-66.08,75.86-66.08,75.86
		c57.45,10.99,96.4,0,136.18-35.03c34.79-30.64,123.16-65.11,140.23-66.15c0,0,149.29,45.46,335.16,51.55
		c174.38,5.71,429.92-10.55,429.96-71.96C1074.16,97.16,960.57,68.77,648.25,73.37z"/>
</g>
<g id="Calque_7">
	<g>
		<path class="accent-color" style="fill:#D15256;" d="M348.39,126.41c0,17.44-3.29,35.48-9.4,53.65c10.98,2.79,24.73,6.11,40.85,9.65
			c6.6-18.9,10.09-38.58,10.09-58.81c0-11.35-1.1-22.54-3.24-33.51c-16.01,2.62-29.75,5.09-40.76,7.18
			C347.55,111.83,348.39,119.11,348.39,126.41z"/>
	</g>
</g>
<g id="Calque_4">
	<g>
		<path class="accent-color" style="fill:#D15256;" d="M168.78,39.12C129,4.09,90.05-6.9,32.59,4.09c0,0,27.95,44.4,59.59,73.21
			c4.21,3.83-83.09-34.57-83.09-34.57c-9.72,59.53,110.36,95.87,110.36,95.87S5.19,161.78,0,232.7l98.67-35.46
			c-31.64,28.81-66.08,75.86-66.08,75.86c57.45,10.99,96.4,0,136.18-35.03c34.79-30.64,123.16-65.11,140.23-66.15
			c0,0,1.41,0.43,4.11,1.21c3.27-14.76,4.98-29.75,4.98-44.92c0-6-0.27-11.95-0.79-17.84c-1.19,0.26-1.8,0.4-1.8,0.4
			C298.43,109.71,203.57,69.77,168.78,39.12z"/>
	</g>
</g>
<g id="Calque_5">
	<g>
		<path class="accent-color" style="fill:#D15256;" d="M1074.12,151.5c0.03-40.91-64.37-67.11-229.51-75.6c6.93,17.08,10.73,34.54,10.73,52.15
			c0,31.45-4.57,62.78-14.03,92.42C965.33,212.4,1074.1,191.56,1074.12,151.5z"/>
	</g>
</g>
<g id="Calque_6">
	<g>
		<path class="accent-color" style="fill:#D15256;" d="M804.52,222.48c9.37-23.6,14.29-48.93,14.29-75.58c0-24.87-4.27-49.26-12.46-72.59
			c-15.95-0.52-32.69-0.9-50.28-1.13c10.79,21.66,16.79,43.68,16.79,65.42c0,30.82-9.7,59.5-26.9,85.64
			C765.39,223.93,785.02,223.35,804.52,222.48z"/>
	</g>
</g>
</svg>
