<?xml version="1.0" encoding="utf-8"?>
<!-- Generator: Adobe Illustrator 24.0.0, SVG Export Plug-In . SVG Version: 6.00 Build 0)  -->
<svg version="1.1" xmlns="http://www.w3.org/2000/svg" xmlns:xlink="http://www.w3.org/1999/xlink" x="0px" y="0px"
	 viewBox="0 0 691.66 580.35" style="enable-background:new 0 0 691.66 580.35;" xml:space="preserve">
<g id="Calque_2">
	<path class="main-color" style="fill:#ED6B6E;" d="M385.66,13.85c-237.45-49.02-50.24,35.58-121.02,198.38c-7.66,17.62-15.7,19.91-28.12,20.79
		c-20.14-1.26-34.79-26.1-75.84-63.17C113.74,127.49,67.79,114.19,0,127.49c0,0,20.62,68.07,57.95,102.91
		c40.88,38.16,36.64,55.37,36.64,55.37s4.24,26.03-36.64,64.19C20.62,384.79,0,452.86,0,452.86c67.79,13.3,113.74,0,160.68-42.37
		c41.05-37.06,55.7-61.9,75.84-63.17c12.42,0.88,20.46,3.18,28.12,20.79c70.78,162.8-116.43,247.4,121.02,198.38
		c201.6-41.62,306.1-220,306-268.31C691.76,249.88,587.26,55.47,385.66,13.85z"/>
</g>
<g id="Calque_6">
	<g>
		<path class="accent-color" style="fill:#D15256;" d="M432.22,26.65c-7.18-2.48-14.51-4.75-21.98-6.82c50.09,122.7,85.16,315.72-25.33,546.83
			c0.25-0.05,0.5-0.1,0.75-0.15c8.78-1.81,17.36-3.9,25.78-6.21c40-64.19,81.43-155.71,88.09-265.99
			C505.54,194.8,471.55,100.46,432.22,26.65z"/>
	</g>
</g>
<g id="Calque_5">
	<g>
		<path class="accent-color" style="fill:#D15256;" d="M507.92,62.38c53.46,107.54,88.43,267.85-6.63,461.41c125.77-69.09,190.45-187.6,190.37-225.61
			C691.74,260.86,629.32,136.28,507.92,62.38z"/>
	</g>
</g>

</svg>
