<?xml version="1.0" encoding="utf-8"?>
<!-- Generator: Adobe Illustrator 24.0.0, SVG Export Plug-In . SVG Version: 6.00 Build 0)  -->
<svg version="1.1" xmlns="http://www.w3.org/2000/svg" xmlns:xlink="http://www.w3.org/1999/xlink" x="0px" y="0px"
	 viewBox="0 0 774.85 326" style="enable-background:new 0 0 774.85 326;" xml:space="preserve">
<g id="Calque_13">
	<path class="main-color" style="fill:#ED6B6E;" d="M460.26,13.86c-141.51-2.33-252.35,86.46-256.33,92.22c0,0-19.28-28.91-59.26-63.7
		C116.88,18.19,67.88,5.9,2.5,0c-7.84,8.31,2.12,68.07,39.45,102.91c40.88,38.16,123.27,59.78,123.27,59.78
		s-82.39,21.62-123.27,59.78C4.61,257.3-5.35,317.06,2.5,325.37c65.38-5.9,114.38-18.19,142.17-42.37
		c39.98-34.79,59.26-63.7,59.26-63.7c3.97,5.76,111.32,93.26,242.66,95.42c206.78,3.39,328.15-102.15,328.25-152.02
		C774.95,114.38,666.09,17.25,460.26,13.86z"/>
</g>
<g id="Calque_5">
	<path class="accent-color" style="fill:#D15156;" d="M617.35,37.85c-21.4,33.67-34.31,77.24-34.31,124.83c0,48.56,13.44,92.93,35.62,126.87
		c100.33-33.7,156.12-93.07,156.19-126.87C774.92,128.69,721.02,70.52,617.35,37.85z"/>
</g>

</svg>
