<?xml version="1.0" encoding="utf-8"?>
<!-- Generator: Adobe Illustrator 24.0.0, SVG Export Plug-In . SVG Version: 6.00 Build 0)  -->
<svg version="1.1" id="Calque_1" xmlns="http://www.w3.org/2000/svg" xmlns:xlink="http://www.w3.org/1999/xlink" x="0px" y="0px"
	 viewBox="0 0 208.04 293.19" style="enable-background:new 0 0 208.04 293.19;" xml:space="preserve">
<g>
	<path style="fill:#FAF5D4;" d="M149.08,293.19c-11.65-1.56-19.15-9.05-25.34-18.13c-1.5-2.2-1.82-5.2-2.69-7.83
		c-3.02-7.57-0.67-14.38,2.98-21c5.49-7.65,12.13-13.21,21.82-15.39c9.88-2.22,17.17,1.35,23.96,7.65
		c7.42,7.27,8.37,16.47,5.55,25.47c-1.82,5.8-7.51,9.09-14.17,9.43c-7.02,0.36-11.14-3.49-14.01-9.27
		c-2.81-5.65-0.9-10.29,3.22-14.44c-7.47,7.49-5.68,12.76,0.39,20.46c3.89,4.94,14.12,4.66,19.73,0.24
		c4.22-3.33,6.35-7.44,6.3-12.85c-0.03-2.77-0.6-5.69,0.94-8.32c3.64-1.71,3.1,2.49,5.15,3.6c3.15-2.6,4.01-6.28,3.87-10.08
		c-0.4-10.69-1.85-21.22-6.36-31.09c-7.59-16.6-17.41-31.83-28.44-46.31c-1.52-2-2.97-4.04-3.93-6.35
		c-0.45-1.09-1.26-2.64,1.06-2.84c8.38,8.76,16.92,17.37,25.09,26.31c7.27,7.96,14.21,16.23,21.16,24.48
		c12.27,14.55,15.52,31.03,10.29,49.26c-6.01,20.95-20.62,32.04-41.36,36.15c-0.43,0.09-0.79,0.56-1.18,0.85
		C158.42,293.19,153.75,293.19,149.08,293.19z"/>
	<path style="fill:#FFFCEC;" d="M149.09,156.14c0.92,2.4,1.33,5.19,2.84,7.13c11.06,14.17,20.6,29.24,28.5,45.41
		c5.37,10.99,7.19,22.62,7.64,34.58c0.19,5.04-2.1,9.15-5.62,12.66c-1.54-2.41-2.93-4.58-4.32-6.76c-3.27-3.12-5.03-7.39-8.17-10.62
		c-12-13.63-33.82-9.54-43.27,3.61c-0.96,1.34-2.07,2.58-2.77,4.1c-2.56,4.75-4.16,9.73-3.9,15.21c0.08,1.61,0.38,3.36-0.97,4.72
		c-8.72-0.67-17.81-0.01-26.09-2.29c-18.02-4.97-31.47-15.98-37.68-34.36c-2.23-6.6,1.63-17.71,7.42-22.26
		c1.32-1.04,2.2-2.66,3.28-4.01c5.07-2.45,10.24-1.65,15.38-0.4c3.68,0.89,7.01,2.81,10.26,3.73c-7.52-3.11-15.38-6.59-24.31-4.54
		c-0.83,0.19-1.6-0.29-2.23-0.87c-14.12-2.87-28.69-17.31-30.88-31.21c-1.8-11.44,7.41-25.66,19.68-24.85
		c7.04,2.19,11.64,7.9,17.31,12.06c1.3,0.95,2.15,2.44,4.16,3.54c-6.54-6.91-13.35-12.48-21.32-16.54
		c-14.28-14.42-27.13-29.83-37.5-47.47C7.1,80.69,2.17,63.4,0.32,45.43C-1.35,29.3,3.45,14.45,16.34,3.33
		c6.29-5.43,16.66-4.04,21.63,2.9c2.1,2.94,3.65,6.27,5.35,9.48c11.07,20.83,21.86,41.81,33.33,62.42
		c3.25,5.84,8.22,10.81,12.79,15.81c9.97,10.92,20.1,21.71,30.34,32.38C129.43,136.38,139.31,146.21,149.09,156.14z"/>
	<path style="fill:#EFE0B1;" d="M54.02,144.18c6.96,0.2,10.66,5.95,15.64,9.42c3.24,2.26,5.75,5.56,8.58,8.39
		c-0.41,0.44-0.81,0.88-1.22,1.33c-7.72-6.06-15.43-12.13-23.15-18.19C53.93,144.81,53.98,144.5,54.02,144.18z"/>
	<path style="fill:#EEDEAE;" d="M65.07,201.18c10.15-3.32,19.06,1.54,28.27,4.35c1.06,0.32,1.9,1.37,2.51,3.09
		c-9.84-3.15-19.39-7.08-29.87-5.36C65.68,202.57,65.38,201.88,65.07,201.18z"/>
	<path style="fill:#E7D19B;" d="M119.06,266.19c-0.52-7.36,0.16-14.48,4.08-20.98c1.2-0.71,2.03-0.68,2,1.02
		c-3.65,6.56-4.53,13.65-4.07,21C120.39,266.88,119.72,266.54,119.06,266.19z"/>
	<path style="fill:#E5CF99;" d="M170.98,238.23c2.39,3.64,4.77,7.29,7.16,10.93c-0.01,3-0.01,6-0.03,8.99
		c-0.08,13.88-15.12,19.38-24.08,15.85c-8.87-3.5-12.32-16.4-6.25-23.68c0.98-1.18,2.77-1.68,4.84-1.54
		c-0.62,0.73-1.24,1.46-1.86,2.18c-4.65,5.36-4.95,9.72-1.07,15.26c3.38,4.82,10.34,7.29,15.46,5.49c6.3-2.22,9.71-7.58,10.07-14.24
		c0.38-7.04-1.26-13.13-6.17-18.25C169.01,237.54,169.79,237.48,170.98,238.23z"/>
	<path style="fill:#EDDDAC;" d="M170.98,238.23c-0.64,0.33-1.29,0.66-1.93,0.98c-0.53-0.39-1.13-0.72-1.59-1.19
		c-12.26-12.49-31.3-5.22-39.06,4.53c-1.02,1.28-2.18,2.45-3.27,3.67c-0.67-0.34-1.33-0.68-2-1.02
		c7.25-12.27,18.14-17.51,32.11-15.93C161.53,230,167.09,232.87,170.98,238.23z"/>
</g>
</svg>
