<?xml version="1.0" encoding="utf-8"?>
<!-- Generator: Adobe Illustrator 24.0.0, SVG Export Plug-In . SVG Version: 6.00 Build 0)  -->
<svg version="1.1" id="Calque_1" xmlns="http://www.w3.org/2000/svg" xmlns:xlink="http://www.w3.org/1999/xlink" x="0px" y="0px"
	 viewBox="0 0 177.17 92.95" style="enable-background:new 0 0 177.17 92.95;" xml:space="preserve">
<g>
	<path style="fill:#954022;" d="M49.26,36.96c-2.65-0.81-5.47-1.27-7.89-2.52c-4.02-2.06-8.79-1.84-12.59-4.44
		c-0.23-0.16-0.65-0.09-0.97-0.03c-3.6,0.64-7.03-0.74-10.5-1.17C9.8,27.88,3.45,24.41,0.74,16.78C-0.25,14-0.32,10.79,0.96,7.8
		c1.35-3.15,3.66-5.12,6.97-5.76C9.25,1.79,9.93,1.17,10.29,0c1,0,2,0,3,0c0.12,0.28,0.21,0.8,0.35,0.82
		c7.72,0.73,13.66,4.2,17.94,10.81c1.14,1.77,2.99,3.23,5.03,4.47c4.37,2.66,8.41,5.8,13.46,7.27c1.76,0.51,3.5,1.58,4.19,3.6
		C56.46,32.29,55.02,35.17,49.26,36.96z"/>
	<path style="fill:#BD532B;" d="M49.26,36.96c-0.09-1.31,1.09-0.79,1.66-1.16c3.29-2.12,3.81-5.29,3.34-8.83
		c3.23-0.12,6.32,0.7,9.11,2.09c2.03,1.01,4.19,1.23,6.24,1.79c5.24,1.41,10.46,2.86,15.59,4.59c5.33,1.8,10.21,4.44,14.78,7.74
		c5.49,3.97,11.1,7.76,16.63,11.67c3.58,2.53,7.47,4.55,11.14,6.93c4.9,3.17,10.42,5.36,15.53,8.22c1.4,0.79,2.69,0.91,4.12,0.92
		c2.33,0.02,4.66,0.04,6.99-0.01c0.88-0.02,1.59,0.13,2.15,0.86c0.64,0.83,1.36,1.66-0.24,2.11c-0.5,0.14-0.91,0.29-1.22,0.66
		c-0.27,0.32-0.48,0.7-0.72,1.05c0.29,0.11,0.57,0.23,0.87,0.32c3.4,1.02,6.66,2.38,9.86,3.93c0.78,0.38,1.54,0.8,1.87,1.42
		c1.98,3.68,5.02,6.31,8.39,8.58c0.69,0.47,0.71,0.86,0.86,1.48c0.1,0.42,0.62,0.73,0.94,1.09c-0.43,0.16-0.85,0.41-1.3,0.47
		c-2.58,0.38-4.56-1.28-6.45-2.44c-2.14-1.31-4.53-2.59-6.02-4.82c-1.66-2.5-4.06-3.23-6.86-2.69c-2.52,0.48-4.93-0.35-6.95-1.31
		c-3.79-1.8-8-2.38-11.63-4.47c-1.26-0.73-1.77,0.29-2.4,0.95c-0.78,0.8-1.53,1.31-2.42,0.23c-0.55-0.67-1.48-0.31-2.1-1.02
		c-3.18-3.66-7.77-5.27-11.68-7.88c-5.32-3.55-11.44-5.56-16.69-9.3c-2.25-1.61-5.39-2.6-8.54-2.2c-0.58,0.07-1.12,0.48-0.86,0.87
		c1.42,2.15,0.49,5.06,2.35,7.02c0.55,0.58,1.02,1.23,2.04,1.14c1.32-0.12,2.71,0.21,3.98-0.07c3.46-0.77,5.16,1.98,7.48,3.49
		c0.17,0.11,0.18,0.66,0.07,0.93c-0.19,0.5-0.43,0.41-0.98,0.19c-3.55-1.42-7.13-2.69-10.95-0.62c-0.85,0.46-2.02,0.07-2.54-0.97
		c-1.45-2.9-4.03-5.25-4.45-8.62c-0.15-1.19-0.86-2.05-1.6-2.27c-2.78-0.82-4.16-3.23-5.79-5.14c-1.14-1.33-2.34-2.13-3.75-2.96
		c-3.2-1.89-6.45-3.61-9.91-5.03c-3.88-1.59-7.69-3.15-11.83-4.05c-2.18-0.47-4.52-1.46-6.05-3.36
		C50.76,37.73,49.17,38.51,49.26,36.96z"/>
</g>
</svg>
