<?xml version="1.0" encoding="utf-8"?>
<!-- Generator: Adobe Illustrator 24.0.0, SVG Export Plug-In . SVG Version: 6.00 Build 0)  -->
<svg version="1.1" id="Calque_1" xmlns="http://www.w3.org/2000/svg" xmlns:xlink="http://www.w3.org/1999/xlink" x="0px" y="0px"
	 viewBox="0 0 233.93 164" style="enable-background:new 0 0 233.93 164;" xml:space="preserve">
<g>
	<path d="M227.1,96.3c0.48,3.43,0.95,6.87,1.46,10.3c0.76,5.17,1,10.28-1.31,15.19c-1.15,2.45-2.68,4.23-5.57,3.62
		c-1.77,4.12-3.38,8.1-5.18,11.99c-3.61,7.82-10.5,10.73-18.41,12.01c-0.8,0.13-1.68,0.1-2.47-0.09c-1.59-0.39-2.33-2.18-1.46-3.55
		c0.43-0.68,1.1-1.25,1.74-1.75c2.96-2.32,4.06-5.17,2.62-9.02c-1.15,2.36-2.24,4.57-3.32,6.79c-2.03,4.2-5.14,7.36-9.22,9.55
		c-7.5,4.02-15.19,7.57-23.55,9.5c-5.71,1.32-6.98,1.16-11.78-2.28c-4.43,1.75-9.36,1.92-14.03,3.81
		c-6.16,2.5-12.79,1.88-19.12-0.15c-6.26-2.01-11.78-5.42-16.92-9.47c-8.05-6.35-15.06-13.61-20.18-23.42
		c-0.57,2.89-0.94,5.07-1.45,7.22c-1.22,5.19-4.24,7.33-9.46,6.5c-13.82-2.21-24.04-9.23-29.7-22.36
		c-4.19-9.73-7.02-19.75-6.95-30.44c0-0.66-0.12-1.31-0.25-2.67c-3.77,6.31-8.1,11.58-9.23,18.72c-2.7-0.76-3.59-2.27-4.48-3.85
		C15.44,96.4,13.83,89.8,12.85,83c-1.25-8.62-1.05-17.25-0.26-26.89c-2.03,2.32-3.49,3.99-4.96,5.67c-0.77,0.88-1.45,1.85-2.32,2.61
		c-1.8,1.58-3.67,1.25-4.23-1.01c-0.68-2.71-1.3-5.63-1-8.35c0.56-5.11,1.28-10.31,2.86-15.17C7.21,26.79,13.27,14.6,22.81,4.42
		c2.09-2.23,4.41-3.79,8.1-4.42c-0.9,3.93-3.17,7.22-1.46,11.13c1.93-0.07,2.85-1.79,4.05-2.96c1.91-1.85,3.64-3.9,5.57-5.73
		c1.73-1.64,3.69-2.9,6.81-1.74c0.27,1.66,0.53,3.58,0.89,5.48c1.43,7.51,2.66,15.07,4.46,22.49c0.71,2.93,2.68,5.56,4.24,8.65
		c2.94-3.89,4.58-9.03,10.96-7.89c1.94,5.67,3.7,11.52,5.96,17.18c2.21,5.53,4.93,10.85,7.73,16.93c1.04-1.51,1.65-2.37,2.22-3.25
		c0.81-1.25,1.45-2.65,2.43-3.74c1.62-1.78,4.61-1.88,6.09,1.02c3.72,7.25,7.89,14.28,11.92,21.37c1.06,1.86,2.31,3.62,3.75,5.87
		c1.11-1.24,1.98-2.15,2.77-3.11c4.15-5.03,7.9-4.45,10.09,1.8c1.15,3.28,1.74,6.76,2.64,10.13c0.24,0.91,0.67,1.77,1.2,3.16
		c2.05-1.49,3.79-2.71,5.48-3.98c4-3.01,7.97-6.05,11.96-9.05c0.93-0.7,1.87-1.44,2.91-1.93c2.27-1.07,3.98-0.17,4.33,2.33
		c0.28,1.93,0.27,3.9,0.42,6.24c6.31-0.91,12.07-2.1,17.46-4.88c4.88-2.51,8.75-5.97,11.4-10.79c0.64-1.17,1.39-2.27,2.1-3.4
		c0.83-1.33,1.76-2.58,3.58-1.92c1.68,0.6,2.07,2.13,2,3.67c-0.09,1.95-0.42,3.89-0.72,6.36c3.05-1.33,4.98-3.32,6.38-5.68
		c1.35-2.27,2.33-4.77,3.38-7.21c0.46-1.06,0.63-2.25,1.06-3.33c2.01-5.04,6.03-6.53,10.71-3.94c4.74,2.63,8.76,6.15,11.84,10.58
		c4.37,6.29,8.59,12.7,12.65,19.2c1.57,2.51,2.68,5.36,3.67,8.16c0.28,0.81-0.35,2.21-1.01,2.94c-0.28,0.31-1.85-0.21-2.58-0.72
		c-1.21-0.84-2.21-1.98-3.3-3C226.97,96.44,227.1,96.3,227.1,96.3z"/>
	<path style="fill:#FFFFFF;" d="M227.1,96.3c-0.19-0.08-0.39-0.15-0.58-0.23c0.07,0.02,0.17,0.01,0.21,0.06
		c0.1,0.09,0.17,0.21,0.25,0.32L227.1,96.3z"/>
</g>
</svg>
