<?xml version="1.0" encoding="utf-8"?>
<!-- Generator: Adobe Illustrator 24.0.0, SVG Export Plug-In . SVG Version: 6.00 Build 0)  -->
<svg version="1.1" id="Calque_1" xmlns="http://www.w3.org/2000/svg" xmlns:xlink="http://www.w3.org/1999/xlink" x="0px" y="0px"
	 viewBox="0 0 189.33 204.41" style="enable-background:new 0 0 189.33 204.41;" xml:space="preserve">
<g>
	<path style="fill:#C7D0D6;" d="M163.23,42.24c1.82,6.87,3.5,13.72,3.04,20.96c-0.28,4.48-0.74,8.82-2.48,13.03
		c-1.22,2.94-1.99,6.06-2.99,9.2c-3.75-0.61-3.22-3.36-4.07-6.43c-2.39,4.6-4.44,8.52-6.47,12.44c-3.24,6.25-7.77,11.41-13.18,15.88
		c-7.63,6.3-14.02,13.68-18.17,22.73c-2.99,6.51-2.27,13.31-0.31,19.89c2.02,6.78,4.54,13.41,7,20.05c0.55,1.48,1.73,2.73,2.66,4.14
		c7.49-3.5,14.64-6.84,21.75-10.16c1.05-8.69-1.94-15.06-9.11-19.65c-2.01-1.29-3.63-1.32-4.63,0.54c-1.54,2.87-2.89,5.93-3.64,9.08
		c-0.28,1.18,1.32,2.81,2.22,4.56c1.63-1.18,3.04-2.19,4.57-3.29c0.54,3.67-0.42,5.73-4.33,9.27c-3.61-5.33-7.17-10.61-10.85-16.05
		c3.35-4.23,6.66-8.52,10.11-12.7c1.81-2.19,4.13-1.89,6.32-0.63c5.3,3.06,10.61,6.11,15.76,9.43c0.99,0.64,1.65,2.42,1.72,3.72
		c0.21,4.32-0.04,8.67,0.11,13c0.11,3.12,0.56,6.22,0.9,9.32c0.31,2.8-0.14,4.93-2.83,6.8c-9.06,6.31-16.75,14.06-22.82,23.35
		c-2.85,4.36-3.49,4.47-8,2.29c-8.92-4.32-18.27-7.93-26.67-13.09c-12.24-7.51-25.01-14.46-34.91-25.29
		c-1.33-1.46-2.42-3.79-5.91-2.88c0.62,2.34,1.22,4.6,1.88,7.08c-2.1,0.86-3.99,0.76-5.73-1.02c-3.45-3.54-7.24-6.8-10.33-10.63
		c-3.2-3.97-5.78-8.44-8.57-12.74c-1.5-2.32-1.43-2.36-4.91-2.86c0.15,1.54,0.29,2.98,0.42,4.43c-4.92-5.88-8.58-12.25-10.55-19.43
		c-3.85-14.09-3.19-28.56-2.95-42.94c0.07-4.23,1.41-8.42,1.72-12.66c0.14-1.92,1.82-4.81-1.82-5.71c-1.5-1.7-0.66-3.49-0.07-5.18
		c2.7-7.74,6.66-14.9,10.39-22.16c0.72-1.41,1.46-3.14,3.67-2.68c0.51,1.85,1.02,3.69,1.52,5.5c1.65-0.2,2.73-0.34,3.72-0.46
		c0.97,3.27,1.87,6.33,3.06,10.33c2.1-2.01,3.65-3.49,5.73-5.47c1.17,0.76,2.7,1.61,4.06,2.67c6.19,4.84,13.46,6.67,21.05,7.35
		c5.62,0.5,11.25,0.18,16.58-1.98c4.3-1.73,8.65-3.39,10.99-7.96c0.73-1.42,2.09-2.52,3.44-4.08c1.7,2.88,0.14,6.92,4.14,9.2
		c0.82-1.18,1.68-2.42,2.56-3.64c2.4-3.34,4.73-6.74,7.27-9.97c0.62-0.79,1.93-1.05,2.92-1.55c2.1,1.98,0.8,4.79,1.86,7.49
		c4.91-3.49,9.67-4.22,13.71,1.82c2.68-3.85,6.15-3.66,9.93-2.98c3.95,0.71,7.95,0.4,11.94-0.22
		C158.19,40.92,160.9,40.2,163.23,42.24z"/>
	<path style="fill:#E6ECF0;" d="M163.23,42.24c-5.44,0.33-10.88,0.86-16.32,0.93c-3.25,0.04-6.51-0.65-9.89-1.03
		c-0.7,1.79-1.31,3.38-2.27,5.84c-1.49-1.53-2.96-2.38-3.31-3.55c-0.61-2.04-1.38-3.29-3.68-3.19c-2.27,0.1-4.68-0.52-5.88,2.47
		c-0.41,1.04-1.74,1.7-3.71,2.22c0-3.58,0-7.15,0-10.73l-0.01,0.03c0.68-0.51,0.43-1.49,1.03-2.03c1.47-2.93,2.89-5.88,4.45-8.77
		c1.09-2.02,2.38-3.94,3.97-6.53c-2.25-0.86-4.13-1.58-6.15-2.35c-0.57-1.97,0.41-2.87,2.36-3.34c3.19-0.77,6.44-1.45,9.48-2.62
		c4.13-1.59,8.03-3.78,12.14-5.4c3.82-1.5,7.73-2.89,11.72-3.81c6.01-1.39,10.89,1.36,15.58,4.81c3.42,2.52,7.11,4.67,11.32,7.39
		c-0.03-0.27,0.35,0.64,0.07,0.95c-2.5,2.76-0.75,5.25,0.11,7.98c1.83,5.78,3.41,11.65,4.9,17.54c0.39,1.52,0.06,3.22,0.06,6.12
		c-2.3-1.55-3.64-2.46-5.24-3.54c-0.62,0.98-1.4,2.24-2.66,4.25c-1.11-2.09-1.9-3.59-2.84-5.36
		C173.54,41.07,168.39,41.65,163.23,42.24z"/>
	<path style="fill:#E7ECF0;" d="M31.15,35.27c-0.52,0.38-1.29,0.65-1.53,1.16c-4.12,8.78-8.19,17.58-12.21,26.4
		c-0.32,0.71-0.18,1.62-0.25,2.44c-3.7,5.48-4.34,11.97-5.96,18.13c-0.65,2.48-1,5.04-1.61,8.26C6.92,88.92,6.3,86.09,6.2,83.2
		C5.79,71.92,6.18,60.7,9.09,49.71c0.07-0.26-0.17-0.61-0.39-1.31c-4.15,3.61-4.89,9.06-8.05,13.32c-1.54-3.85,0.07-7.42,0.6-10.9
		c1.12-7.31,2.26-14.74,7.02-20.84c2.34-3,4.84-5.88,7.38-8.71c3.06-3.41,6.25-6.71,9.74-10.44c3.16,4,1.12,8.64,2.66,12.54
		C29.54,27.16,30.15,31.29,31.15,35.27z"/>
	<path style="fill:#C7D0D6;" d="M119.2,33.2c-0.34,0.68-0.69,1.36-1.03,2.03C118.51,34.55,118.85,33.87,119.2,33.2z"/>
</g>
</svg>
