<?xml version="1.0" encoding="utf-8"?>
<!-- Generator: Adobe Illustrator 24.0.0, SVG Export Plug-In . SVG Version: 6.00 Build 0)  -->
<svg version="1.1" id="Calque_1" xmlns="http://www.w3.org/2000/svg" xmlns:xlink="http://www.w3.org/1999/xlink" x="0px" y="0px"
	 viewBox="0 0 301.13 111.61" style="enable-background:new 0 0 301.13 111.61;" xml:space="preserve">
<g>
	<path style="fill:#281414;" d="M301.13,93.7c-1.26,5.42-2.23,10.93-4,16.17c-0.37,1.1-3.72,1.18-5.69,1.74
		c-19.4-7.85-40.18-9.69-60.4-13.96c-9.82-2.08-18.03,1.75-26.05,6.14c-5.19,2.85-10.24,3.47-15.77,1.86
		c-10.29-3.01-20.59-6.01-30.88-9.02c-1.31-1.63-0.82-3.45-0.6-5.27c0.56-4.46,1.25-8.91,1.7-13.39c0.82-8.17-0.8-11.17-8.46-13.55
		c-9.37-2.92-18.62-6.3-28.31-8.14c-11.14-2.11-21.99-5.44-32.91-8.45c-5.01-1.38-10.15-1.88-15.18-3
		c-2.96-0.66-4.62,0.95-5.99,3.34c-3.04,5.31-4.21,11.2-5.68,17.01c-0.46,1.82-0.49,4.3-3.57,3.64c-16.28-4.61-32.59-9.1-48.8-13.95
		c-2.25-0.67-4.61-2.72-5.83-4.77c-9.9-16.66-2.89-37.37,9-46.97c3.13-2.53,9.12-3.82,13.01-2.77
		c60.5,16.44,120.87,33.35,181.27,50.16c7.04,1.96,10.71,7.65,14.06,13.41c3.64,6.27,9.41,10.29,15.68,12.27
		c14.38,4.55,29.15,7.92,43.79,11.63c4.58,1.16,9.31,1.73,13.88,2.92C297.42,91.3,299.22,92.7,301.13,93.7z"/>
	<path style="fill:#BAA893;" d="M59.34,68.83c0.68-1.18,1.57-2.29,2-3.55c2.06-5.95,3.92-11.97,6-17.92c1.36-3.9,3.7-5.03,8.09-3.88
		c24.06,6.31,48.29,11.98,72.31,18.44c12.24,3.29,14.41,4.5,12.81,18.92c-0.59,5.28-1.46,10.53-2.21,15.8
		c-14.53-4.01-29.08-7.97-43.59-12.05C96.26,79.38,77.8,74.08,59.34,68.83z"/>
	<path style="fill:#401717;" d="M178.18,51.08c6.4,0.64,12.8,1.21,19.19,1.97c2.62,0.31,5.18,1.07,7.77,1.59
		c8.76,1.76,14.29,7.87,15.4,16.53c0.16,1.28,1.76,2.51,2.93,3.48c1.53,1.26,3.29,2.22,5.69,3.79c-6.43,1.37-17.17-1.95-19.2-6.21
		c-5.33-11.16-15.32-14.95-26.13-17.78c-1.96-0.51-3.92-1.04-5.88-1.56C178.02,52.29,178.1,51.69,178.18,51.08z"/>
	<path style="fill:#401717;" d="M29.64,19.87c-3.98-2.9-7.16-2.79-10.27,0.71c-0.58,0.65-4.21-0.07-4.91-1.14
		c-1.94-2.99,0.12-7.7,3.94-9.91c0.62,1.26,1.22,2.5,1.81,3.69C29.18,11.75,30.77,12.72,29.64,19.87z"/>
</g>
</svg>
