<?xml version="1.0" encoding="utf-8"?>
<!-- Generator: Adobe Illustrator 24.0.0, SVG Export Plug-In . SVG Version: 6.00 Build 0)  -->
<svg version="1.1" id="Calque_1" xmlns="http://www.w3.org/2000/svg" xmlns:xlink="http://www.w3.org/1999/xlink" x="0px" y="0px"
	 viewBox="0 0 453.94 71.99" style="enable-background:new 0 0 453.94 71.99;" xml:space="preserve">
<g>
	<path style="fill:#8F6247;" d="M116.01,18.8c-1.15,0.09-2.31,0.26-3.46,0.27c-32.22,0.22-64.44,0.43-96.66,0.64
		c-0.66,0-1.33,0-1.99,0C8.73,19.71,3.66,19.43,0,15c0-1.33,0-2.67,0-4c1.78-4.44,5.42-6.04,9.84-6.45
		c1.33-0.12,2.66-0.14,3.99-0.15c1-0.01,2-0.02,3-0.01c67.24,0.72,134.48-0.6,201.71-1.33c50.1-0.54,100.19-0.1,150.28-0.66
		c2.83-0.03,5.65-0.3,8.47-0.22c3.53,0.79,2.21,3.15,1.41,5.02c-1.12,2.6-1.42,5.07-0.07,7.63c0.19,1.1,0.22,2.15-0.84,2.88
		c-1.29-0.12-2.58-0.24-3.87-0.35c-1.78-1.44-3.85-1.8-6.07-1.81c-37.11-0.28-74.23-0.71-111.31,0.19
		c-46.74,1.13-93.47-0.06-140.41,1.1C115.84,17.23,116.55,18.1,116.01,18.8z"/>
	<path style="fill:#C4BAB5;" d="M378.53,3.56c1.48-1.19,2.95-2.37,4.43-3.56c0.67,0,1.33,0,2,0c0.98,0.99,2.13,1.57,3.56,1.51
		c6.83-0.31,13.59,1.35,20.39,1.06c16.23-0.69,31.67,12.37,36.45,26.93c0.74,2.24,1.03,4.55,0.95,6.88
		c-0.11,3.17,0.09,5.98,3.99,6.92c1.52,0.36,2.54,1.71,2.37,3.41c-0.23,2.25-1.49,3.62-3.87,3.75c-0.78-0.21-1.26-0.76-1.55-1.48
		c-2.29-2.75-4.34-2.54-6.14,0.52c-0.49,1.43-1.35,2.67-2.11,3.97c-0.2,0.38-0.42,0.74-0.63,1.11c-0.3,0.58-0.6,1.17-0.9,1.75
		c-1.23,2.46-1.93,3.51-3.99,5.12c-1.64,1.28-4.87,2.7-5.5,4.64c-2.48,2.67-8.61,4.43-8.61,4.43c-0.95-0.37-1.41-1.21-1.94-1.99
		c-5.07-0.49-10.11-1.26-15.22-0.94c-1.08,0.48-2.21,0.67-3.38,0.58c-1.22-5.18,0.01-7.66,4.72-8.45c4.7-0.79,9.52-0.93,14.22-1.72
		c7.74-1.3,11.97-6.94,14.38-13.62c2.39-6.63,1.38-13.21-4.36-18.13c-3.36-2.88-7.05-5.37-10.6-8.04c-0.71-0.74-1.69-1.07-2.51-1.64
		c-1.6-1.06-3.39-1.19-5.25-1.25c-9.46-0.31-18.95,0.74-28.39-0.68c-0.43-0.06-0.86,0.44-1.27,0.74c-0.74,0.28-1.43,0.17-2.08-0.24
		c-2.29-2.56-2.1-5.24-0.53-8.08C377.76,5.98,378.08,4.73,378.53,3.56z"/>
	<path style="fill:#BEB4AF;" d="M422.16,69.53c-1.23,0.07-4.42,1.71-5.64,1.78l-3.57,0.68c-3.67,0-9.01,0.77-11,0
		c-1.99-0.77-2.09-2.54-3.13-3.82c1.03-0.39,2.05-0.78,3.08-1.17c5.27,1.68,10.72,0.23,16.04,0.98
		C418.27,68.63,421.83,68.89,422.16,69.53z"/>
	<path style="fill:#7B5036;" d="M116.01,18.8c-0.98-0.87-1.97-1.73-3.29-2.89c2.56-0.31,5.1-0.87,7.64-0.87
		c41.64-0.06,83.28,0.08,124.92-0.09c40.93-0.17,81.85-0.62,122.78-0.97c1.77-0.02,3.54-0.31,5.63-0.5
		c0.08,1.33,0.16,2.61,0.23,3.89c-7.97,0.08-15.94,0.15-23.91,0.23c-8.7-0.89-17.39-1.15-26.07,0.15
		c-17.32,0.08-34.65,0.16-51.97,0.24c-32.54,0.04-65.09,0-97.63,0.03c-2.14,0-4.33-0.34-6.39,0.59
		C150.63,18.67,133.32,18.74,116.01,18.8z"/>
	<path style="fill:#8F6247;" d="M167.94,18.6c1.72-0.53,3.43-1.51,5.15-1.52c23.1-0.1,46.2-0.07,69.29-0.08
		c8.31,0,16.62-0.05,24.93,0.04c1.55,0.02,3.1,0.6,4.65,0.93c-0.98,0.13-1.95,0.36-2.93,0.37c-32.55,0.2-65.1,0.38-97.65,0.54
		C170.24,18.9,169.09,18.7,167.94,18.6z"/>
	<path style="fill:#BAACA3;" d="M415.95,16.09c0.41,0.71,0.83,1.42,1.24,2.13c-11.26,0.42-22.51,0.93-33.78,1.17
		c-1.86,0.04-3.75-1.09-5.63-1.68c-0.03-0.86-0.06-1.71-0.09-2.57c0.75-0.05,1.51-0.09,2.26-0.14c10.25-0.02,20.49-0.01,30.74,0.01
		C412.51,15.02,414.33,15.08,415.95,16.09z"/>
	<path style="fill:#8F6247;" d="M323.93,17.74c0.51-0.56,1.02-1.6,1.54-1.6c7.78-0.08,15.57-0.03,23.35,0.08
		c0.4,0.01,0.79,0.9,1.18,1.38C341.31,17.64,332.62,17.69,323.93,17.74z"/>
	<path style="fill:#7C5237;" d="M9.56,16.49c31.18,0,62.36,0,93.54,0v1.27c-15.95,0.54-77.57,0.71-93.53-0.04
		C9.56,17.31,9.56,16.9,9.56,16.49z"/>
	<path style="fill:#D8CCC1;" d="M415.95,16.09c-10.08-0.02-20.17,0.02-30.25-0.09c-1.92-0.02-3.83-0.64-5.75-0.99
		c-0.3-1.13-0.61-2.25-0.91-3.38c0.26-0.26,0.53-0.51,0.79-0.77c1.88,3.82,5.12,3.13,8.15,3.13c7.25,0,14.51-0.15,21.75,0.11
		C411.82,14.17,413.88,15.39,415.95,16.09z"/>
	<path style="fill:#B8AFAA;" d="M445.21,53.94c-5.75,4.05-11.49,8.1-17.24,12.15c0.77-1.42,1.88-2.58,2.91-3.78
		c2.06-2.4,5.87-3.85,8.09-6.13c0.37-0.3,2.79-1.35,3.12-1.69L445.21,53.94C445.56,53.62,444.74,53.99,445.21,53.94
		C445.21,53.94,443.33,52.27,445.21,53.94z"/>
	<path style="fill:#D4C9BF;" d="M417.94,67.98c-4.24,0.33-8.48,0.82-12.73,0.9c-1.09,0.02-2.21-1.22-3.31-1.88
		c1.18-0.57,2.95-1.96,3.46-1.59c3.55,2.53,7.1,1.69,10.79,0.7C417.57,65.73,418.95,65.83,417.94,67.98z"/>
	<path style="fill:#B6ACA6;" d="M438.97,54c-0.35-0.01-0.69-0.01-1.04-0.02c0.68-1.29,1.36-2.58,2.04-3.87
		c1.85-3.73,4.65-3.9,7.97-2.11c0.11,0.73,0.22,1.47,0.33,2.2l-0.14,0.02C444.85,50.95,442.37,53.58,438.97,54z"/>
	<path style="fill:#D2C7BD;" d="M447.94,48c-2.89-0.19-5.75-0.26-7.97,2.11c0.71-3.97,5.46-5.79,8.58-3.26
		C448.61,46.91,448.15,47.61,447.94,48z"/>
	<path style="fill:#B6ACA6;" d="M437.94,53.98c-0.33,0.34-0.67,0.68-1,1.01C437.27,54.66,437.61,54.32,437.94,53.98z"/>
	<path style="fill:#C4BAB5;" d="M437.97,54c2.92-4.42,9.67-6.47,13.86-4.97c-0.97,1.24-5.65,3.67-6.62,4.91
		c-1.62,0.02-9.09,5.07-10.7,5.08C434.04,59.03,437.97,54,437.97,54z"/>
</g>
</svg>
