<?xml version="1.0" encoding="utf-8"?>
<!-- Generator: Adobe Illustrator 24.0.0, SVG Export Plug-In . SVG Version: 6.00 Build 0)  -->
<svg version="1.1" id="Calque_1" xmlns="http://www.w3.org/2000/svg" xmlns:xlink="http://www.w3.org/1999/xlink" x="0px" y="0px"
	 viewBox="0 0 152.13 238" style="enable-background:new 0 0 152.13 238;" xml:space="preserve">
<g>
	<path style="fill:#A1D8E8;" d="M6.1,204.99c-4.63-2.75-6.39-6.87-6.03-12.14c0.17-2.47-0.32-5.03,0.12-7.44
		c0.53-2.9,0.28-6.2,2.91-8.42c5.57-2.78,9.13-8.72,15.71-9.96c1.13-0.21,2.05-1.14,2.74-2.08c2.09-2.89,4.78-4.47,8.44-4.42
		c1.88,0.03,3.7-0.67,4.96-2.05c3.26-3.56,7.4-4.21,11.85-3.82c5.88,0.52,11.54-1.06,17.3-1.67c2.06-0.74,2.86,1.34,4.07,2.11
		c4.09,2.62,7.13,6.35,8.53,11.08c0.54,1.82,0.29,3.86,0.4,5.81c-6.67,3.06-13.96,3.99-20.94,5.96
		c-17.23,4.86-32.45,13.2-45.8,25.05C9.14,204.08,8.08,205.54,6.1,204.99z"/>
	<path style="fill:#BDE2EE;" d="M23.1,85.01c-0.67-2.06-1.57-4.07-1.94-6.18c-0.55-3.16-0.46-6.43-1.11-9.56
		c-1.99-9.66-0.47-19.4-0.94-29.09c-0.18-3.78,1.49-7.14,3.5-10.02c4.24-6.07,12.56-5.86,17.3,0.35c2.25,2.95,4.09,6.29,6.11,9.45
		c2.98,4.69,5.43,9.73,8.07,14.64c1.47,2.72,2.71,5.58,4.37,8.17c0.73,1.14,0.49,2.16,0.63,3.25c-1.05,1.3-2.5,2.14-3.65,3.37
		c-3.26,3.51-4.72,3.45-9.02-0.11c-0.3,2.14-0.67,4.11-2.17,5.66c-1.81,1.87-4.19,0.58-5.84,1.15c-3.52,1.2-7.32,2.72-9.49,6.3
		C27.59,84.57,26.25,86.82,23.1,85.01z"/>
	<path style="fill:#A1D8E8;" d="M23.1,85.01c3.31-0.23,4.56-1.22,5-3.92c0.42-2.61,0.75-2.92,3.27-3.07c0.5-0.03,1,0.02,1.49-0.01
		c0.31-0.02,0.61-0.11,1.2-0.23c0.32-0.68,0.7-1.53,1.13-2.34c0.43-0.82,0.92-1.61,1.63-2.81c1.37,1.17,2.68,2.28,4.26,3.63
		c1.27-1.14,2.57-2.31,4-3.58c0-1.74,0-3.51,0-6.16c1.08,1.08,1.68,1.68,2.28,2.27c0.7,0.7,1.41,1.41,2.38,2.38
		c1-0.2,2.35-0.19,3.39-0.76c1.47-0.8,2.38-2.19,1.88-4.38c1.53,0,2.81,0,4.09,0c2.51,2.37,3.52,5.71,4.79,8.67
		c0.96,2.25,2.29,4.39,3.01,6.71c1.19,3.83,3.97,7.25,3.2,11.62c-6.3,2.32-12.88,3.88-18.66,7.61c-3.34,2.15-6.65,4.3-9.79,6.72
		c-1.61,1.24-3,3.23-5.54,2.67c-0.83,0-1.66,0-2.46,0C28.3,102.43,25.63,93.75,23.1,85.01z"/>
	<path style="fill:#BDE2EE;" d="M115.08,35.01c0.15-1.08,0.11-2.09,0.6-3.24c2.99-6.89,6.18-13.68,8.54-20.86
		c1.26-3.82,3.22-7.63,7.24-9.9c3.39-1.91,7.77-1.14,9.6,2.41c2.68,5.22,4.84,10.61,6.09,16.41c0.79,3.7,1.34,7.44,2.14,11.09
		c0.61,2.75,0.53,5.4,0.78,8.1c-3.21,4.81-5.35,5.04-10.15,2.17c-4.65-2.78-9.9-3.84-15.34-3.31
		C120.97,38.23,117.68,37.86,115.08,35.01z"/>
	<path style="fill:#A1D8E8;" d="M115.08,35.01c1.35,0.33,2.85,0.39,4.01,1.05c3.05,1.75,5.69,1.07,8.29-0.84
		c0.23-0.17,0.6-0.15,1.1-0.26c0.86,1.04,1.79,2.18,2.73,3.32c2.19-0.34,4.03-0.62,5.74-0.88c1.54,1.56,3.24,3.29,4.95,5.03
		c4,0.91,5.84-1.88,8.17-3.42c0.33,1.86,0.72,3.71,0.98,5.58c0.24,1.71-0.55,3.62,1.02,5.07c0,4.16,0.19,8.33-0.12,12.47
		c-0.08,1.15-0.56,3.31-2.88,2.88c-5.34,0.07-10.27-2.12-15.52-2.74c-7.73-0.91-15.38-2.18-23.16-0.63
		c-1.14,0.23-2.33,0.2-3.31-0.63c-0.15-3.82,1.34-7.3,2.39-10.85c1.48-4.97,3.16-9.87,4.79-14.79
		C114.33,35.18,114.8,35.13,115.08,35.01z"/>
	<path style="fill:#BDE3EF;" d="M64.09,153c-0.96,0.67-1.92,1.91-2.87,1.9c-3.42-0.05-6.57,1.54-10.08,1.19
		c-3.79-0.38-7.65-0.09-11.7-0.09c-1.04,1.08-2.18,2.28-3.33,3.48c-1.76,1.84-3.88,2.74-6.45,2.52c-2.65-0.22-5-0.24-6.25,3.01
		c-0.6,1.56-2.47,2.64-3.76,3.93c-0.33,0.02-0.65,0.07-0.98,0.05c-2.65-0.18-4.87-0.16-6.27,3.01c-1.1,2.48-6.51,4.8-9.31,5
		c-0.2-2.13,0.26-4.05,1.38-5.93c2.62-4.39,5.12-8.86,7.61-13.33c1.1-1.98,3.16-3.05,4.25-5.22c0.92-1.83,3.2-3.11,5.1-4.26
		c1.69-1.02,3.64-1.94,5.56-2.13c1.64-0.16,3.01-1.07,4.57-1.09c1.63-0.02,3.19-0.02,4.6-1.01c0.22-0.16,0.67-0.09,0.98-0.01
		c5.17,1.31,10.65,1.04,15.66,3.18c3.11,1.33,6.3,2.47,9.39,3.85C62.96,151.39,63.46,152.33,64.09,153z"/>
	<path style="fill:#FAF8DA;" d="M45.09,203.99c-3,0-6,0-9,0c-4.04,0.47-7.56-1.01-10.8-3.13c-3.47-2.27-3.65-4.53-0.55-7.15
		c9.52-8.06,20.59-12.85,32.85-14.79c5.46-0.86,7.32,1.27,6.58,6.84c-0.36,2.7-1.28,5.15-3.09,7.23c-2.63,3.36-5.41,6.56-9.2,8.66
		c-0.51,0.28-1.19,0.23-1.8,0.33c-1.44-0.66-1.62-2.45-2.88-3.37C45.55,200.13,46.91,202.7,45.09,203.99z"/>
	<path style="fill:#56C0CF;" d="M61.09,193c0.76-4.17,2.8-8.14,1.79-12.77c-5.04-1.22-9.83,0.97-14.59,2.21
		c-9.61,2.5-17.67,8.02-25.5,14.31c1.82,3.11,4.75,4.19,7.68,5.25c1.87,0.68,3.76,1.34,5.63,2c-0.66,1.89-3.06,0.41-3.88,2
		c-3.07-0.1-5.73,1.71-8.67,1.93c-3.64,0.27-7.34,0.27-10.98-0.01c-2.38-0.18-5.18-0.07-6.47-2.93c1.34-1.17,2.73-2.29,4.01-3.53
		c5.28-5.08,11.44-8.91,17.67-12.65c2.66-1.6,5.15-3.64,8-4.73c6.74-2.57,13.11-6.29,20.47-7.09c5.15-2.65,11.09-2.68,16.39-4.92
		c1.27-0.54,2.95-0.08,4.45-0.08c0.75,5.22-2.35,8.97-5.22,12.6C69.01,188.21,65.4,191.12,61.09,193z"/>
	<path style="fill:#2B595E;" d="M45.09,203.99c0-2.59,0-5.19,0-7.77c3.35,0.03,3.37,0.01,4,2.25c0.33,1.18,0.67,2.35,1,3.53
		c1.1,4.67,1.74,9.47,4,13.81c-0.8,2.09,1.22,2.98,2.1,4.08c1.93,2.43,2.93,5.64,6.05,7.16c2.23,1.09,4.09,3.24,6.39,3.79
		c2.83,0.67,5.95,0.16,8.93,0.16c3.41,3.48,3.41,3.48,0.04,7.01c-1.9,0-3.88-0.02-5.87,0c-6.2,0.08-11.16-2.7-15.74-6.57
		c-4.68-3.95-6.84-9.34-8.72-14.85c-0.64-1.89-0.55-4.02-0.97-6.05C45.85,208.4,45.55,206.17,45.09,203.99z"/>
	<path style="fill:#FAF8DA;" d="M139.08,73.01c-3.1,1.91-5.92,4.53-10,4c-1.31-0.8-0.78-2.79-2.24-3.5c-1.4,0.33-1.51,2.05-2.76,2.5
		c-3.15-0.26-4.32-2.93-5.98-4.98c-0.46-0.57-0.69-1.34-1.02-2.02c-0.48-0.77-0.82-1.6-1.09-2.46c0.27-5.09,1.1-5.85,5.77-5.73
		c5.32,0.14,10.56,0.78,15.73,2.09c2.57,0.65,4.85,1.51,5.42,4.39C143.54,70.4,141.29,71.73,139.08,73.01z"/>
	<path style="fill:#315C61;" d="M124.08,76.01c0.44-1.62,0.87-3.24,1.31-4.85c3.26,0.2,3.56,0.42,3.68,2.9
		c0.05,0.98,0.01,1.96,0.01,2.95c0.11,2.73-1.46,5.19-1.07,8.05c0.35,2.6-0.08,5.3,0.11,7.94c0.33,4.56,1.74,8.57,6.07,11.06
		c1.51,0.86,2.69,2.29,4.05,3.48c-0.5,1.14-0.92,2.11-1.38,3.17c-3.46,1.1-5.89-0.61-8.49-2.79c-4.72-3.95-6.39-8.96-6.29-14.84
		c0.01-0.83,0.06-1.66-0.01-2.49C121.67,85.58,122.58,80.76,124.08,76.01z"/>
	<path style="fill:#F9F7DA;" d="M66.09,104.01c0.36,3.4-0.34,6.43-3.18,8.62c-0.44,0.34-1.21,0.26-1.82,0.38
		c-1.55,0.23-2.94,0.79-4,2c-3.24,0.4-6.15-0.66-9-2c-6.03-3.74-6.13-5.77-0.43-9.99c3.06-2.26,6.41-4.04,9.89-5.51
		C64.13,94.73,66.63,96.7,66.09,104.01z"/>
	<path style="fill:#2E5A60;" d="M57.09,115c-0.01-1.7-0.3-3.56,2.23-4.04c0.56,0.65,1.17,1.34,1.77,2.04
		c-0.65,5.4,1.51,10.32,3.17,15.17c1.15,3.36,5.06,4.51,8.28,5.79c1.43,0.57,3.08,0.58,4.55,1.08c1.15,0.39,2.3,1,3.23,1.78
		c0.5,0.42,0.89,1.53,0.69,2.11c-0.27,0.79-1.07,1.89-1.76,1.99c-5.26,0.72-10.1-0.7-14.37-3.73c-1.87-1.33-3.39-3.19-4.95-4.92
		c-0.48-0.53-0.59-1.4-0.83-2.13c-0.68-2.05-1.53-4.07-1.94-6.17c-0.31-1.6-0.06-3.31-0.06-4.98
		C57.09,117.67,57.09,116.34,57.09,115z"/>
	<path style="fill:#57C0CF;" d="M139.08,73.01c0.7-0.87,1.4-1.74,2.11-2.61c1.67-2.04,1.2-4.08-1.19-5.4
		c-1.13-0.62-2.48-0.65-3.53-1.1c-5.24-2.24-10.7-1.86-16.14-1.89c-0.97-0.01-1.95,0-3.25,0c0,1.76,0,3.38,0,5
		c-0.38,0.29-0.39,0.94-1,1c-1.7,0.12-2.9-0.96-4.23-1.74c-0.67-0.39-1.3-1.2-1.95-1.2c-3-0.02-2.86-2.04-2.82-4.06
		c1.19-0.33,2.36-0.81,3.57-0.96c1.31-0.17,2.65,0.01,3.98-0.05c0.78-0.04,1.56-0.23,2.33-0.37c1.08-0.2,2.15-0.57,3.23-0.58
		c1.89-0.01,3.52,1.3,5.57,1.04c1.68-0.22,3.35,0.18,5.11,0.74c2.48,0.79,5.34,0.69,8.01,0.99c3.71,0.42,6.95,1.63,10.19,3.2
		c-0.07,4.23,0.02,4.47-3.46,5.83C143.51,71.67,141.72,73.73,139.08,73.01z"/>
	<path style="fill:#5CC1CF;" d="M66.09,104.01c-0.76-2.32-1.52-4.63-2.37-7.24c-7.63,1.93-14.07,5.64-19.96,11.01
		c1.52,1.84,2.93,3.53,4.34,5.23c-2.11,0-4.24,0.17-6.32-0.05c-1.8-0.19-3.54-0.84-5.67-1.38c0-0.36,0-0.97,0-1.57
		c3.39-2.56,6.75-5.15,10.18-7.66c4.34-3.18,13.02-7.61,18.03-8.97c1.83-0.49,3.85-0.27,5.79-0.37c1.92,1.21,1.4,3.5,0.76,4.5
		C69.42,99.74,68.75,102.65,66.09,104.01z"/>
	<path style="fill:#9AD3D0;" d="M116.08,68.01c0.33-0.33,0.67-0.67,1-1c0,0.67,0,1.33,0,2C116.75,68.68,116.42,68.34,116.08,68.01z"
		/>
	<path style="fill:#5CC1D3;" d="M54.82,157.09c5.71,3.61,7.53,8.94,11.23,12.61c0.32,0.32,0.04,1.26,0.04,1.88
		c-1.42,0.79-2.56,0.64-3.52-0.6c-2.34-3.02-4.8-5.95-6.97-9.09C54.97,160.98,55.17,159.49,54.82,157.09z"/>
	<path style="fill:#5EC2D3;" d="M49.13,176.24c-3.9-2-6.98-6.64-8.89-12.92c2.47-1.24,4.4,0.8,4.6,2.16
		c0.45,3.03,3.19,4.65,3.69,7.45C48.7,173.92,48.89,174.9,49.13,176.24z"/>
	<path style="fill:#64C3D5;" d="M28.93,184.85c-0.53,0.07-1.09,0.21-1.12,0.13c-2.03-4.69-2.96-9.64-3.83-14.47
		c1.84-1.22,2.95,0.37,2.97,0.95C27.12,175.92,29.94,179.93,28.93,184.85z"/>
	<path style="fill:#62C3D4;" d="M10.4,182.08c0.82,0,1.59,0,2.4,0c0.48,3.62,0.95,7.15,1.56,11.75c-1.66-1.22-3.15-1.81-3.15-2.4
		C11.21,188.31,9.02,185.36,10.4,182.08z"/>
	<path style="fill:#5EC2D3;" d="M55.97,79.43c4.48,3.02,6.13,6.13,5.61,9.66c-3.11-0.4-3.3-3.64-5.06-5.33
		C55.85,83.12,56.18,81.43,55.97,79.43z"/>
	<path style="fill:#65C4D5;" d="M38.15,102.8c-4.61-1.72-4.04-5.17-4.05-9.1c0.93,0.53,1.76,0.71,1.94,1.16
		c0.68,1.72,1.19,3.51,1.68,5.3C37.96,101.01,38.01,101.92,38.15,102.8z"/>
	<path style="fill:#60C2D4;" d="M43.15,87.19c3.61,2.39,4.38,4.77,3.61,8.18C43.4,93.69,42.97,91.13,43.15,87.19z"/>
	<path style="fill:#60C2D4;" d="M141.35,57.1c-0.52-3.62-1.02-7.15-1.56-10.91c1.23,0,2,0,3.13,0c0.36,2.53,0.87,5.28,1.12,8.06
		C144.17,55.74,143.97,55.76,141.35,57.1z"/>
	<path style="fill:#65C4D5;" d="M130.41,54.81c-0.56-3.15-0.23-5.58-0.33-7.98c-0.03-0.66-0.25-1.47,0.05-1.94
		c0.54-0.84,1.4-1.47,2.62-2.68c0.56,3.15,0.23,5.58,0.33,7.98c0.03,0.66,0.25,1.47-0.05,1.94
		C132.49,52.97,131.63,53.61,130.41,54.81z"/>
	<path style="fill:#5FC2D3;" d="M118.27,54.73c-0.52-4.78,0.66-7.94,3.11-11.55C123.17,48.1,120.61,50.98,118.27,54.73z"/>
</g>
</svg>
