<?xml version="1.0" encoding="utf-8"?>
<!-- Generator: Adobe Illustrator 24.0.0, SVG Export Plug-In . SVG Version: 6.00 Build 0)  -->
<svg version="1.1" xmlns="http://www.w3.org/2000/svg" xmlns:xlink="http://www.w3.org/1999/xlink" x="0px" y="0px"
	 viewBox="0 0 107.24 190.07" style="enable-background:new 0 0 107.24 190.07;" xml:space="preserve">
<g id="Calque_2">
</g>
<g id="Calque_1">
	<g>
		<path style="fill:none;" d="M76.71,172.12c-0.25-0.15-0.48-0.3-0.67-0.46c-0.01,0.26-0.03,0.53-0.05,0.81
			C76.25,172.34,76.47,172.23,76.71,172.12z"/>
		<path style="fill:none;" d="M50.08,148.04c0-0.04,0-0.09,0-0.13c-0.04,0.02-0.07,0.06-0.11,0.08
			C50.01,148.01,50.04,148.02,50.08,148.04z"/>
		<path style="fill:none;" d="M80.34,128.13c-0.09-0.12-0.18-0.23-0.27-0.35c0,0.2,0,0.38,0,0.59
			C80.17,128.29,80.25,128.21,80.34,128.13z"/>
		<path style="fill:#F2BE34;" d="M50.08,147.91c0-1.37,0-2.61,0-3.85c0-0.67,0-1.33,0-2c-2.57-0.51-3.49-1.43-4-4
			c-0.33-0.43-1-1.2-0.95-1.24c1.63-1.61,0.91-3.09-0.03-4.73c-2.44-4.27-4.93-8.46-8.42-12.02c-1.15-1.17-2.33-0.96-3.6-1.01
			c0.22,0.72,0.35,1.5,0.69,2.15c0.41,0.78,1.01,1.47,1.51,2.17c-1.58,1.47-2.23,0.15-2.93-0.58c-2.25-2.36-4.72-4.64-4.17-8.74
			c0.69,0,1.3,0,1.91,0c1.13-2.01,1.07-3.9,0.42-6.23c-1.37-4.9-3.76-9.28-5.91-13.77c-1.21,0-2.36,0-3.51,0
			c-0.14,0.71,0.46,1.79-0.76,1.94c-0.37,0.04-0.94-0.54-1.22-0.97c-1.97-3.13-2.52-6.83-3.98-10.17c-0.21-0.48,0.1-1.18,0.2-2.12
			c1.14,0.55,1.95,0.94,2.76,1.33c1.86-0.66,2.51-1.9,1.72-3.76c-0.18-0.43-0.72-0.82-0.69-1.2c0.4-4.72-1.97-9.02-2.07-13.66
			c-0.03-1.42-0.87-2.39-2.47-2.38c-0.83,0.01-1.67,0-2.5,0c0.01,2.05,1.7,3.83,1,6c0.62,0.79,1.59,1.49,1.79,2.37
			c0.63,2.7,0.97,5.46,1.46,8.36c-1.34-0.31-2.31-0.75-3.24-0.68c-1.02,0.07-2.01,0.61-3.01,0.94c-0.23,0.27-0.46,0.54-0.69,0.81
			c-1.27-1.22-2.27-2.6-2.3-4.43c-0.05-2.41-0.01-4.82-0.01-7.98c1.05,0.84,1.52,1.22,2,1.6c0.98-0.38,2.53,0.93,3-1
			c-1.44-0.41-2.05-1.33-2.02-2.87c0.07-3.29,0.02-6.58,0.02-10.86c1.03,1.41,1.51,2.07,2,2.73c2.99-1.62,4.1-4.17,4.04-7.51
			c-0.06-3.22-1.77-6.25-1.04-9.55c-1.16-1.49-1-4.32-4-3.94c0,1.33,0,2.67,0,4c0.18,2.36-0.22,4.69,0.83,7.1
			c0.53,1.21-0.73,3.19-1.24,5.04c-1.25-1.53-2.55-2.71-4.58-2.14c0,0.67,0,1.33,0,2c-0.42,0.33-0.97,1.03-1.22,0.94
			c-1.29-0.5-1.89-1.45-1.81-2.97c0.13-2.6,0.04-5.21,0.04-7.81c0-1.28,0-2.56,0-4.15c0.79,0,1.39,0,2,0
			c0.33,0.39,0.88,0.75,0.95,1.18c0.15,0.92,0.05,1.88,0.05,2.82c0.98-0.38,2.53,0.93,3-1c0-4.75-0.01-9.5,0.01-14.25
			c0-0.72-0.35-1.74,0.99-1.75c-0.13-3.85-0.15-3.87-4-4c0,0.94,0,1.89,0,3.23c-0.92-0.33-1.91-0.53-1.9-0.7
			c0.1-2.22-1.59-4.08-1.15-6.4c0.27-1.41,0.1-2.92,0-4.37c-0.02-0.27-0.62-0.51-0.95-0.76C0.3,18.26,1.42,23.58,1,28.95
			c1.57,0.11,2.81,0.19,3.96,0.27c0,2.07,0,3.84,0,5.57c-2.44,0.63-4.22,1.83-4.88,4.29c0,2.67,0,5.33,0,8
			c0,1.49-0.23,3.03,0.06,4.47c0.32,1.64,0.94,3.27,1.73,4.75c0.81,1.51,2.37,2.05,4.21,1.76c0,1.02,0,1.66,0,2.31
			c0.01,3.28,0.09,3.33-2.05,7.03c-0.59,1.02-1.55,2.28-0.87,3.02c1.37,1.5,0.37,3.25,1,4.6c0.72,1.53,0.75,3.03,0.98,4.6
			c0.24,1.68,0.9,3.29,1.18,5.01c0.13,0.81,0.41,3.17,2.75,2.51c0.39-0.11,1.26,0.51,1.5,1c1.24,2.47,2.64,4.92,3.38,7.55
			c0.44,1.55,0.64,3.55-0.85,5.07c-0.25,0.25-0.21,1.05-0.01,1.45c1.95,3.84,2.52,8.21,5.22,11.83c1.57,2.11,3.32,2.91,5.36,3.25
			c0.72,1.41,1.22,2.73,2,3.85c1.11,1.59-0.22,2.64-0.57,3.93c-0.09,0.32,0.53,0.77,0.63,1.2c1.41,6.21,5.46,10.64,9.86,14.86
			c1.33,1.28,2.82,1.97,4.68,1.96c0.72,0,1.77-0.39,1.78,0.98c2.53,1.26,5.05,2.52,7.89,3.93
			C50.01,147.97,50.04,147.94,50.08,147.91z M22.08,107.06c0,0.94,0,1.88,0,3.49c-3.3-3.26-5.25-6.29-4.8-10.85
			c1.18,0.57,1.99,0.97,2.8,1.36c0.66-0.35,1.33-0.71,2.43-1.3c0.93,2.36,1.81,4.61,2.87,7.3
			C23.95,107.06,23.02,107.06,22.08,107.06z M37.08,133.06c0,1.27,0,2.54,0,4.07c-2.73-0.24-4.13-2.17-4.84-3.79
			c-0.84-1.9-3.19-3.67-1.65-6.5c0.88,0.43,1.69,0.82,2.49,1.21c0.33,0,0.67,0.03,1-0.01c2.86-0.35,5.18,0.21,5.77,3.96
			C39.52,132.93,37.24,130.98,37.08,133.06z"/>
		<path style="fill:#CAA33C;" d="M69.07,179.58c-0.07-6.86,1.73-13.63,1.01-20.52c0-3,0-6,0-9c-1.85-7.86-0.6-15.82-1.08-23.56
			c3.55-2.27,6.81-4.36,10.07-6.44c-0.81-2.96-1.68-3.67-3.74-2.72c-3.35,1.55-6.65,3.2-9.91,4.94c-0.61,0.33-1.14,1.19-1.31,1.91
			c-0.51,2.14-0.83,4.32-1.22,6.51c-3.17,1.2-4.76,4.31-7.31,6.28c-1.51,0.48-3.07-0.27-4.73,0.63c-1.3,0.7-3.16,0.35-4.78,0.46
			c0.51,2.57,1.43,3.49,4,4c0.33,0.41,0.67,0.83,1,1.24c-0.33,0.25-0.67,0.5-1,0.76c0,1.24,0,2.48,0,3.85c0,0.04,0,0.09,0,0.13
			c-0.04-0.02-0.07-0.04-0.11-0.05c-2.84-1.41-5.37-2.67-7.89-3.93c0.09,5.25,1.14,6.76,6.1,9.04c0.42,0.19,0.72,0.87,0.88,1.38
			c1.3,4.14,4.55,6.88,8.59,8.86c2.48,1.22,4.85,0,7.23,0.96c0,1.86,0,3.76,0,5.93c-2.2-0.65-4.43,0.79-6.3-1.06
			c-0.19-0.19-1.11,0.29-1.65,0.56c-2.68,1.3-6.35,5.16-8.91,8.68c-1.28,1.76-2.88,3.16-1.93,4.9c2.33,1.12,3.51,3.67,5.99,2.76
			c-0.35-0.68-0.71-1.36-1.2-2.3c2.3-2.3,4.67-4.55,6.9-6.95c1.13-1.22,2.55-0.93,3.66-0.65c1.29,0.33,1.8,1.65,1.67,3.14
			c-0.14,1.65,0.01,3.31-0.08,4.97c-0.02,0.28-0.62,0.53-0.96,0.79c-0.37,1.85,0.77,3.28,1.41,5c1.57,0,3.2,0.05,4.81-0.04
			c0.28-0.02,0.52-0.62,0.77-0.95C69.08,185.9,69.1,182.74,69.07,179.58z M65.08,160.06c-2.28,0-4.39-0.01-6.5,0
			c-1.59,0.01-2.37-0.96-2.47-2.35c-0.13-1.97-0.65-4.27,0.14-5.86c0.81-1.62,1.54-3.37,2.52-4.91c1.35-2.13,3.06-4.03,5.12-6.67
			c0.45,6.63,0.82,12.1,1.18,17.56C65.11,158.47,65.08,159.11,65.08,160.06z"/>
		<path style="fill:#997C32;" d="M96.07,112.06c0,1.33,0,2.67,0,4c2.33,0.67,4.67,1.33,7,2c0.89-2.34,2.43-4.5,1.08-7.29
			c-0.53-1.1,0.13-2.35,1.07-3.52c1.01-1.25,1.27-3.1,1.85-4.69c-2.1-2.46-0.42-5.41-1.11-8.12c-3.47-2.52-3.47-6.37-3.9-9.88
			c1.37-0.55,2.9-0.68,3.27-1.4c0.97-1.92,2.53-4.18,1.61-6.2c-1.04-2.27-0.78-4.43-0.82-6.64c-0.04-1.91-0.48-3.27-2.67-3.23
			c-1.09,0.02-1.26-0.44-1.43-1.43c-0.23-1.29-0.92-2.5-1.38-3.68c-3.31,0.81-3.6,0.96-4.51,3.86c-0.39,1.23-0.9,2.2-2.18,2.19
			c-2.58-0.03-2.68,2.01-2.8,3.55c-0.35,4.66-0.22,9.3,2.56,13.64c0.63,0,1.41,0,2.37,0c0,1.48,0.03,2.79-0.02,4.1
			c-0.01,0.27-0.29,0.56-0.52,0.77c-2.21,2.04-2.04,4.95-2.35,7.49c-0.43,3.44-0.11,6.98-0.11,10.48
			C95.17,108.57,95.03,110.76,96.07,112.06z M101.9,102.87c-1.01,0.07-2.23,0.15-3.43,0.23c-0.56-1.93-1.07-3.7-1.72-5.96
			c2.1,0,3.54,0,5.15,0C101.9,98.97,101.9,100.74,101.9,102.87z M96.22,74.25c1.89-0.41,4.98,0.5,5.27-3.25
			c0.95,2.92,0.33,5.78,0.68,8.76c-2.23,0.56-3.97,1-5.95,1.5C96.22,78.78,96.22,76.68,96.22,74.25z"/>
		<path style="fill:#F3BD2C;" d="M102.03,142.07c-2.32-0.08-4.64-0.02-6.96-0.02c-3,3-6,6-9,9c0,2.65,0.13,5.3-0.04,7.94
			c-0.17,2.68-0.76,5.34-0.93,8.02c-0.17,2.64,0.17,5.31-0.11,7.93c-0.19,1.79-1.09,3.5-1.57,5.28c-0.24,0.91-0.25,1.89-0.36,2.83
			c2.57-1.4,5.19-2.71,7.66-4.26c0.68-0.42,1.02-1.53,1.31-2.39c0.44-1.32,0.85-2.68,0.99-4.05c0.17-1.62,0.04-3.28,0.04-4.79
			c1.75-1.4,3.8-2.43,4.83-4.08c0.68-1.1,1.35-2.19,2.28-2.98c3.78-3.2,5.06-7.83,6.79-12.11
			C108.14,145.53,105.26,142.18,102.03,142.07z M93.81,159.06c-1.26-3.78-1.05-4.77,1.9-7.32
			C96.16,156.93,96.12,157.06,93.81,159.06z"/>
		<path style="fill:#CAA339;" d="M85,174.95c0.27-2.62-0.06-5.29,0.11-7.93c0.17-2.68,0.76-5.34,0.93-8.02
			c0.17-2.64,0.04-5.29,0.04-7.94c0-1.82,0-3.64,0-5.45c0-1.59,1.53-2.84,1-4.54c0-8.13,0-16.27,0-24.61c2.73-1.86,5.61-3.62,9-4.39
			c-1.05-1.3-0.9-3.49-3-4c-3.72-0.13-6.33,2.4-9.38,3.88c-0.95,0.46-0.12,2.6-2.03,2.12c-0.19,1.24-0.34,2.48-0.6,3.71
			c-0.17,0.82,0.69,2.12-0.98,2.29c0,2.41,0,4.85,0,7.72c0.08,0.12,0.18,0.23,0.27,0.35c0.97-0.86,1.66-1.47,2.56-2.26
			c0,2.09,0,3.85,0,5.42c-0.95,0.93-1.89,1.85-2.83,2.77c0,2.15,0,4.31,0,6.46c0,1.49-0.13,3,0.04,4.47
			c0.16,1.37,0.63,2.71,0.96,4.06c1.4,2.24,1.39,4.7,0,6.51c-0.36,0.47-0.67,0.99-1,1.49c0,0.79-0.09,1.6,0.02,2.38
			c0.35,2.62-0.48,4.57-3.02,5.62c-1.48,1.94-0.93,4.08-1.03,6.6c0.19,0.16,0.42,0.31,0.67,0.46c1.52-0.72,2.72-1.28,4.07-1.92
			c0,1.74,0,3.57,0,5.76c-0.7,0.54-1.7,1.32-2.71,2.1c0,1.67,0,3.33,0,5c0.1,0.27,0.21,0.54,0.31,0.81
			c1.42-1.11,3.09-0.77,4.69-0.81c0.11-0.95,0.12-1.92,0.36-2.83C83.91,178.45,84.82,176.74,85,174.95z"/>
		<path style="fill:#F2BC2B;" d="M76.12,180.34c-0.15-1.28,0.79-1.95,1.95-2.29c1.01-0.78,2.01-1.56,2.71-2.1c0-2.19,0-4.02,0-5.76
			c-1.34,0.63-2.55,1.2-4.07,1.92c-0.24,0.11-0.47,0.22-0.73,0.34c0.03-0.27,0.04-0.54,0.05-0.81c0.1-2.52-0.45-4.66,1.03-6.6
			c0-1.77,0.03-3.53-0.01-5.3c-0.04-2.09,1.14-2.76,3.01-2.7c0.33-0.5,0.64-1.02,1-1.49c1.39-1.81,1.4-4.27,0-6.51
			c-0.61,0.11-1.23,0.18-1.82,0.34c-0.73,0.19-1.45,0.44-2.18,0.66c0,0.33,0.14,0.77-0.02,0.96c-2.35,2.66-3.63,6.26-6.98,8.04
			c0.73,6.89-1.08,13.66-1.01,20.52c0.03,3.16,0.01,6.31,0.01,9.47c2.24,0.34,3.79-1.33,5.68-1.89c2.44-0.73,2.35-2.3,2.32-4.11
			C75.16,182.74,76.23,181.26,76.12,180.34z"/>
		<path style="fill:#F3BC2B;" d="M104.29,121.02c-1.48,0.1-2.96,0.07-4.44,0.04c-3.42-0.06-3.64-0.31-3.78-4.01
			c-0.01-0.33,0-0.66,0-0.99c0-1.33,0-2.67,0-4c-3.39,0.77-6.27,2.53-9,4.39c0,8.34,0,16.47,0,24.61c2.15-1.99,4.36-3.91,6.43-5.99
			c0.78-0.78,1.52-1.17,2.57-1.01c0-1.6,0-3.21,0-4.9c1.39-0.07,2.5-0.12,3.77-0.18c2.04-2.27,3.99-4.75,6.31-6.83
			c0.72-0.65,1.17-1.05,0.69-1.72c-0.26-0.36-1.16-0.26-1.77-0.37C104.81,120.4,104.57,121,104.29,121.02z"/>
		<path style="fill:#F2BC2B;" d="M70.08,150.06c0.71-0.21,1.57-0.23,2.1-0.66c1.7-1.37,3.28-2.88,4.9-4.34
			c0.28-0.11,0.81-0.24,0.81-0.34c-0.19-3.37,1.8-6.47,1.24-9.89c-0.03-0.2,0.62-0.51,0.95-0.77c0.94-0.92,1.88-1.84,2.83-2.77
			c0-1.57,0-3.33,0-5.42c-0.9,0.79-1.59,1.4-2.56,2.26c-0.09,0.08-0.17,0.15-0.27,0.24c0-0.2,0-0.39,0-0.59c0-2.87,0-5.31,0-7.72
			c-0.33,0-0.67,0-1,0c-3.26,2.08-6.52,4.17-10.07,6.44C69.48,134.24,68.23,142.2,70.08,150.06z"/>
		<path style="fill:#F4C037;" d="M12.08,11.08c0,4.42,0.01,8.83-0.01,13.25c0,0.72,0.35,1.74-0.99,1.75c0,1.33,0,2.67,0,4
			c1.81,0.03,3.7,0.21,4.02-2.36c0.05-0.37,1.98-6.82,1.98-7.14c-0.02-2.4-0.4-4.72-0.81-7.09c-0.42-2.45-0.87-4.32-3.19-5.41
			C11.16,8.54,12.46,10.09,12.08,11.08z"/>
		<path style="fill:#F2BE34;" d="M63.03,184.27c0.09-1.65-0.06-3.32,0.08-4.97c0.13-1.5-0.39-2.81-1.67-3.14
			c-1.11-0.29-2.52-0.57-3.66,0.65c-2.23,2.4-4.61,4.66-6.9,6.95c0.49,0.94,0.85,1.62,1.2,2.3c2.31,0,4.63,0.1,6.94-0.05
			c1.04-0.07,2.04-0.62,3.06-0.95C62.41,184.79,63.02,184.55,63.03,184.27z"/>
		<path style="fill:#F5DA91;" d="M93.5,135.07c-2.06,2.07-4.27,4-6.43,5.99c0.53,1.7-1,2.96-1,4.54c0,1.82,0,3.64,0,5.45
			c3-3,6-6,9-9c0-1.32-0.13-2.66,0.04-3.95c0.17-1.37,0.63-2.7,0.96-4.04C95.02,133.91,94.28,134.29,93.5,135.07z"/>
		<path style="fill:#F2BE34;" d="M6.08,12.08c2.87,1.57,3.02,1.53,5-1c-0.33-1.02-0.9-2.03-0.95-3.06
			c-0.14-2.64-0.05-5.29-0.05-7.94c-2.38-0.54-2.9,1.87-2.84,2.8c0.16,2.55-1.16,4.01-2.82,5.29C3,9.26,3.06,10.62,3.08,12.08
			c0.37-0.21,0.76-0.39,1.11-0.62C5.1,10.86,5.84,10.7,6.08,12.08z"/>
		<path style="fill:#D3B25B;" d="M3.04,13.83c0.1,1.45,0.27,2.96,0,4.37c-0.44,2.32,1.25,4.18,1.15,6.4
			c-0.01,0.16,0.98,0.37,1.9,0.7c0-1.34,0-2.29,0-3.23c0-3.33,0-6.67,0-10C5.84,10.7,5.1,10.86,4.2,11.45
			c-0.35,0.23-0.74,0.42-1.11,0.62c-0.33,0.33-0.67,0.67-1,1C2.42,13.33,3.02,13.56,3.04,13.83z"/>
		<path style="fill:#C7A445;" d="M15.12,84.86c1.46,3.34,2.01,7.05,3.98,10.17c0.27,0.43,0.85,1.02,1.22,0.97
			c1.23-0.15,0.63-1.23,0.76-1.94c-0.32-2.44-1.5-4.59-2.32-6.86c-0.36-1-0.46-2.09-0.68-3.14c-0.81-0.39-1.62-0.78-2.76-1.33
			C15.22,83.67,14.91,84.38,15.12,84.86z"/>
		<path style="fill:#CAA33C;" d="M96.07,117.05c0.13,3.7,0.36,3.95,3.78,4.01c1.48,0.02,2.97,0.06,4.44-0.04
			c0.28-0.02,0.52-0.62,0.78-0.95c-0.67-0.67-1.33-1.33-2-2c-2.33-0.67-4.67-1.33-7-2C96.07,116.39,96.06,116.72,96.07,117.05z"/>
		<path style="fill:#C3A040;" d="M10.08,26.07C8.74,26.08,9.1,27.1,9.1,27.82c-0.02,4.75-0.01,9.5-0.01,14.25
			c0.67-0.33,1.33-0.67,2-1c0-1.33,0-2.67,0-4c0-2.33,0-4.67,0-7c0-1.33,0-2.67,0-4C10.75,26.07,10.42,26.07,10.08,26.07z"/>
		<path style="fill:#CEA73D;" d="M32.35,122.8c0.7,0.74,1.36,2.05,2.93,0.58c-0.5-0.7-1.1-1.38-1.51-2.17
			c-0.35-0.66-0.47-1.43-0.69-2.15c-1-1.67-2-3.33-3-5c-0.61,0-1.22,0-1.91,0C27.62,118.16,30.09,120.44,32.35,122.8z"/>
		<path style="fill:#C7A240;" d="M10.06,66.2c-0.03,1.54,0.58,2.45,2.02,2.87c0.33,0,0.67,0,1,0c0.7-2.17-0.99-3.95-1-6
			c0-1.67,0-3.33,0-5c-0.49-0.66-0.97-1.33-2-2.73C10.08,59.62,10.13,62.91,10.06,66.2z"/>
		<path style="fill:#CEA73D;" d="M10.13,8.01c0.05,1.03,0.62,2.04,0.95,3.06c0.33,0,0.67,0,1,0c0.38-0.98-0.93-2.53,1-3
			c0-0.79-0.09-1.6,0.02-2.38c0.35-2.62-0.48-4.57-3.02-5.62C10.08,2.72,9.99,5.37,10.13,8.01z"/>
		<path style="fill:#C3A040;" d="M33.08,128.06c-0.81-0.39-1.62-0.78-2.49-1.21c-1.54,2.83,0.81,4.6,1.65,6.5
			c0.72,1.62,2.11,3.54,4.84,3.79c0-1.54,0-2.81,0-4.07C33.76,132.99,33.68,130.31,33.08,128.06z"/>
		<path style="fill:#C7A240;" d="M5.08,51.07c0-2.67,0-5.33,0-8c0-1.33,0-2.67,0-4c-0.61,0-1.21,0-2,0c0,1.6,0,2.88,0,4.15
			c0,2.6,0.1,5.21-0.04,7.81c-0.08,1.52,0.52,2.47,1.81,2.97c0.25,0.1,0.81-0.6,1.22-0.94C4.59,52.99,5.23,51.83,5.08,51.07z"/>
		<path style="fill:#C7A445;" d="M20.08,101.06c-0.81-0.39-1.62-0.78-2.8-1.36c-0.45,4.56,1.5,7.59,4.8,10.85c0-1.61,0-2.55,0-3.49
			C19.69,105.64,20.11,103.28,20.08,101.06z"/>
		<path style="fill:#CCAA4E;" d="M9.08,75.52c0-1.82,0-3.64,0-5.45c-0.48-0.38-0.95-0.76-2-1.6c0,3.16-0.03,5.57,0.01,7.98
			c0.03,1.83,1.04,3.21,2.3,4.43c0.23-0.27,0.46-0.54,0.69-0.81C10.61,78.36,9.08,77.11,9.08,75.52z"/>
		<path style="fill:#DAC48B;" d="M5.08,43.07c0.33,0,0.67,0,1,0c0-0.94,0.1-1.9-0.05-2.82c-0.07-0.43-0.62-0.79-0.95-1.18
			C5.08,40.41,5.08,41.74,5.08,43.07z"/>
		<path style="fill:#DAC48B;" d="M5.08,51.07c0.15,0.76-0.5,1.91,1,2c0-0.67,0-1.33,0-2C5.75,51.07,5.42,51.07,5.08,51.07z"/>
		<path style="fill:#D3B25B;" d="M51.08,143.3c-0.33-0.41-0.67-0.83-1-1.24c0,0.67,0,1.33,0,2
			C50.41,143.81,50.74,143.56,51.08,143.3z"/>
		<path style="fill:#F1BA26;" d="M63.89,140.28c-2.06,2.64-3.77,4.54-5.12,6.67c-0.98,1.54-1.71,3.28-2.52,4.91
			c-0.79,1.59-0.27,3.88-0.14,5.86c0.09,1.39,0.87,2.36,2.47,2.35c2.11-0.01,4.22,0,6.5,0c0-0.95,0.04-1.58-0.01-2.22
			C64.71,152.38,64.34,146.91,63.89,140.28z"/>
		<path style="fill:#F6DD98;" d="M77.07,145.06c-1.62,1.46-3.2,2.97-4.9,4.34c-0.53,0.43-1.39,0.45-2.1,0.66c0,3,0,6,0,9
			c3.35-1.79,4.63-5.38,6.98-8.04c0.16-0.18,0.02-0.63,0.02-0.96C77.07,148.39,77.07,146.73,77.07,145.06z"/>
		<path style="fill:#D9AB30;" d="M93.81,159.06c2.31-2,2.35-2.13,1.9-7.32C92.76,154.28,92.54,155.28,93.81,159.06z"/>
	</g>
</g>
</svg>
