<?xml version="1.0" encoding="utf-8"?>
<!-- Generator: Adobe Illustrator 24.0.0, SVG Export Plug-In . SVG Version: 6.00 Build 0)  -->
<svg version="1.1" id="Calque_1" xmlns="http://www.w3.org/2000/svg" xmlns:xlink="http://www.w3.org/1999/xlink" x="0px" y="0px"
	 viewBox="0 0 96.36 100.51" style="enable-background:new 0 0 96.36 100.51;" xml:space="preserve">
<g>
	<path style="fill:#3EA240;" d="M96.36,59.47c-0.01,1.03-0.02,2.06-0.03,3.1c-0.12,1.02-0.25,2.03-0.37,3.05
		c-0.3,0.1-0.44,0.26-0.42,0.47c0.02,0.24,0.07,0.36,0.15,0.36c-3.67,7.71-8.41,9.83-16.4,6.79c-6.96-2.64-12.6-7.12-16.52-13.58
		c0.18-0.64-0.15,0.14,0.04-0.5c2.72-9.12,2.72-9.12,12.08-7.12c-1.65-0.87-8.84-1.85-10.42-2.11c-5.57-0.92-0.61-15.23-1.99-9.74
		c-2.07,8.29,1.78-6.06,2.49-9.21c-0.07-0.34-0.23-0.31-0.37,0.2c-2.33,8.69-1.66,12.21-11.81,7.58c-4.2-8.86-5.75-18.21-4.99-27.95
		c0.31-4,2.22-7.22,5.14-9.89c0.42,0.11,0.68-0.04,0.78-0.46c0.39-0.13,0.77-0.25,1.16-0.38c1.36-0.02,2.72-0.05,4.07-0.07
		c0.71,0.15,1.42,0.3,2.13,0.46c0.12,0.43,0.37,0.53,0.75,0.3c6.31,3.04,10.26,8.69,14.94,13.53c5.63,5.83,8.75,13.12,12.06,20.32
		c1.24,2.69,2.6,5.33,3.9,7.99c-0.27,0.38-0.18,0.6,0.28,0.67c0.15,0.42,0.29,0.83,0.44,1.25c-0.05,0.43,0.11,0.77,0.45,1.03
		c0.17,0.66,0.34,1.31,0.51,1.97c-0.01,0.43,0.14,0.8,0.45,1.1c0.21,0.98,0.41,1.96,0.62,2.94c-0.14,0.7-0.2,1.39,0.48,1.88
		C96.1,55.44,96.23,57.46,96.36,59.47z"/>
	<path style="fill:#52B158;" d="M41.91,100.49c-1.02-0.05-2.04-0.11-3.07-0.16c-1.85-1.68-2.23-4.02-2.63-6.26
		c-1.01-5.67-2.73-11.18-3.75-16.83c0.08-1.13,1.43-1.31,1.73-2.32c-0.8-0.2-0.88,0.81-1.52,0.89c-1.95-0.4-2.52-2.09-3.23-3.55
		c-3.52-7.18-7.55-14.12-10.43-21.6c-3.14-8.14-7.76-15.46-12.37-22.8c-1.68-2.67-3.55-5.27-4.01-8.52
		c4.2-4.42,7.28-5.46,12.17-2.37c5.69,3.59,10.91,7.97,16.12,12.26c4.59,3.78,8.82,7.98,13.34,11.84c1.32,1.13,3.1,1.72,4.67,2.56
		c0.19,0.23,0.28,0.48,0.26,0.74c-0.02,0.27-0.06,0.4-0.11,0.4c-0.59,0.87-1.14,1.76-1.74,2.63c-0.33,0.32-0.72,0.51-1.18,0.56
		c-3.64-0.25-6.64-2.64-11.34-3.37c5.64,1.41,9.7,3.89,14.26,4.92c1.19,0.38,2.32,0.88,3.2,1.82c0.59,0.87,0.8,1.86,0.99,2.87
		c0.14,1.04,0.6,1.98,0.97,2.95c3.03,8.37,2.5,16.81,0.51,25.29c-1.53,3.27-2.99,6.56-4.59,9.79
		C48.33,95.88,45.6,98.67,41.91,100.49z"/>
	<path style="fill:#2C7F34;" d="M52.79,38.75c2.71-3.04,4.98-0.58,7.75,1.14c1.62-4.67,3.12-8.99,4.62-13.31
		c0.39,0.04,0.78,0.08,1.17,0.13c0.16,0.98,0.6,2.02,0.41,2.93c-0.43,2.08-1.04,4.15-1.8,6.13c-1.82,4.7-2.29,9.2,1.9,13.58
		c3.74,0.41,8.24,0.31,11.91,3.07c-4.26,2.11-8.01-0.36-12-0.87c-1.79,2.56-0.5,6.54-3.97,8.11l-0.43,0l-0.42-0.07
		c-1.16-0.99-1.33-2.39-0.98-3.65c1.62-5.9-1.36-9.86-5.46-13.37c-1.03-0.88-1.89-1.85-2.46-3.07
		C52.77,39.29,52.69,39.05,52.79,38.75z"/>
	<path style="fill:#3DA03F;" d="M53.02,39.49c2.31,1.86,4.98,3.42,6.82,5.65c2.29,2.78,4.23,5.95,2.36,10.01
		c-0.58,1.25-0.21,2.94-0.27,4.43c-1.31,0.68-2.63,1.36-3.94,2.04c-2.9-2.84-2.65-7.59-6.12-10.08c-0.97-0.33-1.95-0.67-2.92-1
		c-0.54-0.49-0.65-1.1-0.53-1.78c0.8-1.35,0.49-2.83,0.51-4.27c0.02-0.28,0.02-0.56,0.02-0.84c0.99-0.59,2.11-1.03,2.92-1.8
		C52.45,41.27,52.64,40.29,53.02,39.49z"/>
	<path style="fill:#358739;" d="M51.86,51.54c1.27,0,2.66-0.37,3.22,1.39c0.92,2.91,1.93,5.79,2.9,8.69
		c-0.37,5.28-0.75,10.56-1.12,15.84c-0.56,0.62-0.4,1.5-0.81,2.17c-0.43,0.93-0.87,1.87-1.3,2.8c-0.25-0.88-0.89-1.86-0.69-2.63
		c2.04-7.89,0.79-15.6-1.12-23.28c-0.62-0.54-0.39-1.49-0.97-2.05C51.92,53.49,51.89,52.52,51.86,51.54z"/>
	<path style="fill:#91BF90;" d="M56.05,79.63c0.27-0.72,0.54-1.45,0.81-2.17C56.59,78.19,56.32,78.91,56.05,79.63z"/>
	<path style="fill:#DCECDB;" d="M95.69,66.44c-0.03-0.22-0.1-0.44-0.08-0.66c0-0.06,0.23-0.11,0.36-0.16
		C96.02,65.94,95.93,66.21,95.69,66.44z"/>
	<path style="fill:#358B38;" d="M33.03,76.45c2.97,7.71,4.16,15.85,5.81,23.87c-0.64,0.06-1.29,0.13-1.93,0.19
		c-6.97-3.43-12.68-8.14-16.96-14.82C14.51,77.17,8.68,68.89,5.2,59.32c-1.4-3.86-2.24-7.92-3.23-11.92
		c-0.56-2.24-0.9-4.54-1.33-6.81C0.43,34.9,0.21,29.22,0,23.54c0.88-1.4,1.76-2.8,2.63-4.2c3.56,5.67,7.53,11.14,10.6,17.06
		c5.83,11.24,11.13,22.75,16.71,34.13c0.85,1.73,1.99,3.33,2.99,4.99c0.23,0.19,0.32,0.39,0.27,0.6
		C33.15,76.34,33.1,76.45,33.03,76.45z"/>
	<path style="fill:#E2EFE1;" d="M53.72,0.45c-0.26,0.15-0.52,0.31-0.78,0.46C53.11,0.62,53.37,0.47,53.72,0.45z"/>
	<path style="fill:#DCECDB;" d="M95.96,53.43c-0.16-0.63-0.32-1.25-0.48-1.88C95.64,52.17,95.8,52.8,95.96,53.43z"/>
	<path style="fill:#E2EFE1;" d="M61.83,0.75c-0.25-0.1-0.5-0.2-0.75-0.3C61.37,0.44,61.62,0.54,61.83,0.75z"/>
	<path style="fill:#DCECDB;" d="M93.9,45.54c-0.15-0.34-0.3-0.69-0.45-1.03C93.6,44.85,93.75,45.2,93.9,45.54z"/>
	<path style="fill:#DCECDB;" d="M94.86,48.61c-0.15-0.37-0.3-0.73-0.45-1.1C94.56,47.87,94.71,48.24,94.86,48.61z"/>
	<path style="fill:#DCECDB;" d="M93.01,43.26c-0.19-0.14-0.37-0.27-0.56-0.41c0.09-0.09,0.18-0.17,0.28-0.26
		C92.92,42.78,93.01,43,93.01,43.26z"/>
	<path style="fill:#369238;" d="M48.91,48.48c0.01,0.69,0.01,1.38,0.02,2.06c-2.5-0.75-5.03-1.41-7.49-2.28
		c-3.07-1.09-6.09-2.35-9.39-3.64c1.72-1.78,3.78-1.29,5.67-0.65c3.11,1.05,6.14,2.35,9.2,3.55c0.31-0.35,0.7-0.5,1.16-0.48
		C48.74,47.29,49.23,47.65,48.91,48.48z"/>
	<path style="fill:#369339;" d="M48.81,55.3c-2.74,5.03-6.46,9.01-11.67,11.5C39.17,61.17,44.19,58.39,48.81,55.3z"/>
	<path style="fill:#63B773;" d="M33.03,76.45c-0.07-0.31-0.11-0.62-0.1-0.94c0.11-1.24,0.21-2.49,0.32-3.83
		c2.58,0.33,3,1.94,2.47,3.59C35.53,75.89,33.97,76.07,33.03,76.45z"/>
	<path style="fill:#338C37;" d="M48.91,48.48c-0.31-0.32-0.62-0.65-0.93-0.97c-0.4-0.28-0.76-0.6-1.01-1.03
		c-0.2-1.5,0.59-2.02,1.95-1.99c0.53,0.73,1.18,1.4,1.57,2.2C51.31,48.37,50.12,48.47,48.91,48.48z"/>
	<path style="fill:#65B876;" d="M7.98,20.34c1.03,1.05,2.06,2.09,3.08,3.14c-2.65,0.77-3.38-0.66-4.1-2.1
		C7.3,21.03,7.64,20.68,7.98,20.34z"/>
	<path style="fill:#61B76F;" d="M26.07,57.56c-0.85-0.81-1.7-1.62-2.77-2.64c1.07-0.81,1.41-1.29,1.75-1.29
		c2.95-0.02,1.34,2.11,1.91,3.23C26.67,57.09,26.37,57.33,26.07,57.56z"/>
	<path style="fill:#5EB56C;" d="M30.02,65.86c-0.87-1.39-1.5-2.4-2.25-3.6c0.72-0.26,1.28-0.65,1.54-0.51
		C30.82,62.57,31.34,63.72,30.02,65.86z"/>
	<path style="fill:#63B773;" d="M12.83,27.19c0.87,1.39,1.49,2.39,2.24,3.59c-0.72,0.25-1.28,0.65-1.54,0.51
		C12.04,30.47,11.49,29.32,12.83,27.19z"/>
	<path style="fill:#61B66F;" d="M39.87,91.02c2.32,1.41,2.43,2.76,0.42,4.27C40.15,93.86,40.01,92.44,39.87,91.02z"/>
	<path style="fill:#5EB56C;" d="M17.38,39.43c-0.44-1.15-0.88-2.3-1.32-3.45c0.38-0.16,0.76-0.32,1.14-0.47
		c0.57,1.16,1.13,2.32,1.7,3.49C18.39,39.14,17.89,39.29,17.38,39.43z"/>
	<path style="fill:#5FB66D;" d="M37.69,80.39c0.67,0.59,1.08,0.78,1.09,1c0.07,1.12,0.03,2.25,0.03,3.5
		C37.3,82.89,37.3,82.89,37.69,80.39z"/>
	<path style="fill:#5EB56C;" d="M21.55,44.93c0.38,0.61,0.77,1.21,1.1,1.85c0.02,0.04-0.42,0.33-0.65,0.5
		c-0.41-0.64-0.81-1.29-1.22-1.93C21.04,45.2,21.3,45.06,21.55,44.93z"/>
	<path style="fill:#3DA03F;" d="M51.96,54.47c0.32,0.68,0.65,1.37,0.97,2.05C52.6,55.84,52.28,55.15,51.96,54.47z"/>
	<path style="fill:#3DA03F;" d="M46.97,46.48c0.34,0.34,0.68,0.69,1.01,1.03c-0.36,0-0.71,0.01-1.07,0.01
		C46.94,47.17,46.95,46.83,46.97,46.48z"/>
	<polygon style="fill:#5EB56C;" points="31.63,67.04 31.33,67.15 31.36,66.86 	"/>
</g>
</svg>
