<?xml version="1.0" encoding="utf-8"?>
<!-- Generator: Adobe Illustrator 24.0.0, SVG Export Plug-In . SVG Version: 6.00 Build 0)  -->
<svg version="1.1" id="Calque_1" xmlns="http://www.w3.org/2000/svg" xmlns:xlink="http://www.w3.org/1999/xlink" x="0px" y="0px"
	 viewBox="0 0 96.07 100.13" style="enable-background:new 0 0 96.07 100.13;" xml:space="preserve">
<g>
	<path style="fill:#BE341A;" d="M55.99,0.14c1,0,2,0,3,0c3.09-0.23,5.6,1.36,7.62,3.24c4.93,4.59,9.9,9.21,13.79,14.75
		c3.56,5.07,6.13,10.73,8.59,16.42c0.55,1.27,1.11,2.54,1.71,3.79c3.24,6.73,5.83,13.62,5.3,21.3c-0.1,1.49-0.01,3-0.01,4.5
		c-0.76,2.54-1.54,5.04-3.49,7.02c-2.87,2.91-6.57,3.82-10.12,2.71c-7.03-2.2-13.18-6.08-17.95-11.85c-0.66-0.8-0.96-1.91-1.43-2.88
		c2.47-8.68,3.17-9.12,12.08-7.4c-1.74-0.88-3.29-1-4.83-1.22c-5.75-0.82-8.91-5.35-7.51-10.97c0.76-3.05,1.57-6.09,2.6-9.23
		c-0.86,0.62-0.83,1.49-1.04,2.23c-2.35,8.25-3.4,8.68-11.29,4.59c-2.35-1.28-2.31-3.99-2.85-5.95c-2.3-8.43-2.72-13.75-2.09-21.94
		c0.29-3.78,2.57-6.74,5.5-9.06C54.07-0.21,55.17,0.14,55.99,0.14z"/>
	<path style="fill:#D04118;" d="M41.99,100.13c-1,0-2,0-3,0c-2.09-1.96-2.27-4.67-2.73-7.22c-0.95-5.3-3.17-10.34-3.16-15.83
		c0.66-1.72,2.33-3.91-1.63-3.53c-4.31-3.77-5.82-9.22-8.08-14.11c-2.98-6.41-6.97-12.49-7.88-19.74c0.28-0.34,0.52-0.74,1.07-0.94
		c-0.54-0.08-0.56,0.5-0.95,0.55c-0.38,0.02-0.8,0.03-0.98-0.21C10.01,32.89,5.16,26.79,3,19.14c3.05-5.06,7.9-5.37,13.9-1.53
		c2.92,1.87,5.67,4.05,8.31,6.3c3.71,3.16,7.21,6.57,10.87,9.79c3.25,2.87,6.6,5.63,9.91,8.43c0.67,1.26,2.16,2.25,1.32,4
		c-2.03,1.76-3.99,0.7-5.96-0.15c-1.64-0.71-3.39-1.01-5.08-1.5c4.57,1.16,8.47,4.09,13.11,5.06c1.84,0.6,2.71,2.14,3.6,3.67
		c2.25,4.24,3.11,8.87,3.82,13.54c-0.42,5.54-0.33,11.18-2.8,16.37c-1.38,4.99-4,9.38-7.07,13.43
		C45.75,98.1,43.66,98.96,41.99,100.13z"/>
	<path style="fill:#A02516;" d="M52.99,37.13c4.27,0,4.27,0,7.5,2.25c0.51-0.95,1.28-1.8,1.45-2.77c0.61-3.38,1.44-6.66,3.08-9.69
		c0.24-0.44,0.85-0.68,1.87-1.44c-0.11,2.5,0.2,4.1-0.65,6.13c-1.3,3.08-1.53,6.6-2.93,9.75c-0.2,0.46-0.1,1.19,0.12,1.67
		c0.91,1.95,1.93,3.85,2.93,5.81c3.33,0.42,6.81,0.83,10.28,1.3c1.42,0.19,2.31,0.96,2.39,2.69c-4.26,1.35-8.25-1.81-12.81-0.43
		c-0.47,1.87-1.03,4.1-1.68,6.73c-0.32,0-0.94,0-1.55,0c-0.33,0-0.67,0-1,0c-1.29-1.13-1.42-2.72-1.04-4.12
		c1.47-5.51-1.27-9.22-5.06-12.52c-1.14-0.99-2.13-2.06-2.9-3.35C52.99,38.47,52.99,37.8,52.99,37.13z"/>
	<path style="fill:#BC341A;" d="M52.99,39.13c4.32,2.08,7.41,5.24,9.36,9.7c0.5,1.14,0.98,2.43,0.55,3.18
		c-1.34,2.32-0.76,4.74-0.91,7.12c-0.23,0.33-0.39,0.85-0.7,0.97c-1.07,0.42-2.19,0.7-3.3,1.03c-3.02-1.9-1.81-6.98-6-8
		c-0.33-0.25-0.71-0.45-0.99-0.75c-0.69-0.73-1.34-1.5-2.01-2.25c-0.25-0.4-0.29-0.82-0.11-1.25c1.77-1.88-0.99-3.85,0.11-5.74
		c0.8-0.33,1.64-0.59,2.38-1.02C52.48,41.47,53.25,40.56,52.99,39.13z"/>
	<path style="fill:#9F2616;" d="M51.99,53.13c0.63-0.71,1.27-1.43,2.37-2.67c0.91,4.04,3.11,7.03,3.63,10.67c0,0.33,0,0.67,0,1
		c-1.05,1.18-0.12,2.74-0.76,4c-0.41,0.3-0.83,0.31-1.24,0c-0.87-2.27-1.99-4.43-2.07-6.99c-0.04-1.29-0.83-2.56-1.26-3.85
		C52.42,54.58,52.22,53.85,51.99,53.13z"/>
	<path style="fill:#B33F23;" d="M55.99,66.13c0.33,0,0.67,0,1,0c0.33-0.49,0.67-0.49,1,0c0,2.16,0.01,4.32,0,6.48
		c-0.03,4-1.43,7.48-4,10.52c-0.63-2.63,0.9-4.98,0.98-7.51c0.08-2.47-0.05-4.95,0.06-7.42C55.07,67.49,55.66,66.82,55.99,66.13z"/>
	<path style="fill:#A5371C;" d="M57.99,66.13c-0.33,0-0.67,0-1,0c0-0.94-0.1-1.9,0.05-2.82c0.07-0.43,0.62-0.79,0.95-1.18
		C57.99,63.46,57.99,64.8,57.99,66.13z"/>
	<path style="fill:#AA3019;" d="M34,76.13c0.03,1.73-0.16,3.42,0.94,5.04c0.65,0.95,0.75,2.3,1.05,3.48c0.31,1.2,0.14,2.4,0.54,3.7
		c1.17,3.82,1.69,7.84,2.47,11.78c-0.67,0-1.33,0-2,0c-5.21-2.28-9.68-5.65-13.32-9.93c-2.84-3.35-5.29-7.07-7.64-10.79
		c-3.14-4.97-6.34-9.97-8.57-15.41c-1.81-4.41-4.13-8.61-4.6-13.61c-0.38-4.05-1.77-8.01-1.91-12.16c-0.02-0.7-0.62-1.39-0.96-2.08
		c0-4.33,0-8.67,0-13c1.05-1.3,0.9-3.49,3-4c2.29,2.32,3.12,5.53,4.95,8.16c2.3,3.31,4.7,6.58,6.19,10.4
		c0.24,0.62,1.22,0.96,1.86,1.43c0.7,2.2,1.17,4.52,2.15,6.59c4.37,9.17,8.88,18.28,13.36,27.4c0.03,0.07,0.32,0.01,0.48,0.01
		C32.99,73.91,33.9,74.75,34,76.13z"/>
	<path style="fill:#AF351D;" d="M48.99,43.13c1.01,1.74,2.03,3.47,3.28,5.62c-1.25,0.14-2.26,0.26-3.28,0.38
		c-2.23,0.04-2.43-1.27-2-3c-0.22-0.72-0.48-1.44-0.66-2.18c-0.15-0.6-0.23-1.22-0.34-1.82C46.99,42.47,47.99,42.8,48.99,43.13z"/>
	<path style="fill:#B13018;" d="M46.99,46.13c0.67,1,1.33,2,2,3c0,0.33,0,0.67,0,1c-0.43,0.33-1.22,0.97-1.23,0.96
		c-1.92-2.33-5.01-2.43-7.44-3.82c-2.33-1.34-5.09-2.36-7.99-2.35c-0.15,0-0.3-0.82-0.45-1.27c5.27-0.86,6-0.64,11.3,2.09
		C44.24,46.27,45.71,46.02,46.99,46.13z"/>
	<path style="fill:#B13018;" d="M37.53,67.13c-1.2-1.46-0.54-2.57,0.63-3.69c1.79-1.7,3.43-3.58,5.28-5.21
		c1.63-1.43,3.48-2.61,5.59-4.17c-0.13,1.11,0.1,2.31-0.39,2.81c-3.44,3.5-7.02,6.85-10.58,10.24
		C37.98,67.2,37.75,67.13,37.53,67.13z"/>
	<path style="fill:#E25412;" d="M34,76.13c-1.58-0.39-2.16-1.45-2-3c0.52-0.66,1.04-1.31,1.75-2.2c0.68,0.5,1.78,0.91,2.04,1.62
		c0.35,0.97,0.15,2.18-0.05,3.25C35.7,76,34.6,76.02,34,76.13z"/>
	<path style="fill:#DD4E14;" d="M27.68,61.03c4.29,0.32,2.65,4,4.28,5.85c-0.63-0.07-1.67,0.08-1.84-0.23
		C29.27,65.04,28.64,63.31,27.68,61.03z"/>
	<path style="fill:#DE4F14;" d="M39,85.31c-2.04-2.12-2.04-2.12-1.6-6.36c0.59,0.28,1.51,0.48,1.53,0.75
		C39.06,81.46,39,83.22,39,85.31z"/>
	<path style="fill:#DD4E14;" d="M16.12,39.25c0-1.37,0-2.62,0-4.43c0.85,0.53,1.51,0.74,1.84,1.19c0.51,0.71,0.79,1.59,1.34,2.77
		C18.04,38.97,17.03,39.12,16.12,39.25z"/>
	<path style="fill:#DF5113;" d="M40.16,90.22c0.62,0,1.06,0,1.66,0c0,1.64,0,3.2,0,4.82c-0.62,0-1.06,0-1.66,0
		C40.16,93.39,40.16,91.84,40.16,90.22z"/>
	<path style="fill:#E15312;" d="M14.17,31.44c-0.72-0.7-1.66-1.3-2.1-2.15c-0.26-0.51,0.05-1.81,0.5-2.07
		c0.77-0.44,1.36,0.06,1.48,1.16c0.08,0.79,0.7,1.52,1.07,2.28C14.81,30.92,14.49,31.18,14.17,31.44z"/>
	<path style="fill:#E05213;" d="M26.78,53.11c0,1.53,0,2.74,0,4.25c-1.03-1.24-1.82-2.2-2.79-3.37C24,53.26,24,53.26,26.78,53.11z"
		/>
	<path style="fill:#E45711;" d="M9.64,24.28c-1.1-1.24-2.5-1.96-2.76-3.67C9.66,20.44,9.84,20.66,9.64,24.28z"/>
	<path style="fill:#DF5013;" d="M21.09,44.2c2.06,0.81,2.09,2.18,1.82,3.86C20.85,47.25,20.81,45.89,21.09,44.2z"/>
</g>
</svg>
