<?xml version="1.0" encoding="utf-8"?>
<!-- Generator: Adobe Illustrator 24.0.0, SVG Export Plug-In . SVG Version: 6.00 Build 0)  -->
<svg version="1.1" id="Calque_1" xmlns="http://www.w3.org/2000/svg" xmlns:xlink="http://www.w3.org/1999/xlink" x="0px" y="0px"
	 viewBox="0 0 96.17 100.99" style="enable-background:new 0 0 96.17 100.99;" xml:space="preserve">
<g>
	<path style="fill:#37B295;" d="M54.99,0c1.33,0,2.67,0,4,0c3.84,1.87,7.77,3.56,10.59,7.05c2.77,3.42,6.21,6.21,8.99,9.71
		c2.1,2.64,3.83,5.49,5.74,8.21c1.48,2.1,2.19,4.73,3.26,7.12c2.33,5.2,5.35,10.06,6.86,15.67c0.4,1.48,0.73,1.81,1.05,3.2
		c0.36,0.31,0.12,1.76,0.5,2.05c0,1.67,0,3.33,0,5c0,1.67,0,3.33,0,5c0.75,3.64-0.92,6.67-3.11,9.13c-1.3,1.45-3.59,2.39-5.58,2.78
		c-4.75,0.93-9.09-0.89-13.05-3.25c-4.39-2.61-7.67-6.59-11.22-10.2c-0.25-0.25-0.03-0.97-0.03-1.46c-0.24-1.38,0.33-2.63,0.69-3.89
		c1.42-4.9,2.38-5.42,7.51-4.3c1.27,0.28,2.57,0.39,3.86,0.51c-14.05-1.4-16.06-2.45-10.24-20.09c-0.55,0.95-0.72,1.73-0.95,2.49
		c-1.83,6.08,2.34,11.77-4.07,10.54c-0.66-0.13-5.48-5.58-6.12-5.38c-0.23,0.04-0.45,0.08-0.68,0.12
		c-2.09-1.83-5.76-21.17-5.98-22.05c-0.27-1.11,1.52-10.36,2.06-11.54C50.36,3.62,52.68,1.81,54.99,0z"/>
	<path style="fill:#4CB8A5;" d="M41.99,100.99c-1,0-2,0-3,0c-1.51-1.43-2.1-3.31-2.33-5.28c-0.7-6-3.42-11.59-3.57-17.7
		c-0.67-1.06,3.83-3.26-0.78-3.45c-2.43-0.28-3.07-2.36-3.93-4.09c-2.89-5.79-5.98-11.47-8.4-17.49C16.46,44.17,11.74,36,6.56,28.07
		C4.94,25.59,3.04,23.19,3,20c0-0.5-0.22-1.23,0.03-1.46c3.34-3.11,9.34-3.5,13.18-0.79c2.86,2.02,5.52,4.31,8.38,6.31
		c4.07,2.83,7.13,6.77,10.94,9.82c3.51,2.81,6.39,6.37,10.4,8.57c1,0.54,1.22,1.48,1.06,2.55c0.33,0.36,0.49,0.78,0.45,1.27
		c-1.09,2.22-2.96,1.83-4.67,1.16c-2-0.78-4.02-1.45-6.09-2.01c4.32,1.49,8.33,3.69,12.57,5.36c2.03,0.57,2.92,2.35,4.1,3.84
		c0.25,0.42,0.45,0.87,0.6,1.33c0.32,1.19,0.63,2.39,1.08,3.55c0.8,2.25,1.33,4.56,1.31,6.96c0.55,5.59-0.51,11.05-1.35,16.53
		c-1.72,3.93-3.25,7.89-5.77,11.52C47.23,97.38,45.03,99.51,41.99,100.99z"/>
	<path style="fill:#33B293;" d="M52.99,54.99c-0.88-0.08-2.19,0.43-1.98-1.25c0.21-1.69-0.69-1.93-2.02-1.75
		c-1.01-1.02-1.97-2.07-1.46-3.69c0.92-0.91,1.77-1.85,1.46-3.31c0.13-0.71-0.43-1.64,0.74-2.01c0.86-0.27,1.67-0.7,2.53-0.98
		c1.16-0.37,0.6-1.3,0.74-2.01c9.15,0.92,13.56,10.73,9,20c-0.23,0.33-0.39,0.85-0.7,0.97c-1.07,0.42-2.19,0.7-3.3,1.03
		C55.1,60.53,56.52,56,52.99,54.99z"/>
	<path style="fill:#029D77;" d="M61.99,59.99c0.22-1.55-0.67-3.34,1-4.57c0.1-3.75-0.08-7.37-3.2-10.16
		c-2.15-1.92-3.91-4.32-6.8-5.27c0-0.5,0-0.99,0-1.53c3.31-1.57,5.55,0.05,7.76,2.98c0.49-1.3,1.25-2.34,1.17-3.3
		c-0.26-3.15,2.08-5.57,2.19-8.63c0.02-0.6,1.11-2.16,2.88-1.14c-1.18,4.19-2.44,8.43-3.54,12.71c-0.3,1.17-0.49,2.58-0.09,3.65
		c0.63,1.71,1.77,3.25,2.74,4.83c0.14,0.22,0.58,0.46,0.8,0.4c2.36-0.69,4.3,1.17,6.56,1.03c1.95-0.13,3.85-0.07,5.25,1.69
		c-0.81,1.75-2.63,1.56-4.32,1.15c-1.78-0.43-3.44-1.32-5.21-1.8c-0.9-0.25-1.92-0.04-2.98-0.04c-0.77,2.51-1.46,4.87-2.23,7.2
		c-0.11,0.34-0.64,0.53-0.97,0.8C62.66,59.99,62.33,59.99,61.99,59.99z"/>
	<path style="fill:#059E79;" d="M52.99,54.99c0-0.94,0-1.87,0-2.66c0.44-0.21,0.58-0.33,0.72-0.32c0.31,0.01,0.84,0,0.89,0.14
		c1.16,3.27,2.27,6.56,3.39,9.85c0,2,0,4,0,6c-2.43,1.48-2.15-1.11-3-2c-0.33-2.33-0.67-4.67-1-7c-0.91-0.81-0.04-2.21-1-3
		C52.99,55.66,52.99,55.33,52.99,54.99z"/>
	<path style="fill:#34B194;" d="M54.99,65.99c0.33,0.25,0.96,0.51,0.95,0.76c-0.02,1.68,1.18,1.15,2.05,1.24
		c0,0.81-0.09,1.63,0.01,2.43c0.56,4.48-1.06,8.51-2.55,12.56c-0.02,0.05-0.31,0.01-0.47,0.01c-2.15-0.96-1.3-3.25-0.85-4.11
		c1.24-2.35,0.69-4.68,0.82-7.01C55.08,69.91,54.99,67.95,54.99,65.99z"/>
	<path style="fill:#13A988;" d="M34,76.99c-0.71,2.17,0.5,4.09,1.1,5.95c1.39,4.28,2.1,8.67,2.91,13.05c0.31,1.67,0.66,3.33,1,5
		c-0.67,0-1.33,0-2,0c-5.25-2.22-9.77-5.52-13.33-9.92c-2.77-3.42-5.26-7.09-7.63-10.81c-3.01-4.71-6.35-9.34-8.46-14.46
		c-1.8-4.36-4.25-8.56-4.71-13.57c-0.37-4.05-1.75-8.01-1.9-12.16C0.92,39.04,0.33,38.02,0,37c0-4.33,0-8.67,0-13
		c1.05-1.3,0.9-3.49,3-4c2.23,2.53,3.02,5.96,5.11,8.5c3.11,3.78,5.36,8.12,7.7,12.27c2.51,4.46,4.4,9.4,6.28,14.27
		c1.71,4.42,4.15,8.55,6.27,12.81c0.89,1.79,1.86,3.54,2.61,5.38c0.47,1.17,1.32,0.62,2.04,0.76C34.35,74.65,35.01,75.54,34,76.99z"
		/>
	<path style="fill:#0DA985;" d="M48.99,44.99c1.21,1.56,1.36,1.85,1.84,3.67c-0.95-0.23-1.9-0.45-2.84-0.67
		c-0.81-0.43-0.41-1.46-1-2c0-0.33,0-0.67,0-1C47.66,44.99,48.33,44.99,48.99,44.99z"/>
	<path style="fill:#D6ECE9;" d="M95.99,52.99c-0.33-0.33-0.67-0.67-1-1C95.32,52.33,95.65,52.66,95.99,52.99z"/>
	<path style="fill:#1CAE8E;" d="M46.99,45.99c1.5,0.09,0.85,1.24,1,2c0.11,0.61,0.18,1.23,0.34,1.82c0.19,0.73,0.44,1.45,0.66,2.18
		c-0.5,0-1.15,0.21-1.47-0.03c-3.14-2.37-6.83-3.53-10.39-5c-1.5-0.62-2.92-1.2-4.59-1.04c-0.18,0.02-0.45-0.95-0.72-1.56
		c4.9-0.45,7.8,0.13,11.12,2.08C44.39,47.28,45.8,47.55,46.99,45.99z"/>
	<path style="fill:#19AE8D;" d="M49.26,55.52c-0.39,0.96-0.55,2.13-1.21,2.83c-2.47,2.66-5.12,5.16-7.66,7.76
		c-1.08,1.1-2.15,1.29-3.64,0.26C39.73,61.56,44.54,58.7,49.26,55.52z"/>
	<path style="fill:#5BBEBB;" d="M34,76.99c-0.33-1-0.67-2-1-3c0.1-0.6,0.2-1.2,0.29-1.79c0.66,0.19,1.45,0.22,1.96,0.61
		c1.42,1.06,0.56,2.56,0.66,4.19C35.19,76.99,34.59,76.99,34,76.99z"/>
	<path style="fill:#5CBFBD;" d="M11.18,24.48c-2.74,0.25-3.97-0.99-3.61-3.69C9.34,21.53,10.54,22.64,11.18,24.48z"/>
	<path style="fill:#59BDB8;" d="M40.16,91.08c0.62,0,1.06,0,1.66,0c0,1.64,0,3.2,0,4.82c-0.62,0-1.06,0-1.66,0
		C40.16,94.25,40.16,92.7,40.16,91.08z"/>
	<path style="fill:#5BBEBB;" d="M13.36,27.8c0.59,1.23,1.18,2.47,1.85,3.87C12.07,31.48,11.9,31.3,13.36,27.8z"/>
	<path style="fill:#5ABEB9;" d="M26.83,58.55c-1.31-1.58-2.22-2.67-3.55-4.27c1.57-0.15,2.46-0.24,3.55-0.35
		C26.83,55.42,26.83,56.71,26.83,58.55z"/>
	<path style="fill:#57BDB5;" d="M27.66,61.92c2.65,0.15,3.45,1.22,3.3,3.07c-0.03,0.35-0.43,0.89-0.73,0.95
		c-0.37,0.07-1.04-0.16-1.2-0.46C28.56,64.55,28.26,63.53,27.66,61.92z"/>
	<path style="fill:#58BDB7;" d="M38.81,80.99c0,1.67,0,3.22,0,4.85c-1.9-1.77-2.26-2.82-1.47-4.63C37.44,81,38.18,81.07,38.81,80.99
		z"/>
	<path style="fill:#57BDB6;" d="M15.61,35.9c3.03,0.24,2.76,2.28,3.59,3.46c-0.46,0.3-0.81,0.67-0.96,0.6
		C16.75,39.31,16.34,37.92,15.61,35.9z"/>
	<path style="fill:#58BDB7;" d="M22.64,49.05c-1.58-1.13-2.08-2.31-1.29-3.96C22.94,45.93,23.41,47.13,22.64,49.05z"/>
	<path style="fill:#33B293;" d="M52.99,55.99c1.93,0.47,0.62,2.02,1,3C52.07,58.52,53.37,56.98,52.99,55.99z"/>
	<path style="fill:#5ABEB9;" d="M27.91,58.57c-0.12,0.12-0.28,0.33-0.32,0.31c-0.22-0.12-0.4-0.29-0.6-0.44
		c0.15-0.15,0.3-0.3,0.45-0.45C27.6,58.19,27.76,58.38,27.91,58.57z"/>
</g>
</svg>
