<?xml version="1.0" encoding="utf-8"?>
<!-- Generator: Adobe Illustrator 24.0.0, SVG Export Plug-In . SVG Version: 6.00 Build 0)  -->
<svg version="1.1" id="Calque_1" xmlns="http://www.w3.org/2000/svg" xmlns:xlink="http://www.w3.org/1999/xlink" x="0px" y="0px"
	 viewBox="0 0 95.93 99.93" style="enable-background:new 0 0 95.93 99.93;" xml:space="preserve">
<g>
	<path style="fill:#C77118;" d="M55.95,0.02c1,0,2,0,3,0c3.09-0.23,5.59,1.36,7.61,3.24c4.92,4.59,9.84,9.25,13.8,14.73
		c3.55,4.91,5.71,10.61,8.56,15.92c-0.13,2.88,1.97,4.87,3.09,7.2c2.43,5.06,4.08,10.2,3.92,15.86c-0.07,2.33-0.01,4.66-0.01,6.99
		c-0.38,2.93-1.66,5.28-3.81,7.42c-2.91,2.89-6.4,3.21-9.83,2.31c-7.43-1.95-13.28-6.56-18.3-12.26c-0.25-0.28-0.03-0.97-0.03-1.47
		c-1.45-7.79,1.24-10.52,8.75-8.89c0.64,0.14,1.26,0.42,1.94,0.33c-0.58-0.59-1.39-0.54-2.09-0.69
		c-8.32-1.78-11.14-4.52-10.24-10.23c0.41-2.62,1.34-5.12,2.09-7.67c0.21-0.73,0.51-1.45,0.52-2.23c-0.32,0.74-0.46,1.54-0.71,2.3
		c-2.44,7.73-3.49,8.12-11.25,4.1c-2.11-1.61-2.23-4.2-2.94-6.41c-1.23-3.89-2.23-7.87-2.08-12.04c0.1-2.64,0.09-5.29,0-7.93
		C47.8,6.23,50.12,3.1,53.17,0.42C53.75-0.1,55,0.13,55.95,0.02z"/>
	<path style="fill:#D88611;" d="M41.96,99.93c-1,0-2,0-3,0c-1.98-1.85-2.22-4.4-2.65-6.84c-0.94-5.38-3.14-10.5-3.27-16.04
		c-0.51-1.12,3.55-3.36-0.88-3.54c-1.96-0.26-2.67-1.84-3.41-3.29c-2.85-5.6-6.05-11.07-8.33-16.91
		c-3.69-9.47-8.65-18.2-14.16-26.68C4.75,24.3,2.99,22.02,3,19c2.47-4.61,7.67-4.99,11.89-2.64c2.5,1.39,4.95,2.72,6.94,4.88
		c1.49,1.63,3.26,3.17,5.2,4.17c2.41,1.23,3.95,3.3,5.86,4.99c4.36,3.86,8.72,7.72,13.07,11.57c0.77,1.11,1.14,2.28,0.6,3.6
		c-2.98,2.98-5.4-0.67-8.14-0.71c-0.48-0.01-0.95-0.26-1.42-0.41c0.2,0.35,0.59,0.32,0.9,0.42c3.73,1.26,7.11,3.49,11.13,3.92
		c0.48,0.11,0.94,0.29,1.38,0.51c1.76,1.24,2.08,3.42,3.33,5c1.3,4.11,2.56,8.23,2.58,12.6c0.02,0.84,0.02,1.68,0.03,2.52
		c0.49,4.73-0.96,9.12-2.4,13.5c-0.46,4.01-3.23,6.94-4.85,10.4C47.59,96.58,44.78,98.22,41.96,99.93z"/>
	<path style="fill:#C67018;" d="M52.95,53.97c-1.33,0.18-2.18-0.06-2.05-1.75c0.06-0.77,0.7-2.08-0.95-2.25
		c-0.6-2.33-1.56-4.66,0-6.99c0.25-0.33,0.44-0.87,0.76-0.96c1.57-0.45,2.46-1.31,2.24-3.03c5.62,0.54,11.41,7.14,11.03,12.96
		c-0.18,2.73-0.3,5.63-2.04,8.02c-1.45-0.12-2.82,0.05-4,1C55.06,59.51,56.45,54.99,52.95,53.97z"/>
	<path style="fill:#AD5A17;" d="M61.94,59.97c0.15-2.38-0.09-4.69,0.87-7.11c1.15-2.89-0.85-5.63-2.48-7.81
		c-1.89-2.53-4.15-4.99-7.38-6.06c0-0.67,0-1.33,0-2c2.2,0.16,4.59-0.69,6.32,1.71c0.65,0.9,2.65-0.21,2.6-1.73
		c-0.09-2.97,1.94-5.29,2.12-8.14c0.06-0.86,0.7-1.69,1.16-2.49c0.12-0.2,0.62-0.38,0.83-0.3c0.37,0.16,0.87,0.49,0.92,0.81
		c0.13,0.81,0.3,1.77,0,2.47c-1.67,3.85-2.16,8.05-3.7,11.93c-0.44,1.12-0.54,2.19,0.55,3.06c0.39,0.31,1.03,0.71,1.02,1.05
		c-0.12,4.08,2.73,3.53,5.35,3.67c2.37,0.13,4.72,0.56,7.06,1c0.55,0.1,1.09,0.71,1.46,1.21c0.24,0.32,0.24,0.89,0.18,1.32
		c-0.03,0.18-0.5,0.38-0.79,0.41c-3.25,0.34-6.26-0.66-9.27-1.67c-1.99-0.67-2.2-0.56-2.8,1.53c-0.69,2.38-1.34,4.76-2,7.15
		C63.27,59.97,62.61,59.97,61.94,59.97z"/>
	<path style="fill:#AC5A17;" d="M52.95,53.97c0-0.81-0.05-1.63,0.03-2.44c0.02-0.21,0.46-0.54,0.68-0.52
		c0.43,0.04,1.2,0.26,1.22,0.45c0.26,3.42,2.87,6.08,3.06,9.5c0,0.33,0,0.67,0,1c-0.75,1-0.75,2,0,3c0,0.67,0,1.33,0,2
		c-1,0.81-2,0.81-3,0c0.31-3.22-0.78-6.17-1.64-9.18C52.96,56.57,53.06,55.25,52.95,53.97z"/>
	<path style="fill:#BE7524;" d="M53.95,82.95c-0.38-4.71,1.71-9.25,1-13.99c1-0.81,2-0.81,3,0c0.71,4.95-1.08,9.33-3.17,13.63
		C54.68,82.79,54.23,82.83,53.95,82.95z"/>
	<ellipse style="fill:#B2681C;" cx="56.45" cy="67.96" rx="2.12" ry="1.41"/>
	<path style="fill:#B2681C;" d="M57.95,64.96c-1.37-1-1.37-1.99,0-3C57.95,62.97,57.95,63.96,57.95,64.96z"/>
	<path style="fill:#B6681A;" d="M33.97,75.95c0.03,1.73-0.16,3.42,0.94,5.03c0.65,0.95,0.75,2.3,1.05,3.48
		c0.31,1.2,0.14,2.4,0.54,3.69c1.17,3.82,1.69,7.83,2.46,11.77c-0.67,0-1.33,0-2,0c-5.21-2.27-9.67-5.65-13.31-9.92
		c-2.84-3.35-5.29-7.06-7.64-10.78c-3.14-4.97-6.33-9.96-8.57-15.4c-1.81-4.41-4.12-8.61-4.6-13.6c-0.38-4.05-1.76-8.01-1.9-12.15
		c-0.02-0.7-0.62-1.39-0.96-2.08C0,31.66,0,27.33,0,23c1.04-1.3,0.9-3.49,3-4c2.23,2.53,3.02,5.96,5.11,8.49
		c3.11,3.77,5.01,8.26,7.76,12.24c2.14,3.09,3.56,6.8,4.69,10.43c1.62,5.19,4.71,9.63,6.75,14.59c1.05,2.55,2.51,4.92,3.62,7.44
		c0.5,1.15,1.33,0.62,2.04,0.76C33.99,73.73,34.11,74.8,33.97,75.95z"/>
	<path style="fill:#BA6C1F;" d="M49.95,42.98c0.1,0.94-0.14,2.19,0.37,2.75c1.58,1.7,0.12,2.88-0.37,4.25c-0.33,0-0.67,0-1,0
		c-1.23-1.16-3.77-1.34-3-4c0-1.33,0-2.66,0-4C47.14,42.93,48.51,43.1,49.95,42.98z"/>
	<path style="fill:#BC6C16;" d="M45.96,45.98c1,1.33,2,2.66,3,4c-2.28,0.17-4.21-0.92-6.23-1.72c-3.28-1.31-6.27-3.46-10.05-3.32
		c-0.22,0.01-0.67-0.68-0.65-1.02c0.02-0.32,0.48-0.85,0.8-0.9c3-0.44,7.11,0.72,10.32,2.58C43.91,46.03,45.01,45.87,45.96,45.98z"
		/>
	<path style="fill:#BB6B16;" d="M37.5,66.99c-0.16-0.33-0.55-0.74-0.49-1.08c0.11-0.74,0.23-1.68,0.72-2.14
		c3.41-3.21,6.92-6.33,10.42-9.44c0.08-0.07,0.76,0.27,0.77,0.45c0.04,0.63,0.15,1.49-0.2,1.86C45.4,60.08,42,63.44,38.6,66.79
		C38.42,66.97,38,66.91,37.5,66.99z"/>
	<path style="fill:#E19505;" d="M28.77,60.54c0.79,0.68,1.58,1.08,1.92,1.71c0.58,1.07,0.93,2.28,1.24,3.47
		c0.09,0.35-0.22,1.05-0.53,1.18c-0.33,0.14-1.12-0.06-1.27-0.34c-0.8-1.49-1.49-3.04-2.12-4.61C27.92,61.7,28.38,61.24,28.77,60.54
		z"/>
	<path style="fill:#E79D02;" d="M33.97,75.95c-1.93-0.47-0.62-2.01-1-3c0.23-0.67,0.29-1.73,0.72-1.92
		c0.92-0.39,1.24,0.31,1.33,1.29c0.06,0.68,0.76,1.29,0.92,1.99C36.34,76.03,35.17,76.05,33.97,75.95z"/>
	<path style="fill:#E49905;" d="M41.96,91.7c0,1.38,0.13,2.08-0.06,2.68c-0.08,0.28-0.75,0.46-1.18,0.52
		c-0.23,0.03-0.7-0.28-0.73-0.48c-0.1-0.64-0.15-1.34-0.01-1.96c0.21-0.91-0.89-2.65,1.19-2.41C41.61,90.1,41.88,91.52,41.96,91.7z"
		/>
	<path style="fill:#E69C04;" d="M14.22,31.04c-1.79-0.4-2.78-2.26-2.04-3.68c0.14-0.27,1.16-0.44,1.22-0.34
		c0.59,1.03,1.11,2.11,1.53,3.22C15,30.42,14.42,30.83,14.22,31.04z"/>
	<path style="fill:#E39703;" d="M38.96,82.65c0,0.49,0.05,0.99-0.02,1.46c-0.04,0.28-0.29,0.53-0.44,0.79
		c-0.23-0.2-0.44-0.44-0.7-0.61c-1.22-0.78-0.86-2.01-0.79-3.08c0.03-0.44,0.61-0.85,0.93-1.27c0.34,0.41,0.8,0.78,0.98,1.25
		C39.1,81.62,38.96,82.16,38.96,82.65z"/>
	<path style="fill:#E9A004;" d="M9.99,22.71c-0.04,0.3-0.08,0.61-0.12,0.91c-0.34-0.09-0.71-0.12-1.01-0.28
		c-0.27-0.15-0.47-0.43-0.69-0.67c-0.59-0.66-1.64-1.16-0.99-2.32c0.11-0.2,0.65-0.41,0.78-0.32c0.72,0.52,1.4,1.1,2.01,1.74
		C10.13,21.94,9.99,22.39,9.99,22.71z"/>
	<path style="fill:#E29604;" d="M19.2,38.3c-0.46,0.33-0.69,0.61-0.96,0.67c-1.8,0.36-0.88-1.72-1.88-2.2
		c-0.22-0.11-0.09-1.05-0.01-1.59c0.01-0.1,0.76-0.26,0.83-0.16C17.89,36.09,18.55,37.21,19.2,38.3z"/>
	<path style="fill:#E89D04;" d="M25.49,52.93c0.5,0.62,1.24,1.15,1.41,1.82c0.17,0.66-0.25,1.46-0.4,2.2
		c-0.51-0.58-1.11-1.1-1.49-1.75c-0.21-0.36-0.09-0.95-0.02-1.42C25.04,53.5,25.29,53.25,25.49,52.93z"/>
	<path style="fill:#E39703;" d="M23.42,45.86c-0.62,0.57-1.02,1.13-1.2,1.06c-0.47-0.17-1.08-0.55-1.19-0.96
		c-0.14-0.54,0.15-1.19,0.25-1.79C21.96,44.7,22.62,45.22,23.42,45.86z"/>
</g>
</svg>
