<?xml version="1.0" encoding="utf-8"?>
<!-- Generator: Adobe Illustrator 24.0.0, SVG Export Plug-In . SVG Version: 6.00 Build 0)  -->
<svg version="1.1" id="Calque_1" xmlns="http://www.w3.org/2000/svg" xmlns:xlink="http://www.w3.org/1999/xlink" x="0px" y="0px"
	 viewBox="0 0 112.17 133.93" style="enable-background:new 0 0 112.17 133.93;" xml:space="preserve">
<g>
	<path style="fill:#F7DC2F;" d="M112.11,39.78c0.02,1.02,0.04,2.04,0.06,3.06c-0.09,2.15-0.11,4.31-0.29,6.46
		c-0.31,3.73-1.48,7.06-5.22,9.84c-1.37-1.55-2.68-3.02-4.16-4.69c-2.45,0.65-5.14,1.37-8.13,2.16c-0.26,0.78-0.55,1.66-0.85,2.54
		c-0.19-0.19-0.38-0.37-0.57-0.56c-1.59,1.4-3.18,2.79-4.77,4.19c-0.65,0.54-1.29,0.55-1.9-0.07c0-2.49,0-4.97,0-7.95
		c0.82-1.19,1.92-2.79,3.32-4.81c3.88-0.72,8.06-1.5,12.16-2.26c0-3.78,0.29-7.26-0.05-10.69c-1.04-10.46-1.11-20.89,0.43-31.3
		c0.14-0.98,0.44-1.95,0.79-2.87c0.73-1.92,2.32-3.27,4.2-2.72c1.48,0.43,3.47,1.92,3.73,3.24c0.76,3.87,0.81,7.89,1.07,11.86
		c0.14,2.15,0.14,4.32,0.2,6.48c0,2.66-0.01,5.32-0.01,7.98c0,1,0,1.99,0.01,2.99C112.11,35.04,112.11,37.41,112.11,39.78z"/>
	<path style="fill:#F7DF45;" d="M0.91,82.77c-0.03-0.99-0.06-1.98-0.08-2.97C0.82,74.75,0.8,69.7,0.78,64.65
		c0.08-0.3,0.17-0.6,0.26-0.89c0.61-0.59,1.21-0.6,1.8,0.02c-1.18,5.97-0.9,11.87,0.79,17.72c0.55,1.91,0.96,3.87,1.27,5.84
		c1.76,11.22,7.75,19.92,16.01,27.34c6.08,5.46,12.19,10.87,20.01,13.72c9.86,3.6,19.7,4.27,29.48-0.53
		c4.77-2.34,7.25-6.68,10.08-10.75c0.92-1.32,1.32-3.2,3.54-2.89c-1.76,9.93-6.55,17.22-17.03,19.55c-1.64,0.05-3.28,0.1-4.91,0.15
		c-3.06-0.01-6.12-0.01-9.18-0.02c-1.64-0.02-3.29-0.04-4.93-0.06c-9.84-1.41-18.25-5.87-25.49-12.46
		c-3.67-3.33-6.85-7.2-10.14-10.93C6.69,104.05,4,96.25,2.07,88.11C1.65,86.34,1.3,84.55,0.91,82.77z"/>
	<path style="fill:#F7E049;" d="M86.28,62.71c0.63,0.02,1.27,0.05,1.9,0.07c0.21,8.95,0.98,17.93,0.46,26.84
		c-0.43,7.49,0.61,15.36-3.35,22.37c-0.8,0.37-1.55,0.38-2.24-0.24c0.64-8.57,1.34-17.15,1.9-25.73
		C85.47,78.25,85.85,70.48,86.28,62.71z"/>
	<path style="fill:#F9E771;" d="M2.85,63.78c-0.6-0.01-1.2-0.02-1.8-0.02c0.32-2,0.65-4,0.97-6c0.61-0.6,1.2-0.6,1.75,0.08
		C3.46,59.82,3.15,61.8,2.85,63.78z"/>
	<path style="fill:#FBF0A5;" d="M3.77,57.83c-0.58-0.03-1.17-0.05-1.75-0.08c0.31-1.23,0.62-2.46,0.93-3.68
		c0.34,0.06,0.67,0.13,1.01,0.19C3.9,55.45,3.83,56.64,3.77,57.83z"/>
	<path style="fill:#FAEB85;" d="M83.06,111.74c0.75,0.08,1.49,0.16,2.24,0.24c-0.44,0.76-0.87,1.51-1.31,2.27
		C83.68,113.42,83.37,112.58,83.06,111.74z"/>
</g>
</svg>
