<?xml version="1.0" encoding="utf-8"?>
<!-- Generator: Adobe Illustrator 24.0.0, SVG Export Plug-In . SVG Version: 6.00 Build 0)  -->
<svg version="1.1" id="Calque_3" xmlns="http://www.w3.org/2000/svg" xmlns:xlink="http://www.w3.org/1999/xlink" x="0px" y="0px"
	 viewBox="0 0 158.89 134.98" style="enable-background:new 0 0 158.89 134.98;" xml:space="preserve">
<g>
	<g>
		<path style="fill:none;" d="M85.69,57.37c-2.17-3.2-4.5-6.28-6.76-9.42c0.41,13.03,6.99,22.16,17.99,28.51
			c-0.61-1.63-0.98-3.42-1.88-4.87C92.03,66.79,88.88,62.06,85.69,57.37z"/>
		<path style="fill:none;" d="M144.67,20.45c-1.09-2.12-2.94-3.94-4.73-5.58c-9.51-8.64-21.25-7.51-32.51-6.34
			c-5.76,0.6-11.21,3.93-15.56,8.27c-0.65,2.85,0.79,5.28,2.05,7.49c6.87,12.12,11.75,25.24,18.66,37.3
			c3.35,5.85,5.5,12.47,10.45,17.36c4.11-1.7,8.42-3.02,12.27-5.18c6.99-3.93,11.27-10.22,13.26-17.92
			c0.87-3.34,0.83-6.92,1.67-10.28c1.13-4.54,0.79-8.96-0.59-13.25C148.3,28.26,146.63,24.25,144.67,20.45z"/>
		<path style="fill:#F7DC33;" d="M158.79,43.95c-0.21-2.13-0.65-4.25-0.77-6.39c-0.56-9.79-3.75-18.52-10.82-25.43
			c-4.36-4.26-8.87-8.46-15.44-9.4c-2.66-0.38-5.17-1.79-7.74-2.74c-4.33,0-8.67,0-13,0c-0.66,0.37-1.29,0.99-1.97,1.07
			C98.39,2.26,89.38,6.63,82,14.47c-3.24,3.44-5.52,7.35-7.56,11.58c-3.33,6.9-5.07,14-4.4,21.67c0.11,1.26,0.02,2.54,0.02,4.23
			c-4.72-0.54-8.1,0.51-11.25,3.95c-2.25,2.45-2.81,4.57-2.6,7.47c0.63,8.43,1.43,16.85,1.71,25.29c0.17,5.29-0.29,10.62-0.83,15.9
			c-0.4,3.92-1.11,7.87-2.21,11.66c-1.35,4.66-4.41,8.33-8.83,10.3c-9.39,4.19-17.06,3.49-25.48-3.3
			c-6.1-4.92-9.67-11.66-12.71-18.77c-3.42-8-2.76-16.59-3.97-24.91c-0.17-1.17-0.43-2.32-0.64-3.48c-0.29,0-0.58,0.01-0.88,0.01
			C1.58,77.71,0.79,79.35,0,80.99c0,1.33,0,2.67,0,4c0.86,8.71,2.37,17.31,5.36,25.55c4.62,12.72,12.43,22.1,26.64,24.44
			c1.67,0,3.33,0,5,0c0.49-0.34,0.94-0.9,1.48-1c10.74-2.06,18.07-7.9,20.58-18.84c2.68-11.67,3.26-23.6,3.8-35.5
			c0.29-6.44,0.05-12.9,0.05-19.35c2.68-0.79,5.15-1.52,7.68-2.27c1.23,2.74,2.14,5.44,3.57,7.82c4.16,6.93,10.14,12.27,16.14,17.53
			c0.84,0.74,1.99,1.2,3.08,1.55c10.37,3.31,20.89,5.3,31.76,2.94c5.82-1.26,11.69-2.5,16.25-6.83c5.07-4.82,10.01-9.78,12.38-16.55
			C156.12,57.81,159.52,51.37,158.79,43.95z M78.93,47.95c2.26,3.14,4.59,6.22,6.76,9.42c3.19,4.69,6.34,9.42,9.34,14.23
			c0.9,1.45,1.27,3.24,1.88,4.87C85.92,70.11,79.34,60.98,78.93,47.95z M107.02,79.96C98.9,68.54,92.2,56.25,85.26,44.11
			c-1.73-3.03-3.77-5.9-5.14-9.14c1.59-3.12,3.19-6.23,4.78-9.35c5.1,10.29,10.06,20.66,15.36,30.85
			c3.11,5.98,6.85,11.62,10.11,17.52c1.16,2.1,1.74,4.52,2.59,6.8C110.98,80.51,109,80.24,107.02,79.96z M150.22,45.58
			c-0.84,3.35-0.8,6.93-1.67,10.28c-2,7.7-6.27,13.99-13.26,17.92c-3.84,2.16-8.16,3.48-12.27,5.18
			c-4.95-4.89-7.1-11.51-10.45-17.36c-6.91-12.07-11.79-25.18-18.66-37.3c-1.25-2.21-2.7-4.64-2.05-7.49
			c4.36-4.34,9.81-7.67,15.56-8.27c11.27-1.17,23.01-2.3,32.51,6.34c1.8,1.63,3.64,3.46,4.73,5.58c1.97,3.8,3.64,7.81,4.95,11.88
			C151.01,36.62,151.35,41.04,150.22,45.58z"/>
	</g>
	<path style="fill:#FFFBDF;" d="M80.12,34.97c3.1,0.68,3.42,3.84,4.67,5.86c7.36,11.82,14.34,23.89,21.38,35.91
		c0.54,0.92,0.58,2.15,0.85,3.23c-3.64-0.37-7.25-0.85-10.1-3.5c-5.24-7.27-10.02-14.85-14.99-22.31c-1.31-1.96-1.96-4.16-2.99-6.21
		C77.01,43.41,78.64,39.2,80.12,34.97z"/>
	<path style="fill:#FFFBE0;" d="M91.86,16.8c6.67,13.59,13.25,27.23,20.06,40.75c3.1,6.17,6.68,12.1,9.98,18.18
		c0.54,0.99,0.76,2.15,1.12,3.22c-3.35,0.61-6.7,1.22-10.06,1.83C102.8,64,93.2,46.92,85.19,28.98c-0.48-1.08-0.83-2.19-0.29-3.36
		C86.37,22.01,88.84,19.19,91.86,16.8z"/>
</g>
</svg>
