<?xml version="1.0" encoding="utf-8"?>
<!-- Generator: Adobe Illustrator 24.0.0, SVG Export Plug-In . SVG Version: 6.00 Build 0)  -->
<svg version="1.1" id="Calque_1" xmlns="http://www.w3.org/2000/svg" xmlns:xlink="http://www.w3.org/1999/xlink" x="0px" y="0px"
	 viewBox="0 0 99.99 55.99" style="enable-background:new 0 0 99.99 55.99;" xml:space="preserve">
<g>
	<path d="M26.23,12.34c-0.37,2.53-2.61,5.28,1.36,6.67c2.59,0.91,4.88-0.95,5.94-4.62c0.78-2.72,0.73-5.3-1.7-7.27
		c-2.27-1.85-6.7-2.04-9.46-0.45c-6.21,3.58-10.41,12.53-9.26,19.71c1,6.28,7.12,11.99,14.49,13.43c10.16,1.98,19.26-0.32,26.66-7.6
		c4.6-4.53,8.89-9.44,12.84-14.55C71.84,11.53,77.72,7.36,85.37,6.7c3.22-0.28,7.11,0.68,9.84,2.41c6.26,3.98,5.34,13.09-1.42,16.26
		c-2.33,1.09-5.11,1.76-7.67,1.73c-7.16-0.08-12.55,3.34-17.95,7.51c-7.61,5.87-15.43,11.51-23.53,16.68
		c-6.7,4.28-14.38,4.87-22.14,3.48C5.83,51.79-1.49,32.1,4.39,18.88c2.95-6.64,7.16-11.82,13.72-15.22
		c3.81-1.97,7.65-2.23,11.61-1.49c4.91,0.92,7.25,4.24,7.34,9.79c0.07,4.69-2.34,7.98-6.77,9.23c-2.46,0.69-5.01,1.5-6.62-1.4
		C21.88,16.58,23.14,14.15,26.23,12.34z"/>
</g>
</svg>
