<?xml version="1.0" encoding="utf-8"?>
<!-- Generator: Adobe Illustrator 24.0.0, SVG Export Plug-In . SVG Version: 6.00 Build 0)  -->
<svg version="1.1" id="Calque_1" xmlns="http://www.w3.org/2000/svg" xmlns:xlink="http://www.w3.org/1999/xlink" x="0px" y="0px"
	 viewBox="0 0 83.99 49.99" style="enable-background:new 0 0 83.99 49.99;" xml:space="preserve">
<g>
	<path style="fill:#F7ECE1;" d="M51.99,0c0,0.33,0,0.67,0,1c-3,2.09-6,2.09-9,0c0-0.33,0-0.67,0-1C45.99,0,48.99,0,51.99,0z"/>
	<path style="fill:#D29962;" d="M34,48.99c-2.56,1-5,0-5,0c-4.28-2.7-6.09-6.7-6.12-12.13c-1.11,0.3-2.18,0.4-3.06,0.85
		c-3.02,1.57-5.84,3.62-9,4.77c-1.97,0.72-4.5,0.53-6.63,0.08c-2.63-0.56-4.15-3.93-2.84-6.34c3.21-5.91,5.98-12.11,10.85-16.99
		c1.69-1.7,2.86-3.95,4.67-5.5c2.5-2.14,5.54-3.65,8.02-5.81c2.22-1.94,5.1-2.19,7.52-3.65c2.32-1.41,5.04-2.43,8.01-2.41
		c0.65,0,1.52-1.06,2.58-0.87c3,0,6,0,9,0c7,1.32,13.33,4.15,17.97,9.6c4.28,5.03,8.62,10.12,11.35,16.26
		c1.18,2.67,2.16,5.15,0.89,8.47c-0.99,2.58-2.89,3.91-4.62,4.33c-3.35,0.81-7.03,1.04-10.09-1.6c-1.42-1.22-3.09-2.14-4.91-3.38
		c-0.57,2.13-1.21,4-1.57,5.92c-0.93,4.93-2.44,7.4-7.17,7.47c-1,0.01-1,0.01-3.56-1.06c-2.39-2.76-5.04-5.81-7.92-9.14
		c-1.23,2.01-2.45,3.94-3.62,5.9C37.51,45.82,36.33,47.93,34,48.99z"/>
</g>
</svg>
