<?xml version="1.0" encoding="utf-8"?>
<!-- Generator: Adobe Illustrator 24.0.0, SVG Export Plug-In . SVG Version: 6.00 Build 0)  -->
<svg version="1.1" id="Calque_1" xmlns="http://www.w3.org/2000/svg" xmlns:xlink="http://www.w3.org/1999/xlink" x="0px" y="0px"
	 viewBox="0 0 301.85 151.09" style="enable-background:new 0 0 301.85 151.09;" xml:space="preserve">
<g>
	<path style="fill:#FEF9EC;" d="M0,14.04c0.37,0.02,0.75,0.03,1.12,0.05c1.05,1.3,1.06,2.6-0.01,3.9C0.74,18.01,0.37,18.03,0,18.04
		C0,16.71,0,15.38,0,14.04z"/>
	<path style="fill:#F4D686;" d="M1.11,17.99c0-1.3,0.01-2.6,0.01-3.9C3.21,10.71,3.66,7,7.46,5.72C14.18,3.45,21.24,0,29.97,0
		C35.98,0.01,41.99,0.02,48,0.03c11.07,1.74,22.16,3.33,33.18,5.28c5.01,0.89,9.88,2.49,14.82,3.77c0.09,2.39-2.04,2.86-3.48,3.72
		c-5.64,3.37-10.2,7.94-14.61,12.68c-3.31,3.55-4.51,7.63-2.8,12.38c2.07,5.75,6.21,7.35,11.27,3.84c3.95-2.74,7.74-5.71,11.96-8.04
		c11.25-6.22,23.04-10.96,35.86-12.78c6.81,2.52,13.63,4.99,20.42,7.56c6.49,2.45,12.97,4.95,19.42,7.53
		c1.81,0.73,3.46,1.83,5.19,2.77c-0.58,2.28-2.74,2.73-4.4,3.72c-9.42,5.65-18.89,11.19-25.32,20.57
		c-4.3,6.27-5.02,10.21-2.03,13.57c2.68,3.01,6.87,2.72,13.21-0.71c14.17-7.67,27.87-16.27,43.31-21.35
		c2.02-0.66,4.04-1.74,6.25-0.6c3.24,1.53,6.69,2.74,9.68,4.66c8.17,5.24,16.14,10.77,24.19,16.19c-3.22,3.22-7.54,4.73-11.24,7.21
		c-6.89,4.63-14.01,8.96-19.26,15.6c-1.35,1.71-2.5,3.53-3.03,5.67c-1.77,7.16,2.51,11.27,9.64,9.53
		c8.84-2.16,16.63-6.6,24.54-10.82c7.17-3.82,14.36-7.62,22.47-9.14c12.48,7.45,23.21,16.45,28.19,30.83
		c0.84,2.44,2.63,4.6,4.18,6.74c4.59,6.31,2.07,16.91-7.48,18.39c-4.72,0.73-9.45,1.47-14.17,2.21c-4.35,0.02-8.71,0.04-13.06,0.06
		c-2.99-0.01-5.97-0.02-8.96-0.03c-10.43-0.57-20.7-2.23-30.88-4.51c-19.45-4.36-38.03-11.34-56.25-19.22
		c-19.46-8.42-38.78-17.2-57.84-26.46c-20.59-10-40.19-21.84-59.25-34.51c-11.62-7.72-22.85-16.02-32.62-26.02
		C12.42,33.5,5.43,26.79,1.11,17.99z"/>
	<path style="fill:#D29961;" d="M210.25,53.94c-11.75,3.2-22.64,8.37-33.18,14.38c-6.48,3.69-12.96,7.4-19.58,10.84
		c-5.52,2.87-10.65,0.64-12.96-4.97c-1.12-2.73-0.04-5.04,1.07-7.09c2.93-5.39,6.62-10.19,11.46-14.19
		c6.84-5.64,14.47-9.91,22.16-14.15c2.62,0.96,5.33,1.73,7.84,2.93c7.04,3.34,14.01,6.83,20.97,10.33
		C208.89,52.44,209.52,53.29,210.25,53.94z"/>
	<path style="fill:#D29961;" d="M267.26,92.86c-3.43,1.55-6.9,3-10.27,4.66c-8.01,3.94-15.89,8.16-24,11.89
		c-4.77,2.19-9.8,3.89-14.84,5.38c-4.33,1.28-8.67-2.15-9.17-6.79c-0.43-3.98,0.83-7.38,3.12-10.68c3.38-4.89,8.2-8.14,12.81-11.51
		c5.32-3.89,11.14-7.1,16.78-10.53c0.66-0.4,1.61-0.33,2.42-0.47c5.9,4.57,11.81,9.12,17.7,13.7
		C263.65,89.93,265.45,91.41,267.26,92.86z"/>
	<path style="fill:#D29962;" d="M134.21,20.9c-4.17,1.37-8.34,2.76-12.53,4.09c-12.22,3.91-23.8,9.01-33.74,17.4
		c-3.9,3.29-7.82,3.43-10.96,1.03c-3.08-2.36-5.1-9.41-3.47-13.24c0.89-2.09,2.25-4.06,3.71-5.82c5.25-6.31,11.82-11.04,18.78-15.27
		c7,1.88,14.07,3.58,21,5.7C122.82,16.57,128.48,18.84,134.21,20.9z"/>
</g>
</svg>
