<?xml version="1.0" encoding="utf-8"?>
<!-- Generator: Adobe Illustrator 24.0.0, SVG Export Plug-In . SVG Version: 6.00 Build 0)  -->
<svg version="1.1" id="Calque_1" xmlns="http://www.w3.org/2000/svg" xmlns:xlink="http://www.w3.org/1999/xlink" x="0px" y="0px"
	 viewBox="0 0 162.43 132.97" style="enable-background:new 0 0 162.43 132.97;" xml:space="preserve">
<g>
	<path style="fill:#222224;" d="M56.4,25.08c4.01,4.14,7.99,8.3,12.05,12.38c0.74,0.74,1.77,1.22,2.72,1.73
		c2.32,1.24,4.72,2.36,6.98,3.69c0.79,0.46,1.97,1.65,1.81,2.12c-2.07,6.11,3.8,9.32,5.05,14.16c0.98,3.78-1.3,4.92-4.39,5.41
		c-1.68-2.91-2.04-6.44-4.23-9.06c0,0.02,0-0.04-0.06-0.03c0.45,0.49-0.15-0.14,0.3,0.39c1.21,2.98,2.38,5.94,3.61,8.88
		c-2.32,3.32-5.84,4.44-9.55,5.16c-1.85,0.36-3.59,0.23-4.54-1.8c-2.19-3.96-4.55-7.84-6.49-11.91c-0.69-1.44-0.38-3.36-0.53-5.06
		c0.29-1.34,1.53-1.56,2.5-2.1c-1.59-0.45-3.08-0.98-4.24-2.33c-0.25-0.3-0.05,0.49,0,0.65c0.31,0.98,0.47,1.91-0.31,2.76
		c-4.41-0.68-5.16-1.51-4.96-5.49c0.03-0.66,0.03-1.33,0.15-1.97c0.56-2.83-0.37-4.49-2.4-6.97c-8.3-10.15-20.11-14.27-31.15-19.78
		c-2.37-1.18-5.08-1.69-7.63-2.5c-0.53-0.95-1.2-0.89-1.94-0.26c-0.99-0.33-1.98-0.66-2.97-0.99c-0.68-0.85-1.36-1.33-2.02,0.02
		c-1.33-0.3-2.65-0.6-3.98-0.89c0-0.66,0-1.33,0-1.99c1-4.02,3.09-7.2,6.99-8.97c1,0,2,0,2.99,0c0.36,0.62,0.72,1.24,1.08,1.86
		c0.91,2.59,2.81,3.88,5.46,4.45c12.12,2.58,23.07,7.97,33.76,14.03C52.66,21.93,54.22,23.89,56.4,25.08z"/>
	<path style="fill:#7A4E36;" d="M162.15,96.05c-0.35,0.74-1.07,1.05-1.07,1.05c-1.71,1.18-3.54,0.27-5.32,0.3
		c-1.31-0.1-2.64-0.09-3.94-0.34c-10.54-2.88-20.05-7.72-28.32-14.9c-3.77-3.28-4.4-5.8-2.16-8.31c2.38-2.68,6.72-2.35,9.87,0.74
		c-4.6,3.08-4.57,3.51,0.66,6.58c6,3.51,11.88,7.27,18.46,9.69c1.21,0.45,2.82,1.46,3.7,0.33c1.1-1.4-0.85-2.17-1.58-3.12
		c-0.74-0.95-3.35-1.64-3.04-2.92c0.15-0.59-1.32-3.92,3.08-0.85c4.39,3.07,6.27,5.82,9.4,8.74
		C161.89,93.03,162.91,94.43,162.15,96.05z"/>
	<path style="fill:#8D5F43;" d="M124.96,131.91c-3.89,0.03-5.33,0.02-7.99,0.03c-13.71-0.89-22.91-9.04-29.7-19.79
		c-4.46-7.06-7.2-15.19-10.72-22.85c0.57-3.28-0.79-6.22-2-9.05c-0.92-2.17-2.68-3.88-5.49-2.29c-1.92-0.54-4.63-0.48-5.58-1.74
		c-1.45-1.94-0.06-4.22,1.73-5.92c0.52-0.5,0.64-1.43,0.94-2.16c3.07,2.36,5.94-0.01,8.75-0.63c1.89-0.42,3.47-2.19,5.19-3.36
		l-0.06,0.04c2.85-0.48,4.45-2.21,4.97-5c4.8-0.17,9.25,0.8,12.86,4.18c3.01,2.82,3.04,4.34,0.14,7.3
		c-2.14,2.19-2.68,4.45-1.03,7.14c2.25,3.67,4.4,7.41,6.73,11.04c0.79,1.23,1.8,2.48,3.01,3.23c1.76,1.09,3.48,1.77,4.42-1.42
		c1.34-4.58,3.14-9.05,5.03-13.44c2.59-6.01,5.77-7.42,12.17-5.7c1.59,0.43,5.97,2.29,5.97,2.29c0.19,0.96-0.32,1.49-1.13,1.85
		c-0.85,0.16-1.6,0.01-2.18-0.69c-2.05-3.06-5.07-2.17-7.6-1.37c-2.93,0.93-3.32,4.48-0.8,6.26c5.59,3.94,11.14,7.99,17.06,11.38
		c3.78,2.17,8.19,3.27,12.32,4.84c1.3,1.02,3.75,0.92,5.06,0.92c1.77,0,2.35-0.08,4.05,0.11c-6.63,8.65-13.06,17.45-19.95,25.88
		C137.05,127.96,128.85,131.88,124.96,131.91z"/>
	<path style="fill:#82543C;" d="M69.07,77.96c1.88-2.09,5.07-2.28,6.15,0.14c1.37,3.07,1.86,6.54,2.6,9.86
		c0.07,0.34-0.82,0.89-1.26,1.34c-1.45-2.68-2.79-5.43-4.39-8.02C71.38,80.01,70.11,79.05,69.07,77.96z"/>
	<path style="fill:#46464A;" d="M57.08,50.13c-0.38-2.01-0.76-4.02-1.15-6.07c3.03,1.98,5.73,3.75,8.48,5.55
		c-1.76,0.51-3.52,1.03-5.29,1.54C58.45,50.82,57.77,50.47,57.08,50.13z"/>
	<path style="fill:#3B3C40;" d="M4.16,12.19c-0.03-0.32-0.07-0.65-0.08-0.97C4.08,10.5,4.09,9.78,4.1,9.06
		c0.52,0.42,1.17,0.75,1.53,1.28c0.34,0.5,0.38,1.21,0.55,1.83C5.51,12.18,4.83,12.19,4.16,12.19z"/>
	<path style="fill:#333437;" d="M9.15,13.16c0.68-0.57,1.36-1.14,2.04-1.72c-0.03,0.66-0.07,1.32-0.1,1.98
		C10.45,13.33,9.8,13.24,9.15,13.16z"/>
	<path style="fill:#49494D;" d="M56.4,25.08c-2.44-1.15-5.02-2.08-7.29-3.5C38.39,14.91,26.92,10.14,14.61,7.3
		c-4.13-0.95-4.33-1.42-3.37-5.1c12.88,1.97,24.8,6.54,35.55,13.8C50.4,18.43,53.22,22.02,56.4,25.08z"/>
	<path style="fill:#7A4E36;" d="M141.66,77.67c3.61,2.21,7.22,4.42,10.84,6.63c-0.2,0.27-0.41,0.53-0.61,0.8
		c-4.28,0.56-10.63-3.37-11.77-7.3C140.61,77.59,141.13,77.55,141.66,77.67z"/>
	<path style="fill:#825A42;" d="M141.66,77.67c-0.59,0.15-0.36,2.02-0.95,2.16c-3.5,1.74-6.8-0.68-7.88-4.68
		c0.49-0.45,0.98-0.91,1.47-1.36C136.75,75.08,139.2,76.38,141.66,77.67z"/>
	<path style="fill:#404145;" d="M59.09,36.21c3.32-0.95,4.54,2.08,6.5,3.56c1.26,0.95,2.03,2.54,3.03,3.87
		c-2.49,1.55-4.22,1.21-5.61-1.46c-1.09-2.1-2.61-3.97-3.94-5.94L59.09,36.21z"/>
	<path style="fill:#404144;" d="M76.08,55.13c4.05,2.7,4.97,4.82,3.96,9.05l0.06-0.04c-3.14-2.18-4.06-5.37-4.07-8.97L76.08,55.13z"
		/>
	<path style="fill:#404145;" d="M55.09,32.22c2.32,0.34,4.31,1.01,4,3.99l-0.02,0.02c-1.33-1.33-2.66-2.66-3.99-3.99L55.09,32.22z"
		/>
	<path style="fill:#404145;" d="M55.07,32.24c-1.65-0.76-3.29-1.52-4.94-2.27c0.3-0.46,0.6-0.92,0.91-1.38
		c1.35,1.21,2.7,2.42,4.05,3.63L55.07,32.24z"/>
	<path style="fill:#404145;" d="M45.09,25.26c0.54,0.42,1.09,0.83,1.63,1.25c-0.12,0.11-0.24,0.23-0.36,0.34
		c-0.42-0.54-0.84-1.07-1.26-1.61L45.09,25.26z"/>
	<path style="fill:#404144;" d="M76.02,55.17c-0.24-0.2-0.63-0.35-0.7-0.6c-0.2-0.66-0.26-1.36-0.38-2.05
		c0.38,0.55,0.8,1.07,1.11,1.65c0.13,0.25,0.03,0.63,0.04,0.95L76.02,55.17z"/>
	<path style="fill:#3F4043;" d="M45.11,25.24c-0.74-0.1-1.48-0.2-2.22-0.29c0.11-0.2,0.3-0.58,0.32-0.58
		c0.64,0.27,1.26,0.59,1.89,0.89L45.11,25.24z"/>
	<path style="fill:#3F4043;" d="M41.45,22.71c-0.22,0.16-0.47,0.47-0.66,0.44c-0.34-0.06-0.64-0.32-0.95-0.5
		c0.27-0.11,0.55-0.31,0.81-0.3C40.92,22.36,41.18,22.58,41.45,22.71z"/>
	<path style="fill:#46464A;" d="M62.42,51.8c-0.14,0.05-0.28,0.1-0.42,0.16c-0.04-0.2-0.09-0.39-0.13-0.59
		c0.15,0.02,0.33,0.01,0.45,0.09C62.4,51.5,62.39,51.68,62.42,51.8z"/>
	<path style="fill:#1B1919;" d="M132.82,75.16c2.35,0.99,4.7,1.97,7.05,2.96c4,2.33,8.77,5.8,11.65,7.91
		c2.87,2.11,3.31,2.81,4.65,4.78c0.9,1.32,0.37,2.23-1.24,2.2c-1.3-0.03-2.72,0.02-3.86-0.48c-8.77-3.85-17.55-7.72-24.76-14.27
		c-0.76-0.69-1.95-1.59-1.35-3.55S132.21,75.09,132.82,75.16z"/>
	<path style="fill:#A38057;" d="M155.48,97.51c-1.29,0.61-2.58,2.75-3.89,0.02C152.88,97.52,154.18,97.51,155.48,97.51z"/>
	<path style="fill:#A38057;" d="M148.33,103.75c0.93-1.47,1.74-2.75,2.55-4.03c0.61,0.39,1.44,0.64,1.76,1.2
		c0.33,0.57,0.44,1.59,0.13,2.12c-0.75,1.3-1.8,2.43-2.73,3.64C149.54,105.81,149.04,104.94,148.33,103.75z"/>
	<path style="fill:#A38157;" d="M115.23,99.87c0.28,0.92,0.58,1.44,0.54,1.93c-0.02,0.3-0.55,0.56-0.86,0.84
		c-0.26-0.47-0.66-0.92-0.74-1.42C114.14,100.94,114.64,100.59,115.23,99.87z"/>
	<path style="fill:#9E7852;" d="M98.88,96.23c0.28,0.14,0.68,0.22,0.79,0.44c0.1,0.19-0.13,0.55-0.22,0.84
		c-0.27-0.17-0.63-0.28-0.78-0.52C98.58,96.83,98.8,96.49,98.88,96.23z"/>
	<path style="fill:#A07C55;" d="M101.01,100.63c-0.25,0.29-0.42,0.48-0.59,0.67c-0.12-0.27-0.34-0.54-0.34-0.8
		c0-0.27,0.22-0.54,0.34-0.8C100.63,100.02,100.83,100.34,101.01,100.63z"/>
</g>
</svg>
