<?xml version="1.0" encoding="utf-8"?>
<!-- Generator: Adobe Illustrator 24.0.0, SVG Export Plug-In . SVG Version: 6.00 Build 0)  -->
<svg version="1.1" id="Calque_1" xmlns="http://www.w3.org/2000/svg" xmlns:xlink="http://www.w3.org/1999/xlink" x="0px" y="0px"
	 viewBox="0 0 366.09 174.64" style="enable-background:new 0 0 366.09 174.64;" xml:space="preserve">
<g>
	<path style="fill:#F2CECF;" class="accent-color" d="M0.91,74.78l-0.46,0L0,74.74c0-2.33,0-4.66,0-6.99c0.35,0.01,0.7,0.01,1.05,0.02
		C2.79,70.13,2.84,72.48,0.91,74.78z"/>
	<path style="fill:#F9E6E7;" class="accent-color" d="M144.91,173.57c0,0.36,0.01,0.71,0.01,1.07c-1.67,0-3.33,0-5,0c0.01-0.36,0.01-0.73,0.02-1.09
		C141.61,172.24,143.26,172.24,144.91,173.57z"/>
	<path style="fill:#F8E4E4;" class="accent-color" d="M262.87,173.67c0,0.32,0,0.64-0.01,0.97c-1.67,0-3.33,0-5,0c0-0.35,0.01-0.7,0.01-1.06
		C259.57,172.23,261.23,172.21,262.87,173.67z"/>
	<path style="fill:#D2565A;" class="accent-color" d="M124.12,70.27c-5.4,0.51-9.29-3.54-12.13-7.93c-7.74-11.96-15.01-24.22-22.18-36.53
		c-1.8-3.1-2.8-6.75-3.69-10.26c-0.9-3.55-0.34-6.99,2.97-9.35c3.28-2.34,6.51-1.28,9.22,0.83c4.96,3.87,9.99,7.76,14.38,12.25
		c8.12,8.3,15.79,17.05,23.67,25.59c2.76,2.98,3.37,6.34,2.18,10.15c-0.69,2.22-1.24,4.48-1.92,6.7
		C134.65,68.17,131.75,70.29,124.12,70.27z"/>
	<path style="fill:#D2575A;" class="accent-color" d="M262.87,173.67c-1.67-0.03-3.33-0.06-5-0.09c-1.24-0.47-2.5-0.88-3.71-1.42
		c-9.35-4.12-11.42-10.85-7.37-20.23c5.36-12.44,12.06-24,20.54-34.5c2.46-3.04,5.49-5.87,8.81-7.91c6.48-3.99,13.17,0.06,12.66,7.7
		c-0.33,4.92-1.33,9.91-2.88,14.59c-3.44,10.38-7.3,20.62-11.21,30.84C272.61,168.17,269.11,172.47,262.87,173.67z"/>
	<path style="fill:#D2575A;" class="accent-color" d="M366.09,68.59c-0.21,7.86-4.26,14.21-8.33,20.46c-4.34,6.65-9.37,12.87-13.47,19.65
		c-8.13,13.43-18.03,9.05-25.53,1.03c-6.21-6.65-6.56-9.76-1.09-17.02c9.03-11.98,19.18-22.93,32.48-30.42
		c1.71-0.96,3.63-1.7,5.54-2.16C362.56,58.49,366.17,61.49,366.09,68.59z"/>
	<path style="fill:#D2565A;" class="accent-color" d="M280.19,13.2c-2.23,8.5-4.88,18.79-7.64,29.05c-1.08,4.01-2.73,7.89-3.53,11.95
		c-1.56,7.93-10.2,10.69-16.04,11.04c-6.12,0.37-13.51-4.67-14.72-10.59c-0.61-2.96,0.27-6.65,1.57-9.51
		c6.5-14.27,14.74-27.52,24.59-39.76c2.7-3.35,5.34-6.65,10.34-4.9C278.34,1.73,280.39,5.95,280.19,13.2z"/>
	<path style="fill:#D2575A;" class="accent-color" d="M0.91,74.78C0.95,72.44,1,70.1,1.05,67.76c3.68-4.8,6.85-5.49,13-3.05
		c12.85,5.1,23.41,13.73,34.23,21.96c1.58,1.2,2.96,2.74,4.68,3.69c7.74,4.29,7.93,18.49-2.25,22.52
		c-7.45,2.95-14.58,2.45-20.11-3.41c-8.98-9.54-17.64-19.38-26.34-29.19C2.86,78.7,2.01,76.63,0.91,74.78z"/>
	<path style="fill:#D2575A;" class="accent-color" d="M144.91,173.57c-1.66-0.01-3.31-0.02-4.97-0.03c-2.92-3.05-6.41-5.73-8.64-9.21
		c-7.22-11.27-12.78-23.29-14.8-36.72c-0.65-4.34-0.97-8.56,3.21-11.16c4.32-2.69,8.64-1,11.96,1.97
		c10.87,9.71,20.1,20.89,26.89,33.8c4.81,9.15-0.08,18.25-10.26,20.54C147.16,173,146.04,173.3,144.91,173.57z"/>
	<path style="fill:#D2565A;" class="accent-color" d="M171.92,87.74c0.98-10.91,1.8-21.83,3.06-32.7c0.31-2.67,1.78-5.38,3.26-7.72
		c2.56-4.04,6.4-4.28,9.43-0.54c1.74,2.14,2.92,4.81,4.06,7.37c4.74,10.67,6.63,22.16,6.35,33.55c-0.12,5.09-4.03,11.11-7.98,14.82
		c-4.6,4.33-16.3-2.44-17.3-9.27c-0.26-1.81-0.29-3.65-0.42-5.47C172.23,87.76,172.07,87.75,171.92,87.74z"/>
</g>
</svg>
