<?xml version="1.0" encoding="utf-8"?>
<!-- Generator: Adobe Illustrator 24.0.0, SVG Export Plug-In . SVG Version: 6.00 Build 0)  -->
<svg version="1.1" id="Calque_1" xmlns="http://www.w3.org/2000/svg" xmlns:xlink="http://www.w3.org/1999/xlink" x="0px" y="0px"
	 viewBox="0 0 136.97 80.59" style="enable-background:new 0 0 136.97 80.59;" xml:space="preserve">
<g>
	<path style="fill:#E42825;" d="M29.9,72.33c-5.24,1.41-9.93-0.33-14.25-2.93C8.1,64.86,3.02,58.3,0.53,49.73
		c-0.85-2.93-0.69-5.7,0.65-8.2c2.02-3.76,2.95-7.34,2.18-11.79c-0.8-4.65,2.24-8.57,5.05-12.04c4.72-5.84,9.01-6.67,15.78-3.29
		c2.81,1.41,5.37,3.3,8.11,4.86c1.1,0.62,2.38,0.91,3.59,1.34c1.4,1.18,1.41,3.12,2.49,4.47c0.55,0.92,1.11,1.82,1.7,2.71
		c0.24,0.35,0.43,0.73,0.6,1.11c0.48,1.62,1.41,2.95,2.63,4.1c0.45,0.47,0.84,0.97,1.2,1.51c0.36,0.56,0.69,1.13,1.01,1.72
		c0.25,0.39,0.46,0.79,0.68,1.2c2.07,3.79,4.61,7.32,5.39,11.74c0.44,2.52,0.7,4.94-0.37,7.33c-0.18,0.39-0.42,0.77-0.68,1.11
		c-0.53,0.62-1.17,1.14-1.7,1.76c-0.23,0.31-0.49,0.6-0.74,0.89c-0.23,0.3-0.49,0.59-0.74,0.87c-0.12,0.15-0.25,0.29-0.36,0.44
		c-0.47,0.6-0.89,1.23-1.28,1.89c-0.19,0.35-0.41,0.67-0.65,0.99c-0.47,0.65-0.92,1.31-1.38,1.97c-0.24,0.35-0.52,0.66-0.82,0.96
		c-0.79,0.74-1.5,1.58-2.52,2.03C36.92,70.58,33.31,71.08,29.9,72.33z"/>
	<path style="fill:#E52B28;" d="M43.88,34.62c-0.32-0.32-0.64-0.64-0.96-0.95c-1.03-1.66-1.91-3.42-3-5.04l0,0
		c-0.59-0.75-0.84-1.62-0.97-2.55c-0.17-2.43-0.89-4.64-2.64-6.42c0.28-3.39,0.78-4.26,3.33-4.04c1.85,0.16,3.88,0.82,5.38,1.89
		c3.73,2.66,7.2,5.67,10.78,8.55c3.79,1.69,4.3,4.79,3.62,8.41c0.95,5.78,0.88,11.43-1.06,17.1c-1,2.91-1.33,6.12-1.49,9.22
		c-0.15,2.94-0.88,5.57-2.66,7.82c-2.87,3.63-5.92,7.12-8.85,10.7c-0.97,1.18-2.2,1.59-3.53,1.05c-3.19-1.28-6.41-2.54-9.41-4.19
		c-0.89-0.49-1.08-2.24-1.6-3.42c2.73-2.04,6.39-1.54,9.18-3.39c1.6-0.23,1.88-1.89,2.93-2.72l-0.01,0.01
		c0.76-0.94,1.28-2.05,2.01-3.01l-0.01,0.01c1.01-0.78,1.26-2.06,2.01-3.01l-0.01,0.01c0.34-0.33,0.68-0.67,1.01-1.01l-0.01,0.01
		c0.67-0.67,1.34-1.33,2.01-2.01l-0.01,0.01c0.95-1.17,2.37-0.39,3.68-0.49c-1.48-7.72-3.74-14.69-8.68-20.52l0.01,0.01
		C44.35,36.09,44.51,35.15,43.88,34.62z"/>
	<path style="fill:#A3CC7E;" d="M59.41,34.47c-1.21-2.8-2.41-5.61-3.62-8.41c1.14-1.05,2.28-1.91,3.96-0.94
		c2.33,1.34,4.24,0.45,6.41-0.88c3.5-2.15,7.35-3.73,11-5.64c2.6-1.36,5.11-2.88,7.75-4.38c-0.86-0.6-1.79-0.93-2.13-1.57
		c-0.41-0.75-0.73-2.16-0.33-2.58c0.66-0.69,1.9-0.86,2.92-1.15c0.23-0.07,0.6,0.25,0.87,0.44c2.85,2.09,5.5,1.37,8.16-0.46
		c1.84-1.27,3.91-1.61,6.16-1.25c4.41,0.7,8.19-0.36,10.98-4.12c2.23-3,5.59-2.15,8.3-1.59c2.75,0.57,5.09,1.43,7-1.92
		c0.97,1.39,2.06,2.26,1.92,2.87c-0.65,2.91,1.31,4.68,2.65,6.66c2.71,4.01,4.51,8.37,5.56,13.07c-0.07,1.63-0.15,3.26-0.22,4.89
		c-1.95,0.57-3.13-0.15-3.81-2.06c-0.71-1.98-1.62-3.89-2.43-5.79c-1.51,0.36-2.72,0.65-3.86,0.93c-1.89-2.55-0.03-4.59,0.47-6.9
		c-3.45-4.91-7.65-6.57-13.95-5.45c-6.7,1.19-12.26,4.62-18.28,7.09c-6.06,2.49-11.83,5.7-18.04,8.74c0,1.13-0.02,2.26,0,3.39
		c0.03,1.48-0.49,2.85-2,2.93c-0.9,0.05-1.91-0.89-2.78-1.5c-0.35-0.25-0.48-0.81-0.8-1.42C67.13,29.57,62.71,31.03,59.41,34.47z"/>
	<path style="fill:#B32827;" d="M40.91,69.61c-2.86,2.66-6.32,3.4-10.09,3.13c-0.3-0.14-0.61-0.27-0.91-0.41
		c0.26-0.54,0.43-1.47,0.8-1.56c3.38-0.81,6.79-1.48,10.2-2.19c0.3,0.23,0.41,0.45,0.31,0.68C41.11,69.5,41.01,69.61,40.91,69.61z"
		/>
	<path style="fill:#BE2625;" d="M36.31,19.67c1.09,0.03,2.38-0.39,2.69,1.3c0.28,1.56,0.61,3.11,0.92,4.67
		c-0.67,0.58-1.35,0.58-2.02,0c-2.67-0.87-1.88-3.14-2.02-5.02C36.03,20.3,36.17,19.98,36.31,19.67z"/>
	<path style="fill:#AE2727;" d="M24.93,32.61c-0.82-0.28-1.92-1.03-2.4-0.74c-1.64,1-3.77,2.06-4.44,3.64
		c-2.88,6.8-2.76,13.73,1.4,20.01c1.84,2.77,4.63,4.91,6.72,7.06c3.26-0.31,4.66-3.61,7.68-2.97l0.03,0.03
		c0.1,2.41-2.06,3.22-3.34,4.64c-0.3,0.33-0.89,0.39-1.32,0.62c-7.16,3.92-8.63,3.74-15.5-2.26c2.79,0.44,5.11,0.8,8.39,1.32
		c-1.07-1.36-1.46-2.3-2.13-2.63c-5.35-2.6-6.16-7.78-7.01-12.71c-0.7-4.05-0.34-8.33,1.11-12.15c0.92-2.41,3.25-4.28,5.05-6.53
		c-1.13-1.51-3.19-1.36-5.25-1.25c-0.31-0.24-0.41-0.47-0.3-0.7c0.1-0.23,0.21-0.35,0.31-0.35c1.07-0.33,2.35-1.21,3.18-0.89
		c3.21,1.22,6.88,0.26,9.9,2.35c1.36,0.94,2.96,1.06,2.85-1.48c0.35-0.42,0.7-0.44,1.05,0c1.97,1.92,3.49,4.03,3.01,7
		C30.51,35.85,27.74,34.11,24.93,32.61z"/>
	<path style="fill:#A92727;" d="M35.91,37.64c-1.47,3.98-0.93,8.13-1,12.22c-0.04,2.28-0.02,2.28-1.45,4.62
		c-3.14-0.45-6.16-1.55-7.42-4.65c-1.44-3.55-3.14-7.25-1.57-11.31c0.23-0.6,0.29-1.26,0.43-1.9c2.14,0.63,4.14,1.54,6.49,0.14
		C32.76,35.96,34.54,36.61,35.91,37.64z"/>
	<path style="fill:#BE2625;" d="M44.91,36.63c0.48,0.06,1.22-0.05,1.41,0.22c4.38,6.09,7.2,12.86,8.55,20.23
		c0.19,1.06-0.11,2.2-0.21,3.67c-2.08-0.75-1.95-4.34-4.75-3.11c2.28-5.95,0.15-11.14-2.72-16.23
		C46.32,39.87,45.66,38.22,44.91,36.63z"/>
	<path style="fill:#DC2523;" d="M35.91,37.64c-3.13-0.05-6.39-0.55-8.14,2.62c-1.03-1.31-1.95-2.47-2.86-3.63
		c0-1.34,0.01-2.67,0.01-4.01c3.31-0.71,5.99,1.39,9,2.03C34.59,35.64,35.25,36.64,35.91,37.64z"/>
	<path style="fill:#C72624;" d="M30.92,27.63c-0.35,0-0.7,0-1.05,0c-0.95-0.88-2.21-1.59-2.81-2.67c-1.8-3.27-4.08-4.93-7.87-3.33
		c-0.28,0.12-0.66,0.06-0.99,0c-0.31-0.05-0.61-0.21-0.91-0.31c4.82-3.89,6.98-3.36,11.18,1.54C29.6,24.18,30.12,26.03,30.92,27.63z
		"/>
	<path style="fill:#C72625;" d="M13.94,27.65c0,0.35,0,0.7-0.01,1.05c-1.63,4.94-1.81,5.22-5,6.99
		C9.95,32.24,10.76,29.26,13.94,27.65z"/>
	<path style="fill:#CC2524;" d="M39.91,28.63c2.11,1.02,3.35,2.55,3,5.04C40.88,32.61,39.54,31.13,39.91,28.63z"/>
	<path style="fill:#CC2524;" d="M37.91,25.64c0.67,0,1.35,0,2.02,0c0,1-0.01,1.99-0.01,2.99C38.45,28.17,37.81,27.15,37.91,25.64z"
		/>
	<path style="fill:#BE2625;" d="M46.92,60.63c-0.04,1.43,0.49,3.23-2.01,3.01C44.81,62.12,45.46,61.1,46.92,60.63z"/>
	<path style="fill:#BE2625;" d="M40.91,69.61c0-0.34,0-0.69-0.01-1.03c-0.13-1.48,0.57-2.11,2.02-1.96
		C43.02,68.14,42.39,69.16,40.91,69.61z"/>
	<path style="fill:#BE2625;" d="M49.92,57.63c0.14,1.48-0.51,2.17-2.01,2.01C47.76,58.15,48.41,57.46,49.92,57.63z"/>
	<path style="fill:#BE2625;" d="M44.92,63.63c0.15,1.55-0.54,2.54-2.01,3.01C42.77,65.09,43.46,64.11,44.92,63.63z"/>
	<path style="fill:#C12625;" d="M33.9,58.62c0.46-0.63,0.92-1.25,1.39-1.88c0.19,0.12,0.38,0.25,0.57,0.37
		c-0.32,0.5-0.63,1.01-0.95,1.51C34.57,58.98,34.24,58.99,33.9,58.62z"/>
	<path style="fill:#BE2625;" d="M43.88,34.62c0.35,0.67,0.7,1.34,1.05,2.02C44.57,35.97,44.22,35.3,43.88,34.62z"/>
	<path style="fill:#AE2727;" d="M33.9,58.62c0.34,0,0.67,0,1.01,0.01c-0.33,0.34-0.65,0.68-0.98,1.01l-0.03-0.03
		C33.87,59.28,33.88,58.95,33.9,58.62z"/>
	<path style="fill:#BE2625;" d="M47.92,59.63c-0.34,0.34-0.67,0.67-1.01,1.01C47.25,60.3,47.58,59.97,47.92,59.63z"/>
</g>
</svg>
