<?xml version="1.0" encoding="utf-8"?>
<!-- Generator: Adobe Illustrator 24.0.0, SVG Export Plug-In . SVG Version: 6.00 Build 0)  -->
<svg version="1.1" id="Calque_1" xmlns="http://www.w3.org/2000/svg" xmlns:xlink="http://www.w3.org/1999/xlink" x="0px" y="0px"
	 viewBox="0 0 91.98 46.52" style="enable-background:new 0 0 91.98 46.52;" xml:space="preserve">
<g>
	<path style="fill:#75C1EC;" d="M43.9,16.33c1.41,1.68,2.98,3.25,4.17,5.07c1.11,1.71,2.04,3.37,4.46,3.01
		c0.49,0.1,0.87,0.35,1.15,0.77c2.65,5.75,7.7,9.34,12.82,12.13c6.46,3.52,17.63-4.16,18.06-11.84c0.18-3.34-0.39-6.73-1.6-9.82
		c-2.38-6.08-8.34-6.71-14.3-1.7c-2.77,2.59-2.63,5.94-2.35,9.29c0.2,2.34,1.43,4.1,3.56,5.03c1.79,0.78,3.39-0.15,4.39-1.48
		c1.47-1.95,1.87-4.16-0.42-7.13c-0.12,3.08,2.89,6.48-1.41,7.37c-2.6,0.54-4.47-0.82-4.87-3.7c-0.7-7.21,3.87-9.53,9.79-10.63
		c3.49,0.13,3.94,2.94,4.57,5.43c0.52,2.03,1.1,4.1,0.82,6.25c-0.85,2.07-2.45,3.87-2.35,6.31c-0.76,1.89-2.45,2.7-4.12,3.53
		c-0.86,0.36-1.74,0.67-2.64,0.93c-2.33,0.72-4.66-0.75-6.99,0.04c-4.04,0.01-6.29-2.58-8.2-5.66c-0.94-5.49-3.41-10.64-3.56-16.3
		C60.48,9.45,66,5.5,71.79,2c1.22-0.74,3.62-0.32,5.12,0.37c3.93,1.8,7.75,3.87,11.4,6.19c1.21,0.77,2.32,2.55,2.46,3.98
		c0.6,5.96,0.75,11.96,1.19,17.93c0.17,2.24-0.58,3.68-2.42,5c-3.79,2.71-7.34,5.73-11.07,8.53c-3.61,2.71-7.73,3.19-11.85,1.7
		c-5.44-1.97-10.77-4.25-16.08-6.54c-2.31-1-4.47-1.2-7.05-1.19c-3.82,0.01-7.64-1.72-11.47-2.71c-0.54-1.75,0.09-2.86,1.82-3.37
		c2.77,0.79,5.68,0.75,8.88,1.81c-1.61-2.47-6.08-2.6-4.02-6.59c2.58-1.08,3.13-3.31,3.23-5.79c0.25-1.02,0.46-2.05,0.48-3.11
		C42.57,17.29,42.96,16.59,43.9,16.33z"/>
	<path style="fill:#CEDFDF;" d="M43.9,16.33c-0.38,0.63-0.75,1.27-1.13,1.9c-0.09,1.18-0.92,1.99-1.45,2.95
		c-1.42,2.05-2.7,4.18-3.81,6.41c-1.26,1.54-1.51,3.86-3.64,4.71c-0.62,0.98-1.23,1.96-1.85,2.94c-2.76-1.69-5.51-3.37-8.27-5.06
		c-2.04-3.58,0.83-6.74,0.95-10.55C16.54,15.93,7.71,13.4,0.04,8.42C0.6,2.6,4.62-1.46,9.29,0.5c6.85,2.88,13.1,7.18,19.61,10.88
		c2.4,3.5,2.89,0.11,3.98-1.11c0.09-0.14,0.23-0.41,0.26-0.4C37.06,11.46,41.51,12.18,43.9,16.33z"/>
	<path style="fill:#9BACB6;" d="M0.04,8.42c4.25,1.63,8.49,3.3,12.77,4.86c3.82,1.39,7.66,2.73,11.53,3.96
		c2.21,0.7,2.8,1.81,1.99,4.06c-1.04,2.9-1.74,5.92-2.58,8.88c-0.59-0.74-1.79-1.59-1.68-2.19c0.73-3.9-1.88-5.08-4.61-6.51
		c-4.82-2.53-9.51-5.31-14.27-7.96C1.17,12.4-0.27,10.96,0.04,8.42z"/>
	<path style="fill:#A2D3EF;" d="M54.86,13.24c0.64,0.73,1.62,1.37,1.86,2.21c1.15,4.07,2.13,8.2,3.05,12.33
		c0.1,0.44-0.57,1.05-0.89,1.59c-3.74,0.13-4.44-2.86-5.54-5.43c-0.89-2.48-0.18-5.02-0.3-7.53C53.66,15.35,54.26,14.29,54.86,13.24
		z"/>
	<path style="fill:#A7B8C0;" d="M32.88,10.27c0.03,2.84-1.06,4.7-4.65,4.99c0.26-1.49,0.46-2.69,0.67-3.89
		C30.23,11.01,31.56,10.64,32.88,10.27z"/>
	<path style="fill:#77B4D8;" d="M53.05,16.4c0.31,2.61,0.62,5.22,0.94,7.83c-0.26,0.36-0.57,0.42-0.95,0.18l-0.26-0.03l-0.26,0.03
		C52.7,21.74,52.88,19.07,53.05,16.4z"/>
	<path style="fill:#589AC1;" d="M53.05,24.41c0.31-0.07,0.63-0.13,0.95-0.18c1.63,1.71,3.27,3.42,4.9,5.13
		c2.64,1.7,5.28,3.41,7.92,5.11c0.8-0.06,1.58-0.01,2.33,0.3c0.87,0.52,1.78,0.66,2.74,0.25c0.56-0.16,1.13-0.15,1.71-0.17
		c0.94-0.28,1.6-1.04,2.45-1.48c1.33-0.98,2.66-1.97,4-2.95c-0.06-0.75,0.09-1.46,0.45-2.13c0.27-0.48,0.44-1,0.54-1.55
		c0.15-0.55,0.45-1,0.85-1.39c-0.59-2.99-0.95-6.05-1.87-8.94c-0.4-1.26-1.93-2.16-2.94-3.22c-0.22,0.02-0.44,0.04-0.66,0.07
		c-0.44,0.09-0.88,0.18-1.31,0.28c-2.23,0.3-4.44,1.4-6.72,0.24c-0.16-0.17-0.31-0.34-0.47-0.52c2.65-4.16,6.94-4.94,10.9-3.65
		c3.62,1.18,5.85,4.47,6.23,8.81c0.37,4.24,2.16,8.5-0.89,12.43c-3.89,5-8.57,8.65-15.3,8.5c-0.97-0.02-2.19-0.02-2.86-0.57
		c-4.22-3.42-8.4-6.9-12.37-10.61C52.88,27.5,53.21,25.7,53.05,24.41z"/>
	<path style="fill:#589AC1;" d="M68.01,23.29c0.73,0.88,1.3,2.09,2.24,2.53c0.85,0.4,2.1-0.04,3.17-0.11
		c-0.26-1.1-0.43-2.23-0.81-3.28c-0.33-0.91-1.35-1.81-1.21-2.56c0.12-0.64,1.51-1.53,2.23-1.44c0.95,0.11,2.11,0.88,2.62,1.71
		c1.75,2.86-0.29,8.1-3.63,9.75c-2.28,1.13-6.63-0.96-7.28-4.3c-0.82-4.26-1.83-8.97,2.57-12.32l0.1,0.1
		c1.49,1.71,0.15,3.33-0.13,4.98c-0.17,0.92-0.57,1.84-0.12,2.79C68.02,21.84,68.49,22.51,68.01,23.29z"/>
	<path style="fill:#A5D5F1;" d="M33.86,32.3c1.06-1.69,2.12-3.38,3.17-5.06c0.65-0.51,1.29-0.44,1.92,0.03
		c0.53,1.03,0.81,2.39,1.64,3.03c1.49,1.16,3.31,1.89,5.07,2.84C42.92,35.27,36.73,34.74,33.86,32.3z"/>
	<path style="fill:#95CEF0;" d="M66.77,19.24c0.41-1.96,0.82-3.92,1.23-5.87c2.64-0.35,5.28-0.71,7.91-1.06
		c0.34,0.33,0.64,0.69,1.06,0.91c0,0,0.08-0.02,0.08-0.02c-1.04,0.69-1.99,1.74-3.13,2.02c-4.7,1.17-4.91,1.41-4.52,6.23
		c0.05,0.57-0.91,1.22-1.4,1.84c-0.38-0.65-0.77-1.29-1.15-1.94C66.36,20.67,66.39,19.96,66.77,19.24z"/>
	<path style="fill:#5DA0C7;" d="M38.96,27.26c-0.64-0.01-1.28-0.02-1.92-0.03c1.29-2.31,2.58-4.61,3.88-6.92
		c0.69-0.55,1.38-0.64,2.08-0.02c-0.03,1.13-0.2,2.27-0.06,3.38C43.37,26.9,41.69,27.64,38.96,27.26z"/>
	<path style="fill:#A5D5F1;" d="M68.88,35.51c-0.69-0.35-1.39-0.69-2.08-1.04c2.38-0.04,4.75-0.09,7.13-0.13
		c0.3,0.21,0.39,0.41,0.28,0.61c-0.11,0.19-0.21,0.29-0.32,0.29c-0.65,0.08-1.29,0.16-1.94,0.24C70.94,36,69.91,35.96,68.88,35.51z"
		/>
	<path style="fill:#95CEF0;" d="M81.87,25.36c0,0.66-0.01,1.31-0.01,1.97c-0.31,0.35-0.65,0.68-0.82,1.13
		c-0.34,0.65-0.68,1.31-1.03,1.96C78.79,28.06,79.34,26.35,81.87,25.36z"/>
	<path style="fill:#68B1DA;" d="M43,20.3c-0.69,0.01-1.39,0.01-2.08,0.02c0.62-0.7,1.24-1.39,1.86-2.09
		C42.85,18.92,42.92,19.61,43,20.3z"/>
	<path style="fill:#89C8EC;" d="M73.9,35.23c0.01-0.3,0.02-0.6,0.03-0.89c0.7-0.32,1.4-0.64,2.09-0.96
		C75.32,34,74.61,34.62,73.9,35.23z"/>
	<path style="fill:#68B1DA;" d="M68.88,35.51c1.03-0.01,2.05-0.02,3.08-0.04C70.93,35.49,69.91,35.5,68.88,35.51z"/>
	<path style="fill:#75C1EC;" d="M76.99,13.22c-0.35-0.3-0.71-0.61-1.06-0.91C76.28,12.62,76.63,12.92,76.99,13.22z"/>
	<path style="fill:#75C1EC;" d="M81.05,28.46c0.27-0.38,0.54-0.76,0.82-1.13C81.59,27.71,81.32,28.09,81.05,28.46z"/>
	<path style="fill:#68B1DA;" d="M66.77,19.24c0.03,0.7,0.06,1.41,0.09,2.11C66.83,20.65,66.8,19.95,66.77,19.24z"/>
</g>
</svg>
