<?xml version="1.0" encoding="utf-8"?>
<!-- Generator: Adobe Illustrator 24.0.0, SVG Export Plug-In . SVG Version: 6.00 Build 0)  -->
<svg version="1.1" id="Calque_1" xmlns="http://www.w3.org/2000/svg" xmlns:xlink="http://www.w3.org/1999/xlink" x="0px" y="0px"
	 viewBox="0 0 72.24 144.62" style="enable-background:new 0 0 72.24 144.62;" xml:space="preserve">
<g>
	<path d="M29.07,53.35c-1.75,1.36-3.58,2.86-5.46,3.72c-2.7,1.25-3.46,3.44-5.15,6.15c1.75-0.19,2.71-1.11,3.88-0.9
		c1.18,0.22,3.37,1.69,3.73,2.75c0.23,0.67-0.92,3.75-1.6,4.28c-1.52,1.18-3.21,1.26-4.73,0.16c-0.73-0.53-1.18-1.74-2.75-0.7
		c0.92,0.87,1.75,2.33,2.7,2.41c2.06,0.18,4.31,0.7,6.29-0.33c2.38-1.24,5.06-1.34,7.53-2.32c1.64-0.65,3.93-0.97,5.51,1.3
		c-1.66,1.87-3.94,2.91-6.25,3.4c-4.32,0.91-8.05,2.73-11.03,5.94c-1.75,1.89-3.73,3.47-5.08,5.86c-2.06,3.65-3.92,7.18-3.61,11.52
		c0.13,1.8,0.02,3.62,0.02,6.47c1.05-1.52,1.6-2.06,2.11-3.1c1.44-2.92,3.28-5.68,5.19-8.33c0.69-0.96,2.08-1.38,3.05-2.17
		c2.69-2.19,6.15-2.96,8.98-4.9c0.47-0.32,1.25-0.19,1.9-0.22c2.51-0.14,5.11,0.63,7.22-1.24c1.41,2.03-1.01,2.72-0.59,4.46
		c0.53,2.2,1.45,4.42,3.29,4.78c2.05,0.4,4.89-1.16,5.54-3.23c0.37-1.19,0.4-2.48,0.56-3.6c1.18-0.49,1.82,0.17,2.21,0.84
		c1.25,2.13,2.36,4.35,3.57,6.51c0.3,0.54,0.99,0.79,0.98,1.6c-0.04,3.94-0.02,7.89-0.02,11.71c-1.1,0.25-1.68,0.27-2.01-0.52
		c-0.54-1.28-1.02-2.55-1.84-3.75c-1.98-2.9-4.56-4.38-8.06-4.58c-6.1-0.36-7.49,0.05-12.89,4.31c-0.36,0.29-0.53,0.94-1.52,0.54
		c-4.7-2.56-6.98-2.58-9.07,0.06c-2.59,3.27-2.27,4.96,1.89,9.12c1.27,0,2.73,0,4.11,0c0.17,0.46,0.36,0.75,0.36,1.04
		c0.03,1.67,0.08,3.33,0,5c-0.13,2.42,0.88,4.31,2.52,5.96c0.71,0.71,1.51,1.34,2.1,2.13c2.76,3.7,6.9,4.63,10.99,4.73
		c3.67,0.09,7.07-1.55,9.56-4.53c0.42-0.51,0.82-1.03,1.11-1.4c1.81,0.14,2.83,1.46,4.77,0.73c2.6-0.97,5.15-1.68,6.82-4.05
		c1.7-2.42,3.96-10,4.17-12.77c0.33-4.32-1.03-8.38-3.48-11.51c-2.64-3.38-3.08-6.41-1.55-10.07c0.9-2.15,1.57-4.44,3.35-6.11
		c1.58,1.53,1.77,3.47,1.66,5.52c-0.21,3.71,0.26,7.3,1.82,10.73c0.38,0.83,0.16,1.94,0.16,2.93c0.02,2.66-0.25,5.36,0.07,7.99
		c0.48,3.98-0.75,7.76-1.27,11.56c-0.44,3.26-2.77,6.22-5.04,8.85c-0.65,0.75-1.4,1.42-2.37,2.39c-1.97-1.46-4.39-1.13-6.76-1.11
		c-3.21,0.03-6.18,2.73-6.63,5.91c-0.09,0.63,0.27,1.32-0.52,2.11c-1.45-0.49-3.28,0.77-4.86-0.86c-0.48-0.5-1.1,0.06-1.7,0.34
		c-1.65,0.75-3.04,1.71-4.01,3.39c0.65,1.22,1.31,2.44,1.97,3.67c-8.88,2.11-16.63-0.66-23.24-6.57c-3.59-3.22-7.77-6.3-8.96-12.4
		c3.21,1.32,5.08,3.18,7.23,4.65c2.07,1.42,3.97,3.49,7.73,3.9c-2.2-2.2-3.93-3.64-5.3-5.36c-3.44-4.32-7.54-8.19-9.57-13.51
		c-0.6-1.58-1.16-3.18-1.78-4.76c-1.08-2.73-0.92-5.94-3.81-7.98c-1.48-1.04-1.23-3.41-1.99-5.12c-0.62-1.41-0.95-3.32-1.11-5
		c-0.3-3.08-0.09-6.22-0.09-9.8c3.66,1.61,2.56,5.42,5,7.7c0-1.82,0.15-3.29-0.03-4.71C4.49,80.67,5.72,76.5,6.31,72.4
		C7,67.58,8.22,62.59,10.2,58.09c1.92-4.37,4.4-8.53,7.07-12.59C21.92,38.42,28.09,32.84,34,26.99
		c5.73-5.67,10.02-12.32,14.06-19.18c1.47-2.49,2.87-5.02,4.46-7.81c1.75,4.62-0.36,8.39-1.73,11.88
		c-1.73,4.41-3.61,8.83-5.69,13.13c-1.38,2.86-2.84,5.59-5.05,7.91c-1.43,1.5-3.19,3.05-3.77,4.91c-0.84,2.67-3.94,3.39-4.46,6.18
		c-0.15,0.78-1.59,0.48-2.24,0.24c-0.68-0.25-1.54-1.47-1.99-0.75c-0.66,1.07-2.5,0.23-2.52,1.85c-1.07,0.19-1.87,0.94-1.93,1.87
		c-0.09,1.27-0.5,2.68,0.22,3.85c0.49,0.81,1.26,1.31,2.43,1.35C26.87,52.47,28.47,51.41,29.07,53.35z"/>
	<path d="M29.07,53.35c1.71-0.3,1.8-1.94,2.55-3.04c1.81-2.67,3.73-5.28,5.38-8.04c0.41-0.68,0.71-1,1.35-0.89
		c0.86,0.14,0.73,0.88,0.72,1.51c-0.01,0.49,0,0.98,0,1.46c4.35-2.54,6.19-7.15,8.99-10.97c1.21-1.65,2.26-3.4,3.5-5.3
		c0.05,0.9-0.76,4.67-1.11,5.39c-1.45,2.9-3.06,5.72-4.32,8.7c-0.69,1.64-1.94,2.64-3.12,3.67c-3.2,2.78-4.76,6.02-3.65,10.32
		c1.07,0.05,0.72-0.8,0.7-1.27c-0.06-1.39,0.77-2.19,1.87-2.49c1.21-0.34,1.35,1.19,2.15,1.35c0.09,1.72-1.31,2.08-2.02,3.22
		c3.74,1.85,8.05,1.5,11.9,3.62c0.4-2.62-1.77-3.75-1.87-5.63c0.88-1.26,1.84-0.66,2.28,0.22c1.43,2.86,3.94,4.74,6.05,6.98
		c2.63,2.79,5.73,10.67,4.56,13.5c-1.19,2.89-1.64,5.94-2.75,8.84c-0.87,2.3-1.81,4.26-3.75,5.81c-0.35-1.44-1.04-2.67-1.52-3.96
		c-1.42-3.87-3.93-6.73-8.6-7.09c-2.69-0.2-5.51-1.78-8.03-0.8c-3.08,1.2-6.09,0.62-9.13,0.85c-0.29,0.02-0.59-0.17-1.25-0.37
		c2.92-2.6,6.15-5.05,9.58-5.28c3.64-0.24,7.36-2.99,11.27-0.4c-0.73-1.34-1.33-2.53-3-2.98c-1.32-0.36-1.97-1.73-3.65-2.1
		c-4.36-0.94-8.85-1.47-12.92-3.75c-2.03-1.13-2.89-2.86-3.97-4.53c-0.46-0.71-0.2-1.73,0.33-2.71
		C28.21,56.03,29.44,54.96,29.07,53.35z"/>
	<path d="M36.81,107.44c0.66,1.62-0.52,3.71,1.47,4.56c1.56,0.66,3.14,2,4.88,1.26c1-0.42,2.4-0.48,2.94-1.89
		c0.43-1.14,1.01-2.28,1.75-3.25c1.11-1.47-1.62-2.08-0.58-3.49c0.79-0.68,1.35-0.2,2.02,0.4c2.51,2.25,4.49,4.82,3.74,8.39
		c-1.14,5.43-5.21,10.38-10.29,9.97c-5.8-0.47-10.39-6.4-8.22-11.84C35.07,110.19,34.48,108.09,36.81,107.44z"/>
	<path d="M42.55,103.37c0.34,0.32,0.66,0.89,1.03,0.93c2.1,0.24,2.5,1.53,2.51,3.36c0.02,2.01-1.52,2.78-2.78,3.63
		c-1.1,0.74-3.87-1.36-4.25-3.03c-0.4-1.75,0.07-2.94,1.93-3.84C41.59,104.12,42.05,103.76,42.55,103.37z"/>
	<path d="M56.68,120.64c0.66-0.92,1.11-1.38,1.36-1.93c0.18-0.41-0.12-1,0.66-1.33c1.11,0,2.42,0,3.84,0c1,0.33,0.12,1.95,1.33,2.26
		c-0.62,1.36-0.91,3.1-2.45,3.65C59.17,124.09,58.41,121.83,56.68,120.64z"/>
	<path d="M45.17,53.35c0-1.8,0-3.25,0-4.62c1.56-1.2,3.12-0.95,4.55-0.17c1.05,0.58,1.72,1.64,1.31,2.9
		c-0.36,1.11-1.07,1.98-2.47,1.9C47.57,53.3,46.57,53.35,45.17,53.35z"/>
	<path d="M45.65,90.46c-0.64-0.84-1.26-1.31-2.17-1.21c-0.95-0.95-0.37-3.09,1.39-4.98c1.52,0.34,2.2,1.73,3.24,2.71
		C48.04,88.73,46.24,89.09,45.65,90.46z"/>
	<path d="M61.06,111.86c2.36-3.45,2.38-3.45,5.58-0.43c-0.78,0.89-1.58,1.8-2.59,2.96C62.78,114.26,62.21,112.67,61.06,111.86z"/>
	<path d="M25.07,45.35c0.66,0,1.37-0.15,1.97,0.03c1.65,0.49,2.57,1.95,1.99,3.27c-0.37,0.83-1.02,1.87-2.12,1.63
		c-0.69-0.15-1.59-0.86-1.76-1.49C24.86,47.72,25.07,46.51,25.07,45.35z"/>
	<path d="M68.07,103.38c-0.35,1.09-0.93,1.95-2.34,1.97c-1.35,0.02-2.98-1.21-2.62-2.2c0.39-1.07,1.15-1.93,2.54-1.82
		C66.68,101.42,68.04,102.47,68.07,103.38z"/>
	<path d="M51.41,45.65c1.9-0.26,2.84-0.68,3.73,0.27c-0.12,0.38-0.13,0.91-0.41,1.22c-0.51,0.56-0.93,1.38-1.98,1.2
		C51.25,47.92,52.64,46.6,51.41,45.65z"/>
	<path style="fill:#FFFFFF;" d="M39.07,44.8c-0.2,0.15-0.45,0.47-0.58,0.43c-0.39-0.12-0.45-0.42-0.19-0.59
		c0.23-0.14,0.51-0.2,0.77-0.29C39.07,44.5,39.07,44.65,39.07,44.8z"/>
</g>
</svg>
