<?xml version="1.0" encoding="utf-8"?>
<!-- Generator: Adobe Illustrator 24.0.0, SVG Export Plug-In . SVG Version: 6.00 Build 0)  -->
<svg version="1.1" id="Calque_1" xmlns="http://www.w3.org/2000/svg" xmlns:xlink="http://www.w3.org/1999/xlink" x="0px" y="0px"
	 viewBox="0 0 100.12 104.3" style="enable-background:new 0 0 100.12 104.3;" xml:space="preserve">
<g>
	<path d="M99.22,54.37c0.05-6.36-1.9-12.23-4.43-17.95c-1.76-3.97-4.47-7.2-7.31-10.47c-5.66-6.53-12.71-9.03-21.08-8.75
		c-1.68,0.06-3.45,0.34-5.29-0.3c2.11-2.95,6.1-1.92,8.11-4.5c-0.54-1.54-1.59-2.12-3.06-2.03c-3.1,0.17-6.17,0.21-9.31,0.71
		c-9.13,1.45-16.52,5.98-23.48,11.6c-1.32,1.06-2.32,2.39-2.96,3.91c-0.46,1.1-1.04,2.04-1.91,2.84c-1.13,1.03-2.25,1.16-3.56,0.21
		c-4.91-3.55-4.77-7.91,0.39-11.36c0.21-0.14,0.33-0.41,0.38-0.48C24.05,11.82,26.15,6.14,26.58,0C19.77,3.44,16.03,8.83,15.2,15.89
		c-1.07,9.12,1.4,17.51,6.46,24.71c-0.32,2.84-2.21,4.89-1.98,7.67c2.86-2.89,3.88-7.06,6.8-9.79c2.89-2.69,4.55-6.5,8.21-8.51
		c3.57-1.96,6.95-4.26,10.42-6.42c-0.89-5.13,0.54-6.91,7.35-9.11c0.4,0.27,0.95,0.47,1.19,0.85c2.74,4.41,6.91,7.53,10.21,11.42
		c2.64,3.11,5.01,6.45,6.6,10.33c0.74,1.82,0.78,3.37,0.48,5.05c-6.06,0.61-11.88-0.56-17.59,1.1c-1.9,0.56-3.16-0.73-3.31-2.69
		c-0.12-1.52-0.07-2.96,1.35-4.04c0.92-0.7,1.67-1.62,2.48-2.46c0.72-0.74,1.41-1.5,2.11-2.25c-0.24-0.25-0.48-0.51-0.72-0.76
		c-5.88,2.53-10.55,7-15.17,11.2c-4.72,4.29-8.33,9.71-10.47,15.97c1.22-0.73,2-1.82,2.92-2.79c3.1-3.29,6.92-5.48,11.03-7.3
		c2.81-1.24,5.58-1.29,7.97,0.4c1.82,1.3,3.93,2.2,6.01,3.76c-1.69,1.8-3.35,3.04-4.95,4.43c-2.15,1.86-5.48,3.55-3.67,7.54
		c0.14,0.3-0.37,0.86-0.5,1.32c-0.66,2.44-2.56,3.22-4.72,3.65c-0.88-0.52-1.72-1.02-2.27-1.34c-1.89-3.79,1.83-5.41,2.76-7.91
		c-0.31-0.29-0.48-0.51-0.54-0.49c-4.3,1.81-5.55,5.72-6.54,9.73c-1.4,5.69-1.23,11.5-1.01,17.28c0.24,6.13,3.25,11.23,6.75,16.04
		c0.68,0.93,1.53,1.76,2.87,1.74c3.72-0.07,7.46,0.4,11.19-0.48c-4.09,0.13-7.45-2.5-11.35-2.67c-2.79-4.75-2.67-9.9-2.21-14.96
		c0.1-1.08,0.13-2.9,1.66-3.87c2.74-1.75,5.09-4.14,8.32-4.83c1.7,2.27,3.42,4.45,5.01,6.73c0.83,1.19,1.76,2.37,1.77,3.99
		c0.03,4.85,2.7,8.66,5.14,12.52c1.01,1.61,2.68,2.23,4.53,2.69c3.47,0.88,6.72-0.11,10.62-0.46c-3.32-1.44-6.24-1.69-9.07-1.75
		c-1.19-1.26-2.22-2.34-3.33-3.51c0-2.99,0.47-5.82,2.33-8.17c7.72-0.43,9.99-1.56,14.89-6.74c3.53-3.73,4.79-10.18,1.8-15.39
		c-1.48-2.58-3.43-4.38-6.7-5.3c-4.54-1.27-8.16,0.56-12.44,1.56c1.54,1.21,2.91,0.58,4.19,0.69c0.99,0.08,2.05-0.16,2.98,0.1
		c1.48,0.41,2.66,1.44,2.86,3.04c0.09,0.76-0.58,1.43-1.45,1.64c-4.07-3.81-6.95-3.65-10.17,0.8c-1.58,2.19-3.45,4.32-3.45,7.53
		c-4.84-5.12-4.43-10.37-3.23-14.01c2.44-7.42,11.32-13.1,18.63-13.3c4.89-0.13,8.98,1.44,13.01,3.83c2.73,1.62,4.66,4,6.22,6.17
		c1.45,0.46,1.71-0.85,2.59-0.82c0-1,0-2,0-3C98.87,56.1,99.21,55.12,99.22,54.37z M52,72.78c-1.02,1.75-2.94,1.67-4.89,3.08
		c0.98-3.26,2.64-4.94,4.54-6.48C52.37,70.53,52.06,71.68,52,72.78z M61.65,49.07c-0.67-0.86-2.33-0.49-2.55-1.82
		c0.45-1.17,0.46-1.17,5.66-0.7C64.52,48.41,62.52,48.08,61.65,49.07z M71.81,32.09c0.02,0.01,1.31-0.82,1.33-0.81
		c0,0.01,0.27,0.46,0.27,0.46c3.37-1.04,2.46-6.48,2.43-6.48c0-0.03-1.74,0.06-1.74,0.06c-2.07-0.16-2.76,1.32-3.38,2.89
		c-1.96-1.24-2.18-3.55-3.36-5.34c1.04-1.6,2.34-2.21,3.94-0.78c1.06,0.95,2.4,1.68,2.8,3.23c0.7-0.02,1.04,0.28,0.98,0.93
		c0.03,0,0.05,0.01,0.08,0.01c0.01,0.02,0.02,0.05,0.03,0.07c0.3-0.03,0.65-0.12,0.86,0c3.67,2.29,5.69,5.59,6.03,9.9
		c-2.94-1.12-3.69-0.71-3.98,2.15c-0.06,0.59-0.03,1.18-0.02,1.78c-2.49-2.48-3.15-5.98-4.92-8.86c-0.02,0-0.03,0.01-0.04,0.01
		c-0.01-0.02-0.01-0.04-0.02-0.05C72.83,31.16,71.72,31.84,71.81,32.09z M83.04,43.62c-1.28,1.2-2.44,0.85-3.34-0.39
		c-0.63-0.88-1.02-1.92-1.52-2.9c1.17-0.16,2.44,0.47,3.54-0.43c0.75-1.11,0.3-2.37,0.41-3.57c0.55,0.01,0.87,0.37,0.88,0.85
		C83.07,39.33,83.04,41.47,83.04,43.62z"/>
	<path d="M17.85,76.01c2.22-1.73,1.01-4.18,1.91-6.18c1.86-4.13,2.81-8.67,4.54-12.87c3.47-8.43,8.04-16.16,14.86-22.43
		c1.39-1.27,3.24-2.21,3.9-4.19c-4.55,0.83-7.65,4.1-11.16,6.69c-5.7,4.21-7.82,10.88-11.4,16.55c-0.59,0.93-0.57,1.82,0.02,2.77
		c0.85,1.37,0.68,2.71,0.03,4.2c-0.77,1.77-2.2,2.24-3.75,2.64c-1.07-0.56-2.11-1.06-3.11-1.64c-4.63-2.69-5.29-5.02-2.74-10.12
		c-5.42-3.59-6.17-10.33-9.61-15.25c-0.52,0.24-0.75,0.27-0.79,0.37c-0.17,0.45-0.37,0.9-0.42,1.37c-0.53,5.01,0.58,9.77,1.97,14.55
		c1.94,6.66,4.89,12.81,9.1,18.29C12.96,73.04,14.94,75.3,17.85,76.01z"/>
	<path d="M23.33,76.62c-1.37,2.13-1.06,4.76-2.3,7.1c1.21,0.98,2.01,2.21,2.57,3.6c0.87,2.2,0,5.55-1.74,6.65
		c-1.45,0.91-4.01,0.16-5.89-1.23c-2.51-1.84-1.68-4.46-2.01-7.09c-3.42-0.65-5.81-3.16-8.38-5.3c-0.73,0.69-0.62,1.44-0.41,2
		c1.56,4.29,3.1,8.58,5.15,12.68c1.22,2.45,2.97,3.73,5.6,4.25c4.47,0.88,8.87,2.08,13.35,2.86c1.82,0.32,3.83,0.51,5.61-0.08
		c-5.26-8.68-8.17-17.91-10.02-27.83C24.35,75.03,23.85,75.83,23.33,76.62z"/>
	<path d="M50.42,97.18c2.22,2.22,4.94,3.5,8.71,4.34c-1.56-3.27-2.62-6.04-4.14-8.53c-1.53-2.51-2.06-5.58-4.57-8.49
		C50.42,89.24,50.42,93.15,50.42,97.18z"/>
	<path d="M59.49,39.22c2.17-0.14,4.69,0.93,6.42-1.22c-0.96-2.78-3.18-4.5-4.73-7.02c-3.41,2.55-5.02,6.27-8.03,8.81
		C55.57,41.24,57.43,39.35,59.49,39.22z"/>
	<path d="M52.08,52.08c-0.93-1.24-1.73-2.77-3.69-2.74c-1.12,0.02-2.44-0.49-3.3,0.54c-0.72,0.86-1.45,1.87-1.71,2.93
		c-0.33,1.35,0.79,2.34,1.49,3.37C49.97,56.44,49.97,56.44,52.08,52.08z"/>
	<path d="M92.69,28.3c0.8-1.33,0.16-2.67,0.33-3.95c0.31-2.35-1.21-4.35-1.03-6.84c-3.34-0.85-4.66,0.98-6.12,2.77
		C88.03,23.29,90.07,26.01,92.69,28.3z"/>
	<path d="M51.98,22.25c2.36-0.55,2.31-2.39,2.01-4.37c-1.59-0.75-3.02-2.72-5.09-0.78c-1.02,0.95-1.17,2.82-0.4,4.03
		C49.35,22.45,50.68,22.55,51.98,22.25z"/>
	<path d="M81.62,59.51c3.4-0.37,4.39-2.94,5.83-5.69c-1.8-0.48-2.9-1.9-4.77-1.51C81.18,54.39,80.62,56.63,81.62,59.51z"/>
	<path d="M39.85,58.78c0.13-2.67,0.13-2.67-1.74-4.38c-1.25,0.22-1.85,1.25-2.78,2.37C36.86,59.31,36.86,59.31,39.85,58.78z"/>
	<path d="M57.92,88.78c0.44-1.79,0.53-3.49-1.9-4.56c-2.23,1.26-2.37,2.86-1.38,4.93C55.67,89.25,56.77,89.69,57.92,88.78z"/>
	<path d="M44.15,87.27c0.44,1.35,1.26,2.23,2.78,2.03c1.24-0.16,1.99-0.92,2.06-2.22C46.49,84.57,46.49,84.57,44.15,87.27z"/>
	<path d="M34.03,63.31c-0.21-0.9-0.99-1.86-1.52-1.63c-0.9,0.4-2.44,0.47-2.36,2.12c0.05,1,0.57,1.53,1.53,1.54
		C33.03,65.34,33.76,64.56,34.03,63.31z"/>
	<path d="M43.19,30.24c-0.03,0.01-0.07,0.02-0.1,0.03c-0.01,0.03-0.02,0.05-0.03,0.08c0.03-0.01,0.06-0.01,0.1-0.02
		C43.17,30.3,43.18,30.27,43.19,30.24z"/>
</g>
</svg>
