<?xml version="1.0" encoding="utf-8"?>
<!-- Generator: Adobe Illustrator 24.0.0, SVG Export Plug-In . SVG Version: 6.00 Build 0)  -->
<svg version="1.1" id="Calque_1" xmlns="http://www.w3.org/2000/svg" xmlns:xlink="http://www.w3.org/1999/xlink" x="0px" y="0px"
	 viewBox="0 0 108.48 94.14" style="enable-background:new 0 0 108.48 94.14;" xml:space="preserve">
<g>
	<path d="M108.23,5.41c-1.45-1.25-2.39-3.06-4.5-3.61c-2.26-0.59-4.4-1.66-6.78-1.71c-3.33-0.07-6.68-0.19-9.99,0.04
		c-2.16,0.15-4.38,0.62-6.4,1.41c-4.28,1.68-8.09,4.25-11.41,7.4c-3.92,3.72-7.85,7.46-11.01,11.91c-1.09,1.53-5.35,9.38-5.64,11.15
		c-0.15,0.95,0.15,1.98,0.22,2.75c2.91-2.56,3.62-7.17,8.3-7.73c0.55,1.19,1,2.17,1.45,3.15c-2.61,3.52-3.76,7.59-4.75,12.01
		c2.71-0.64,4.57,0.14,5.15,2.71c5.7,1.06,10.59-0.99,15.28-3.75c1.07,2.14-1.09,2.62-1.76,3.69c-4.22,6.67-10.61,9.63-18.3,10.27
		c-1.87,0.16-3.42-0.94-5.09-0.96c-4.04-0.04-7.7-1.5-11.49-2.49c-2.21-0.58-4.51-0.79-7.06-1.22c1.03-2.75,2.15-5.73,2.79-7.43
		c-1.93-2.45-3.34-4.24-4.71-5.98c-3.21,3.71-6.12,7.54-9.5,10.89c-7.09,7.02-13.51,14.8-22.08,20.23C0.58,68.38,0.57,69.18,0,70.91
		c3.78-2.07,6.85-2.7,9.53-0.25c2.38,2.18,4.7,4.48,3.68,8.46c-0.48-0.4-0.76-0.78-1.14-0.91c-0.41-0.14-0.89-0.03-1.37-0.03
		c0.83,4.27,2.37,8.85,4.13,10.68c2.79,2.9,6.13,4.87,10.32,5.23c3.52,0.31,6.39-1.07,9.46-2.56c6.42-3.11,10.55-7.98,12.53-14.7
		c1.28-4.33-0.06-8.24-2.96-11.49c-3.4-3.81-8.04-4.29-12.46-2.88c-5.29,1.69-8.41,5.58-9.4,11.37c-0.41,2.38,1.03,4.47,0.04,6.53
		c1.3,1.32,2.47,2.51,3.65,3.71c3.24-0.11,6.87,0.67,8.71-3.54c-3.53,0.75-3.53,0.75-7.25-2.97c0-1.26-0.18-2.61,0.03-3.9
		c0.69-4.27,5.4-8.46,10.11-5.62c4.68,2.83,5.99,7,3.63,11.77c-1.42,2.87-3.61,5.22-6.11,6.88c-2.86,1.9-6.66,3.53-9.9,2.16
		c-3.05-1.29-6.15-3.48-7.5-7.04c-0.38-1.01-0.88-2.02-1.01-3.07c-0.09-0.77,0.72-2.14,0.47-2.32c-1.72-1.24,0.46-1.8,0.41-2.86
		c-0.33-6.72,3.84-11.01,8.87-14.45c3.89-2.66,8.24-3,12.74-1.11c1.56,0.66,3.42,0.56,5.05,1.09c3.16,1.02,6.26,2.24,9.38,3.38
		c-0.53,1.38-0.9,2.31-1.62,4.16c2.33-0.81,3.83-1.14,5.15-1.83c2.65-1.39,5.18-2.59,8.34-2.96c2.56-0.29,5.57-1.18,7.41-3.71
		c0.57-0.79,1.29-1.63,2.14-2.04c7.01-3.37,11.42-15.59,10.36-22.68c-0.27-1.81-0.96-3.56-1.57-5.75c-0.54,1.66-0.89,3.02-1.41,4.3
		c-1.63,4.01-3.68,7.51-8.16,9.2c-2.13,0.8-3.68,1.06-5.75-0.04c-2.37-1.25-3.64-3.16-4.01-5.52c-0.67-4.29,1.29-7.41,4.99-9.58
		c1.09-0.64,2.18-1.51,2.9-2.54c1.4-1.97,2.53-4.12,4.11-6.75c-1.91,0.84-3.35,1.47-4.79,2.1c-3.15-3.35-3.17-4.29-0.29-7.26
		c4.32-4.47,6.06-6.12,13.97-8.51c0.75-0.22,5-0.21,5.63,0.1c0.83,0.41,1.61,0.93,2.95,1.71c-1.17,1.07-2.21,2.03-3.67,3.36
		c6.16-1.62,11.84-5.39,18.15-0.95C108.36,6.27,108.48,5.63,108.23,5.41z M61.71,34.18c0.85,2.63,1.37,4.23,1.97,6.05
		C61.01,39.17,61.38,37.24,61.71,34.18z M64.06,40.96c-0.22-0.12-0.4-0.29-0.6-0.44c0.15-0.15,0.3-0.3,0.45-0.45
		c0.16,0.19,0.32,0.39,0.47,0.58C64.26,40.77,64.1,40.98,64.06,40.96z M67.52,24.53c-0.27,0.17-0.51,0.43-0.7,0.7
		c-0.83,1.16-1.92,0.96-3.05,0.65c0.41-1.41-2.34-2.05-0.88-3.77c0.48-0.57,0.71-1.36,1.05-2.03c0.69,0,1.35,0.04,2.01-0.01
		c1.39-0.1,2.13,0.77,2.47,1.87C68.7,22.88,68.52,23.89,67.52,24.53z M95.78,3.89c-0.08,0.02-0.22-0.2-0.33-0.31
		c0.22-0.12,0.43-0.24,0.64-0.36c0.13,0.13,0.24,0.24,0.36,0.36C96.23,3.69,96.02,3.83,95.78,3.89z"/>
	<path d="M37.33,71.49c-0.91-0.84-2.01-1.52-3.11-2.09c-0.43-0.22-1.17-0.1-1.67,0.11c-3.36,1.44-4.1,4.9-1.67,7.49
		c0.68,0.72,1.35,1.45,2.34,2.51c1.68-1.17,3.07-1.93,4.21-2.97C38.99,75.12,38.92,72.95,37.33,71.49z"/>
	<path d="M40.81,34.22c0.11-0.34,0.34-0.8,0.21-1.04c-0.51-0.96-0.97-2.11-1.79-2.7c-0.59-0.42-2.15-0.41-2.56,0.04
		c-1.01,1.11-1.61,2.6-2.2,3.63c1.64,1.78,3.07,3.34,4.68,5.09C39.75,37.43,40.29,35.83,40.81,34.22z"/>
	<path d="M45.83,17.13c-1.43,1.19-2.29,1.57-2.3,1.97c-0.05,1.68-1.02,2.89-1.81,4.2c-0.79,1.31-1.65,2.57-2.6,4.04
		c1.09,0.97,2.02,1.8,3.15,2.8C43.36,26.14,44.43,22.24,45.83,17.13z"/>
	<path d="M74.06,11.52c-0.89,0.68-1.81,1.38-2.83,2.14c0.86,2.16,2.15,2.89,3.68,2.32c0.7-0.26,1.26-1.42,1.5-2.28
		C77.03,11.46,74.53,12.22,74.06,11.52z"/>
	<path d="M78.52,10.89c1.03,0,1.91,0,2.99,0c-0.1-1.09-0.18-1.97-0.28-3.06C79.45,8.37,78.26,8.9,78.52,10.89z"/>
	<path d="M59.88,42.81c-0.59,1.02-1.08,1.88-1.96,3.41c1.7-0.23,2.64-0.35,4.15-0.55C61.15,44.48,60.6,43.76,59.88,42.81z"/>
	<path d="M85.46,5.84c0.34,0.41,0.61,0.93,1.04,1.18c0.18,0.11,0.69-0.35,1.48-0.79c-0.7-0.53-1.09-0.98-1.55-1.1
		C86.18,5.07,85.78,5.59,85.46,5.84z"/>
</g>
</svg>
