<?xml version="1.0" encoding="utf-8"?>
<!-- Generator: Adobe Illustrator 24.0.0, SVG Export Plug-In . SVG Version: 6.00 Build 0)  -->
<svg version="1.1" id="Calque_1" xmlns="http://www.w3.org/2000/svg" xmlns:xlink="http://www.w3.org/1999/xlink" x="0px" y="0px"
	 viewBox="0 0 152.43 162.67" style="enable-background:new 0 0 152.43 162.67;" xml:space="preserve">
<g>
	<path d="M144.6,65.54c-2.43,1.32-4.98,2.45-7.58,3.42c-2.65,0.99-5.35,2.06-9.14,1.69c3.37-3.16,4.27-6.87,5.77-10.25
		c1.58-3.58,3.01-7.33,1.52-11.91c-0.96,1.76-1.73,3.12-2.45,4.5c-2.93,5.57-5.36,11.46-10.25,15.75c-0.25,0.22-0.5,0.45-0.7,0.71
		c-2.4,3.08-6.29,3.58-10.05,1.12c0-1.99,0.13-4.14-0.04-6.26c-0.16-2.04-0.49-4.1-1-6.08c-0.62-2.39-1.4-4.75-2.35-7.02
		c-0.27-0.63-1.4-0.9-2.84-1.76c0.58,2.81-0.54,4.92,0.99,6.86c0.23,0.29,0.26,1.14,0.06,1.29c-1.2,0.87-0.74,2.09-0.82,3.19
		c-0.37,4.97-2.43,8.7-7.46,10.36c-2.68-8.22-6.57-11.6-12.51-11.67c1.84,1.81,3.19,3.14,4.5,4.43c-1.18,1.57-2.52,3.37-3.88,5.19
		c-4.75-4.5-3.57-3.83-11.41-4.33c-1.04-2.82,0.63-5.21,1.1-7.94c2.83,0.49,5.49,0.95,7.69,1.33c2.38-2.01,4.34-3.67,6.82-5.77
		c1.46,1.46,2.79,2.8,4.05,4.06c1.35-2.31-1.58-3.35-2.3-5.11c-0.64-1.56-2.21-3.24-4.36-3.61c-0.92-2.37-4.09-1.08-5.18-3.18
		c3.55-6.44,6.13-6.45,13.14-7.54c1.11-0.17,2.56-0.34,3.38,0.2c1.86,1.23,3.55,0.72,5.97,0.47c-1.91-1.5-3.15-3.1-4.73-3.6
		c-3.44-1.08-6.87-2.43-10.64-2.13C87.61,32.14,85.29,32,82.85,32c0-3,0-5.78,0-8.55c4.61-5.44,10.62-8.99,16.98-11.98
		c1.78-0.84,3.85-1.03,4.91-3.59c-2.81,0.5-5.2-0.15-7.85,0.97c-4.42,1.87-9.13,3.03-12.97,6.12c-0.15,0.12-0.59-0.11-1.06-0.21
		c0.29-0.66,0.76-1.27,0.83-1.93c0.4-3.77,1.61-7.27,3.31-10.64c0.34-0.68,0.49-1.46,0.72-2.2c-1,0-2,0-3,0
		c-0.12,0.62-0.08,1.33-0.38,1.84C81.29,7.01,79.98,12.75,78.71,18c-3.83,4.7-7.4,9.08-10.97,13.47c0.19,2.5-2.47,2.16-3.47,3.47
		c-3.79-0.46-6.31,2.48-9.63,3.41c0.11,0.59,0.19,1.04,0.29,1.63c3.29-0.96,6.44-1.88,10.02-2.92c-1.03,3.16-2.38,5.81-2.29,8.92
		c0.17,5.98,0.04,5.98,1.87,8.85c0.57-1.66,1.12-3.26,1.61-4.68c3.22-1.06,5.93-3.52,9.68-2.88c-3.99,6.93-5.63,11.74-5.14,18.89
		c-1.63,1.32-3.1,2.52-4.58,3.73c-1.47-1.95-3-3.97-4.45-5.9c0.66-1.91,3.29-2.44,3-5.2c-6.42,2.08-9.13,7.18-11.79,12.84
		c-2.01-2.01-3.68-3.58-5.22-5.28c-0.49-0.54-0.62-1.39-0.92-2.1c-1.77-4.24-0.92-8.64-0.74-12.99c0.01-0.31,0.43-0.6,0.86-1.17
		c-1.19,0-1.98,0-2.74,0c-1.36,3.34-3.34,6.35-3.46,10.14c-0.12,3.83-0.82,7.65-1.3,11.75c-0.67,0-1.48-0.09-2.26,0.01
		c-3.56,0.46-6.36-0.92-8.48-3.66c-2.21-2.86-4.71-5.47-6.1-8.97c-1.3-3.29-3.14-6.37-4.83-9.49c-0.25-0.47-1.01-0.67-2.05-1.32
		c0.34,8.73,3.67,15.61,8.11,22.49c-9.17-0.87-16.71-4.6-23.65-10.22c-0.14,0.94-0.16,1.8,0.26,2.2c6.25,6.09,17.16,12,27.11,12.05
		c4.31,4.98,9.31,9.26,15.24,12.31c0.56,3.52,2.62,9.46,3.92,10.93c0.36,0.41,1.03,0.55,2.04,1.05c-1.05-3.7-1.95-6.86-2.93-10.32
		c5.41,2.9,11.07,1.63,16.44,1.95c0.61-0.6,1.08-1.06,1.47-1.45c-1.46-2.07-5-0.54-6-3.82c-0.76-2.5-2.34-4.76-1.73-7.79
		c2.47,1.63,4.85,3.01,7.41,3.95c0.87,0.32,1.02,0.73,1.5,1.37c1.86,2.49,3.15,5.65,6.49,6.69c1.78,0.55,3.59,0.99,5.42,1.5
		c-0.46,1.46-0.93,2.93-1.4,4.4c-2.96,0.48-5.63-0.33-8.68-2.05c1.32,4.81-3.52,3.99-5.19,6.8c-0.86-1.03-1.32-1.74-1.92-2.28
		c-0.66-0.6-1.46-1.04-2.2-1.56c1.21,2.68,1.7,5.66,4.42,7.21c2.63,1.5,5.22,3.08,7.81,4.61c-2.64,5.26-7.11,7.4-12.82,7.38
		c-1.5-0.01-3.01,0.12-4.5-0.04c-1.47-0.15-2.91-0.59-4.57-0.94c0.77,1.97,1.89,3.27,3.44,3.79c2.8,0.95,5.55,2.18,8.6,2.18
		c3.29,0,6.58,0,8.98,0c2.39,1.67,1.16,3.07,1.06,4.46c-0.13,1.66-0.03,3.33-0.03,5.54c-2.73,1.94-5.9,3.85-8.64,6.25
		c-3.03,2.65-6.88,3.63-10.18,5.7c-1.12,0.7-2.31,1.04-2.1,3c3.95,0.38,7.1-2.19,10.65-2.8c3.96-0.69,6.47-3.93,10.4-4.93
		c-0.48,4.64-1.84,8.73-3.56,12.79c-1.64,3.89-4.64,6.98-6.84,11.68c4.48-2.22,6.33-5.72,8.09-8.68c3.58-6,6.45-12.5,6.28-19.66
		c4.42-4.11,7.98-8.62,10.94-13.66c0.86-1.46,2.08-2.54,4.23-2.84c2.51-0.35,4.91-1.75,7.22-2.96c0.78-0.41,2.22-1.19,1.12-2.78
		c-2.84,1.98-6.12,2.43-9.74,3c2.64-4.39,2.12-8.77,2.05-13.05c-0.01-0.67-0.8-1.33-1.22-1.98c-2.11,1.01-2.8,3.59-5.38,4
		c-2.11,0.34-4.03,1.74-6.98,1.66c3.52-4.67,3.95-9.71,4.98-14.98c4.57-1.56,7.34-5.15,8.95-9.54c1.16-0.44,2.22-0.72,3.16-1.23
		c0.85-0.46,1.35-1.52,2.63-2.08c0.02,5.72-1.56,9.82-7.21,11.54c0.7,0.59,1.29,1.51,1.87,1.51c5.06-0.06,10.26,0.94,15.47-2.13
		c-0.88,3.75-1.19,7.06-2.9,10.15c0.95-0.26,2.01-0.56,2.36-1.22c0.94-1.76,1.48-3.72,2.35-5.52c1.01-2.09,1-4.79,3.37-6.1
		c5.37-2.97,10.01-6.87,14.07-11.09c2.39-0.16,4.42,0.23,6.46-0.94c1.83-1.05,4.12-1.29,6.11-2.12c1.85-0.78,3.59-1.81,5.32-2.84
		c1.88-1.11,3.73-2.3,5.53-3.53c1.21-0.83,2.73-2.87,3.84-5C149.6,62.39,147.19,64.12,144.6,65.54z M86.9,50.31
		c-0.57,3.02-3.88,2.58-4.59,4.77c-1.96-0.65-3.26-1.09-4.76-1.59c0.85-1.81,1.69-3.58,2.53-5.36
		C82.93,47.27,84.38,50.14,86.9,50.31z M78.51,28.18c0.07,1.15,0.15,2.36,0.23,3.62c-1.51,0-2.72,0-4.23,0
		C75.94,30.51,77.1,29.46,78.51,28.18z M74.92,42.93c-1.68,1.36-3.84,1.22-6.5,0.91c1.31-2.77,2.48-5.23,3.67-7.75
		c3.75,0,7.53,0,11.75,0c-2.37,2.9-4.52,5.53-6.78,8.3C76.25,43.83,75.74,43.48,74.92,42.93z M40.64,78.62
		c-0.28,0.02-0.57,0.14-0.73,0.04c-1.42-0.92-2.82-1.89-5.05-3.4c2.4-0.16,3.88-0.26,5.78-0.39C40.64,76.43,40.64,77.52,40.64,78.62
		z M52.6,85.06c-3.23-0.27-5.57-1.75-7.76-3.36c0-3.91,0-7.68,0-11.72c2.75,2.24,5.3,4.33,7.86,6.41
		C50.05,79.14,53.09,81.83,52.6,85.06z M63.19,77.19c-2.09-1.04-4.15-2.06-6.46-3.21c0.11-4.03,0.32-4.52,3.08-7.17
		c1.6,2.27,3.18,4.52,4.64,6.59C64.05,74.61,63.66,75.78,63.19,77.19z M66.69,103.44c-0.28-0.11-0.48-0.45-0.71-0.69
		c-0.11-0.11-0.18-0.26-0.34-0.49c0.26-2.55,3.52-2.03,4.22-4.11c1.64,0.62,3.16,1.2,5.1,1.94c-1.38,1.92-2.52,3.51-3.6,5.01
		C69.59,104.48,68.13,103.99,66.69,103.44z M73.86,126.17c0-1.84,0-3.29,0-5.09c0.67-0.03,1.47,0.04,2.21-0.14
		c0.5-0.12,0.93-0.58,1.87-0.37C76.7,122.29,75.45,124,73.86,126.17z M84.03,108.18c-1.74,3.12-1.53,6.83-4.95,8.64
		c-3.3,0-6.75,0-10.27,0c1.92-2.65,3.75-5.16,5.69-7.83C77.32,108.71,80.53,109.55,84.03,108.18z M85.7,79.74
		c-0.22,2.85-1.39,5.11-4.22,6.26c-1.42,0.57-2.8,1.81-4.17,1.76c-1.72-0.06-3.54-0.9-5.05-1.84c-1.31-0.81-2.07-2.29-2.94-3.67
		c-2.09-3.35-2.33-6.42,0.18-9.51c0.79-0.98,1.64-1.76,3.22-1.87c1.41-0.09,2.75-1.24,4.45-2.09c1.76,0.81,3.54,1.22,4.76,2.28
		C84.51,73.28,85.98,76.21,85.7,79.74z M94.55,73.82c-1.13,0.67-2.57,1.52-3.97,2.35c-2.88-3.19-2.51-4.96,1.71-9.17
		C93.87,68.85,95.18,70.79,94.55,73.82z M106.82,80.42c-0.56,1.33-1.08,2.05-2.34,2.61c-1.84,0.81-3.56,1.88-5.6,2.98
		c0.28-1.67,0.68-3.26,0.8-4.87c0.14-1.82,0.03-3.65,0.03-5.43c2.55-1.88,5.07-3.74,8.11-5.99
		C107.43,73.71,108.22,77.07,106.82,80.42z M110.69,79.24c0.23-1.32,0.2-2.42,0.63-3.28c0.46-0.91,0.88-0.86,4-0.86
		C113.49,77.9,113.48,77.89,110.69,79.24z"/>
	<path d="M76.39,77.94c-0.98-0.73-1.97-1.47-3.41-2.55c-0.14,1.33-0.23,2.09-0.33,3.02c1.08,0.92,2.2,1.87,3.36,2.86
		c-1.93,1.49-1.14,3.09-1.23,4.62c3.58,0,3.78,0.11,4.32-0.86c0.46-0.83,0.42-1.95,0.58-2.86c-0.91-0.18-1.36-0.28-1.83-0.37
		c0.99-1.55,1.92-3,3.39-5.31C78.95,77.17,77.65,77.56,76.39,77.94z"/>
	<path d="M77.43,75.99c1.3-0.09,2.26-1.18,2.29-2.5c0.03-1.57-0.95-2.24-2.29-2.48c-0.77-0.13-1.58-0.02-2.71-0.02
		c0,1.31-0.1,2.14,0.02,2.93C74.97,75.41,75.94,76.09,77.43,75.99z"/>
</g>
</svg>
