<?xml version="1.0" encoding="utf-8"?>
<!-- Generator: Adobe Illustrator 24.0.0, SVG Export Plug-In . SVG Version: 6.00 Build 0)  -->
<svg version="1.1" id="Calque_1" xmlns="http://www.w3.org/2000/svg" xmlns:xlink="http://www.w3.org/1999/xlink" x="0px" y="0px"
	 viewBox="0 0 178 109.27" style="enable-background:new 0 0 178 109.27;" xml:space="preserve">
<g>
	<path style="fill:#28282A;" d="M10.83,80.87c2.42-15.92,4.63-31.87,7.33-47.74C21.22,15.19,34,7.06,50.17,3
		c13.96-3.5,28.14-3.67,42.41-1.89c17.19,2.15,34.1,5.46,50.32,11.65c16.17,6.16,26.48,21.8,25.17,40.03
		c-0.84,11.59-0.49,23.27-0.5,34.91c0,1.91,0.91,3.83,1.41,5.74c-2.16,2.21-4.76,1.17-7.06,0.64c-22.63-5.12-45.7-6.76-68.72-8.64
		c-14.25-1.16-28.58-0.12-42.85-1.27c-11.6-0.94-23.21-1.59-34.86-1.18C13.72,83.06,11.33,83.86,10.83,80.87z"/>
	<path style="fill:#2D2D2F;" d="M177.6,101.51c-1.26,5.51-4.54,8.15-10.75,7.71c-9.78-0.7-19.51-1.93-29.28-2.75
		c-28.65-2.39-57.29-4.77-85.96-6.97c-13.23-1.01-26.51-1.33-39.72-2.57c-3.29-0.31-6.36-2.96-9.53-4.53
		c0.4-3.56,3.29-2.7,5.34-2.74c5.81-0.1,11.63,0.77,17.45,0.33c31.09-2.34,62.15-0.87,93.13,1.43c19.2,1.43,38.13,5.68,57.14,8.99
		C176.23,100.57,176.98,100.91,177.6,101.51z"/>
	<path style="fill:#43434A;" d="M177.6,101.51c-4.09-0.49-8.19-0.89-12.26-1.5c-16.7-2.52-33.32-5.77-50.1-7.46
		c-14.75-1.49-29.68-1.55-44.53-1.72c-21.29-0.24-42.58-0.03-63.87,0.11c-1.5,0.01-2.99,0.96-4.48,1.47
		C1.47,89.64,0.2,86.91,0,84.09c-0.05-0.63,3.6-1.66,5.62-2.27c1.68-0.5,3.47-0.65,5.21-0.95c3.54,0.28,7.07,0.67,10.61,0.82
		c10.56,0.45,21.12,0.86,31.68,1.19c10.72,0.34,21.47,0.33,32.17,0.93c12.37,0.69,24.77,1.46,37.06,2.94
		c14.28,1.72,28.46,4.25,42.69,6.4c1.29,0.2,2.62,0.2,3.93,0.29c1.74,0.79,3.41,2.02,5.23,2.28
		C178.08,96.26,178.51,98.39,177.6,101.51z"/>
</g>
</svg>
