<?xml version="1.0" encoding="utf-8"?>
<!-- Generator: Adobe Illustrator 24.0.0, SVG Export Plug-In . SVG Version: 6.00 Build 0)  -->
<svg version="1.1" id="Calque_1" xmlns="http://www.w3.org/2000/svg" xmlns:xlink="http://www.w3.org/1999/xlink" x="0px" y="0px"
	 viewBox="0 0 284.99 127.77" style="enable-background:new 0 0 284.99 127.77;" xml:space="preserve">
<g>
	<path style="fill:#6B5D5F;" d="M275.97,86.08c4.42-0.97,7.36,0.79,9.03,4.91c0,1.67,0,3.33,0,5c-2.24,0.96-1.55,4.11-3.77,5.08
		c-1.95,0.57-1.63-0.97-1.85-1.99c-0.85-3.94-1.29-4.09-4.58-1.63c-2.31,1.73-4.29,4.44-7.8,2.67c-0.88-1.16-0.53-2.3,0.37-3.13
		C270.81,93.79,273.17,89.76,275.97,86.08z"/>
	<path style="fill:#4A4043;" d="M137.01,0c3.08,1.19,6.24,2.21,9.2,3.65c1.43,0.7,3.6,2.16,0.18,3.49c-2.58,1.7-5.48,1.41-8.35,1.35
		c-1.87-0.27-3.94,0.14-5.37-1.59c1.79-3.11-2.4-2.01-2.61-3.7c-0.1-2.07,2.52-1.63,2.95-3.21C134.34,0,135.68,0,137.01,0z"/>
	<path style="fill:#514849;" d="M137.97,7.02c2.81,0.04,5.61,0.08,8.42,0.12c-0.2,0.98,0.14,1.3,1.19,1.54
		c6.07,1.37,11.85,3.6,17.5,6.16c12.43,10.51,22.1,23.16,30.06,37.36c6.67,11.89,14.37,23.03,26.12,30.92
		c10.94,7.34,22.15,6.91,33.77,2.84c5.82-2.04,11.36-4.68,15.46-9.63c0.9-1.09,2.1-2.25,3.87-1.54c2.69,3.29,1.42,6.76,0.46,10.22
		c-7.33,7.51-16.59,11.47-26.52,13.97c-14.22,3.57-28.92,4.06-43.35,6.3c-1.47,0.23-2.99,0.14-4.48,0.05
		c-4.8-0.29-5.41-1.14-4.45-5.83c1.05-5.15,1-10.24-1.34-15.07c-1.38-2.86-2.25-5.88-3.26-8.85c-0.55-2.3,0.77-4.97-1.38-6.96
		c-0.31-0.32-0.55-0.69-0.73-1.1c-0.28-2.73,0.13-5.71-2.67-7.55c-0.97-2.2-1.18-4.75-2.98-6.58c-1.03-1.52-0.34-3.52-1.4-5.03
		c-0.28-0.34-0.62-0.62-1-0.83c-0.38-0.2-0.68-0.49-0.9-0.85c-0.31-0.69-0.44-1.46-0.79-2.13c-0.14-0.24-0.32-0.47-0.52-0.65
		c0,0.03-0.34-0.04-0.34-0.04s-0.02,0.35,0.01,0.38c0.21,0.29,0.37,0.56,0.53,0.85c0.2,0.31,0.37,0.61,0.54,0.92
		c0.27,0.7,0.65,1.28,1.41,1.54c0.34,0.14,0.65,0.33,0.91,0.6c0.36,0.45,0.51,0.97,0.52,1.53c-0.09,0.73-0.17,1.45,0.02,2.18
		c0.14,0.37,0.25,0.75,0.35,1.13c0.3,0.99,0.69,1.94,1.15,2.86c0.2,0.36,0.38,0.74,0.55,1.12c0.27,0.56,0.53,1.13,0.79,1.69
		c0.19,0.38,0.34,0.77,0.47,1.17c0.36,1.24,0.91,2.39,1.49,3.55c0.21,0.41,0.39,0.84,0.54,1.28c0.4,1.17,0.87,2.3,1.09,3.52
		c2.12,6.62,4.23,13.23,6.69,19.74c1.36,3.59,1.05,7.59,0.1,11.3c-1.05,4.09-3.28,6.79-8.12,7.42c-6.23,0.8-12.64,0.22-18.71,2.24
		c-7.27-1.98-14.1-0.08-20.87,2.39c-13.13-1.85-26.29-3.39-39.21-6.75c-8.97-2.33-18.5-1.07-27.68-2.77c-5.4-1-10.74-2.11-16-3.64
		c-4.82-1.4-5.6-0.82-5.81,4.07c-0.1,2.32,0.18,4.66-0.38,6.94c-0.29,1.17-0.8,2.33-2.26,2.18c-1.15-0.12-1.77-1.18-1.66-2.16
		c0.51-4.42-2.37-8.32-1.88-12.71c1.38-2.57,1.44-5.37,1.43-8.19c-0.01-2.5,0.24-4.97,1.93-7.01c2.7-0.41,1.55-2.94,2.29-4.41
		c1.39-2.75,2.44-5.69,3.04-8.74c0.11-0.43,0.28-0.84,0.47-1.23c0.98-1.38,1.5-2.96,1.91-4.58c0.28-0.76,0.64-1.49,1.01-2.2
		c0.35-0.7,0.72-1.39,1.07-2.08c0.34-0.68,0.69-1.36,1.03-2.04c0.33-0.67,0.67-1.34,1.01-2.01c0.33-0.67,0.67-1.33,1-2
		c0.33-0.67,0.67-1.33,1.03-1.97c0.18-0.32,0.39-0.63,0.62-0.92c0.11-0.15,0.23-0.29,0.34-0.44c0.45-0.6,0.83-1.24,1.26-1.86
		c0.34-0.47,0.74-0.88,1.17-1.27c0.41-0.4,0.81-0.81,1.18-1.25c0.21-0.32,0.43-0.63,0.65-0.95c0.3-0.5,0.6-1,0.91-1.5
		c0.32-0.5,0.68-0.97,1.05-1.43c0.64-0.77,1.09-1.65,1.51-2.55c0.28-0.56,0.66-1.05,1.09-1.51c0.42-0.49,0.83-0.98,1.21-1.5
		c2.49-3.59,6.32-5.77,9.32-8.8c0.51-0.36,1.18,0.23,1.67-0.28c0.32-0.24,0.66-0.45,1-0.66c0.67-0.42,1.34-0.85,2.01-1.27
		c0.65-0.41,1.33-0.78,1.96-1.23c0.44-0.36,0.88-0.73,1.31-1.1c0.43-0.39,0.9-0.73,1.39-1.04c0.67-0.41,1.38-0.75,2.1-1.08
		c1.15-0.45,2.1-1.22,3.09-1.93c1.4-0.72,2.73-1.56,4.18-2.2C119.3,13.5,128.18,8.67,137.97,7.02z"/>
	<path style="fill:#52494A;" d="M6.82,57.91C9.81,44.9,19.59,37.39,29.41,29.87c17.82-13.66,39.1-16.77,60.38-19.69
		c12-1.65,23.9-4.46,36.14-3.89c1.48,0.07,3.48-0.81,4.15,1.57c0.48,2.04-1.29,1.57-2.19,1.8c-5.62,1.49-11.24,2.97-16.54,5.41
		c-1.51,0.22-3.09,0.22-4.39,1.22c-0.37,0.22-0.76,0.41-1.16,0.58c-0.87,0.22-1.49,0.84-2.14,1.4c-0.35,0.27-0.74,0.49-1.14,0.66
		c-2.92,1.21-5.46,3.01-7.75,5.18c-0.35,0.3-0.75,0.53-1.17,0.7c-5,2.32-8.95,5.85-12.04,10.38c-0.22,1.15-1.64,1.2-2.02,2.21
		c-0.11,0.38-0.26,0.74-0.44,1.09c-0.18,0.35-0.4,0.67-0.65,0.97c-0.13,0.15-0.26,0.29-0.39,0.43c-0.7,0.69-1.23,1.49-1.49,2.46
		c-0.09,0.58-0.11,1.18-0.55,1.64l0,0c-0.46,0.48-1.01,0.82-1.65,0.99c-1.14,0.32-1.69,1.12-1.83,2.26
		c-0.04,0.62-0.04,1.26-0.51,1.75l0,0c-0.36,0.28-0.74,0.51-1.15,0.71c-3.06,4.04-4.81,8.77-7.01,13.28
		c-0.16,0.47-0.36,0.91-0.59,1.35c-5.14,9.5-7.99,19.67-8.82,30.42c-4.47,0.76-7.99-2.08-11.89-3.31
		C32.02,88.1,24.27,80.67,17.59,72.27C13.87,67.6,10.47,62.65,6.82,57.91z"/>
	<path style="fill:#3F3438;" d="M6.82,57.91c3.93,1.31,5.56,4.94,7.63,7.96c5.49,8.02,11.77,15.22,20.11,20.34
		c4.35,2.67,8.93,5.28,14.13,5.64c2.61,0.18,3,3.12,5.34,3.13c0.3,0.22,0.41,0.44,0.3,0.67c-0.1,0.22-0.2,0.33-0.3,0.33
		c0.57,4.84,4.21,9.12,1.91,14.32c2.4,0.2,2.03-1.1,2.05-1.95c0.07-2.99,0.05-5.98,0.02-8.98c-0.03-3.23,1.25-4.73,4.6-3.63
		c6.6,2.16,13.26,4.03,20.22,4.71c3.6,0.35,7.23,1.69,10.75,1.4c10.17-0.84,19.67,2.18,29.31,4.34c6.63,1.49,13.38,1.84,20.07,2.75
		c2.03,0.28,3.96,0.44,5.2,2.32c-15.07,6.93-31.01,10.86-47.3,13.54c-8.21,1.35-16.4,3.4-24.75,2.89
		c-23.86-1.45-46.32-7.39-65.53-22.39C2.21,98.77-1.6,90.16,0.62,79.32C2.12,72.01,3.17,64.59,6.82,57.91z"/>
	<path style="fill:#40363A;" d="M191.99,74.01c1.18,4.65,2.85,9.13,4.96,13.43c1.86,3.81,1.2,7.71,0.48,11.6
		c-0.26,1.43-0.77,2.82-1.22,4.41c6.22,1.61,12.04-0.18,17.86-0.7c7.53-0.68,15.05-1.57,22.5-2.82c11.92-2,23.69-4.65,33.45-12.5
		c1.45-1.16,2.89-2.2,4.79-2.42c0.38,0.36,0.76,0.72,1.15,1.07c-0.49,4.77-3.85,7.73-6.93,10.81c-0.93,0.93-2.12,1.54-2.07,3.07
		c-0.14,0.22-0.28,0.45-0.41,0.67c-0.75,0.79-1.67,1.35-2.6,1.89c-6.84,5.04-15.01,5.99-23,7.39c-13.76,2.4-27.58,4.19-41.6,3.04
		c-1.44-0.12-2.91-0.14-3.34-0.4c6.49,0.69,13.92,1.13,21.32,1.69c12.07,0.92,24.14,2.22,36.21-0.55c4.72-1.09,9.29-2.42,13.78-4.22
		c1.76-0.71,4.15-2.81,5.71,0.56c-9.45,7.11-20.7,9.31-31.91,9.57c-14.73,0.35-29.46-0.73-44.21-2.66
		c-9.97-1.3-18.94-4.15-27.88-8.08c1.61-3,4.71-2.83,7.24-2.76c4.53,0.13,8.89-0.91,13.35-1.18c2.81-0.17,4.87-4.02,5.45-8.27
		c1.05-7.7-2.34-14.28-4.83-21.08c-1.03-2.82-1.87-5.63-2.23-8.6c0.29-0.26,0.62-0.35,1-0.29c0.47,0.33,0.63,0.89,0.98,1.31l-0.01,0
		C191.51,69.72,191.55,71.93,191.99,74.01z"/>
	<path style="fill:#52484A;" d="M273.02,110.04c-2.4-1.44-4.29,0.32-6.28,1.09c-12.55,4.84-25.37,6.95-38.87,5.13
		c-6.32-0.85-12.82-0.28-19.17-1.3c-4.85-0.78-9.83-0.78-14.61-2.97c1.97,0,3.93-0.01,5.9,0c15.44,0.13,30.61-1.82,45.84-4.43
		c6.97-1.19,12.65-4.46,18.98-6.59c0.63-0.54,1.62-0.32,2.18-1.02l-0.03,0c3.14,0.19,5.27-1.6,7.25-3.7
		c1.4-1.49,2.91-3.04,5.13-1.94c2.38,1.19,1.69,3.24,1.01,5.19c-0.26,0.75,0.26,1.22,0.88,1.55
		C279.01,104.53,277.12,108.3,273.02,110.04z"/>
	<path style="fill:#615556;" d="M109.98,14.97c5.13-3.58,11.02-5,17.06-5.95c1.13-0.18,2.35,0.05,3.05-1.17
		c0.86-0.32,1.72-0.63,2.58-0.95c1.77,0.04,3.53,0.08,5.3,0.12c-3.86,3.5-9.34,2.54-13.61,4.92c-0.68,0.38-1.85,0.15-2.31,0.64
		c-3.65,3.92-8.59,2.69-13.02,3.42c-0.06-0.23-0.12-0.45-0.18-0.68C109.11,14.87,109.5,14.77,109.98,14.97z"/>
	<path style="fill:#695B5D;" d="M274.36,74.79c-1.63,0.62-2.6,2.04-3.81,3.17c-11.56,10.78-25.38,14.57-40.42,10.8
		c-9.22-2.31-16.77-8.72-22.74-16.24c-6.18-7.79-11.67-16.06-16.3-24.96c-3.66-7.04-8.79-13.23-14.15-19.14
		c-3.66-4.04-6.77-8.61-11.42-11.71c-0.39-0.26-0.31-1.22-0.44-1.86c11.19,3.31,21.51,8.66,31.81,13.95
		c22.71,11.69,44.22,25.63,67.62,36.07C268.83,66.8,272.97,69.6,274.36,74.79z"/>
	<path style="fill:#42383B;" d="M54.02,95.99c0-0.33,0-0.67,0-1c0.7-11.31,2.25-22.38,9.04-31.97c1.19,1.34,0.79,2.66-0.06,3.97
		l0.02-0.02c-1.55,4.71-3.47,9.29-5.04,14c-2.36,2.97-1.94,6.48-1.96,9.92C56,92.83,56.41,94.96,54.02,95.99z"/>
	<path style="fill:#42383B;" d="M81.02,36c-0.44-2.57,1.32-4,2.93-5.4c3.04-2.66,5.56-6.17,10.09-6.58
		c0.53,1.12-0.45,1.44-1.05,1.97l0.02-0.02c-0.31,0.33-0.63,0.33-0.97,0.05c-2.77,3.91-7.61,5.73-10.03,9.98
		c-0.17,0.12-0.33,0.25-0.5,0.37C81.35,36.25,81.19,36.13,81.02,36z"/>
	<path style="fill:#615556;" d="M171.99,29.01c-4.43,0.77-5.54-1.72-5.57-5.97c2.81,1.49,5.86,2.07,5.6,5.94L171.99,29.01z"/>
	<path style="fill:#655859;" d="M57.97,80.96c0.38-5.13,2.37-9.69,5.04-14c0.27,5.22-3.17,9.33-4.2,14.16
		c-0.02,0.08-0.3,0.15-0.44,0.13C58.22,81.22,58.1,81.07,57.97,80.96z"/>
	<path style="fill:#615556;" d="M189.98,68.01c-0.35-0.34-0.7-0.67-1.05-1.01c-1.25-0.63-1.27-2.02-1.91-3.03l0.01,0.01
		c-0.7-1.08-0.83-2.25-0.5-3.48c0.17-0.18,0.33-0.36,0.5-0.54C192.77,60.91,189.56,65.12,189.98,68.01z"/>
	<path style="fill:#615556;" d="M184,52.99c3.18,1.38,3.15,4.16,3.03,6.97l-0.09,0.07c-1.12,0.5-1.41-0.48-1.92-1.07l0,0.01
		c-0.6-0.53-0.42-1.46-1.01-2.01l0.01,0.01c-0.7-1.07-0.83-2.23-0.51-3.45C183.68,53.36,183.84,53.17,184,52.99z"/>
	<path style="fill:#615556;" d="M191.99,74.01c-1.4-1.75-1.98-3.78-2.02-5.99C192.93,68.78,192.93,68.78,191.99,74.01z"/>
	<path style="fill:#615556;" d="M175.44,35.68c2.31,1.3,2.31,1.3,2.35,4.7C176.1,39.07,175.89,37.34,175.44,35.68z"/>
	<path style="fill:#655859;" d="M62.99,66.99c0.02-1.32,0.04-2.64,0.06-3.97l-0.02,0c0.38-0.51,0.72-1.07,1.38-1.27
		c0.2,0.08,0.4,0.16,0.6,0.24C65,63.93,65.4,66.03,62.99,66.99z"/>
	<path style="fill:#615556;" d="M182.01,47.99c2.38,0.99,1.97,3.08,1.99,5.01L183.99,53c-1.15,0.59-1.44-0.45-1.97-1.03l0.01,0.01
		c-0.59-0.66-0.61-1.32-0.02-1.99c0-0.66-0.01-1.33-0.01-1.99L182.01,47.99z"/>
	<path style="fill:#463C3F;" d="M185.03,58.97c0.64,0.36,1.28,0.71,1.92,1.07c0.03,1.31,0.06,2.63,0.08,3.94
		C185.38,62.7,184.92,60.95,185.03,58.97z"/>
	<path style="fill:#463C3F;" d="M182.02,51.97c0.66,0.34,1.31,0.69,1.97,1.03c0.01,1.33,0.03,2.65,0.04,3.98
		C182.38,55.71,181.93,53.95,182.02,51.97z"/>
	<path style="fill:#615556;" d="M178.98,43.01c2.81,0.26,1.8,2.44,2.02,4.01c-1.13,0.56-1.45-0.44-1.97-1.04l0,0.01
		C178.34,45,178.23,44.01,178.98,43.01z"/>
	<path style="fill:#615556;" d="M172.02,28.98c1.25,0.65,2.2,1.47,1.73,3.19c-2.28-0.13-1.51-1.94-1.76-3.16L172.02,28.98z"/>
	<path style="fill:#615556;" d="M109.02,16.01c-0.75,1.83-2.28,2.09-3.99,2.01c-0.09-0.2-0.17-0.4-0.26-0.59
		c0.19-0.68,0.75-1.03,1.27-1.41l-0.02,0.01c0.96-0.71,1.94-0.74,2.95-0.09L109.02,16.01z"/>
	<path style="fill:#615556;" d="M105.03,18.02c-0.08,2.05-1.55,2.01-3,2c-0.09-0.2-0.17-0.4-0.26-0.6c0.19-0.68,0.75-1.03,1.27-1.42
		l-0.02,0.02c0.62-0.59,1.27-0.63,1.94-0.09L105.03,18.02z"/>
	<path style="fill:#463C3F;" d="M178.98,43.01c0.02,0.99,0.03,1.98,0.05,2.98c-1.06-1.14-2.73-2.13-1.05-3.99
		c0.3,0.38,0.68,0.68,1.02,1.02L178.98,43.01z"/>
	<path style="fill:#655859;" d="M80.02,37.88c0.05,1.5-0.59,2.55-2,3.12c-0.14-0.14-0.28-0.27-0.42-0.41
		c-0.15-0.62-0.02-1.15,0.45-1.59l-0.02,0.01c0.31-0.36,0.69-0.67,1.02-1.02l-0.01,0.02C79.3,37.56,79.63,37.49,80.02,37.88z"/>
	<path style="fill:#463C3F;" d="M187.02,63.97c1.14,0.7,1.38,1.96,1.91,3.03c-0.31-0.01-0.62-0.01-0.93-0.02
		C186.76,66.28,187.05,65.08,187.02,63.97z"/>
	<path style="fill:#655859;" d="M74.16,44.02C74.78,44.01,75.4,44,76.02,44c0,1.31-0.66,1.99-1.97,2.03
		c-0.14-0.15-0.28-0.3-0.43-0.46C73.44,44.92,73.47,44.35,74.16,44.02z"/>
	<path style="fill:#615556;" d="M92.99,25.99c0.35-0.66,0.7-1.31,1.05-1.97l-0.01,0c0.44-0.45,0.97-0.59,1.58-0.45
		c0.14,0.14,0.27,0.28,0.41,0.42C95.46,25.35,94.46,26.03,92.99,25.99z"/>
	<path style="fill:#42383B;" d="M80.02,37.88c-0.33,0.05-0.66,0.1-0.99,0.14C79,36.67,79.67,36,81.02,36l0,0
		c0.31,0.39,0.24,0.72-0.17,0.98C80.57,37.28,80.3,37.58,80.02,37.88z"/>
	<path style="fill:#463C3F;" d="M179.02,45.97c0.66,0.35,1.32,0.69,1.97,1.04c0,0-0.01-0.02-0.01-0.02
		c0.23,0.22,0.31,0.44,0.24,0.66c-0.07,0.23-0.15,0.34-0.22,0.34C179.67,47.99,179,47.32,179.02,45.97z"/>
	<path style="fill:#615556;" d="M102.03,20.02c-0.42,0.84-1.19,0.98-2.02,0.97c-0.07-0.21-0.14-0.42-0.2-0.63
		c0.55-0.92,1.26-1.13,2.15-0.45L102.03,20.02z"/>
	<path style="fill:#615556;" d="M98.01,22.99c-0.41,0.85-1.17,0.99-2,1l0,0c-0.43-1.41,0.46-1.46,1.45-1.4
		C97.65,22.72,97.83,22.86,98.01,22.99z"/>
	<path style="fill:#655859;" d="M72.02,49c0.01-0.65,0.02-1.3,0.03-1.96c0.16-0.11,0.33-0.22,0.49-0.33
		c0.17,0.1,0.34,0.21,0.51,0.31C73.04,47.85,72.87,48.61,72.02,49z"/>
	<path style="fill:#655859;" d="M67.02,57.99c0,0.83-0.12,1.6-1,2c-0.15-0.17-0.29-0.34-0.44-0.52c-0.09-0.72,0.07-1.33,0.78-1.68
		C66.58,57.86,66.8,57.93,67.02,57.99z"/>
	<path style="fill:#655859;" d="M69.02,53.99c0,0.83-0.13,1.6-0.99,2.01c-0.15-0.17-0.29-0.34-0.44-0.52
		c-0.09-0.73,0.07-1.34,0.78-1.69C68.58,53.86,68.8,53.93,69.02,53.99z"/>
	<path style="fill:#655859;" d="M66.02,59.99c-0.01,0.83-0.13,1.6-1,2L65,61.97c-0.61-1.13-0.76-2.04,0.99-2L66.02,59.99z"/>
	<path style="fill:#655859;" d="M76.02,44c0-0.63,0.01-1.26,0.01-1.9c0.15-0.16,0.3-0.32,0.45-0.49c0.18,0.13,0.36,0.26,0.54,0.39
		C77.03,42.84,76.89,43.6,76.02,44z"/>
	<path style="fill:#655859;" d="M70.04,52.01c-0.01,0.83-0.16,1.59-1.02,1.99l-0.03-0.02c-0.76-0.89-0.54-1.61,0.4-2.18
		C69.61,51.86,69.82,51.93,70.04,52.01z"/>
	<path style="fill:#463C3F;" d="M182.01,49.99c0.01,0.66,0.02,1.33,0.02,1.99C180.92,51.33,180.93,50.67,182.01,49.99z"/>
	<path style="fill:#463C3F;" d="M184.02,56.97c0.86,0.41,1,1.17,1.01,2.01C184.15,58.58,184.02,57.81,184.02,56.97z"/>
	<path style="fill:#655859;" d="M71.03,50c-0.01,0.83-0.14,1.59-1,2l-0.08-0.06c-0.71-0.91-0.48-1.62,0.45-2.19
		C70.61,49.84,70.82,49.92,71.03,50z"/>
	<path style="fill:#655859;" d="M68.03,56c-0.01,0.83-0.15,1.59-1.01,1.99L67,57.98c-0.63-1.13-0.75-2.02,0.97-2.02L68.03,56z"/>
	<path style="fill:#615556;" d="M100.01,20.99c-0.33,0.33-0.67,0.67-1,1c-0.04-0.22-0.09-0.45-0.13-0.67
		C99.16,20.9,99.55,20.81,100.01,20.99C100.01,20.99,100.01,20.99,100.01,20.99z"/>
	<path style="fill:#615556;" d="M99.01,21.99c-0.33,0.33-0.67,0.67-1,1L98,22.98c-0.2-0.87,0.14-1.2,1-0.99
		C99,21.98,99.01,21.99,99.01,21.99z"/>
	<path style="fill:#655859;" d="M78.03,41c-0.33,0.33-0.67,0.66-1,1l-0.04-0.05c-0.28-0.94,0.09-1.22,0.98-1L78.03,41z"/>
	<path style="fill:#615556;" d="M179,43.01c-0.34-0.34-0.68-0.68-1.02-1.02C178.32,42.33,178.66,42.67,179,43.01z"/>
	<path style="fill:#655859;" d="M74.05,46.03c-0.33,0.33-0.67,0.66-1,0.99l-0.09-0.11c-0.19-0.84,0.17-1.13,0.97-0.99L74.05,46.03z"
		/>
	<path style="fill:#655859;" d="M80.84,36.98c0.09-0.32,0.15-0.65,0.17-0.98c0.33-0.01,0.66,0,1,0
		C81.63,36.33,81.23,36.65,80.84,36.98z"/>
	<path style="fill:#615556;" d="M92.05,26.02c0.32-0.02,0.64-0.04,0.97-0.05C92.73,26.67,92.41,26.78,92.05,26.02z"/>
	<path style="fill:#655859;" d="M70.99,48.99c0.34,0,0.69,0,1.03,0c-0.33,0.34-0.66,0.67-0.99,1.01l-0.07-0.05
		c-0.31-0.22-0.41-0.44-0.3-0.65C70.78,49.1,70.89,48.99,70.99,48.99z"/>
	<path style="fill:#615556;" d="M181,47.99c-0.01-0.33-0.01-0.67-0.02-1c0.34,0.33,0.68,0.66,1.03,0.99L182,48
		C181.67,48,181.34,48,181,47.99z"/>
	<path style="fill:#42383B;" d="M70.99,48.99c-0.01,0.32-0.02,0.64-0.03,0.96c-0.8,0.43-0.96,1.18-1.01,1.99
		c-0.8,0.44-0.94,1.21-0.97,2.02c-0.82,0.41-0.98,1.17-1.02,1.98c-0.82,0.43-0.95,1.2-0.97,2.02c-0.83,0.41-0.98,1.17-1.01,1.99
		c-0.82,0.42-0.97,1.18-0.99,2c-0.65,0.35-1.3,0.7-1.96,1.05C65.16,58.04,66.39,52.56,70.99,48.99z"/>
	<path style="fill:#42383B;" d="M99,21.98c-0.33,0.33-0.67,0.66-1,0.99c-0.83,0.01-1.59,0.17-1.99,1.01
		c-0.66,0.01-1.32,0.02-1.98,0.03c2.02-3.48,5.26-5.13,9.01-6.01c-0.36,0.64-0.72,1.27-1.09,1.91c-0.8,0.07-1.55,0.25-1.94,1.07
		C99.67,21.32,99.34,21.65,99,21.98z"/>
	<path style="fill:#42383B;" d="M73.93,45.92c-0.32,0.33-0.65,0.66-0.97,0.99c-0.3,0.03-0.6,0.07-0.9,0.13
		c-0.89-2.12,0.27-2.82,2.12-3.02C74.09,44.65,74.01,45.29,73.93,45.92z"/>
	<path style="fill:#42383B;" d="M108.97,15.94c-0.98,0.03-1.96,0.06-2.95,0.09c1.14-1.04,2.1-2.73,3.96-1.05
		C109.64,15.3,109.3,15.62,108.97,15.94z"/>
	<path style="fill:#42383B;" d="M104.96,17.93c-0.65,0.03-1.3,0.06-1.94,0.09c0.52-1.4,1.53-2.06,3.02-2.01
		C105.68,16.65,105.32,17.29,104.96,17.93z"/>
	<path style="fill:#42383B;" d="M77.97,40.95c-0.33,0.33-0.66,0.66-0.98,1c-0.32,0.02-0.64,0.07-0.95,0.15
		c-0.07-1.51,0.57-2.57,2.02-3.09C78.02,39.66,77.99,40.31,77.97,40.95z"/>
	<path style="fill:#42383B;" d="M79.04,38c-0.34,0.34-0.68,0.68-1.02,1.02C78.37,38.68,78.71,38.34,79.04,38z"/>
	<path style="fill:#514849;" d="M59.01,117c-1.67-1.24-0.78-2.73-0.79-4.96c1.15,2.11,0.67,3.56,0.82,4.94L59.01,117z"/>
	<path style="fill:#514849;" d="M59.03,116.98c1,0.59,1.01,1.37,0.16,2.27c-0.06-0.75-0.12-1.5-0.18-2.26L59.03,116.98z"/>
	<path style="fill:#6B5D5F;" d="M266.99,99.96c-0.43,0.97-1.29,1.02-2.18,1.02C265.32,100.17,266.07,99.89,266.99,99.96z"/>
</g>
</svg>
