<?xml version="1.0" encoding="utf-8"?>
<!-- Generator: Adobe Illustrator 24.0.0, SVG Export Plug-In . SVG Version: 6.00 Build 0)  -->
<svg version="1.1" id="Calque_1" xmlns="http://www.w3.org/2000/svg" xmlns:xlink="http://www.w3.org/1999/xlink" x="0px" y="0px"
	 viewBox="0 0 163.99 108.39" style="enable-background:new 0 0 163.99 108.39;" xml:space="preserve">
<g>
	<path style="fill:#596068;" d="M143.25,101.79c-11.99,4.06-24.03,7.85-36.98,6.22c-27.54-3.48-54.31-9.13-78.26-24.47
		c-8.29-5.31-15.38-11.46-21.46-19.08c-8.18-10.26-7.66-21.61-4.06-33.13c1.67-5.36,6.46-7.99,11.37-10.53
		c13.99-7.24,28.62-6.06,43.4-4.12c0.99,0.13,1.99,0.19,2.98,0.28c0.4,0.31,0.85,0.68,0.88,1.15c0.88,13.36,8.82,21.2,20.39,26.26
		c0.76,0.33,1.47,0.77,2.09,1.33c0.77,0.92,1.2,2.01,1.43,3.15c5.76,28.99,25.51,42.85,52.67,48.69c2.1,0.45,4.36,0.44,5.77,2.46
		C143.9,100.64,143.71,101.23,143.25,101.79z"/>
	<path style="fill:#6D898E;" d="M143.25,101.79c-0.46-2.65-2.6-2.53-4.55-2.84c-10.56-1.65-20.72-4.59-29.38-11.06
		c-10.77-8.05-19.93-17.6-24.26-30.72c-1.17-3.54-1.22-7.44-1.78-11.18c3.08-2.09,6.86-1.95,10.25-3.11
		c4.4-1.51,7.99-3.63,10.75-7.37c1.2-1.62,2.34-3.83,5.11-2.86c6.22,3.11,12.37,6.39,18.69,9.3c10.63,4.91,20.66,10.57,28.55,19.52
		c6.04,6.86,7.24,15.14,7.36,23.68c0.06,4.14-1.78,7.62-6.04,9.49C152.97,96.83,148.14,99.39,143.25,101.79z"/>
	<path style="fill:#A4D8E6;" d="M109.39,32.65c-1.3,1.19-2.85,2.2-3.86,3.6c-5.03,6.92-12.33,8.92-20.26,9.67
		c-0.66,0.06-1.33,0.05-1.99,0.07c-12.8-2.81-25.21-16.73-23.05-29.04c3.15-5.86,7.85-10.08,13.75-13.03c1.18-0.59,2.47-1,3.6-1.68
		c10.09-6.09,29.24,0.66,32.13,14.7c0.71,3.47,0.21,7.2,0.16,10.81C109.85,29.39,109.56,31.02,109.39,32.65z"/>
</g>
</svg>
