<?xml version="1.0" encoding="utf-8"?>
<!-- Generator: Adobe Illustrator 24.0.0, SVG Export Plug-In . SVG Version: 6.00 Build 0)  -->
<svg version="1.1" id="Calque_1" xmlns="http://www.w3.org/2000/svg" xmlns:xlink="http://www.w3.org/1999/xlink" x="0px" y="0px"
	 viewBox="0 0 293.07 196.81" style="enable-background:new 0 0 293.07 196.81;" xml:space="preserve">
<g>
	<path style="fill:#C7CDD1;" d="M232.72,195.86c-0.05,0.31-0.07,0.63-0.06,0.95c-6.33,0-12.66,0-18.99,0
		c-0.29-0.68-0.13-1.21,0.51-1.6C220.41,194,226.63,193.13,232.72,195.86z"/>
	<path style="fill:#DDE1E3;" d="M213.64,195.85c0.02,0.32,0.03,0.64,0.03,0.96c-4.33,0-8.66,0-12.99,0c0-0.31-0.02-0.62-0.05-0.92
		C204.96,193.47,209.3,193.51,213.64,195.85z"/>
	<path style="fill:#EDEFF0;" d="M153.71,0c0,0.33,0,0.65,0.01,0.98c-1.68,1.44-3.35,1.45-5.02-0.02c0-0.32,0.01-0.64,0.01-0.96
		C150.38,0,152.05,0,153.71,0z"/>
	<path style="fill:#AEB7BD;" d="M148.7,0.96c1.67,0.01,3.34,0.01,5.02,0.02c5.88,1.61,11.82,3.05,17.62,4.91
		c2.63,0.84,4.97,2.57,7.48,3.81c3.56,1.75,7.03,3.85,10.79,4.94c2.25,0.65,3.85,1.67,5.38,3.2c8.11,8.14,16.19,16.29,24.35,24.38
		c7.3,7.23,11.61,16.26,14.19,25.87c3.24,12.09,5.49,24.45,7.85,36.75c0.65,3.37,0.26,6.97,0.15,10.46
		c-0.19,6.29-0.6,12.57-0.74,18.86c-0.04,1.61,0.23,3.45,1.01,4.8c2.47,4.2,1.97,8.61,1.49,13.07c-0.4,0.51-0.7,1.09-1.14,1.55
		c-2.09,2.22-2.51,3.88,1.34,4.21c0.83,0.07,1.53,0.45,2.11,1.05c8.73,3.31,18,1.37,26.97,2.72c4.62,0.7,9.52-0.47,14.3-0.69
		c2.55-0.12,5.04,0.1,6.22,2.96c-2.81,7.87-6.17,15.38-14.22,19.35c-6.51,3.2-12.86,7.08-19.74,9.09
		c-8.49,2.48-17.39,3.9-26.39,3.59c-6.36,0-12.72-0.01-19.08-0.01c-4.34,0.01-8.67,0.02-13.01,0.04
		c-13.82-1.01-27.7-1.42-41.27-4.85c-4.13-1.04-8.49-1.15-12.74-1.69c-2.85-1.62-6.21-1.71-9.17-3.02
		c-11.41-1.99-20.88-8.44-30.93-13.51c-4.17-2.1-8.19-4.48-11.2-8.2c-1.03-1.27-2.69-2.55-1.73-4.31c1.15-2.12,3.19-1.05,4.92-0.63
		c0.65,0.16,1.25,0.45,1.88,0.67c0.76,0.26,1.73,0.93,2.31,0.31c0.73-0.78-0.74-1.33-0.74-2.03c0.01-8.54-7.78-10.79-12.57-15.32
		c-4.72-4.47-9.63-8.71-13.36-14.08c-0.91-1.31-2.39-2.94-0.82-4.37c1.35-1.22,2.76,0.29,3.91,1.18c1.84,1.43,3.84,2.69,5.41,4.42
		c8.61,9.51,20.43,13.46,31.7,18.34c1.72,0.75,3.64,1.11,5.56,1.16c-1.58-0.93-3.23-1.72-4.81-2.63
		c-8.36-4.82-17.36-8.49-25.29-14.06c-2.06-1.45-5.67-3.22-3.86-5.92c1.8-2.69,4.25,0.72,6.32,1.65c2.07,0.94,3.81,2.55,6.17,2.89
		c-1.3-1.72-2.85-3.25-4.49-4.61c-4.06-3.35-5.87-7.97-7.58-12.68c-0.46-1.26-0.69-2.59-0.56-3.93c0.13-1.31,0.2-2.84,1.91-3.08
		c1.49-0.21,1.88,1.1,2.32,2.17c3.63,8.77,11.21,12.74,19.41,15.94c0.74,0.29,1.85,0.74,2.25-0.16c0.4-0.89-0.72-1.37-1.37-1.82
		c-5.33-3.71-10.34-7.85-15.44-11.86c-5.2-4.1-4.93-7.39,1.35-8.83c9.1-2.08,12.65-6.97,13.07-16.19
		c0.39-8.47,3.84-16.47,7.84-24.05c0.28-0.52,1.07-1.18,0.54-1.6c-0.38-0.3-1.11,0.51-1.64,0.89c-1.07,0.79-2.09,1.66-3.27,2.29
		c-1.29,0.68-2.8,1.88-4,0.28c-1.13-1.49,0.19-2.82,1.15-3.94c3.59-4.22,8.03-7.47,12.43-10.76c0.69-0.52,2.05-1.02,1.26-2.23
		c-0.46-0.71-1.53-0.38-2.34-0.2c-2.37,0.52-4.2,1.84-5.8,3.66c-2.65,3.01-4.76,6.41-7.23,9.55c-1.21,1.54-2.41,3.49-4.84,2.72
		c-2.57-0.81-2.71-3.14-2.76-5.33c-0.07-2.99-0.17-5.99,0.18-8.98c0.07-0.6,0.55-1.55-0.28-1.71c-0.53-0.1-0.88,0.92-1.01,1.56
		c-0.71,3.42-1.34,6.85-1.61,10.35c-0.08,0.99-0.24,2.17-1.32,2.5c-1.17,0.35-1.64-0.8-2.24-1.56c-0.36-0.46-0.33-1.54-1.05-1.29
		c-0.48,0.16-0.15,1.2-0.24,1.83c-0.42,2.95,0.97,5.92-0.07,8.86c-2.26-0.24-4.52-0.52-6.78-0.7c-5.5-0.43-11-0.8-16.5-1.2
		c-3.19-0.85-6.19-2.07-9.05-3.79c-4.04-2.42-5.45-1.8-7.84,2.34c-1.02,1.77-0.86,4.78-4.11,4.63
		c-6.28-7.32-12.59-14.61-18.82-21.97c-1.58-1.87-2.87-3.98-4.3-5.97c0.07-0.16,0.14-0.33,0.2-0.49c0.22-0.69-0.58-0.82-0.72-1.32
		c-0.19-0.39-0.33-0.78-0.44-1.19c-0.83-2.3-0.93-6.51-2.76-6.37c-2.21,0.17-1.4,4.14-1.96,6.44c-1.07,4.36-1.62,8.83-2.54,13.22
		c-0.38,1.83-1.1,3.48-2.45,4.8c-3.94,2.11-6.73-0.6-9.11-2.78C2.71,50.78,1.05,44.4,0.02,38.01c-0.2-1.24,1.65-2.82,2.55-4.24
		c1.05,0.39,1.29,1.37,1.66,2.25c2.09,5.02,2.09,5.02,6.58,1.99c3-8.4,5.99-16.8,9.02-25.19c0.98-2.71,0.73-6.83,3.92-7.36
		c1.64-0.27,4,2.95,5.81,4.81c6.36,6.54,12.66,13.15,18.93,19.79c4.15,4.4,8.58,5.27,14.76,3.9c8.5-1.88,15.82-5.58,22.96-10.15
		c3.77-2.41,7.72-4.52,11.53-6.88c8.61-5.32,18.54-6.94,27.98-9.9C133.27,4.67,141.03,2.96,148.7,0.96z"/>
	<path style="fill:#7A868C;" d="M94.91,69.67c-0.35-4.42-0.72-8.84-1.01-13.26c-0.02-0.34,0.48-0.94,0.82-1.01
		c0.29-0.06,0.87,0.38,1.04,0.74c0.62,1.35,1.07,2.77,1.68,4.13c0.18,0.4,0.64,0.67,0.97,1c0.13-0.43,0.32-0.85,0.37-1.28
		c0.35-3.28,0.5-6.59,1.08-9.82c0.31-1.71,1.27-3.35,2.18-4.87c0.32-0.54,1.37-0.63,2.09-0.93c0.17,0.77,0.53,1.55,0.47,2.3
		c-0.25,3.78-0.64,7.56-0.91,11.34c-0.07,0.98-0.08,2.04,0.21,2.96c0.66,2.13,2.53,2.5,3.96,0.69c3.07-3.9,5.92-7.97,9.02-11.85
		c2.6-3.26,6.23-4.2,10.24-3.78c0.53,0.06,1.29,0.58,1.43,1.04c0.14,0.46-0.21,1.32-0.62,1.65c-2.74,2.14-5.66,4.06-8.3,6.3
		c-2.78,2.36-5.35,4.97-7.94,7.54c-0.39,0.39-0.42,1.14-0.62,1.73c0.71-0.09,1.56,0.05,2.1-0.3c2.35-1.54,4.59-3.25,6.92-4.83
		c0.61-0.41,1.4-0.56,2.1-0.82c-0.11,0.74-0.06,1.56-0.36,2.2c-1.56,3.28-3.38,6.44-4.8,9.77c-3,7.03-4.91,14.35-5.35,22.03
		c-0.11,1.96-0.35,3.99-1.02,5.82c-0.37,1.03-1.58,2.05-2.66,2.49c-3.82,1.55-7.76,2.8-11.61,4.27c-3.07,1.17-3.36,1.89-1,3.96
		c3.97,3.5,8.18,6.72,12.37,9.96c2.35,1.82,4.88,3.41,7.27,5.19c0.6,0.45,1.45,1.61,1.31,1.81c-0.53,0.74-1.36,1.51-2.21,1.71
		c-0.86,0.2-1.89-0.21-2.82-0.46c-6.92-1.92-12.38-6.31-17.46-11.05c-1.65-1.54-2.09-4.37-3.16-6.57c-0.23-0.47-0.75-0.79-1.14-1.18
		c-0.25,0.39-0.66,0.77-0.71,1.18c-0.11,0.98-0.35,2.12,0,2.96c1.79,4.33,2.65,9.11,6.37,12.5c2.58,2.35,4.99,4.9,7.39,7.44
		c0.44,0.47,0.43,1.35,0.63,2.04c-0.6-0.1-1.29-0.05-1.79-0.33c-3.77-2.08-7.48-4.25-11.27-6.31c-0.57-0.31-1.4-0.13-2.1-0.17
		c0.22,0.58,0.27,1.42,0.69,1.71c3.64,2.57,7.21,5.29,11.08,7.49c7.92,4.51,16.01,8.71,24,13.1c0.57,0.31,0.87,1.11,1.3,1.69
		c-0.65,0.06-1.31,0.23-1.95,0.15c-7.37-0.94-13.74-4.63-20.4-7.47c-7.39-3.16-14.06-7.4-19.57-13.38c-1.78-1.93-3.97-3.5-6.04-5.16
		c-0.42-0.34-1.12-0.35-1.68-0.51c0.12,0.58,0.04,1.35,0.38,1.73c4.44,4.91,8.71,10.01,13.49,14.57c3.93,3.75,8.52,6.8,12.71,10.29
		c0.7,0.58,1.43,2.35,1.12,2.72c-1.79,2.16-1.3,3.38,1.01,4.66c0.74,0.41,0.9,1.86,1.33,2.83c-1.05,0.18-2.2,0.72-3.13,0.46
		c-2.06-0.58-3.97-1.65-6.01-2.34c-0.67-0.23-1.53,0.09-2.31,0.15c0.27,0.72,0.39,1.55,0.83,2.13c3.38,4.5,8.1,7.37,12.98,9.84
		c9.74,4.94,19.18,10.58,29.82,13.57c0.41,0.46,0.43,0.93,0.06,1.42c-14.12-2.48-27.66-6.93-40.99-12.06
		c-11.49-4.42-22.58-9.6-32.5-17.11c-11.46-8.68-21.86-18.35-30.25-30.06c-2.3-3.21-4.24-6.69-6.25-10.1
		c-0.49-0.83-0.71-1.87-0.84-2.85c-0.63-4.54,2.12-7.32,6.46-5.91c4.38,1.43,8.4,3.95,12.74,5.52c5.72,2.07,11.6,3.75,17.45,5.45
		c0.84,0.24,1.97-0.19,2.86-0.55c1.07-0.43,2.07-1.07,3.03-1.72c11.17-7.54,11.62-5.65,15.92-17.24c3.37-9.07,9.25-17.21,14.13-25.7
		c1.88-3.27,2.02-3.2-1.71-4.43C96.83,70.19,95.86,69.95,94.91,69.67z"/>
	<path style="fill:#808B91;" d="M16.82,58.11c1.67-8.5,3.33-17,5.05-25.48c0.17-0.86,0.7-1.66,1.07-2.48
		c0.67,0.72,1.42,1.37,1.99,2.16c2.07,2.89,2.92,6.17,2.86,9.71c-0.66,0.26-1.52,0.15-1.89,0.98c-1.63,4.09-3.05,8.28-5,12.21
		C20.24,56.53,18.21,57.16,16.82,58.11z"/>
	<path style="fill:#7C878E;" d="M50.62,70.96c1.04-1.78,2.27-3.48,3.1-5.36c2.15-4.92,4.54-5.75,9.12-2.98
		c2.9,1.76,5.85,3.44,8.78,5.15c-6.15-0.48-11.61,1.97-17.17,4.02C53.1,72.29,51.32,73.87,50.62,70.96z"/>
	<path style="fill:#7E8A90;" d="M10.81,38.01c-0.65,1.08-1.08,2.45-2,3.18c-1.99,1.57-4.16,0.74-4.89-1.73
		c-0.55-1.87-0.91-3.8-1.35-5.7c4.11-1.41,5.25-1.03,7.05,2.28C9.99,36.72,10.41,37.36,10.81,38.01z"/>
	<path style="fill:#A0A9AF;" d="M137.73,187.27c-0.02-0.47-0.04-0.95-0.06-1.42c3.22,0.55,6.57,0.77,8.95,3.49
		C143.66,188.65,140.69,187.96,137.73,187.27z"/>
	<path style="fill:#DBDEDF;" d="M25.9,43c-0.45-2.4,0.85-1.44,1.89-0.98l-0.04-0.06c0.26,0.27,0.34,0.58,0.25,0.93l-0.48,0.13
		C26.97,43.01,26.43,43,25.9,43z"/>
	<path style="fill:#808B92;" d="M245.59,158.84c-1.45,0-2.91,0.07-4.36-0.02c-2.6-0.16-3.52-1.73-1.97-3.76
		c0.99-1.28,2.66-2.04,4.02-3.04C244.06,154.3,244.83,156.57,245.59,158.84z"/>
	<path style="fill:#7B878D;" d="M111.74,113.43c0.27,2.09-0.72,2.39-2.19,1.33c-2.28-1.63-4.44-3.43-6.64-5.18
		c-1.34-1.07-1.42-2.42,0.02-3.24c1.82-1.03,3.85-1.75,5.86-2.35c0.46-0.14,1.68,0.64,1.77,1.14
		C111.09,107.87,111.37,110.66,111.74,113.43z"/>
	<path style="fill:#7F8A91;" d="M109.82,131.81c5.23,2.34,10.47,4.65,15.66,7.05c0.64,0.3,1.07,1.06,1.59,1.61
		c-0.76,0.13-1.51,0.35-2.28,0.37c-4.61,0.14-8.74-1-12.06-4.45c-1.23-1.28-2.66-2.35-4-3.52
		C108.53,131.94,108.81,131.51,109.82,131.81z"/>
	<path style="fill:#869198;" d="M109.82,131.81c-0.36,0.35-0.72,0.71-1.08,1.06c-1-1-2.01-1.99-3.01-2.99l0.02-0.02
		C107.11,130.51,108.47,131.16,109.82,131.81z"/>
	<path style="fill:#9BA6AC;" d="M128.67,152.83c0.32,0,0.67-0.06,0.96,0.03c0.48,0.15,0.92,0.41,1.38,0.62
		c-0.58,0.03-1.17,0.12-1.74,0.04c-0.22-0.03-0.38-0.47-0.57-0.72C128.71,152.8,128.67,152.83,128.67,152.83z"/>
	<path style="fill:#7A868C;" d="M128.71,152.8c-0.44-0.08-0.88-0.15-1.32-0.23c0.1-0.17,0.2-0.34,0.3-0.51
		c0.33,0.26,0.65,0.51,0.98,0.77L128.71,152.8z"/>
	<path style="fill:#808B91;" d="M27.98,42.89c-0.13-0.3-0.22-0.61-0.25-0.93C27.82,42.26,27.9,42.57,27.98,42.89z"/>
	<path style="fill:#9DA7AE;" d="M104.71,128.87c-0.17-0.18-0.34-0.36-0.51-0.54c0.12,0.02,0.29,0,0.35,0.07
		c0.1,0.11,0.13,0.29,0.19,0.43L104.71,128.87z"/>
	<path style="fill:#869198;" d="M105.73,129.88c-0.34-0.34-0.68-0.67-1.02-1.01l0.04-0.03c0.34,0.34,0.67,0.68,1.01,1.02
		L105.73,129.88z"/>
	<path style="fill:#A6B0B6;" d="M66.78,131.86c4.02,3.35,8.02,6.72,12.07,10.04c1.02,0.83,2.62,1.58,1.12,2.99
		c-1.18,1.11-2.78,3.01-4.58,0.95c-1.93-2.21-3.7-4.6-5.25-7.09c-1.34-2.15-2.27-4.56-3.39-6.86L66.78,131.86z"/>
	<path style="fill:#A6B0B6;" d="M66.75,131.89c-0.18-0.18-0.35-0.35-0.53-0.53c0.12,0.02,0.29-0.01,0.35,0.06
		c0.1,0.11,0.14,0.29,0.2,0.44L66.75,131.89z"/>
	<path style="fill:#AEB7BD;" d="M91.76,158.83c-0.17-0.17-0.34-0.34-0.51-0.51c0.12,0.03,0.28,0.02,0.34,0.09
		c0.09,0.12,0.1,0.29,0.15,0.45C91.74,158.86,91.76,158.83,91.76,158.83z"/>
	<path style="fill:#AEB7BD;" d="M91.74,158.86c0.25,0.12,0.5,0.24,0.75,0.36c-0.24-0.13-0.48-0.25-0.72-0.38L91.74,158.86z"/>
</g>
</svg>
