<?xml version="1.0" encoding="utf-8"?>
<!-- Generator: Adobe Illustrator 24.0.0, SVG Export Plug-In . SVG Version: 6.00 Build 0)  -->
<svg version="1.1" id="Calque_1" xmlns="http://www.w3.org/2000/svg" xmlns:xlink="http://www.w3.org/1999/xlink" x="0px" y="0px"
	 viewBox="0 0 103.41 209.8" style="enable-background:new 0 0 103.41 209.8;" xml:space="preserve">
<g>
	<path style="fill:#B5C5E6;" d="M97.89,172.26c1.84,7.2,3.68,14.4,5.52,21.6c-1.78,1.58-4.17,1.57-6.2,2.48
		c-12.59,2.97-25.05,0.79-37.36-2.34c-16.85-4.28-33.4-9.61-48.83-18.32c-2.09-1.18-4.62-1.9-5.18-4.89
		c2.11-5.69,4.22-11.38,6.33-17.07c2.62-1.04,4.63,0.79,6.77,1.8c23.48,11.07,48.07,15.75,73.5,15.64
		C94.32,171.14,96.22,170.99,97.89,172.26z"/>
	<path style="fill:#E94D4D;" d="M97.89,172.26c-29.98,1.66-58.51-4.79-85.73-18.55c2.3-6.8,4.61-13.6,6.92-20.41
		c1.92-1.11,3.73-0.36,5.41,0.64c18.01,10.81,37.72,14.19,57.86,15.8c3.21,0.26,6.62-0.4,9.55,1.79
		C93.89,158.45,95.89,165.35,97.89,172.26z"/>
	<path style="fill:#E94E4E;" d="M5.83,170.78c18.95,12.32,39.83,18.72,61.31,23.38c9.75,2.11,19.48,3.02,29.26,1.03
		c0.98,1.03,3.18-1.48,3.53,1.4c-7.74,3.44-15.49,6.88-23.23,10.32c-3.43,0.67-6.87,1.33-10.3,2c-22.34,3.24-42.79-2.2-61.25-16.18
		c-6.1-4.63-6.16-5.56-3.37-12.72C2.99,176.86,4.47,173.84,5.83,170.78z"/>
	<path style="fill:#B6C5E6;" d="M91.89,151.54c-24.18-0.65-47.77-4.14-69.42-17.11c-1.01-0.61-2.26-0.75-3.4-1.12
		c2.95-7.5,5.89-14.99,8.84-22.49c3.23,0.26,5.79,2.3,8.47,3.88c13.89,8.19,28.81,13.31,44.13,17.24c1.5,0.39,3.31,0.25,4.41,1.38
		c1.58,1.61,0.8-1.62,1.79-0.75C88.44,138.9,90.16,145.22,91.89,151.54z"/>
	<path style="fill:#E94D4D;" d="M86.71,132.57c-1.2,0.4-2.49,1.34-3.59,1.12c-19.71-3.97-38.23-11.3-55.21-22.86
		c2.54-6.75,5.09-13.5,7.63-20.25c2.02-0.39,3.73,0.58,5.33,1.63c10.54,6.91,21.98,11.37,33.92,14.53c1.63,0.43,3.47,0.48,4.57,2.2
		C81.81,116.82,84.26,124.69,86.71,132.57z"/>
	<path style="fill:#B6C5E6;" d="M79.36,108.94c-15.82-2.79-30.22-9.48-43.82-18.36c2.77-7.31,5.54-14.61,8.32-21.92
		c1.12-0.74,1.99,0.04,2.74,0.72c8,7.29,16.74,13.39,26.18,18.38c0.62,0.33,1.03,0.96,1.48,1.51
		C75.95,95.82,77.66,102.38,79.36,108.94z"/>
	<path style="fill:#E94F4F;" d="M74.25,89.26C62.54,85,53.23,76.78,43.86,68.66c2.76-7.53,5.52-15.06,8.27-22.59
		c5.41,1.18,7.72,6.37,11.39,9.79c0.6,0.56,0.85,1.54,1.55,2.1C68.13,68.4,71.19,78.83,74.25,89.26z"/>
	<path style="fill:#8182BD;" d="M39.57,25.25c-4.75-0.66-9.5-1.25-14.24-2c-8.66-1.36-11.76-8.13-7.41-17.05
		c0.87,0.99,1.49,2.04,2.38,2.66c3.04,2.13,5.98,4.67,9.32,6.01c6.86,2.76,13.95,4.83,20.94,7.19c1.81,0.09,3.2,1.05,4.44,2.36
		c1.15,1.4,2.27,2.81,3.14,4.43c0.79,1.78,1.19,3.65,1.41,5.58c0.06,0.85-0.04,1.67-0.37,2.44c-0.51,0.69-1.21,0.96-2.03,0.91
		c-2.53-1.01-3.01-4.05-5.02-5.57C48.49,28.75,43.01,29.07,39.57,25.25z"/>
	<path style="fill:#EA5452;" d="M57.07,28.65c-1.04-1.3-2.08-2.6-3.12-3.91c-1.03-1.73-1.91-3.54-2.74-5.38
		c-2.14-2.61-3.89-5.9-6.55-7.65c-2.51-1.66-6-2.42-9-2.31c-4.06,0.15-6.23-0.91-6.65-5.37c-0.48-5.07,3.37-3.94,5.59-3.89
		C45.02,0.4,53.72,4.47,59.5,14.19C60.68,19.42,59.79,24.22,57.07,28.65z"/>
	<path style="fill:#EA5554;" d="M58.5,37.03c0.04-0.81,0.07-1.62,0.11-2.43c0.28-1.72,1.05-3.06,2.67-3.72
		c2.01-0.59,4.02-1.51,6.08-0.05c8.81,2.87,12.08,10.21,13.74,18.74c0.71,3.64,0.1,6.81-4.37,8.6c-2.74-9.05-4.14-19.72-16.52-19.69
		C59.2,38.59,58.6,38.13,58.5,37.03z"/>
	<path style="fill:#F2CD47;" d="M60.55,32.18c-0.65,0.81-1.29,1.61-1.94,2.42c-0.51-1.98-1.03-3.97-1.54-5.95
		c0.81-4.82,1.62-9.64,2.43-14.46c0.63-1.37,1.25-2.75,1.88-4.13c0.44-2.15,0.92-4.27,3.21-5.12c2.89-1.53,5.78-3.06,8.68-4.58
		c0.43,0.61,0.85,1.21,1.28,1.82c-2.14,3.18-4.29,6.35-6.43,9.53C66.26,18.82,64.23,25.84,60.55,32.18z"/>
	<path style="fill:#F2CF46;" d="M39.57,25.25c4.3,2.09,8.59,4.18,12.89,6.26c0.61,0.91,0.11,1.15-0.66,1.23
		c-5.62,0.95-11.45,1.23-16.8,3.02c-6.44,2.15-8.93,1.73-12.3-4.24C28.26,29.45,33.92,27.35,39.57,25.25z"/>
	<path style="fill:#B9C3E3;" d="M58.5,37.03c0.57,0.49,1.15,0.97,1.72,1.46c1.62,6.49,3.23,12.98,4.85,19.47
		c-4.31-3.97-8.63-7.93-12.94-11.9c0.96-2.91,1.93-5.82,2.89-8.73c0.58-0.49,1.21-0.51,1.87-0.17
		C57.43,37.13,57.96,37.08,58.5,37.03z"/>
	<path style="fill:#8685BF;" d="M60.55,32.18c2.52-6.83,5.04-13.65,7.55-20.48c3.63,1.99,3.78,5.35,2.88,8.74
		c-0.94,3.55-2.39,6.94-3.62,10.4C65.09,31.28,62.82,31.73,60.55,32.18z"/>
	<path style="fill:#8988C0;" d="M64.59,4.94c-1.07,1.71-2.14,3.41-3.21,5.12c-0.16-0.06-0.41-0.08-0.47-0.2
		c-1.19-2.39-2.43-4.77-3.43-7.24c-0.14-0.33,1.27-1.79,1.39-1.71C60.83,2.16,62.7,3.57,64.59,4.94z"/>
	<path style="fill:#E0C46C;" d="M56.89,37.18c-0.62,0.06-1.25,0.11-1.87,0.17c-1.07-1.54-2.15-3.07-3.22-4.61
		c0.22-0.41,0.44-0.82,0.66-1.23C53.94,33.4,55.41,35.29,56.89,37.18z"/>
	<path style="fill:#E4848E;" d="M99.93,196.58c-1.18-0.47-2.35-0.93-3.53-1.4c2.34-0.44,4.67-0.88,7.01-1.32
		C102.25,194.77,101.09,195.67,99.93,196.58z"/>
	<path style="fill:#F3D5D8;" d="M51.21,19.36c0.91,1.79,1.83,3.58,2.74,5.38c-1.13-0.89-2.26-1.78-3.39-2.67
		C50.78,21.17,50.99,20.27,51.21,19.36z"/>
</g>
</svg>
