<?xml version="1.0" encoding="utf-8"?>
<!-- Generator: Adobe Illustrator 24.0.0, SVG Export Plug-In . SVG Version: 6.00 Build 0)  -->
<svg version="1.1" id="Calque_1" xmlns="http://www.w3.org/2000/svg" xmlns:xlink="http://www.w3.org/1999/xlink" x="0px" y="0px"
	 viewBox="0 0 308.56 194.56" style="enable-background:new 0 0 308.56 194.56;" xml:space="preserve">
<g>
	<path style="fill:#425BA6;" d="M184.93,182.83c-11.64-0.22-23.3-0.06-34.78-2.44c-0.71-0.54-1.46-0.71-2.29-0.29
		c-5.01-0.26-10.02-0.52-15.03-0.78c-0.49-0.38-1.04-0.56-1.66-0.45c-3.71-0.42-7.42-0.85-11.13-1.27
		c-2.99-1.53-3.41-4.35-3.41-7.24c0.07-25.39-0.44-50.73,3.47-76.03c1.74-11.26,3.5-22.6,4.61-33.98c0.05-0.85,0.19-1.69,0.53-2.48
		c0.34-0.73,0.85-1.32,1.5-1.77c2.9-0.58,5.88-0.96,8.47-2.61c0.23,0.12,0.47,0.21,0.72,0.29c0.97,0.49,2.21-0.14,3.07,0.78
		l0.01,0.02c0.51,0.42,1.15,0.44,1.76,0.57c2.1,0.34,4.05,1.08,5.84,2.21c0.72,0.38,1.42,0.79,1.68,1.59
		c-0.11,0.23-0.19,0.43-0.22,0.55c0.1-0.22,0.28-0.39,0.57-0.52c0.63-0.2,1.23-0.16,1.84-0.03c9.82,4.91,19.9,9.34,28.87,15.81
		c0.59,0.74,1.04,1.53,0.89,2.53c-0.26,0.39-0.66,0.61-1.06,0.84c0.48-0.11,0.78-0.46,1.13-0.79c0.99-0.13,1.76,0.32,2.49,0.88
		c9.19,8.54,16.87,18.2,22.05,29.72c0.37,0.6,0.69,1.22,0.95,1.87c1.19,3.98,2.62,7.89,3.76,11.89c0.17,0.44,0.29,0.89,0.4,1.34
		c0.27,1.62,0.41,3.26,0.91,4.84c0.17,0.73,0.24,1.46,0.25,2.21c0.81,6.33,1.23,12.7,1.95,19.04c0.03,0.51-0.01,1.03-0.08,1.54
		c-0.67,7.75-1.03,15.49,0.67,23.18c0.53,2.39-0.6,4.54-1.18,6.77c-1.23,2.08-3.36,2.7-5.47,2.95
		C199.62,184.42,192.25,184.26,184.93,182.83z"/>
	<path style="fill:#B73237;" d="M127.16,56.29c-0.33,0.45-0.66,0.89-0.99,1.34c-0.58,0.35-0.84,0.98-1.28,1.48
		c0.07,0.75,0.7,0.05,0.94,0.36c-0.36,3.94-0.63,7.89-1.1,11.81c-1.23,10.19-2.61,20.37-3.82,30.56
		c-0.86,7.22-1.66,14.44-2.27,21.68c-0.43,5.1-0.7,10.22-0.69,15.34c0.02,9.08,0.96,18.15-0.1,27.24
		c-0.46,3.95-0.29,7.99,2.19,11.48c-8.04,0.38-15.6-2.23-23.26-4c-9.81-2.28-19.51-5.06-29.22-7.77c-9.16-2.56-17.99-5.8-24.58-13.2
		c-0.25-1.68-1.17-2.73-2.87-3.02c-6.49-4.93-8.71-11.74-8.75-19.58c-0.02-3.48-0.18-6.96-0.47-10.43
		c-0.4-4.74-0.05-9.44,2.31-13.55c3.72-6.46,7.51-12.94,12.01-18.85c4.29-5.64,9.3-10.79,14.4-15.74
		c8.81-8.55,19.89-12.51,31.66-15.23c9.78-2.26,19.66-2.69,29.59-3.11C123.94,52.2,126.11,53.13,127.16,56.29z"/>
	<path style="fill:#44A660;" d="M184.93,182.83c6.33-0.06,12.69,0.18,18.99-0.3c2.9-0.22,5.7-1.81,8.54-2.79
		c2.46-1.17,4.98-2.27,5.68-5.34c0.16-0.5,0.35-0.98,0.53-1.47c1.5-6.07,1.13-12.2,0.6-18.3c-0.59-6.76-0.62-13.56-1.5-20.31
		c-0.35-2.68-0.85-5.66,1.36-8.03c9.1,3.93,18.82,5.09,28.51,6.41c3.78,0.52,7.56,1.22,11.25,2.17c6.59,1.71,13.43,2.95,19.59,5.67
		c13.46,5.96,22.91,16.36,28.71,29.79c3.91,9.07-0.91,17.87-10.37,20.61c-12.28,3.56-24.7,4.33-37.39,2.95
		c-12.37-1.35-24.83-1.93-37.15-3.58c-12.01-1.61-23.89-4.13-35.82-6.31C185.9,183.92,185.44,183.24,184.93,182.83z"/>
	<path style="fill:#687CBC;" d="M127.85,29.54c-7.81,1.65-15.44-0.35-23.15-1.04c-7.43-0.67-14.92-0.71-22.36-1.29
		c-11.58-0.9-23.24-1.44-34.69-3.2c-13.1-2.02-26.06-5.06-39-8.01C5.69,15.33,1.86,15.34,0,10.89c4.64-0.81,8.93-1.88,13.27-2.25
		c11.22-0.95,22.49-1.29,33.68-2.42c13.33-1.35,26.54,0.05,39.69,1.41c12.89,1.34,25.53,4.47,37.74,9c1.81,0.67,3.41,1.94,5.1,2.93
		c1.52,3.08,0,5.96-0.61,8.9C128.67,28.94,128.32,29.3,127.85,29.54z"/>
	<path style="fill:#DCC145;" d="M218.98,175.54c-1.34,2.69-2.6,5.5-6.51,4.2c-0.27-0.59-0.54-1.19-0.8-1.78
		c-0.35-0.31-0.7-0.62-1.06-0.93c0.84-0.31,1.68-0.62,2.65-0.98c-2.61-8.45-2.53-16.96-1.22-25.53c0.43-0.03,0.59-0.25,0.46-0.66
		c-0.05-0.16-0.22-0.23-0.41-0.23c-0.65-6.69-1.3-13.38-1.96-20.07c0.85-0.71,0.87-1.39-0.09-2.02c-0.35-1.64-0.71-3.28-1.06-4.91
		l0.03,0.09c-1.33-4.4-2.66-8.81-3.99-13.21c0.43-0.82-0.61-0.48-0.7-0.89c-3.49-7.84-8.68-14.58-14.01-21.2
		c-2.56-3.18-5.54-6.02-8.34-9.02c-0.45-1.47-1.2-2.65-2.89-2.88c-9.32-5.05-18.63-10.1-27.94-15.16c-0.41-0.22-0.71-0.63-1.07-0.95
		c-0.65-0.57-1.3-1.15-1.46-2.07c0-0.45,0.18-0.83,0.5-1.14c2.37,1.02,4.73,2.04,7.1,3.06c-0.62,0.26-0.37-0.49-0.34,0.16
		c0.02,0.43,0.35,0.39,0.41-0.09c6.01,3.04,12.24,5.72,17.97,9.22c7.62,4.65,14.67,10.22,22.27,14.88
		c14.23,8.73,20.62,21.87,22.29,37.89c0.17,1.65,0.22,3.32,0.33,4.97c0.4,7.6,0.85,15.19,1.19,22.79
		c0.31,6.91,0.63,13.82,0.64,20.73c0,1.65-1.2,3.31-1.85,4.97c-0.77-0.3-1.55-0.17-2.45-0.04
		C217.39,175.27,218.46,174.71,218.98,175.54z"/>
	<path style="fill:#687CBC;" d="M179.12,25.39c0.82,0.05,1.68-0.05,2.44,0.18c9.84,2.99,19.66,6.03,29.48,9.06
		c0.23,0.23,0.32,0.46,0.26,0.71c-0.06,0.25-0.12,0.38-0.19,0.38c-0.93,0.52-2.11-0.09-2.99,0.66c-4.26-0.07-8.53-0.07-12.79-0.22
		c-7.06-0.26-14.11-0.63-21.16-0.92c-12.36-0.51-24.74-0.68-36.86-3.59c-0.42-0.1-0.94,0.21-1.42,0.33
		c-0.94-0.37-1.31-1.04-1.06-2.04c0.62-1.81,2.12-2.44,3.81-2.77c10.59-2.12,21.24-3.58,32.05-2.06
		C173.51,25.49,176.3,25.47,179.12,25.39z"/>
	<path style="fill:#4760A9;" d="M179.12,25.39c-3.7,2.19-7.65,0.83-11.49,0.78c-1.12-0.01-2.27-0.64-3.36-0.54
		c-9.06,0.83-18.11,1.77-26.75,2.64c-1.27,1.11-2.13,1.86-2.99,2.61c-0.54-0.15-0.94-0.47-1.18-0.98c-0.62-3.77-1.02-7.46,3.25-9.57
		c3.78-0.15,7.64-0.88,11.31-0.34C158.35,21.51,168.72,23.55,179.12,25.39z"/>
	<path style="fill:#5269B0;" d="M211.06,35.61c0.03-0.32,0.02-0.65-0.02-0.97c8.61-0.25,17.22-0.61,25.84-0.69
		c2.14-0.02,4.75-0.15,6.09,2.75c-2.38,2.32-5.26,2.96-8.2,2.64c-7.92-0.85-15.81-1.96-23.71-2.97c-0.34-0.17-0.45-0.34-0.34-0.51
		C210.83,35.69,210.94,35.61,211.06,35.61z"/>
	<path style="fill:#4760A9;" d="M123.12,48.44c-1.89-3.85-0.53-6.89,2.39-9.53c4.07-1.1,8.06-1.71,11.36,1.87
		c-0.43,3.34,0.99,7.1-2.27,9.78C130.49,51.38,126.73,50.27,123.12,48.44z"/>
	<path style="fill:#50AB6A;" d="M130.59,14.56c-0.6-0.72-1.81-1.54-1.71-2.15c0.54-3.23,1.13-6.5,2.24-9.57
		c0.83-2.3,1.19-2.17,5.33-2.84c0.81,0.91,1.9,2.12,3.14,3.51c0,3.27,0,6.53,0,10.14c-0.64,0.33-1.5,0.76-2.36,1.2
		C134.97,15.93,132.74,16.3,130.59,14.56z"/>
	<path style="fill:#D1353F;" d="M136.86,40.77c-3.79-0.62-7.57-1.24-11.36-1.87c-0.28-1.75-0.57-3.51-0.94-5.81
		c0.95-0.76,2.03-1.62,3.11-2.48c0.19,0.09,0.39,0.19,0.58,0.28c-0.02,0.46-0.04,0.93-0.1,1.49c0.62-0.9,0.32-2.26,1.59-2.66
		c1.56-0.5,2.99-0.42,4.18,0.86c0.17,0.16,0.38,0.26,0.61,0.3c0.45,0.37,0.91,0.73,1.36,1.1C138.61,34.64,138.28,37.64,136.86,40.77
		z"/>
	<path style="fill:#D7BE51;" d="M123.12,48.44c3.83,0.71,7.65,1.41,11.48,2.12c0.2,0.98,0.41,1.96,0.61,2.94
		c-0.73,0.97-1.45,1.94-2.36,3.14c-1.67-0.1-3.68-0.22-5.69-0.34c-2.1-1.06-4.21-2.13-6.31-3.19
		C121.6,51.55,122.36,49.99,123.12,48.44z"/>
	<path style="fill:#68687B;" d="M133.91,30.58c-1.63,0.05-3.26,0.1-4.89,0.16c-0.39,0.31-0.82,0.41-1.31,0.3l-0.05-0.42
		c0.06-0.36,0.12-0.72,0.17-1.07c0.19-0.07,0.38-0.13,0.58-0.16c2.38-4.03,3.17-8.28,1.83-12.85c0.11-0.66,0.22-1.32,0.33-1.97
		c2.22,0.09,4.43,0.19,6.65,0.28c-0.22,1.83-0.43,3.65-0.65,5.48C133.84,23.25,134.09,26.97,133.91,30.58z"/>
	<path style="fill:#404151;" d="M130.26,16.53c0.54,0.29,1.49,0.5,1.56,0.88c0.68,3.77,0.44,7.49-1.35,10.94
		c-0.28,0.55-1.34,0.69-2.04,1.03c0.35-3.27,0.71-6.55,1.06-9.82C129.75,18.55,130,17.54,130.26,16.53z"/>
	<path style="fill:#D7BE51;" d="M149.12,56.22c-0.03,0.38-0.05,0.76-0.08,1.14c-0.72,1.23-1.78,0.53-2.73,0.49
		c-2.12-0.85-4.24-1.7-6.37-2.54c-0.29-0.22-0.34-0.48-0.14-0.78C142.91,55.09,146.01,55.65,149.12,56.22z"/>
	<path style="fill:#C36856;" d="M40.11,149.59c1.03-0.04,2.06-0.07,3.1-0.11c-0.07,1.04-0.15,2.08-0.22,3.12
		C42.02,151.6,41.06,150.6,40.11,149.59z"/>
	<path style="fill:#878BBE;" d="M147.86,180.09c0.2-0.67,0.39-1.33,0.8-2.7c0.72,1.44,1.1,2.22,1.49,3
		C149.39,180.29,148.63,180.19,147.86,180.09z"/>
	<path style="fill:#B87878;" d="M131.17,178.86c0.29-0.39,0.58-0.77,0.87-1.16c0.27,0.54,0.53,1.08,0.8,1.61
		C132.27,179.16,131.72,179.01,131.17,178.86z"/>
	<path style="fill:#4760A9;" d="M211.06,35.61c0,0.25,0,0.51,0,0.76c-0.98,0-1.96,0.01-2.94,0.01
		C209.1,36.12,210.08,35.86,211.06,35.61z"/>
	<path style="fill:#B87878;" d="M139,54.56c-1.02-0.26-2.05-0.52-3.07-0.78C136.96,54.04,137.98,54.3,139,54.56z"/>
	<path style="fill:#B87878;" d="M139.81,54.52c0.12,0.25,0.16,0.51,0.14,0.78c-0.31-0.24-0.62-0.48-0.93-0.72
		C139.27,54.43,139.53,54.41,139.81,54.52z"/>
	<path style="fill:#A06777;" d="M209.63,147.99c0.08,1.41,0.17,2.82,0.25,4.23c-0.47,0.05-0.95,0.1-1.42,0.15
		c-0.14-1.44-0.28-2.89-0.42-4.33C208.58,148.02,209.11,148.01,209.63,147.99z"/>
	<path style="fill:#D25033;" d="M125.83,59.47c-0.51,0.93-1.01,1.85-1.57,2.86c-1.13-2.5-1.13-2.5,1.91-4.7
		C126.06,58.24,125.94,58.85,125.83,59.47z"/>
	<path style="fill:#E7A035;" d="M179.08,75.54c0.87,0.04,2.12-0.24,2.52,0.21c0.49,0.57,0.28,1.75,0.37,2.67
		c-0.61-0.32-1.22-0.63-1.84-0.95l-0.01-0.01C179.78,76.82,179.43,76.18,179.08,75.54z"/>
	<path style="fill:#896489;" d="M173.39,180.99c-1.19,0.07-2.39,0.14-3.58,0.21c-0.02-0.4-0.04-0.8-0.06-1.21c1.2,0,2.4,0,3.6,0
		C173.36,180.32,173.37,180.66,173.39,180.99z"/>
	<path style="fill:#95667F;" d="M123.93,115.25c-0.09,1.04-0.18,2.07-0.26,3.11c-0.24,0.05-0.49,0.11-0.73,0.16
		c-0.26-0.58-0.74-1.17-0.72-1.74c0.02-0.55,0.56-1.08,0.88-1.62C123.37,115.2,123.65,115.23,123.93,115.25z"/>
	<path style="fill:#E7A035;" d="M146.31,57.85c0.91-0.16,1.82-0.33,2.73-0.49c0.34,0.69,0.69,1.38,1.03,2.07
		c-0.66,0.01-1.32,0.01-1.99,0.02l0.07,0.05C147.54,58.95,146.92,58.4,146.31,57.85z"/>
	<path style="fill:#816492;" d="M185.88,179.78c1.29-0.16,2.58-0.32,3.87-0.48c0.04,0.31,0.07,0.61,0.11,0.92
		c-1.29,0.17-2.59,0.33-3.88,0.5C185.94,180.4,185.91,180.09,185.88,179.78z"/>
	<path style="fill:#95667F;" d="M201.25,179.61c0.88,0.26,1.75,0.51,2.63,0.77c-0.09,0.29-0.17,0.59-0.26,0.88
		c-0.9-0.28-1.81-0.56-2.71-0.84C201.02,180.15,201.14,179.88,201.25,179.61z"/>
	<path style="fill:#95667F;" d="M180.14,77.47c-0.24,0.59-0.48,1.17-0.86,2.1c-0.81-0.55-1.5-1.02-3.1-2.1
		C178.22,77.46,179.17,77.46,180.14,77.47L180.14,77.47z"/>
	<path style="fill:#E7A035;" d="M210.04,127.56c1.61,0.03,1.61,0.03,1.87,2.68c-0.69-0.26-1.24-0.46-1.79-0.66
		C210.1,128.91,210.07,128.24,210.04,127.56z"/>
	<path style="fill:#816492;" d="M208.14,144.26c-0.23-1.08-0.46-2.16-0.69-3.24c0.32-0.08,0.65-0.16,0.97-0.24
		c0.29,1.07,0.59,2.13,0.88,3.2C208.92,144.08,208.53,144.17,208.14,144.26z"/>
	<path style="fill:#816492;" d="M123.49,111.3c-0.05-0.78-0.09-1.57-0.14-2.35c0.3-0.05,0.6-0.1,0.9-0.15
		c0.18,0.79,0.35,1.58,0.53,2.37C124.35,111.21,123.92,111.25,123.49,111.3z"/>
	<path style="fill:#A06777;" d="M122.29,156.43c-0.28-0.79-0.57-1.59-0.85-2.38c0.29-0.09,0.58-0.19,0.88-0.28
		c0.23,0.81,0.47,1.62,0.7,2.43C122.77,156.27,122.53,156.35,122.29,156.43z"/>
	<path style="fill:#5269B0;" d="M128.94,65.14c-0.17,0.72-0.34,1.43-0.51,2.15c-0.32-0.09-0.63-0.17-0.95-0.26
		c0.24-0.7,0.48-1.39,0.72-2.09C128.45,65.01,128.7,65.07,128.94,65.14z"/>
	<path style="fill:#816492;" d="M126.34,73.96c0.22-0.62,0.45-1.25,0.67-1.87c0.23,0.04,0.47,0.08,0.7,0.12
		c-0.04,0.67-0.07,1.35-0.11,2.02C127.18,74.15,126.76,74.05,126.34,73.96z"/>
	<path style="fill:#E7A035;" d="M212.08,149.65c0.55-0.22,1.1-0.45,2.06-0.84c-0.17,1.13-0.28,1.84-0.46,3.08
		c-0.8-0.66-1.22-1.01-1.64-1.36C211.88,150.23,211.9,149.94,212.08,149.65z"/>
	<path style="fill:#A06777;" d="M122.87,125.46c-0.28-0.77-0.56-1.55-0.84-2.32c0.25-0.1,0.49-0.2,0.74-0.29
		c0.33,0.75,0.66,1.51,1,2.26C123.46,125.22,123.16,125.34,122.87,125.46z"/>
	<path style="fill:#A06777;" d="M148.08,59.44c0.13,0.48,0.25,0.96,0.55,2.09c-1.12-0.61-1.84-1.01-3.41-1.87
		c1.65-0.09,2.29-0.13,2.93-0.16L148.08,59.44z"/>
	<path style="fill:#A06777;" d="M179.6,179.82c0.89,0,1.79,0,2.68,0c0.01,0.17,0.03,0.33,0.04,0.5c-0.87,0.11-1.74,0.22-2.61,0.32
		C179.68,180.37,179.64,180.1,179.6,179.82z"/>
	<path style="fill:#896489;" d="M122.25,163.28c-0.42-0.57-0.84-1.15-1.26-1.72c0.23-0.16,0.45-0.32,0.68-0.47
		c0.4,0.59,0.8,1.18,1.19,1.78C122.66,163,122.45,163.14,122.25,163.28z"/>
	<path style="fill:#816492;" d="M200.52,106.7c0.2,0.65,0.4,1.29,0.6,1.94c-0.2,0.09-0.39,0.18-0.59,0.27
		c-0.36-0.6-0.71-1.21-1.07-1.81C199.81,106.97,200.16,106.84,200.52,106.7z"/>
	<path style="fill:#E7A035;" d="M204.32,108.63c0.89,0.14,1.78,0.28,2.66,0.42c-0.06,0.3-0.12,0.59-0.19,0.89
		c-0.59-0.14-1.19-0.28-1.78-0.42C204.78,109.22,204.55,108.93,204.32,108.63z"/>
	<path style="fill:#A06777;" d="M122.33,131.15c0-0.7,0-1.39,0-2.09c0.14-0.01,0.27-0.03,0.41-0.04c0.11,0.64,0.22,1.27,0.34,1.91
		C122.83,131,122.58,131.07,122.33,131.15z"/>
	<path style="fill:#A06777;" d="M209.91,157.94c0,0.59,0,1.18,0,1.76c-0.16,0.02-0.33,0.04-0.49,0.06
		c-0.11-0.58-0.22-1.16-0.33-1.74C209.36,158,209.63,157.97,209.91,157.94z"/>
	<path style="fill:#816492;" d="M157.96,178.63c-0.35,0.31-0.69,0.62-1.04,0.93c-0.16-0.14-0.32-0.28-0.47-0.42
		c0.28-0.37,0.57-0.75,0.85-1.12C157.52,178.22,157.74,178.43,157.96,178.63z"/>
	<path style="fill:#C36856;" d="M121.92,138.08c0.11-0.68,0.22-1.37,0.33-2.05c0.19,0.01,0.39,0.01,0.58,0.02
		c0.06,0.71,0.11,1.42,0.17,2.13C122.64,138.14,122.28,138.11,121.92,138.08z"/>
	<path style="fill:#5269B0;" d="M208.03,178.72c0.31,0.32,0.62,0.65,0.92,0.97c-0.13,0.16-0.26,0.31-0.39,0.47
		c-0.37-0.26-0.75-0.53-1.12-0.79C207.64,179.16,207.83,178.94,208.03,178.72z"/>
	<path style="fill:#95667F;" d="M195.43,180.34c-0.66,0-1.32,0-1.99,0c0-0.13,0-0.27,0-0.4c0.66,0,1.32,0,1.99,0
		C195.43,180.07,195.43,180.2,195.43,180.34z"/>
	<path style="fill:#C36856;" d="M124.2,102.88c0.02-0.42,0.04-0.84,0.07-1.27c0.21,0.04,0.61,0.08,0.61,0.12
		c-0.01,0.42-0.08,0.84-0.13,1.27C124.57,102.96,124.39,102.92,124.2,102.88z"/>
	<path style="fill:#95667F;" d="M126.34,87.84c-0.08-0.61-0.16-1.21-0.23-1.82c0.21-0.02,0.42-0.05,0.63-0.07
		c0.07,0.61,0.13,1.22,0.2,1.83C126.73,87.8,126.54,87.82,126.34,87.84z"/>
	<path style="fill:#95667F;" d="M126.2,80.79c0.02-0.43,0.05-0.86,0.07-1.29c0.22,0.04,0.64,0.08,0.64,0.11
		c-0.01,0.43-0.07,0.86-0.13,1.29C126.58,80.86,126.39,80.82,126.2,80.79z"/>
	<path style="fill:#816492;" d="M143.47,177.15c0.12,0.25,0.23,0.5,0.34,0.75c-0.23-0.01-0.47-0.03-0.7-0.04
		C143.23,177.62,143.35,177.39,143.47,177.15z"/>
	<path style="fill:#816492;" d="M197.04,101.59c-0.31-0.53-0.63-1.06-0.94-1.6c0.25-0.07,0.51-0.14,0.76-0.21
		c0.09,0.58,0.17,1.15,0.26,1.73L197.04,101.59z"/>
	<path style="fill:#AA676D;" d="M207.48,134.32C207.78,133.65,207.63,133.98,207.48,134.32
		C207.4,133.93,207.32,133.55,207.48,134.32z"/>
	<path style="fill:#896489;" d="M185.2,85.39c0.28,0.43,0.56,0.85,0.84,1.28c-0.19,0.12-0.38,0.23-0.58,0.35
		c-0.22-0.41-0.43-0.83-0.65-1.24C184.95,85.65,185.08,85.52,185.2,85.39z"/>
	<path style="fill:#816492;" d="M197.12,101.52c0.19,0.13,0.39,0.27,0.58,0.4c-0.05,0.05-0.1,0.1-0.14,0.15
		c-0.17-0.16-0.34-0.31-0.51-0.47L197.12,101.52z"/>
	<path style="fill:#816492;" d="M141.08,177.67c-0.14,0.23-0.28,0.47,0.11-0.18c-0.57,0.45-0.37,0.29-0.16,0.13L141.08,177.67z"/>
	<path style="fill:#896489;" d="M184.82,85.78c-0.2-0.23-0.4-0.47-0.6-0.7c0.07-0.1,0.14-0.19,0.21-0.29
		c0.26,0.2,0.52,0.4,0.77,0.59C185.08,85.52,184.95,85.65,184.82,85.78z"/>
	<path style="fill:#816492;" d="M141.03,177.62c0.2-0.16,0.4-0.31,0.6-0.47c0.02,0.02,0.03,0.04,0.05,0.06
		c-0.2,0.15-0.4,0.31-0.6,0.46C141.08,177.67,141.03,177.62,141.03,177.62z"/>
	<path style="fill:#C94534;" d="M113.8,116.45c0.85-1.63,1.38-2.64,1.92-3.68c0.55,0.34,0.96,0.45,1.02,0.66
		C117.26,115.17,117.17,116.54,113.8,116.45z"/>
	<path style="fill:#D25033;" d="M115.55,144.25c0.09,1.29,0.18,2.58,0.27,3.87c-0.46,0.04-0.92,0.08-1.37,0.12
		c-0.14-1.29-0.28-2.59-0.42-3.88C114.53,144.33,115.04,144.29,115.55,144.25z"/>
	<path style="fill:#D25033;" d="M115.67,150.96c0.05,1.07,0.11,2.13,0.16,3.2c-0.4,0.05-0.81,0.11-1.21,0.16
		c-0.16-1.08-0.31-2.17-0.47-3.25C114.66,151.03,115.16,151,115.67,150.96z"/>
	<path style="fill:#C94534;" d="M114.44,162.27c-0.05-1.06-0.11-2.12-0.16-3.17c0.4-0.06,0.8-0.11,1.2-0.17
		c0.16,1.07,0.31,2.14,0.47,3.22C115.44,162.18,114.94,162.22,114.44,162.27z"/>
	<path style="fill:#D25033;" d="M118.91,91.15c-0.06,1.01-0.12,2.01-0.18,3.02c-0.39-0.03-0.79-0.06-1.18-0.1
		c0.09-1,0.18-2.01,0.27-3.01C118.19,91.09,118.55,91.12,118.91,91.15z"/>
	<path style="fill:#C94534;" d="M120.63,74.2c0-0.77,0-1.54,0-2.32c0.28-0.01,0.56-0.02,0.84-0.03c0,0.77,0,1.55,0,2.32
		C121.19,74.18,120.91,74.19,120.63,74.2z"/>
	<path style="fill:#C94534;" d="M119.46,82.87c0,0.77,0,1.55,0,2.32c-0.28,0.01-0.57,0.02-0.85,0.02c0-0.77,0-1.55,0-2.32
		C118.89,82.89,119.17,82.88,119.46,82.87z"/>
	<path style="fill:#DC5B33;" d="M114.21,122.5c0.42-0.18,0.84-0.35,1.25-0.53c0.11,0.27,0.21,0.54,0.32,0.81
		c-0.42,0.16-0.84,0.32-1.26,0.49C114.41,123.01,114.31,122.75,114.21,122.5z"/>
	<path style="fill:#DC5B33;" d="M114.79,166.3c0.07,0.83,0.15,1.66,0.22,2.49c-0.22,0.02-0.44,0.04-0.66,0.06
		c-0.08-0.83-0.15-1.66-0.23-2.49C114.35,166.34,114.57,166.32,114.79,166.3z"/>
	<path style="fill:#DC5B33;" d="M115.82,137.39c-0.27,0.3-0.53,0.6-0.8,0.9c-0.25-0.3-0.49-0.6-0.74-0.9c0.33-0.2,0.66-0.4,0.99-0.6
		C115.45,136.99,115.64,137.19,115.82,137.39z"/>
	<path style="fill:#D25033;" d="M119.27,78.16c0.37-0.09,0.75-0.18,1.12-0.26c0.02,0.39,0.05,0.78,0.07,1.17
		c-0.39-0.03-0.78-0.06-1.17-0.1C119.28,78.7,119.28,78.43,119.27,78.16z"/>
	<path style="fill:#DC5B33;" d="M114.89,128.21c0.03,0.55,0.06,1.1,0.09,1.65c-0.19,0.01-0.38,0.02-0.56,0.04
		c-0.04-0.55-0.07-1.1-0.11-1.65C114.5,128.24,114.7,128.22,114.89,128.21z"/>
	<path style="fill:#D25033;" d="M111.96,175.61c-0.28-0.37-0.56-0.74-0.84-1.11c0.15-0.14,0.3-0.28,0.44-0.43
		c0.37,0.31,0.74,0.62,1.11,0.93C112.44,175.21,112.2,175.41,111.96,175.61z"/>
	<path style="fill:#D25033;" d="M85.7,168.96c0.57,0,1.13,0,1.7,0c0,0.15,0,0.3,0,0.45c-0.57,0-1.13,0-1.7,0
		C85.7,169.26,85.7,169.11,85.7,168.96z"/>
	<path style="fill:#DC5B33;" d="M116.26,102.01c-0.04-0.58-0.07-1.15-0.11-1.73c0.2-0.01,0.4-0.03,0.6-0.04
		c0.04,0.58,0.09,1.15,0.13,1.73C116.67,101.98,116.46,101.99,116.26,102.01z"/>
	<path style="fill:#D25033;" d="M36.48,142.92c0.35,0.02,0.7,0.03,1.05,0.05c-0.01,0.11-0.01,0.22-0.02,0.34
		c-0.35-0.02-0.7-0.04-1.05-0.06C36.47,143.13,36.47,143.02,36.48,142.92z"/>
	<path style="fill:#DC5B33;" d="M116.5,108.13c-0.1-0.26-0.2-0.53-0.3-0.79c0.23,0.01,0.45,0.02,0.68,0.03
		C116.75,107.62,116.62,107.88,116.5,108.13z"/>
	<path style="fill:#D25033;" d="M57.01,159.63c-0.45-0.07-0.9-0.14-1.35-0.21c0.05-0.14,0.1-0.29,0.15-0.43
		c0.41,0.21,0.81,0.41,1.22,0.62L57.01,159.63z"/>
	<path style="fill:#D25033;" d="M57.03,159.62c0.17,0.16,0.34,0.32-0.21-0.2c0.51,0.56,0.35,0.39,0.2,0.21
		C57.01,159.63,57.03,159.62,57.03,159.62z"/>
	<path style="fill:#E7A035;" d="M218.98,175.54c-1.27,0.18-2.53,0.36-4.07,0.57c-0.29-0.83-0.58-1.68-0.94-2.71
		c1.67-0.08,3.07-0.15,4.73-0.22c0.1,0.38,0.26,0.99,0.42,1.6C219.13,175.05,219.09,175.3,218.98,175.54z"/>
	<path style="fill:#988847;" d="M269.57,186.98c1.68,0,3.36,0,5.03,0c0.02,0.41,0.04,0.82,0.05,1.23c-1.68,0.1-3.36,0.19-5.04,0.29
		C269.6,187.99,269.59,187.48,269.57,186.98z"/>
	<path style="fill:#988847;" d="M258.3,186.86c1.89-0.34,3.41-0.62,4.93-0.89C260.91,188.47,260.91,188.47,258.3,186.86z"/>
	<path style="fill:#639A56;" d="M294.02,164.67c-0.6,0.26-1.2,0.52-2.29,0.99c-0.62-1.36-1.24-2.71-1.85-4.05
		c0.2-0.12,0.4-0.24,0.6-0.36c1.23,0.81,2.46,1.63,3.69,2.44c0.26,0.26,0.32,0.5,0.19,0.7
		C294.24,164.58,294.13,164.67,294.02,164.67z"/>
	<path style="fill:#988847;" d="M232.61,181.37c-1.37,0-2.74,0-4.77,0c1.84-2.45,3.3-1.64,4.74-1.12
		C232.59,180.62,232.6,181,232.61,181.37z"/>
	<path style="fill:#988847;" d="M279.71,184.49c-1.61,0.09-3.23,0.18-4.84,0.28c-0.05-0.31-0.09-0.63-0.14-0.94
		c1.61-0.37,3.23-0.73,4.84-1.1C279.61,183.31,279.66,183.9,279.71,184.49z"/>
	<path style="fill:#AF7E3F;" d="M283.4,183.39c0.9-0.53,1.8-1.06,2.71-1.61c0.26,0.52,0.56,0.98,0.5,1.03
		c-0.81,0.69-1.67,1.32-2.52,1.97C283.86,184.32,283.63,183.85,283.4,183.39z"/>
	<path style="fill:#988847;" d="M297.42,174.44c-0.43-1.79-0.73-3.01-1.02-4.19c0.52-0.21,0.92-0.51,1.08-0.42
		C299.5,171.05,298.79,172.47,297.42,174.44z"/>
	<path style="fill:#988847;" d="M251.71,183.34c-1.6,0.1-3.19,0.2-4.79,0.31c-0.03-0.24-0.06-0.48-0.08-0.72
		c1.58-0.27,3.16-0.53,4.74-0.8C251.62,182.52,251.67,182.93,251.71,183.34z"/>
	<path style="fill:#988847;" d="M218.2,181.57c1.36,0.35,2.71,0.71,4.07,1.06c0,0.23,0,0.45,0,0.68c-0.79,0.08-1.63,0.36-2.37,0.2
		c-0.75-0.17-1.41-0.77-2.11-1.19C217.93,182.07,218.06,181.82,218.2,181.57z"/>
	<path style="fill:#988847;" d="M223.73,180.39c-1.09-0.07-2.18-0.14-3.27-0.21c0-0.34,0.01-0.67,0.01-1.01c1.08,0,2.16,0,3.24,0
		C223.72,179.58,223.72,179.99,223.73,180.39z"/>
	<path style="fill:#988847;" d="M240.7,186.26c-1-0.12-1.99-0.25-2.99-0.37c0.01-0.3,0.02-0.59,0.04-0.89c1.01,0,2.02,0,3.04,0
		C240.75,185.41,240.73,185.83,240.7,186.26z"/>
	<path style="fill:#988847;" d="M270.49,184.72c-0.94,0.22-1.88,0.44-2.82,0.66c-0.1-0.35-0.2-0.7-0.31-1.05
		c0.96-0.26,1.92-0.52,2.88-0.79C270.33,183.94,270.41,184.33,270.49,184.72z"/>
	<path style="fill:#988847;" d="M283.7,187.67c-1.05,0.27-2.1,0.53-3.16,0.8c-0.09-0.41-0.19-0.82-0.28-1.23
		c1.07-0.2,2.13-0.4,3.2-0.59C283.54,186.99,283.62,187.33,283.7,187.67z"/>
	<path style="fill:#988847;" d="M229.81,184.78c-0.76-0.22-1.59-0.45-2.42-0.69c0.03-0.29,0.05-0.58,0.08-0.87
		c0.9-0.06,1.8-0.12,2.57-0.17c0.23,0.54,0.29,0.69,0.35,0.84C230.24,184.13,230.09,184.36,229.81,184.78z"/>
	<path style="fill:#988847;" d="M254.41,186.31c-1.26,0.35-2.53,0.69-3.79,1.04c-0.09-0.43-0.18-0.86-0.28-1.3
		c1.29-0.18,2.59-0.35,3.88-0.53C254.29,185.79,254.35,186.05,254.41,186.31z"/>
	<path style="fill:#AF7E3F;" d="M296.51,178.5c-0.21,0.9-0.42,1.79-0.63,2.69c-0.33-0.04-0.66-0.08-0.99-0.12
		c0.1-0.95,0.21-1.9,0.31-2.85C295.64,178.31,296.08,178.4,296.51,178.5z"/>
	<path style="fill:#988847;" d="M238.56,181.94c1.03-0.29,2.06-0.58,3.1-0.87c0.08,0.36,0.17,0.71,0.25,1.07
		c-1.05,0.19-2.11,0.38-3.16,0.57C238.69,182.46,238.62,182.2,238.56,181.94z"/>
	<path style="fill:#AF7E3F;" d="M288.55,184.87c0.66-0.57,1.31-1.14,1.97-1.71c0.19,0.19,0.38,0.37,0.57,0.56
		c-0.59,0.64-1.18,1.29-1.77,1.93C289.06,185.39,288.8,185.13,288.55,184.87z"/>
	<path style="fill:#AF7E3F;" d="M294.31,171.24c-0.09,0.91-0.18,1.82-0.28,2.73c-0.25,0-0.5,0.01-0.75,0.01
		c-0.05-0.93-0.1-1.85-0.15-2.78C293.53,171.22,293.92,171.23,294.31,171.24z"/>
	<path style="fill:#988847;" d="M292.01,157.15c0.28,0.61,0.55,1.23,0.83,1.84c-0.24,0.13-0.48,0.26-0.72,0.4
		c-0.36-0.57-0.73-1.15-1.09-1.72C291.35,157.49,291.68,157.32,292.01,157.15z"/>
	<path style="fill:#639A56;" d="M288.1,156.62c-0.61-0.29-1.22-0.59-1.82-0.88c0.22-0.27,0.44-0.54,0.66-0.81
		C287.32,155.49,287.71,156.06,288.1,156.62C288.09,156.62,288.1,156.62,288.1,156.62z"/>
	<path style="fill:#AF7E3F;" d="M292.1,177.22c-0.37,0.71-0.74,1.42-1.1,2.14c-0.24-0.12-0.48-0.24-0.71-0.35
		c0.36-0.72,0.72-1.44,1.08-2.15C291.6,176.98,291.85,177.1,292.1,177.22z"/>
	<path style="fill:#988847;" d="M294.02,164.67c0.05-0.32,0.11-0.65,0.16-0.98c0.56,0.41,1.12,0.83,1.68,1.24
		c-0.12,0.2-0.25,0.39-0.37,0.59C295,165.24,294.51,164.96,294.02,164.67z"/>
	<path style="fill:#988847;" d="M260.5,184.35c-0.6,0.07-1.2,0.15-1.79,0.22c-0.03-0.22-0.05-0.44-0.08-0.66
		c0.6-0.08,1.2-0.16,1.8-0.24C260.44,183.9,260.47,184.13,260.5,184.35z"/>
	<path style="fill:#639A56;" d="M288.09,156.62c0.17,0.15,0.35,0.31,0.05,0.05C288.41,156.96,288.25,156.79,288.09,156.62
		L288.09,156.62z"/>
	<polygon style="fill:#639A56;" points="286.62,150.94 286.7,151.2 286.46,151.16 	"/>
	<path style="fill:#E7A035;" d="M212.09,159.79c0.16-0.95,0.33-1.9,0.49-2.85c0.26-0.03,0.52-0.05,0.78-0.08
		c0.2,0.62,0.58,1.25,0.53,1.84c-0.05,0.51-0.61,0.98-0.94,1.46C212.66,160.04,212.38,159.91,212.09,159.79z"/>
	<path style="fill:#E7A035;" d="M213.95,143.32c0.29,0.91,0.58,1.83,0.87,2.74c-0.34,0.1-0.68,0.21-1.01,0.31
		c-0.28-0.96-0.56-1.92-0.84-2.89C213.29,143.43,213.62,143.38,213.95,143.32z"/>
	<path style="fill:#E7A035;" d="M213.21,168.93c0-0.89,0-1.79,0-2.68c0.31-0.04,0.62-0.08,0.94-0.12c0.15,0.92,0.29,1.84,0.44,2.75
		C214.13,168.9,213.67,168.91,213.21,168.93z"/>
	<path style="fill:#E7A035;" d="M212.41,134.81c0.26,0.92,0.51,1.84,0.77,2.77c-0.22,0.07-0.44,0.15-0.66,0.22
		c-0.33-0.9-0.67-1.8-1-2.7C211.81,135,212.11,134.91,212.41,134.81z"/>
	<path style="fill:#E7A035;" d="M209.01,122.73c0.08-0.48,0.17-0.95,0.35-2c0.74,0.82,1.22,1.35,2.19,2.43
		c-1.4-0.28-1.99-0.4-2.57-0.51C208.97,122.65,209.01,122.73,209.01,122.73z"/>
	<path style="fill:#E7A035;" d="M205.1,106.47c-0.31-0.33-0.61-0.66-0.92-0.99c0.13-0.16,0.27-0.31,0.4-0.47
		c0.37,0.27,0.74,0.54,1.11,0.81C205.49,106.04,205.29,106.26,205.1,106.47z"/>
	<path style="fill:#E7A035;" d="M198,92.54c0.28,0.43,0.57,0.87,0.85,1.3c-0.41,0.41-0.81,0.82-1.22,1.23
		c-0.08-0.63-0.17-1.26-0.25-1.88C197.59,92.96,197.79,92.75,198,92.54z"/>
	<path style="fill:#E7A035;" d="M156.28,59.35c-0.16,0.58-0.32,1.16-0.68,2.43c-0.76-0.69-1.09-0.99-1.88-1.71
		c1.36-0.43,1.93-0.61,2.5-0.79L156.28,59.35z"/>
	<path style="fill:#E7A035;" d="M202.59,100c0.11,0.27,0.22,0.54,0.33,0.81c-0.24-0.01-0.47-0.02-0.71-0.04
		C202.33,100.52,202.46,100.26,202.59,100z"/>
	<path style="fill:#687CBC;" d="M128.44,43.11c-0.78,0.42-1.55,0.84-2.46,1.33c-0.52-2.25-0.52-2.25,1.56-2.45
		C127.84,42.36,128.14,42.73,128.44,43.11z"/>
	<path style="fill:#3B9055;" d="M132.58,11.81c-2.23-4.98-2.01-5.96,1.66-9.22c2.74,1.41,1.56,3.92,1.81,6.35
		C135.02,9.78,133.96,10.67,132.58,11.81z"/>
	<path style="fill:#CA535B;" d="M127.72,31.03c0.44-0.1,0.87-0.2,1.31-0.3c0.33,1.34,0.67,2.69,1.02,4.09
		C126.88,34.93,126.88,34.93,127.72,31.03z"/>
</g>
</svg>
