<?xml version="1.0" encoding="utf-8"?>
<!-- Generator: Adobe Illustrator 24.0.0, SVG Export Plug-In . SVG Version: 6.00 Build 0)  -->
<svg version="1.1" id="Calque_1" xmlns="http://www.w3.org/2000/svg" xmlns:xlink="http://www.w3.org/1999/xlink" x="0px" y="0px"
	 viewBox="0 0 292.02 124.11" style="enable-background:new 0 0 292.02 124.11;" xml:space="preserve">
<g>
	<path style="fill:#EE7173;" class="main-color" d="M256.24,72.49c-6.62-15.14-19.21-25.06-31.81-34.46c-9.66-7.2-20.55-12.85-31.26-18.5
		c-11.18-5.89-23.61-7.63-36.06-8.89c-2.64-0.27-5.28-0.58-7.9-1.01c-15.88-2.59-31.36,0.6-46.16,5.24
		c-20.54,6.44-38.41,17.6-53.33,33.83C35.66,64.01,24.28,80.62,16.68,99.93c-1.15,2.92-6.18,9.19-10.66,7.16
		c-8.21-1.74-6.51-7.16-3.71-13.54c8.19-18.6,16.64-37.07,31.79-51.41c6.4-6.06,15.03-14.16,22.47-18.84
		C73.82,12.43,86.63,6.52,105.21,2.74c27.23-5.54,54.23-2.32,80.22,6.32c27.2,9.05,50.38,24.81,67.93,47.94
		c3.19,4.21,5.45,9.13,8.14,13.72C260.35,73.09,258.73,74.09,256.24,72.49z"/>
	<path style="fill:#FAF29F;" d="M256.24,72.49c1.75-0.59,3.51-1.18,5.26-1.77c10.74-0.16,20.04,2.85,26.28,12.25
		c7.01,10.56,5.11,26.02-4.11,34.22c-9.6,8.54-24.94,9.27-33.91,1.62c-11.5-9.81-14.43-24.21-6.27-35.53
		C246.65,78.9,251.93,76.04,256.24,72.49z"/>
</g>
</svg>
