<?xml version="1.0" encoding="utf-8"?>
<!-- Generator: Adobe Illustrator 24.0.0, SVG Export Plug-In . SVG Version: 6.00 Build 0)  -->
<svg version="1.1" id="Calque_1" xmlns="http://www.w3.org/2000/svg" xmlns:xlink="http://www.w3.org/1999/xlink" x="0px" y="0px"
	 viewBox="0 0 454.94 260.97" style="enable-background:new 0 0 454.94 260.97;" xml:space="preserve">
<g>
	<path style="fill:#C0646F;" d="M170.98,0c5,0,10,0,15,0c0.31,0.63,0.17,1.14-0.41,1.54c-4.73,1.4-9.46,1.4-14.19,0.01
		C170.81,1.15,170.67,0.63,170.98,0z"/>
	<path style="fill:#EFD8DB;" d="M0,124.98c0.29-0.03,0.58-0.04,0.88-0.03c2.49,4.36,2.52,8.71-0.03,13.06l-0.43,0.02L0,137.98
		C0,133.65,0,129.32,0,124.98z"/>
	<path style="fill:#C0646F;" d="M360.95,260.97c0.07-0.31,0.02-0.61-0.14-0.88c3.75-2.54,7.7-1.84,11.67-0.7
		c0.61,0.39,0.77,0.92,0.47,1.59C368.95,260.97,364.95,260.97,360.95,260.97z"/>
	<path style="fill:#D89FA5;" d="M170.98,0c-0.04,0.27-0.07,0.55-0.1,0.82c-2.32,2.21-4.89,1.7-7.52,0.71
		c-0.56-0.4-0.69-0.91-0.38-1.53C165.65,0,168.31,0,170.98,0z"/>
	<path style="fill:#D89FA5;" d="M186.05,0.89c-0.07-0.29-0.09-0.59-0.07-0.89c1.67,0,3.33,0,5,0c0.33,0.57,0.23,1.05-0.28,1.45
		C189.02,2.25,187.43,2.4,186.05,0.89z"/>
	<path style="fill:#EFD8DB;" d="M162.98,0c0.02,0.29,0.01,0.58-0.05,0.86c-1.67,1.6-3.34,1.61-5.01,0c0.03-0.29,0.05-0.57,0.06-0.86
		C159.65,0,161.31,0,162.98,0z"/>
	<path style="fill:#D89FA5;" d="M454.94,205.97l-0.46-0.01l-0.45,0.06c-1.27-1.35-1.26-2.72-0.05-4.1c0.32,0.03,0.64,0.05,0.96,0.05
		C454.94,203.31,454.94,204.64,454.94,205.97z"/>
	<path style="fill:#D5B7BA;" d="M372.95,260.97c-0.01-0.3,0.03-0.59,0.11-0.88c1.34-1.27,2.66-1.29,3.95,0.06
		c-0.01,0.27-0.03,0.54-0.06,0.81C375.62,260.97,374.29,260.97,372.95,260.97z"/>
	<path style="fill:#EFD8DB;" d="M191.03,0.84C191,0.56,190.98,0.28,190.98,0c1,0,2,0,3,0c0.02,0.28,0.03,0.56,0.04,0.83
		C193.02,1.83,192.03,1.82,191.03,0.84z"/>
	<path style="fill:#A31E2B;" d="M191.03,0.84c0.99,0,1.99-0.01,2.98-0.01c7.92,1.01,15.86,1.88,23.76,3.05
		c25.93,3.87,48.02,15,65.49,34.86c4.95,5.62,10.42,10.81,15.15,16.59c3.96,4.84,7.2,10.27,10.76,15.43
		c0.11,3.29-2.62,3.54-4.71,4.03c-3.94,0.92-7.49,2.54-10.76,4.86c-3.26,0.31-4.21,2.84-5.16,5.38c-0.24,0.42-0.52,0.81-0.84,1.18
		c-6.04,9.76-6.52,20.29-4.33,31.18c-1.71,3.4-5.49,2.49-8.14,3.94c-0.43,0.17-0.87,0.3-1.32,0.42c-0.65,0.18-1.31,0.3-1.97,0.43
		c-1.75,0.32-3.21,1.15-4.33,2.56c-0.56,0.72-1.08,1.47-1.7,2.13c-2.77,2.79-1.42,6.27-1.49,9.46c-0.05,2.14,0.89,4.23,0.7,6.42
		c-0.04,0.48-0.13,0.95-0.27,1.41c-0.16,0.44-0.4,0.85-0.69,1.22c-1.84,1.45-3.02,3.32-3.53,5.61c-0.32,4.46,1.5,7.64,5.59,9.5
		c1.53,0.7,3.05,1.58,3.61,3.23c1.65,4.8,3.09,9.67,7.43,14.08c-7.11,2.25-12.71,5.58-19.41,3.43c-0.55-1.42-0.46-2.86-0.4-3.19
		c0,0.09,0,1.31,0,2.53c0,1.13-0.51,1.91-1.7,1.66c-1.41-0.3-0.62-1.54-0.84-2.28c-0.34,0.72-0.32,1.76-1.31,2.2
		c-2.6-1.47,0.79,2.48-1.33,1.47c-8.32,2.8-17.05,2.88-25.62,3.63c-4.94,0.43-9.91,1.19-14.91,0.97c-1.73-0.4-3.45-1.13-5.18-1.14
		c-14.46-0.07-28.93-0.06-43.39,0.05c-2.97,0.02-5.94,0.65-8.92,0.84c-49.24,3.14-95.78-6.77-139.65-29.21
		c-12.17-6.23-12.06-6.45-13.75-20.75c0.01-4.35,0.02-8.7,0.03-13.06c0.1-1.34,0.2-2.68,0.3-4.02c1.13-6.95,3.17-13.48,7.47-19.26
		c2.47-3.32,3.86-7.36,5.68-11.1c5.09-10.48,10.45-20.82,16.53-30.76l-0.07,0.1c1.25-1.13,2.15-2.55,3.23-3.82
		c7.61-9.47,17.46-16.14,27.52-22.72C84.71,18.21,110.12,8.89,137,3.15l0.35,0.26c0,0-0.19,0.39-0.19,0.38
		c-0.17,0.2-0.36,0.38-0.57,0.47c0.02-0.06,0.31,0.08,0.31,0.08s-0.09-0.32-0.06-0.35c0.32-0.12,0.58-0.25,0.84-0.44
		c0.52-0.05,0.99-0.17,1.33-0.58c3.29-0.35,6.57-0.7,9.86-1.06c1.28-0.7,2.67-0.27,4-0.4c0.41-0.01,0.82,0.07,1.19,0.24
		c0.2,0.54-0.06,1.4,0.95,1.4c0.34,0.09,0.67,0.21,0.99,0.34c0.71,0.28,1.39-0.13,2.1-0.11c1.35,0.42,2.74,0.76,3.37,2.24
		c0.46,1.56,1.48,1.45,2.65,0.88c0.91-0.22,1.68-0.02,2.29,0.7c0.54,0.64,0.62,1.48,0.98,2.19c0.15,0.19,0.21,0.57,0.59,0.29
		c-0.32-0.02-0.42-0.22-0.31-0.61c0.22-0.34,0.52-0.58,0.89-0.73c1.57-0.46,2.78,0.23,3.91,1.19c0.28,0.28,0.58,0.54,0.89,0.78
		c0.18,0.07,0.36,0.14,0.55,0.21c0.36,0.14,0.69,0.33,0.99,0.57c0.15,0.12,0.29,0.24,0.44,0.36c0.58,0.47,1.25,0.84,1.82,1.32
		c0.37,0.46,0.82,0.83,1.34,1.11c0.54,0.31,1,0.72,1.41,1.2c1.15,1.29,2.33,2.55,3.8,3.49c0.35,0.25,0.69,0.52,1.02,0.8
		c0.18,0.11,0.37,0.23,0.55,0.34c0.38,0.21,0.73,0.46,1.06,0.73c0.15,0.15,0.29,0.31,0.44,0.46c0.79,1.02,1.73,1.87,2.93,2.39
		c0.35,0.26,0.62,0.58,0.83,0.97c0.31,0.81,0.39,1.63,0.06,2.45c-0.19,0.85,0.1,1.49,0.85,1.91c0.58,0.3-0.34,0.06,0.29,0.27
		c-0.1-0.13-0.23-0.21-0.35-0.33c-0.66-0.58-1.03-1.18-0.27-1.95c2.08-0.79,2.79,1.37,4.23,1.95c0.32,0.12,0.46,0.37,0.46,0.7
		c0.15-0.32,0.01-0.55-0.4-0.68c-1.27-1.02-2.85-1.79-3.01-3.71c0.6-2.21-0.85-2.19-2.33-2.13c-0.42-0.04-0.82-0.14-1.22-0.29
		c-0.37-0.18-0.71-0.41-1.02-0.67c-0.15-0.13-0.29-0.27-0.44-0.4c-0.51-0.56-0.99-1.17-1.66-1.56c-0.31-0.2-0.62-0.39-0.93-0.57
		c-0.27-0.23-0.54-0.47-0.81-0.71c-0.15-0.1-0.29-0.21-0.44-0.31c-0.3-0.2-0.57-0.43-0.83-0.68c-0.13-0.12-0.25-0.25-0.38-0.37
		c-0.27-0.24-0.52-0.49-0.77-0.75c-0.13-0.12-0.26-0.25-0.39-0.37c-0.28-0.24-0.54-0.49-0.8-0.75c-0.13-0.13-0.26-0.27-0.39-0.41
		c-0.5-0.6-1.14-1.03-1.79-1.45c-0.35-0.21-0.64-0.49-0.85-0.85c-0.2-0.35-0.36-0.72-0.49-1.1c-0.4-1.5-1.45-1.56-2.69-1.21
		c-0.42,0.06-0.8-0.03-1.15-0.27c-0.58-0.57-1.16-1.14-1.71-1.74c-0.68-0.95-1.71-0.78-2.68-0.79c-1.29-0.15-2.35-0.68-3.05-1.81
		c-0.39-1.23-1.35-1.02-2.29-0.88c-2.22,0.02-3.99-0.94-5.51-2.46c-0.21-0.48-0.14-0.91,0.19-1.31l-0.09-0.19c1.67,0,3.34,0,5.01,0
		c2.65-0.01,5.3-0.03,7.95-0.04c5.06,0.02,10.12,0.04,15.17,0.07C187.71,0.87,189.37,0.86,191.03,0.84z"/>
	<path style="fill:#A31E2B;" d="M377.02,260.15c-1.32-0.02-2.64-0.04-3.95-0.06c-4.08,0-8.17-0.01-12.25-0.01
		c-8.2-2-16.75-3.1-24.51-6.18c-18.96-7.52-37.95-15.16-56.19-24.24c-19.28-9.59-37.77-20.8-56.47-31.55
		c-3.68-2.11-6.72-5.33-10.05-8.04c0.63-0.87,1.59-1.36,2.56-1.28c9.08,0.67,18.07-0.91,27.11-0.94c0.29,0.07,0.65,0.09,0.84,0.29
		c0.91,0.94,1.79,1.42,2.69-0.03c9.25-2.13,18.75-2.74,27.97-5.11c14.57-3.74,28.81-8.23,41.96-15.7c3.48-1.98,7.29-3.27,11.08-4.53
		c6.02-2,11.51-5.17,17.23-7.82c2.47,0.89,5,1.67,7.42,2.69c19.24,8.12,38.47,16.28,57.69,24.45c13.12,5.58,26.23,11.19,39.31,16.87
		c1.63,0.71,3.03,1.95,4.53,2.95c0.02,1.37,0.03,2.73,0.05,4.1c-6.95,18.6-21.62,30.22-37.24,40.89
		C404.84,255.09,391.21,258.55,377.02,260.15z"/>
	<path style="fill:#818181;" d="M311.1,73.8c10.43,3.64,18.45,9.66,20.93,21.17c-1.12,1.44-2.77,2.03-4.36,2.73
		c-3.34,0.46-6.17-1.49-9.31-1.99c-2.99-1.83-4.81-4.76-6.94-7.41c-1.09-1.35-1.76-3.19-3.85-3.34c-1.14,2.84,0.52,5.4,0.78,8.09
		c0.2,2.09,1.01,4.18-0.67,6.04c-1.29,1.11-2.73,2.14-2.03,4.22c0,2.62-0.87,4.88-2.79,6.69c-0.67,0.58-1.45,0.97-2.22,1.4
		c-0.36,0.24-0.74,0.45-1.11,0.67c-1.05,0.72-2.22,1.34-2.03,2.9c1.78,1.39,3.85,0.73,5.76,0.74c8.76,0.02,15.87,2.63,19.6,11.38
		c0.64,1.51,0.94,3.63,3.14,4.05c1.09-1.76,0.49-3.53,0.1-5.28c-0.74-3.38-0.38-6.56,1.63-9.47c1.36-2.4,2.47-4.88,3.15-7.59
		c0.64-2.53,1.66-4.98,5.04-4.76c3.11,9.43,4.92,19.01,3.48,28.98c-2.24,5.55-6.95,8.74-11.55,12.01c-1.71,1.21-3.65,1.37-5.64,0.63
		c-2.5-1.83-5.18-2.89-8.34-2c-1.63,0.14-2.6-0.85-3.46-2.03c-1.96-2.29-4.7-3.34-7.35-4.51c-0.42-0.15-0.82-0.34-1.2-0.56
		c-0.38-0.23-0.73-0.49-1.06-0.78c-0.17-0.14-0.33-0.29-0.5-0.43c-0.35-0.27-0.68-0.56-1.02-0.83c-0.19-0.12-0.36-0.26-0.55-0.39
		c-0.4-0.24-0.78-0.5-1.16-0.77c-2.8-2.77-5.79-5.42-5.6-9.88c0.05-1.19-0.1-2.4-0.6-3.41c-4.33-8.79-2.39-17.89-1.28-26.91
		c0.25-1.99,0.51-3.93,0.22-5.92c1.08-6.29,5.5-10.7,12.53-12.04C305.58,74.65,308.32,74.05,311.1,73.8z"/>
	<path style="fill:#B7989B;" d="M273.86,120.94c3.03-1.04,6.07-2.08,9.1-3.12c0.86-0.82,1.88-0.85,2.95-0.61
		c2.25,0.87,2.32,3.08,2.95,4.9c4.93,14.16,20.77,24.7,35.77,23.91c3.33-0.18,5.38-2.32,7.64-4.22c1.76-1.48,3.25-3.42,5.93-3.13
		c1.6,4.96,3.19,9.91,4.79,14.87c1.09,1.79-0.54,2.49-1.52,2.94c-8.39,3.78-16.84,7.42-25.64,10.17c-0.63,0.2-1.31,0.03-1.95-0.13
		c-1.82-1.41-3.74-0.57-5.66-0.31c-5.19,0.71-10.24,2.61-15.6,1.72c-3.47-1.62-7-3.14-10.5-4.69c-1.87-1.12-3.13,0.12-4.45,1.17
		c-0.48,0.09-0.95,0.05-1.41-0.11c-1.45-1.08-1.4-2.54-1.04-4.08c4.47-8.66,2.8-13.47-6.64-19.15c-0.85-1.42-0.89-2.9-0.36-4.42
		c0.21-0.47,0.56-0.82,1.03-1.03c0.72-0.15,1.43-0.04,2.13,0.09c0.84,0.06,2.08-0.06,1.89-0.96c-1.05-4.92,1.89-7.25,5.56-9.26
		c0.64-0.35,0.65-1.07,0.25-1.72C277.98,121.61,275.12,122.74,273.86,120.94z"/>
	<path style="fill:#771D26;" d="M314.03,165.89c8.79-3.41,17.6-6.78,26.36-10.26c0.99-0.39,1.74-1.38,2.61-2.1
		c0.68,0.48,1.36,0.95,2.04,1.43c-3.15,2.05-6.1,4.55-9.49,6.08c-12.23,5.53-24.49,11.06-36.98,15.98
		c-14.69,5.79-29.94,9.67-45.75,10.99c-2.3,0.19-4.59,0.65-6.88,0.98c-0.33,0.48-0.66,0.45-0.98-0.02
		c-6.87,0.57-13.73,1.31-20.61,1.65c-3.57,0.18-7.18-0.35-10.77-0.56c-0.61-0.62-1.23-1.25-1.84-1.87c3.15-0.74,6.27-1.78,9.47-2.15
		c10.18-1.2,20.4-2.14,30.59-3.23c0.42-0.04,0.79-0.55,1.18-0.84l-0.01,0.01c0.56-2.14,1.12-4.28,1.67-6.42
		c0.38-0.03,0.75-0.05,1.13-0.08c0,2.02,0,4.04,0.02,6.05c0,0.04,0.31,0.16,0.42,0.11c0.29-0.14,0.54-0.35,0.81-0.53
		c0.23-0.7,0.55-0.74,0.94-0.12c5.77-0.99,11.55-1.98,16.67-2.85c-1.93-4.56-3.49-8.77-5.5-12.77c-0.77-1.53-2.33-2.95-3.88-3.74
		c-4.87-2.49-6.59-5.71-5.71-11.68c2.35,1.16,2.87,3.97,5.37,5.34c2.33,1.27,4.5,2.08,7.03,2.32c2.94,4.42,3.92,9.83,7.19,14.07
		c0.33,0.3,0.65,0.61,0.98,0.91c3.77,2.4,7.23,0.48,10.73-0.76c2.21-1.11,4.65-1.49,6.97-2.22
		C303.32,168.76,308.42,166.24,314.03,165.89z"/>
	<path style="fill:#CACACA;" d="M302.14,109.88c0.91-2.31,1.82-4.63,2.73-6.94c-0.36-1.89,0.73-3.01,2.12-3.96
		c-0.23-3.16-0.72-6.32-0.59-9.46c0.09-2.15-2.78-4.53,0.36-6.49c3.33,2.05,4.93,5.6,7.26,8.5c1.07,1.33,2.09,2.46,3.74,2.93
		c3.3,0.92,6.61,1.85,9.91,2.77c1.75,0.06,3.56-0.35,5.16,0.74c1.03,2.03,2.06,4.05,3.09,6.08c-1.36,1.99-2.87,3.9-4.04,6
		c-1.17,2.1-1.99,4.38-2.96,6.59c-4.2,2.17-3.32,5.9-2.63,9.35c0.49,2.45,1.32,4.76-0.37,7.03c-1.99-2.72-4.5-5.21-5.86-8.22
		c-2.87-6.32-8.51-7.1-14.17-7.82c-2.92-0.37-5.94,0.09-8.91-0.01c-0.4-0.01-0.77-1.13-1.15-1.74c1.32-1.47,2.74-2.84,4.21-4.16
		l-0.04,0.01C300.56,110.4,301.54,110.48,302.14,109.88z"/>
	<path style="fill:#565353;" d="M338.21,138.66c-1.21,0.86-2.51,1.62-3.62,2.59c-7.24,6.38-16.32,7.64-25.22,3.4
		c-11.34-5.39-19.92-13.21-22.75-26.05c-0.1-0.46-0.51-0.85-0.77-1.28c-2.47-3.26-2.27-7.12-2.31-10.88
		c-0.07-7.46,0.79-14.76,4.43-21.47l-0.01,0.01c1.38-2.23,2.07-5.06,5.12-5.84c3.61-1.76,7.24-3.49,10.81-5.31
		c1.81-0.93,3.53-2.04,5.29-3.07c0.64,1.01,1.29,2.02,1.93,3.03c-1.89,0.74-3.73,1.96-5.67,2.15c-7.51,0.73-12.01,4.08-14.33,11.19
		c-0.41,5.54-1.59,10.98-2.21,16.5c-0.82,7.35,2.23,13.82,3.9,20.62c1.94,2.93,3.87,5.86,5.81,8.79c0.55,0.18,0.97,0.54,1.32,0.99
		l-0.02-0.01c0.39,0.29,0.73,0.62,1.01,1.01l-0.02-0.04c0.39,0.31,0.73,0.66,1.05,1.04l-0.04-0.02c3.03,1.89,6.29,3.35,9.38,5.13
		c0.89,0.61,1.79,1.22,2.68,1.83c2.8-0.25,5.45,0.12,7.84,1.74c4.51,1.53,7.09-1.89,9.93-4.16c2.79-2.23,5.13-5.01,7.67-7.54
		C339.01,134.9,338.61,136.78,338.21,138.66z"/>
	<path style="fill:#655A5B;" d="M332.84,97.96c-1.72-0.25-3.44-0.49-5.16-0.74c1.45-0.75,2.9-1.5,4.35-2.25
		C332.3,95.96,332.57,96.96,332.84,97.96z"/>
	<path style="fill:#7E1A25;" d="M30.87,59.81c-1.26,2.98-2.37,6.03-3.81,8.92c-5.31,10.68-10.67,21.33-16.13,31.93
		c-2.4,4.66-5.18,9.12-7.56,13.79c-1.03,2.01-1.48,4.31-2.19,6.48c1.66-7.69,2-16.01,5.27-22.94
		C12.89,84.32,20.32,70.99,30.87,59.81z"/>
	<path style="fill:#C0646F;" d="M153.95,2.07c-1.69-0.05-3.38-0.11-5.07-0.16c3.04-0.29,6.08-0.57,9.13-0.86
		c-0.11,0.24-0.22,0.47-0.34,0.7C156.54,3.25,155.27,2.92,153.95,2.07z"/>
	<path style="fill:#7E1A25;" d="M34.03,56.1c-1.08,1.27-2.16,2.54-3.23,3.82C31.88,58.64,32.95,57.37,34.03,56.1z"/>
	<path style="fill:#7E1A25;" d="M139.02,2.96c-0.68,0.35-1.35,0.69-2.03,1.04c0,0-0.01-0.01-0.01-0.01
		c0.01-0.28,0.01-0.56,0.02-0.85C137.67,3.09,138.35,3.03,139.02,2.96z"/>
	<path style="fill:#B7989B;" d="M271.8,157.6c-5.08,1.94-10.21-1.25-12.25-7.61c1.48-1.67,2.95-3.34,4.43-5.01
		c0.98,1.58-0.8,3.21,0.13,4.9c3.56-1.78,2.06-3.34-0.14-4.9c-0.01-0.33,0.05-0.66,0.18-0.96c1.09-1.49,2.52-2.14,4.36-1.79
		c1.83,0.53,3.3,1.64,4.67,2.92c0.34,0.32,0.64,0.67,0.92,1.04c0.27,0.38,0.48,0.8,0.63,1.24c0.21,0.68,0.31,1.37,0.35,2.08
		c0.06,1.18,0.07,2.37-0.05,3.55C274.66,155.07,273.91,156.82,271.8,157.6z"/>
	<path style="fill:#7E1A25;" d="M252.01,143.94c0.81,6.99,1.62,13.98,2.43,20.97c0.23,1.94,0.44,3.89-0.26,6.12
		c-0.41-1.35-0.82-2.71-1.24-4.06c-0.57-0.64-0.61-1.29-0.04-1.96c-0.2-10.33-2.28-20.3-5.44-30.11
		c-3.82-11.8-7.51-23.65-11.22-35.48c-0.17-0.55-0.02-1.19-0.02-1.79c0.35-0.1,0.7-0.19,1.06-0.29c1.55,4.43,3.1,8.87,4.65,13.3
		c0.97,2.79,1.93,5.57,2.9,8.36c1.11,0.74,0.21,2.22,1.12,3.03l-0.02-0.03c1.13,1.14-0.07,2.88,1.03,4.03l-0.02-0.03
		c0.93,0.81,0.12,2.21,1.01,3.03l-0.02-0.03c1.13,1.14-0.07,2.88,1.03,4.03l-0.02-0.03c0.93,0.81,0.12,2.21,1.01,3.03l-0.02-0.03
		c1.09,1.87,0.96,4.15,2.02,6.03l-0.02-0.02C252.52,142.62,252.55,143.26,252.01,143.94z"/>
	<path style="fill:#771D26;" d="M287.96,84.98c-2.4,10.67-4.24,21.38-2.12,32.35c-0.96,0.16-1.92,0.32-2.89,0.49
		c-3.61-6.15-2.09-12.82-1.54-19.25c0.3-3.48,2.05-6.9,3.47-10.2C285.46,87.05,286.91,86.1,287.96,84.98z"/>
	<path style="fill:#871A26;" d="M78.48,146.84c-0.96-22.41,0.57-44.58,8.26-65.98C79.72,102.32,80.33,124.69,78.48,146.84z"/>
	<path style="fill:#927577;" d="M273.86,120.94c1.91,1.03,5.61-2,5.95,2.61c-0.04,0.51-0.25,1.05-0.71,1.18
		c-5.44,1.46-7.29,5.41-7.42,10.59c-0.24,0.45-0.59,0.77-1.08,0.93c-0.73-0.09-1.47-0.19-2.2-0.28c-4.15-2.62-4.17-6.27-2.59-10.32
		c0.34-0.56,0.68-1.12,1.02-1.68c1.66-0.4,2.98-1.45,4.42-2.27c1.03,0.2,1.98,0.12,2.69-0.78L273.86,120.94z"/>
	<path style="fill:#6F2E31;" d="M265.82,125.64c0.86,3.44,1.72,6.88,2.59,10.32c0.31,1.6,0.63,3.19,0.94,4.79
		c0.33,0.85,0.21,1.61-0.43,2.27c-1.59,0.33-3.19,0.67-4.78,1c-0.38-4.59-1.03-9.18-1-13.77
		C263.15,128.71,264.88,127.18,265.82,125.64z"/>
	<path style="fill:#871A26;" d="M153.95,2.07c1.24-0.1,2.48-0.21,3.72-0.31c2.05,0.77,4.1,1.54,6.15,2.31
		c0.87-0.01,1.67,0.13,2.11,1.02c1.03,0.63,2.06,1.26,3.09,1.88c1.28-0.46,2.14,0.27,2.98,1.05c0.34,0.65,0.67,1.3,1.01,1.95
		c0,0-0.06,0.06-0.06,0.06c-1.65-0.35-3.31-0.7-4.96-1.05c-1.18,0.78-1.41-0.44-1.98-0.93c-0.67-0.35-1.35-0.71-2.02-1.06
		c-1.15,0.11-2.24,0.04-2.93-1.09c-1.37-0.62-2.74-1.25-4.12-1.87c-0.34,0.29-0.66,0.27-0.96-0.06l0.03,0.03
		c-0.5-0.67-1.65-0.21-1.98-1.15C154.02,2.58,153.99,2.32,153.95,2.07z"/>
	<path style="fill:#AF2836;" d="M228.99,67.01c0.57,1.97-0.7,5.34,3.48,4.54c0.23,1.42,0.8,2.91,0.58,4.26
		c-0.19,1.13-1.3,2.11-2,3.16c-0.8-0.43-0.41-1.49-1.07-2l0.01,0.02c-0.91-0.82-0.09-2.21-1.01-3.02l0.01,0.02
		c-1.12-2.29-1.67-4.82-3.01-7.02l0.01,0.02c-0.71-0.97-0.72-1.97-0.12-2.99c0.69-0.01,1.39-0.02,2.08-0.03
		C228.68,64.86,228.93,65.9,228.99,67.01z"/>
	<path style="fill:#7E1A25;" d="M229.98,76.97c0.36,0.67,0.71,1.33,1.07,2c1.65,5.4,3.31,10.79,4.96,16.19
		c-0.58,0.16-1.16,0.32-1.74,0.47C232.84,89.41,231.41,83.19,229.98,76.97z"/>
	<path style="fill:#AF2836;" d="M109.03,32.04c0.22-1.83,0.44-3.67,0.64-5.35c1.84-0.89,3.68-1.78,5.52-2.67
		c0.41,0.71,0.36,1.37-0.22,1.97l0.02-0.01c-0.33,0.34-0.67,0.68-1.02,1.02l0.01-0.02c-0.74,0.95-1.26,2.06-2.01,3.01l0,0
		c-0.33,0.34-0.66,0.68-1,1l0,0C110.45,31.57,110.14,32.54,109.03,32.04z"/>
	<path style="fill:#AF2836;" d="M118.99,20.02c-0.12-1.33-0.24-2.67-0.35-4c1.14,0,2.29,0,3.43,0c0.59,1.34-0.29,2.14-1.1,2.96
		l0.01,0c-0.33,0.34-0.67,0.68-1.01,1.01l0.01-0.01C119.66,20.34,119.33,20.35,118.99,20.02z"/>
	<path style="fill:#AF2836;" d="M174,9.96c0.89-0.5,1.78-1,2.68-1.5c0.43,1.18,0.87,2.36,1.3,3.54c-0.3,0.34-0.69,0.52-1.14,0.53
		c-0.65-0.05-1.33-0.03-1.84-0.54l-0.01,0c-0.34-0.32-0.67-0.66-1-1l0.01,0c-0.27-0.23-0.36-0.46-0.27-0.68
		C173.82,10.08,173.91,9.96,174,9.96z"/>
	<path style="fill:#771D26;" d="M293.07,79.15c-1.71,1.95-3.41,3.89-5.12,5.84C288.35,81.89,288.61,78.68,293.07,79.15z"/>
	<path style="fill:#771D26;" d="M152,56.98c-1.16-0.02-2.32-0.03-3.48-0.05c0.5-0.99,0.99-1.98,1.49-2.97
		c0.67-0.54,1.32-0.52,1.94,0.07l-0.01-0.01C152.72,54.99,152.81,55.98,152,56.98z"/>
	<path style="fill:#AF2836;" d="M188.93,22.03c1.64,0.12,3.28,0.24,4.92,0.36c-0.3,0.91-0.59,1.82-0.89,2.73
		c-1.35,0.55-2.16-0.31-2.97-1.15l0.01,0.01C189.4,23.47,188.43,23.15,188.93,22.03z"/>
	<path style="fill:#771D26;" d="M189.99,23.97c0.99,0.38,1.98,0.77,2.97,1.15c1.02,1.28,2.03,2.56,3.05,3.85
		c0,0-0.05,0.05-0.05,0.05c-1.65-0.7-3.31-1.41-4.96-2.11c-0.47,0.67-0.78,0.61-0.95-0.19C190.02,25.81,190.01,24.89,189.99,23.97z"
		/>
	<path style="fill:#B33240;" d="M74.44,115.41c0-1.61,0-3.21,0-4.82c0.33,0,0.66,0,0.99-0.01c0,1.61,0,3.22,0,4.83
		C75.1,115.42,74.77,115.42,74.44,115.41z"/>
	<path style="fill:#B33240;" d="M72.01,148.07c0.07-1.52,0.15-3.03,0.22-4.55c0.37,0.01,0.73,0.02,1.1,0.03c0,1.53,0,3.05,0,4.58
		C72.89,148.11,72.45,148.09,72.01,148.07z"/>
	<path style="fill:#771D26;" d="M120.97,18.99c0.37-0.99,0.73-1.97,1.1-2.96c0.95-0.36,1.91-0.73,2.86-1.09c0,0,0.11,0.11,0.11,0.11
		C123.68,16.36,122.33,17.67,120.97,18.99z"/>
	<path style="fill:#B2303E;" d="M72.54,157.46c0-1.31,0-2.62,0-3.92c0.3-0.01,0.6-0.02,0.9-0.03c0,1.31,0,2.62,0,3.93
		C73.15,157.45,72.84,157.45,72.54,157.46z"/>
	<path style="fill:#AF2836;" d="M161.06,5.89c0.98,0.36,1.95,0.73,2.93,1.09c-0.69,0.49-1.37,0.98-2.06,1.46
		C161.64,7.59,161.35,6.74,161.06,5.89z"/>
	<path style="fill:#7E1A25;" d="M225.98,66.97c1,2.34,2.01,4.68,3.01,7.02C227.99,71.65,226.99,69.31,225.98,66.97z"/>
	<path style="fill:#7E1A25;" d="M100,51c-1,2.01-1.99,4.02-2.99,6.03l-0.05-0.04c1.01-2,2.02-4,3.02-6L100,51z"/>
	<path style="fill:#B53441;" d="M250.07,33.08c0.74-0.69,1.48-1.37,2.22-2.06c0.5,0.74,0.99,1.48,1.49,2.23
		C252.49,34.23,251.28,33.78,250.07,33.08z"/>
	<path style="fill:#771D26;" d="M48.98,59.96c-0.98-0.26-1.97-0.52-2.95-0.78c0.61-1.44,1.72-2.39,3.01-3.17L49,56.04
		c0.32-0.31,0.66-0.31,1-0.03L49.98,56C51.31,57.74,49.99,58.81,48.98,59.96z"/>
	<path style="fill:#871A26;" d="M223.94,59.02c0.31,1.33,0.62,2.66,0.93,3.99c-0.32,0.47-0.63,0.46-0.92-0.02
		c-0.67-1.66-1.35-3.32-2.02-4.98l0.07-0.06c0.34,0,0.69,0,1.03,0C223.89,57.85,224.5,57.94,223.94,59.02z"/>
	<path style="fill:#6F2E31;" d="M271.79,121.86c-1.65,0.7-3.3,1.41-4.95,2.11c1.67-0.97,3.35-1.94,5.02-2.91
		c0.34,0.21,0.44,0.4,0.31,0.57C272.05,121.78,271.92,121.86,271.79,121.86z"/>
	<path style="fill:#771D26;" d="M250.07,33.08c1.23,0.06,2.47,0.11,3.7,0.17c-0.22,0.82-0.44,1.63-0.67,2.45
		C252.1,34.82,251.08,33.95,250.07,33.08z"/>
	<path style="fill:#B73643;" d="M237.43,116.65c-0.39-1.35-0.77-2.69-1.16-4.04c0.36-0.11,0.71-0.22,1.07-0.32
		c0.47,1.34,0.94,2.68,1.4,4.03C238.31,116.42,237.87,116.54,237.43,116.65z"/>
	<path style="fill:#B33240;" d="M48.98,59.96c0.34-1.32,0.67-2.64,1.01-3.97c0.64,0.52,1.28,1.05,1.92,1.57
		C50.93,58.37,49.95,59.16,48.98,59.96z"/>
	<path style="fill:#B33240;" d="M83.47,113.49c0-0.99,0-1.98,0-2.96c0.32-0.02,0.65-0.05,0.97-0.07c0.1,1,0.2,1.99,0.3,2.99
		C84.32,113.46,83.89,113.48,83.47,113.49z"/>
	<path style="fill:#B02E3B;" d="M85.45,99.47c0-0.98,0-1.95,0-2.93c0.3-0.05,0.6-0.09,0.9-0.14c0.15,1,0.3,2,0.45,3
		C86.35,99.42,85.9,99.44,85.45,99.47z"/>
	<path style="fill:#B2303E;" d="M83.48,117.48c0,1,0,1.99,0,2.99c-0.33,0.01-0.66,0.02-0.98,0.03c-0.07-0.99-0.15-1.98-0.22-2.97
		C82.68,117.51,83.08,117.5,83.48,117.48z"/>
	<path style="fill:#771D26;" d="M114.97,25.99c0.07-0.66,0.15-1.31,0.22-1.97c0.28-0.29,0.56-0.58,0.83-0.87
		c0.4-0.97,1.15-1.62,2.03-2.15c0.3-0.02,0.59-0.04,0.89-0.06l0.12,0.11C117.69,22.7,116.33,24.35,114.97,25.99z"/>
	<path style="fill:#B02E3B;" d="M257.45,167.49c0,0.99,0,1.98,0,2.98c-0.33,0.01-0.66,0.02-0.98,0.02
		c-0.07-0.99-0.15-1.98-0.22-2.97C256.65,167.51,257.05,167.5,257.45,167.49z"/>
	<path style="fill:#771D26;" d="M109.1,34.09c-1.05,1.63-2.09,3.26-3.14,4.9c-0.53-0.68-0.54-1.34,0.07-1.98l-0.02,0.03
		c0.56-0.56,0.39-1.5,1.02-2.02l-0.01,0.02c0.36-0.59,0.76-1.13,1.49-1.29C108.71,33.86,108.91,33.97,109.1,34.09z"/>
	<path style="fill:#B02E3B;" d="M81.52,156.49c0-0.98,0-1.97,0-2.95c0.33-0.01,0.66-0.02,0.98-0.04c0.08,0.99,0.16,1.98,0.23,2.97
		C82.34,156.47,81.93,156.48,81.52,156.49z"/>
	<path style="fill:#AF2836;" d="M251.94,142.02c-0.67-2.01-1.34-4.02-2.02-6.03C250.6,138,251.27,140.01,251.94,142.02z"/>
	<path style="fill:#B02E3B;" d="M73.44,129.48c0-0.98,0-1.96,0-2.95c0.3-0.04,0.6-0.09,0.89-0.13c0.15,1,0.31,2,0.46,3
		C74.35,129.43,73.9,129.45,73.44,129.48z"/>
	<path style="fill:#771D26;" d="M183.96,19.02c-1.69-1.36-3.38-2.72-5.07-4.07c0.72-0.58,1.4-0.5,2.06,0.1l-0.01-0.02
		c0.37,0.3,0.7,0.63,1,1l0,0c0.37,0.3,0.7,0.64,1.01,1.01l-0.02-0.02c0.38,0.3,0.68,0.68,1.03,1.02L183.94,18
		c0.14,0.17,0.28,0.33,0.42,0.5C184.22,18.67,184.09,18.84,183.96,19.02z"/>
	<path style="fill:#B33240;" d="M72.4,138.46c0-0.97,0-1.94,0-2.91c0.35-0.04,0.7-0.08,1.05-0.12c0.11,0.99,0.23,1.98,0.34,2.96
		C73.33,138.41,72.87,138.43,72.4,138.46z"/>
	<path style="fill:#B02E3B;" d="M92.83,75.9c-0.55,0.96-1.1,1.93-1.64,2.89c-0.32-0.16-0.65-0.32-0.97-0.48
		c0.48-1.03,0.96-2.07,1.44-3.1C92.04,75.44,92.44,75.67,92.83,75.9z"/>
	<path style="fill:#B33240;" d="M245.7,138.77c-0.52-0.99-1.04-1.98-1.57-2.97c0.36-0.17,0.71-0.34,1.07-0.51
		c0.43,1.02,0.85,2.04,1.28,3.06C246.22,138.5,245.96,138.64,245.7,138.77z"/>
	<path style="fill:#B73643;" d="M226.54,80.68c-0.35-0.99-0.7-1.98-1.05-2.98c0.27-0.14,0.55-0.29,0.82-0.43
		c0.49,0.98,0.98,1.97,1.47,2.95C227.37,80.38,226.96,80.53,226.54,80.68z"/>
	<path style="fill:#B53441;" d="M242.54,102.67c-0.35-0.99-0.7-1.97-1.06-2.96c0.27-0.14,0.54-0.29,0.81-0.43
		c0.49,0.98,0.99,1.95,1.48,2.93C243.37,102.37,242.95,102.52,242.54,102.67z"/>
	<path style="fill:#B53441;" d="M236.17,82.61c0.31,1.09,0.61,2.19,0.92,3.28c-0.29,0.11-0.58,0.21-0.87,0.32
		c-0.43-1.06-0.87-2.12-1.3-3.19C235.34,82.89,235.76,82.75,236.17,82.61z"/>
	<path style="fill:#B2303E;" d="M82.19,146.66c0.19,0.89,0.39,1.79,0.58,2.68c-0.35,0.1-0.71,0.2-1.06,0.3
		c-0.24-0.91-0.48-1.82-0.72-2.74C81.39,146.82,81.79,146.74,82.19,146.66z"/>
	<path style="fill:#B33240;" d="M84.34,107.29c0-1.96,0-2.89,0-3.81c0.23-0.06,0.47-0.13,0.7-0.19c0.26,0.56,0.74,1.12,0.73,1.68
		C85.76,105.45,85.21,105.93,84.34,107.29z"/>
	<path style="fill:#B53441;" d="M78.38,90.43c0.32-1.04,0.64-2.08,0.97-3.12c0.33,0.09,0.66,0.18,0.99,0.27
		c-0.32,1.04-0.65,2.08-0.97,3.12C79.04,90.62,78.71,90.53,78.38,90.43z"/>
	<path style="fill:#B53441;" d="M75.07,105.16c0.06-0.87,0.11-1.74,0.17-2.61c0.32-0.02,0.63-0.04,0.95-0.06c0,0.91,0,1.81,0,2.72
		C75.82,105.19,75.45,105.18,75.07,105.16z"/>
	<path style="fill:#771D26;" d="M188.93,22.03c0.36,0.65,0.71,1.3,1.07,1.95c-1.34-1-2.68-2.01-4.01-3.01
		c0.68-0.61,1.34-0.54,1.97,0.08l-0.03-0.03c0.38,0.3,0.69,0.68,1.03,1.02L188.93,22.03z"/>
	<path style="fill:#B2303E;" d="M256.08,150.82c-0.41-0.49-0.85-0.79-0.89-1.13c-0.04-0.4,0.27-0.83,0.43-1.25
		c0.4,0.34,0.94,0.62,1.16,1.05C256.89,149.71,256.42,150.21,256.08,150.82z"/>
	<path style="fill:#B33240;" d="M83.18,141c-0.75,0.26-1.33,0.62-1.5,0.48c-0.3-0.25-0.53-0.82-0.47-1.2
		c0.06-0.32,0.58-0.56,0.89-0.84C82.42,139.89,82.73,140.34,83.18,141z"/>
	<path style="fill:#B73643;" d="M257.97,181.03c-0.32,0.02-0.63,0.06-0.94,0.12c0-1.75,0-3.49,0-5.24c0.31,0,0.63,0,0.94,0
		C257.97,177.61,257.97,179.32,257.97,181.03z"/>
	<path style="fill:#B2303E;" d="M252.91,165.01c0.01,0.65,0.03,1.3,0.04,1.96c-0.8-0.84-1.6-1.68-2.4-2.53
		c0.24-0.23,0.47-0.46,0.71-0.68C251.81,164.17,252.36,164.59,252.91,165.01z"/>
	<path style="fill:#B02E3B;" d="M89.93,82.85c-0.16,0.92-0.32,1.84-0.48,2.76c-0.35-0.08-0.7-0.15-1.04-0.23
		c0.27-0.9,0.55-1.8,0.82-2.7C89.46,82.74,89.69,82.79,89.93,82.85z"/>
	<path style="fill:#B73643;" d="M224.8,74.67c-0.31-0.84-0.62-1.68-0.93-2.52c0.26-0.1,0.51-0.2,0.77-0.3
		c0.34,0.83,0.67,1.65,1.01,2.48C225.37,74.44,225.08,74.56,224.8,74.67z"/>
	<path style="fill:#B33240;" d="M247.69,117.66c0.33,0.88,0.66,1.76,0.99,2.64c-0.33,0.11-0.67,0.21-1,0.32
		c-0.23-0.91-0.46-1.82-0.69-2.72C247.22,117.82,247.46,117.74,247.69,117.66z"/>
	<path style="fill:#B02E3B;" d="M255.96,155.86c-0.38-0.57-0.88-1.03-0.79-1.25c0.19-0.46,0.69-0.79,1.06-1.18
		c0.2,0.4,0.55,0.8,0.54,1.2C256.76,154.98,256.34,155.32,255.96,155.86z"/>
	<path style="fill:#B02E3B;" d="M74.26,120.15c0.26,0.63,0.67,1.18,0.53,1.4c-0.23,0.4-0.8,0.59-1.23,0.87
		c-0.12-0.43-0.4-0.89-0.32-1.28C73.33,120.82,73.81,120.58,74.26,120.15z"/>
	<path style="fill:#B53441;" d="M249.87,125.46c0.36,0.85,0.72,1.71,1.07,2.56c-0.31,0.13-0.62,0.25-0.93,0.38
		c-0.33-0.87-0.66-1.74-0.98-2.6C249.32,125.68,249.6,125.57,249.87,125.46z"/>
	<path style="fill:#B33240;" d="M230.06,93.49c-0.35-0.85-0.7-1.7-1.05-2.55c0.31-0.13,0.63-0.25,0.94-0.38
		c0.32,0.86,0.64,1.73,0.96,2.59C230.62,93.27,230.34,93.38,230.06,93.49z"/>
	<path style="fill:#871A26;" d="M92.02,67.02c-0.28,1.17-0.56,2.34-0.84,3.5c-0.44-0.2-0.87-0.39-1.31-0.59
		c0.69-0.99,1.38-1.99,2.07-2.98C91.95,66.95,92.02,67.02,92.02,67.02z"/>
	<path style="fill:#B53441;" d="M165.93,5.09c-0.7-0.34-1.41-0.68-2.11-1.02c0.78-0.26,1.57-0.52,2.35-0.78
		C166.09,3.89,166.01,4.49,165.93,5.09z"/>
	<path style="fill:#B73643;" d="M252.99,181.99c-0.53-0.89-1.07-1.78-1.6-2.67c0.48-0.17,0.95-0.34,1.43-0.5
		C252.87,179.87,252.93,180.94,252.99,181.99L252.99,181.99z"/>
	<path style="fill:#871A26;" d="M88.01,75.04c0.36-0.86,0.72-1.72,1.07-2.58c0.25,0.08,0.5,0.17,0.76,0.25
		c-0.24,0.89-0.47,1.79-0.71,2.68C88.76,75.28,88.39,75.16,88.01,75.04z"/>
	<path style="fill:#B2303E;" d="M254.86,140.49c0.22,0.61,0.44,1.23,0.67,1.84c-0.28,0.09-0.79,0.27-0.8,0.25
		c-0.24-0.6-0.43-1.22-0.62-1.84C254.35,140.66,254.61,140.58,254.86,140.49z"/>
	<path style="fill:#B2303E;" d="M172,8.02c-0.99-0.35-1.98-0.7-2.98-1.05C170.76,5.21,171.61,5.95,172,8.02z"/>
	<path style="fill:#B02E3B;" d="M180.95,15.05c-0.69-0.03-1.37-0.07-2.06-0.1c-0.3-0.28-0.59-0.57-0.89-0.85
		c-0.3-0.23-0.41-0.47-0.32-0.72c0.09-0.25,0.19-0.38,0.28-0.38C178.96,13.68,179.96,14.36,180.95,15.05z"/>
	<path style="fill:#B2303E;" d="M114.5,21.68c-0.55,0.62-1.11,1.24-1.66,1.87c-0.19-0.14-0.39-0.28-0.58-0.41
		c0.45-0.69,0.9-1.38,1.34-2.07C113.9,21.27,114.2,21.47,114.5,21.68z"/>
	<path style="fill:#B33240;" d="M82.1,163.5c-0.22-0.61-0.43-1.22-0.65-1.82c0.28-0.09,0.55-0.17,0.83-0.26
		c0.19,0.61,0.38,1.22,0.57,1.83C82.6,163.34,82.35,163.42,82.1,163.5z"/>
	<path style="fill:#B2303E;" d="M49.03,56.01c-1,1.06-2.01,2.12-3.01,3.17C47.03,58.12,48.03,57.06,49.03,56.01z"/>
	<path style="fill:#B73643;" d="M223.94,59.02c-0.3-0.36-0.6-0.71-0.9-1.07c0.4-0.51,0.8-1.02,1.2-1.53
		C224.14,57.3,224.04,58.16,223.94,59.02z"/>
	<path style="fill:#7E1A25;" d="M223.95,63c0.31,0,0.62,0.01,0.92,0.02c0.33,0.33,0.67,0.66,1,0.98c0.04,1,0.08,1.99,0.12,2.99
		C225.31,65.66,224.63,64.33,223.95,63z"/>
	<path style="fill:#B02E3B;" d="M228.99,67.01c-0.35-1.01-0.69-2.02-1.04-3.04C228.3,64.99,228.65,66,228.99,67.01z"/>
	<path style="fill:#B53441;" d="M152,56.98c-0.02-0.99-0.04-1.97-0.06-2.96C153.59,54.98,155.14,55.93,152,56.98z"/>
	<path style="fill:#B02E3B;" d="M84.85,76.38c-0.48,0.38-0.83,0.66-1.17,0.94c-0.19-0.35-0.59-0.74-0.52-1.04
		c0.07-0.35,0.55-0.6,0.85-0.9C84.26,75.68,84.51,75.98,84.85,76.38z"/>
	<path style="fill:#B33240;" d="M77.79,95.71c-0.15,0.63-0.29,1.26-0.44,1.9c-0.29-0.07-0.58-0.15-0.86-0.22
		c0.18-0.64,0.36-1.29,0.53-1.93C77.28,95.54,77.53,95.63,77.79,95.71z"/>
	<path style="fill:#B73643;" d="M249.09,151.86c0-0.93,0-1.85,0-2.78c0.2-0.01,0.39-0.03,0.59-0.04c0.08,0.99,0.15,1.97,0.23,2.96
		C249.64,151.96,249.37,151.91,249.09,151.86z"/>
	<path style="fill:#B33240;" d="M232.74,101.77c-0.22-0.68-0.43-1.37-0.65-2.05c0.25-0.09,0.5-0.17,0.76-0.26
		c0.25,0.67,0.49,1.35,0.74,2.02C233.3,101.58,233.02,101.67,232.74,101.77z"/>
	<path style="fill:#7E1A25;" d="M203.96,36.01c-1.01-1-2.01-1.99-3.02-2.99l0.06-0.06c1,1.01,1.99,2.01,2.99,3.02
		C204,35.98,203.96,36.01,203.96,36.01z"/>
	<path style="fill:#B2303E;" d="M234.78,104.53c0.29,0.58,0.57,1.17,0.86,1.75c-0.27,0.11-0.77,0.35-0.79,0.32
		c-0.31-0.58-0.57-1.19-0.85-1.79C234.26,104.73,234.52,104.63,234.78,104.53z"/>
	<path style="fill:#B33240;" d="M249.74,155.52c0.29,0.57,0.57,1.13,0.86,1.7c-0.26,0.12-0.75,0.36-0.76,0.34
		c-0.32-0.56-0.58-1.15-0.86-1.74C249.24,155.72,249.49,155.62,249.74,155.52z"/>
	<path style="fill:#B53441;" d="M185.34,24.5c-0.63-0.52-1.26-1.05-1.89-1.57c0.19-0.22,0.37-0.45,0.56-0.67
		c0.62,0.54,1.24,1.07,1.86,1.61C185.69,24.07,185.51,24.28,185.34,24.5z"/>
	<path style="fill:#AF2836;" d="M248.95,133.02c-0.34-1.34-0.69-2.68-1.03-4.03C248.27,130.33,248.61,131.67,248.95,133.02z"/>
	<path style="fill:#B53441;" d="M245.69,108.59c0.25,0.61,0.5,1.22,0.75,1.83c-0.23,0.09-0.46,0.18-0.69,0.28
		c-0.24-0.61-0.48-1.23-0.73-1.84C245.25,108.77,245.47,108.68,245.69,108.59z"/>
	<path style="fill:#B2303E;" d="M205.92,33.06c-0.5-0.43-1-0.86-1.5-1.29c0.11-0.11,0.22-0.22,0.33-0.33c0.43,0.5,0.87,1,1.3,1.49
		C206.05,32.94,205.92,33.06,205.92,33.06z"/>
	<path style="fill:#771D26;" d="M109.03,32.04c0.65-0.35,1.3-0.71,1.94-1.06c-0.62,1.04-1.25,2.07-1.87,3.11l-0.26-0.21
		c-0.45-0.68-0.43-1.31,0.19-1.87L109.03,32.04z"/>
	<path style="fill:#771D26;" d="M111.97,29.98c0.67-1,1.34-2.01,2.01-3.01C113.31,27.98,112.64,28.98,111.97,29.98z"/>
	<path style="fill:#AF2836;" d="M246.95,126.02c-0.34-1.34-0.68-2.68-1.03-4.03C246.27,123.33,246.61,124.68,246.95,126.02z"/>
	<path style="fill:#BA3A47;" d="M212.85,49.4c0.33,0.57,0.66,1.13,0.99,1.7c-0.22,0.12-0.43,0.25-0.65,0.37
		c-0.33-0.56-0.67-1.13-1-1.69C212.41,49.65,212.63,49.53,212.85,49.4z"/>
	<path style="fill:#AF2836;" d="M109.04,32.01c-0.06,0.62-0.13,1.25-0.19,1.87c-0.61,0.39-1.21,0.77-1.82,1.16
		C107.69,34.03,108.36,33.02,109.04,32.01z"/>
	<path style="fill:#B73643;" d="M220,49.97c0.74,0.55,1.48,1.09,2.22,1.64c-0.35,0.29-0.7,0.59-1.04,0.88
		c-0.41-0.82-0.82-1.65-1.22-2.47C219.95,50.02,220,49.97,220,49.97z"/>
	<path style="fill:#B2303E;" d="M100.84,40.66c-0.15-0.22-0.31-0.44-0.46-0.66c0.32-0.17,0.65-0.34,0.97-0.52
		c0.09,0.27,0.3,0.6,0.22,0.79C101.48,40.47,101.1,40.53,100.84,40.66z"/>
	<path style="fill:#B33240;" d="M217.86,56.42c0.32,0.56,0.64,1.11,0.96,1.67c-0.21,0.12-0.43,0.24-0.64,0.37
		c-0.32-0.55-0.64-1.11-0.97-1.66C217.43,56.66,217.64,56.54,217.86,56.42z"/>
	<path style="fill:#B2303E;" d="M82.34,126.92c0.2-0.18,0.4-0.35,0.6-0.53c0.2,0.31,0.4,0.62,0.59,0.94
		c-0.26,0.1-0.56,0.34-0.78,0.28C82.56,127.55,82.47,127.16,82.34,126.92z"/>
	<path style="fill:#B73643;" d="M239.14,93.55c-0.35-0.55-0.7-1.09-1.05-1.64c0.3-0.26,0.6-0.53,0.9-0.79
		c0.38,0.51,0.77,1.01,1.15,1.52C239.81,92.95,239.47,93.25,239.14,93.55z"/>
	<path style="fill:#AF2836;" d="M187.96,21.05c-0.66-0.03-1.32-0.05-1.97-0.08c0,0,0.01,0.02,0.01,0.02
		c-0.33-0.35-0.67-0.69-1.02-1.02L185,20c-0.26-0.21-0.35-0.43-0.28-0.65c0.07-0.23,0.15-0.34,0.23-0.34
		C185.96,19.69,186.96,20.37,187.96,21.05z"/>
	<path style="fill:#B73643;" d="M256.25,163.19c0-0.81,0-1.62,0-2.44c0.15,0,0.29,0,0.44,0c0,0.81,0,1.62,0,2.44
		C256.54,163.19,256.39,163.19,256.25,163.19z"/>
	<path style="fill:#B53441;" d="M220.99,63.97c0.48,0.79,0.96,1.58,1.45,2.37c-0.29,0.11-0.58,0.22-0.87,0.33
		c-0.21-0.89-0.41-1.78-0.62-2.67C220.95,64.01,220.99,63.97,220.99,63.97z"/>
	<path style="fill:#B53441;" d="M190.04,26.72c0.31,0.09,0.63,0.15,0.95,0.19c0.34,0.69,0.68,1.37,1.01,2.06
		c0,0-0.06,0.06-0.06,0.06C191.31,28.26,190.68,27.49,190.04,26.72z"/>
	<path style="fill:#7E1A25;" d="M228.98,73.97c0.34,1.01,0.67,2.01,1.01,3.02C229.65,75.99,229.32,74.98,228.98,73.97z"/>
	<path style="fill:#B53441;" d="M106.73,46.89c-0.13,0.26-0.2,0.63-0.4,0.73c-0.17,0.09-0.5-0.13-0.76-0.21
		c0.15-0.25,0.25-0.59,0.47-0.72C106.17,46.6,106.49,46.81,106.73,46.89z"/>
	<path style="fill:#B73643;" d="M87.67,89.44c0.07,0.67,0.12,1.11,0.17,1.55c-0.26-0.17-0.67-0.31-0.73-0.53
		C87.04,90.25,87.37,89.94,87.67,89.44z"/>
	<path style="fill:#B73643;" d="M154.04,2.83c0.66,0.38,1.32,0.77,1.98,1.15C155.36,3.6,154.7,3.22,154.04,2.83z"/>
	<path style="fill:#B53441;" d="M203.96,39.01c-0.6-0.27-1.19-0.55-1.79-0.82c0.16-0.21,0.32-0.42,0.48-0.63
		c0.45,0.47,0.89,0.95,1.34,1.42C203.99,38.98,203.96,39.01,203.96,39.01z"/>
	<path style="fill:#AF2836;" d="M118.05,21c-0.68,0.72-1.35,1.43-2.03,2.15C116.69,22.44,117.37,21.72,118.05,21z"/>
	<path style="fill:#7E1A25;" d="M213.97,46c-0.67-0.67-1.33-1.34-2-2l0.02-0.02c0.67,0.67,1.33,1.33,2,2L213.97,46z"/>
	<path style="fill:#AF2836;" d="M247.94,129.02c-0.34-1.01-0.68-2.02-1.01-3.03C247.27,127,247.61,128.01,247.94,129.02z"/>
	<path style="fill:#B73643;" d="M252.24,173.29c0-0.55,0-1.09,0-1.64c0.14,0,0.29,0,0.43,0c0,0.55,0,1.09,0,1.64
		C252.53,173.29,252.39,173.29,252.24,173.29z"/>
	<path style="fill:#B2303E;" d="M177.88,17.27c0.26,0.13,0.62,0.21,0.73,0.41c0.09,0.18-0.13,0.51-0.21,0.77
		c-0.25-0.15-0.59-0.25-0.72-0.47C177.6,17.84,177.81,17.52,177.88,17.27z"/>
	<ellipse style="fill:#B53441;" cx="82.48" cy="133.48" rx="0.31" ry="1.15"/>
	<path style="fill:#B73643;" d="M247.25,144.29c0-0.54,0-1.09,0-1.63c0.14,0,0.29,0,0.43,0c0,0.54,0,1.09,0,1.63
		C247.54,144.29,247.4,144.29,247.25,144.29z"/>
	<path style="fill:#7E1A25;" d="M105.95,40.99c-0.5,0.47-0.99,0.93-1.49,1.4c0.15-0.47,0.3-0.94,0.46-1.41
		C105.27,40.52,105.62,40.5,105.95,40.99z"/>
	<path style="fill:#B2303E;" d="M209.71,45.11c-0.26,0.07-0.6,0.26-0.75,0.16c-0.22-0.14-0.31-0.5-0.45-0.76
		c0.28-0.07,0.63-0.27,0.81-0.17C209.53,44.45,209.59,44.84,209.71,45.11z"/>
	<path style="fill:#B53441;" d="M171.99,12.98c0.59,0.28,1.17,0.56,1.76,0.85c-0.15,0.21-0.3,0.42-0.46,0.63
		c-0.45-0.48-0.89-0.96-1.34-1.44C171.96,13.01,171.99,12.98,171.99,12.98z"/>
	<path style="fill:#771D26;" d="M128,11.01c-0.27,0.6-0.54,1.2-0.81,1.8c-0.22-0.15-0.44-0.3-0.66-0.46
		c0.48-0.45,0.97-0.91,1.45-1.36C127.98,10.99,128,11.01,128,11.01z"/>
	<path style="fill:#AF2836;" d="M245.94,122.02c-0.37-1.01-0.75-2.02-1.12-3.03C245.19,120,245.57,121.01,245.94,122.02z"/>
	<path style="fill:#AF2836;" d="M249.95,136.02c-0.34-1.01-0.68-2.02-1.01-3.03C249.27,134,249.61,135.01,249.95,136.02z"/>
	<path style="fill:#B2303E;" d="M97.76,64.9c-0.14,0.26-0.22,0.62-0.43,0.73c-0.17,0.08-0.5-0.15-0.76-0.24
		c0.15-0.25,0.26-0.59,0.48-0.72C97.2,64.59,97.52,64.82,97.76,64.9z"/>
	<path style="fill:#B7989B;" d="M271.79,121.86c0.04-0.27,0.07-0.53,0.07-0.8c0.7-0.05,1.39-0.1,2.09-0.14
		C273.23,121.23,272.51,121.54,271.79,121.86z"/>
	<path style="fill:#B73643;" d="M166.01,8.04c0.66,0.31,1.32,0.62,1.98,0.93c0.02,0.33,0.03,0.66,0.03,0.99c0,0-0.07,0.07-0.07,0.07
		C167.3,9.37,166.65,8.71,166.01,8.04z"/>
	<path style="fill:#B2303E;" d="M73.66,162.43c0.07,0.65,0.12,1.08,0.17,1.52c-0.26-0.17-0.66-0.3-0.74-0.53
		C73.03,163.23,73.36,162.92,73.66,162.43z"/>
	<path style="fill:#871A26;" d="M95.94,58.96c0.34-0.66,0.67-1.31,1.01-1.97l0.05,0.04c-0.33,0.67-0.66,1.34-0.99,2L95.94,58.96z"/>
	<path style="fill:#871A26;" d="M91.95,66.95c0.14-0.45,0.29-0.89,0.43-1.34c0.13,0.09,0.38,0.26,0.37,0.27
		c-0.23,0.39-0.48,0.76-0.72,1.14L91.95,66.95z"/>
	<path style="fill:#871A26;" d="M87.76,77.96c-0.05,0.12-0.11,0.24-0.16,0.37c-0.13-0.17-0.26-0.34-0.39-0.51
		c0.11-0.07,0.25-0.21,0.32-0.18C87.64,77.68,87.69,77.85,87.76,77.96z"/>
	<path style="fill:#B2303E;" d="M81.77,81.97c-0.06,0.12-0.11,0.24-0.17,0.37c-0.13-0.17-0.26-0.34-0.39-0.51
		c0.11-0.06,0.25-0.2,0.33-0.17C81.64,81.69,81.7,81.86,81.77,81.97z"/>
	<path style="fill:#B73643;" d="M240,121.95c0.25,0.38,0.51,0.75,0.73,1.14c0.01,0.01-0.24,0.18-0.37,0.27
		c-0.14-0.45-0.28-0.9-0.43-1.35L240,121.95z"/>
	<path style="fill:#B53441;" d="M252.92,135.03c-0.24-0.38-0.49-0.75-0.71-1.14c-0.01-0.02,0.24-0.18,0.36-0.28
		c0.15,0.44,0.3,0.88,0.45,1.33L252.92,135.03z"/>
	<path style="fill:#B53441;" d="M253.01,134.95c0.24,0.37,0.49,0.74,0.71,1.12c0.01,0.02-0.23,0.18-0.36,0.27
		c-0.15-0.44-0.3-0.87-0.45-1.31C252.92,135.03,253.01,134.95,253.01,134.95z"/>
	<path style="fill:#AF2836;" d="M252.01,143.94c-0.03-0.65-0.06-1.3-0.09-1.94C251.95,142.64,251.98,143.29,252.01,143.94z"/>
	<path style="fill:#771D26;" d="M129.98,9c0.67-0.33,1.34-0.66,2-1C131.32,8.33,130.65,8.67,129.98,9C129.99,9,129.98,9,129.98,9z"
		/>
	<path style="fill:#871A26;" d="M174.99,11.98c0.66,0.01,1.32,0.01,1.98,0.02c0.14,0.18,0.29,0.36,0.43,0.55
		c-0.16,0.17-0.32,0.34-0.48,0.51C176.29,12.7,175.64,12.34,174.99,11.98z"/>
	<path style="fill:#AF2836;" d="M107.04,35.02c-0.34,0.67-0.68,1.35-1.02,2.02C106.35,36.36,106.7,35.69,107.04,35.02z"/>
	<path style="fill:#AF2836;" d="M106.04,37.01c-0.02,0.66-0.05,1.32-0.07,1.98c0,0,0.02-0.01,0.02-0.01
		c-0.29,0.42-0.62,0.44-0.97,0.07C105.35,38.36,105.69,37.68,106.04,37.01z"/>
	<path style="fill:#771D26;" d="M105.01,39.04c0.32-0.05,0.64-0.07,0.97-0.07c-0.01,0.67-0.02,1.34-0.03,2.02
		c-0.34,0-0.69-0.01-1.03-0.01c-0.01-0.35-0.01-0.69-0.02-1.04c-0.23-0.35-0.2-0.66,0.13-0.93L105.01,39.04z"/>
	<path style="fill:#B53441;" d="M203.99,38.98c0.25,0.37,0.51,0.73,0.76,1.1c-0.13,0.09-0.26,0.18-0.39,0.26
		c-0.13-0.45-0.27-0.89-0.4-1.34C203.96,39.01,203.99,38.98,203.99,38.98z"/>
	<path style="fill:#7E1A25;" d="M214.98,46.99c0.33,0.67,0.66,1.34,1,2c0,0,0,0,0,0C215.64,48.33,215.3,47.66,214.98,46.99
		C214.97,47,214.98,46.99,214.98,46.99z"/>
	<path style="fill:#7E1A25;" d="M100.99,49c-0.33,0.67-0.66,1.33-1,2l-0.02-0.02c0.34-0.67,0.67-1.33,1.01-2L100.99,49z"/>
	<path style="fill:#B73643;" d="M94.34,51.72c0.12,0.01,0.29-0.02,0.34,0.04c0.08,0.1,0.07,0.27,0.1,0.41
		c-0.19-0.02-0.39-0.03-0.58-0.05C94.25,51.98,94.29,51.85,94.34,51.72z"/>
	<path style="fill:#B53441;" d="M151.96,54.03c-0.65-0.02-1.3-0.05-1.94-0.07C150.66,53.98,151.31,54.01,151.96,54.03z"/>
	<path style="fill:#871A26;" d="M219.97,54c0.34,0.66,0.67,1.33,1.01,1.99l0,0c-0.33-0.67-0.66-1.34-0.99-2.01
		C219.98,53.99,219.97,54,219.97,54z"/>
	<path style="fill:#871A26;" d="M221.94,58.02c-0.32-0.68-0.64-1.35-0.96-2.03l0,0c0.35,0.65,0.69,1.31,1.04,1.96
		C222.01,57.96,221.94,58.02,221.94,58.02z"/>
	<path style="fill:#B33240;" d="M242,128.95c0.14,0.16,0.29,0.33,0.43,0.49c-0.16-0.14-0.33-0.29-0.49-0.43L242,128.95z"/>
	<path style="fill:#B73643;" d="M168.02,9.97c0.13,0.16,0.27,0.32,0.4,0.48c-0.16-0.14-0.32-0.27-0.48-0.41
		C167.94,10.04,168.02,9.97,168.02,9.97z"/>
	<path style="fill:#771D26;" d="M127.98,10.99c0.33-0.33,0.67-0.67,1-1c0,0,0.02,0.02,0.02,0.02c-0.33,0.33-0.67,0.67-1,1
		C128,11.01,127.98,10.99,127.98,10.99z"/>
	<path style="fill:#771D26;" d="M129.99,9c-0.33,0.33-0.66,0.67-0.99,1c0,0-0.02-0.02-0.02-0.02C129.31,9.66,129.65,9.33,129.99,9
		C129.98,9,129.99,9,129.99,9z"/>
	<path style="fill:#771D26;" d="M132.99,7c-0.34,0.33-0.67,0.66-1.01,1c0.33-0.34,0.66-0.67,1-1.01C132.98,6.99,132.99,7,132.99,7z"
		/>
	<path style="fill:#7E1A25;" d="M132.98,6.99c0.15-0.14,0.3-0.29,0.45-0.43c-0.02,0.09-0.02,0.22-0.08,0.27
		c-0.1,0.08-0.24,0.11-0.36,0.16C132.99,7,132.98,6.99,132.98,6.99z"/>
	<path style="fill:#7E1A25;" d="M136,5.01c-0.16,0.14-0.31,0.28-0.47,0.42c0.02-0.1,0.01-0.23,0.08-0.28
		c0.1-0.08,0.24-0.12,0.36-0.17C135.97,4.98,136,5.01,136,5.01z"/>
	<path style="fill:#B73643;" d="M155.98,3.96c0.32,0,0.64,0.02,0.96,0.06C156.62,4,156.3,3.98,155.98,3.96z"/>
	<path style="fill:#871A26;" d="M96.02,59.03c-0.16,0.14-0.32,0.27-0.48,0.41c0.13-0.16,0.27-0.32,0.4-0.49L96.02,59.03z"/>
	<path style="fill:#B2303E;" d="M49.99,56.01l-0.5,0L49,56.04C49.33,56.03,49.66,56.02,49.99,56.01z"/>
	<path style="fill:#7E1A25;" d="M135.97,4.98c0.34-0.33,0.67-0.66,1.01-0.99c0,0,0.01,0.01,0.01,0.01c-0.33,0.33-0.66,0.67-0.99,1
		C136,5.01,135.97,4.98,135.97,4.98z"/>
	<path style="fill:#B73643;" d="M239.93,122.01c-0.14-0.16-0.27-0.31-0.41-0.47c0.16,0.14,0.31,0.27,0.47,0.41L239.93,122.01z"/>
	<path style="fill:#871A26;" d="M219.98,53.99c-0.14-0.08-0.29-0.15-0.43-0.23c0.14,0.08,0.28,0.16,0.42,0.24
		C219.97,54,219.98,53.99,219.98,53.99z"/>
	<path style="fill:#B73643;" d="M219.95,50.02c-0.13-0.15-0.27-0.31-0.4-0.46c0.15,0.14,0.3,0.27,0.45,0.41
		C220,49.97,219.95,50.02,219.95,50.02z"/>
	<path style="fill:#7E1A25;" d="M215.97,49c0.15,0.14,0.29,0.28,0.44,0.42c-0.09-0.02-0.21-0.02-0.26-0.07
		C216.06,49.25,216.03,49.11,215.97,49L215.97,49z"/>
	<path style="fill:#7E1A25;" d="M100.98,48.99c0.15-0.14,0.29-0.29,0.44-0.43c-0.02,0.1-0.01,0.23-0.07,0.28
		c-0.09,0.08-0.24,0.11-0.36,0.16L100.98,48.99z"/>
	<path style="fill:#7E1A25;" d="M213.98,45.99c0.33,0.33,0.66,0.67,0.99,1c0,0-0.01,0.01-0.01,0.01c-0.33-0.33-0.67-0.66-1-0.99
		C213.97,46,213.98,45.99,213.98,45.99z"/>
	<path style="fill:#B53441;" d="M216,43.96c0.14,0.16,0.28,0.33,0.43,0.49c-0.16-0.14-0.33-0.28-0.49-0.42
		C215.94,44.02,216,43.96,216,43.96z"/>
	<path style="fill:#B53441;" d="M215.94,44.02c-0.33-0.34-0.66-0.67-0.99-1.01c0,0,0.05-0.05,0.05-0.05
		c0.34,0.33,0.67,0.66,1.01,0.99C216,43.96,215.94,44.02,215.94,44.02z"/>
	<path style="fill:#7E1A25;" d="M211.97,44c-0.33-0.34-0.66-0.67-0.99-1.01l0,0c0.34,0.33,0.67,0.66,1.01,0.99L211.97,44z"/>
	<path style="fill:#B53441;" d="M214.95,43.01c-0.14-0.16-0.28-0.31-0.41-0.47c0.15,0.14,0.31,0.28,0.46,0.42
		C214.99,42.97,214.95,43.01,214.95,43.01z"/>
	<path style="fill:#7E1A25;" d="M209.97,41.99c0.33,0.33,0.67,0.67,1,1c0,0,0,0,0,0C210.64,42.66,210.31,42.33,209.97,41.99
		L209.97,41.99z"/>
	<path style="fill:#7E1A25;" d="M208.97,40.99c0.33,0.33,0.67,0.67,1,1v0C209.64,41.66,209.31,41.33,208.97,40.99
		C208.97,41,208.97,40.99,208.97,40.99z"/>
	<path style="fill:#7E1A25;" d="M208.97,41c-0.33-0.33-0.67-0.67-1-1c0,0,0,0,0,0C208.31,40.33,208.64,40.66,208.97,41
		C208.97,40.99,208.97,41,208.97,41z"/>
	<path style="fill:#7E1A25;" d="M206.98,38.99c0.33,0.33,0.66,0.67,1,1c0,0,0,0,0,0c-0.33-0.33-0.67-0.66-1-1
		C206.97,39,206.98,38.99,206.98,38.99z"/>
	<path style="fill:#AF2836;" d="M105.03,39c-0.02,0.31-0.06,0.63-0.13,0.93c-0.1-0.24-0.22-0.47-0.28-0.71
		C104.61,39.18,104.89,39.08,105.03,39z"/>
	<path style="fill:#B53441;" d="M210.99,37.98c0.14,0.16,0.28,0.31,0.42,0.47c-0.15-0.15-0.3-0.29-0.46-0.44
		C210.95,38.01,210.99,37.98,210.99,37.98z"/>
	<path style="fill:#771D26;" d="M184.97,19.97c0.34,0.34,0.68,0.68,1.02,1.02C185.66,20.66,185.32,20.31,184.97,19.97z"/>
	<path style="fill:#7E1A25;" d="M205.98,37.98c0.33,0.33,0.66,0.67,1,1L206.97,39c-0.33-0.33-0.67-0.66-1-1L205.98,37.98z"/>
	<path style="fill:#B53441;" d="M220.95,64.01c-0.14-0.15-0.28-0.3-0.42-0.45c0.15,0.14,0.3,0.28,0.46,0.41L220.95,64.01z"/>
	<path style="fill:#B53441;" d="M210.95,38.01c-0.33-0.33-0.67-0.67-1-1c0,0,0.04-0.04,0.04-0.04c0.33,0.33,0.67,0.67,1,1
		C210.99,37.98,210.95,38.01,210.95,38.01z"/>
	<path style="fill:#7E1A25;" d="M205.96,38c-0.33-0.33-0.67-0.66-1-1c0,0,0.03-0.03,0.03-0.03c0.33,0.33,0.66,0.67,1,1
		C205.98,37.98,205.96,38,205.96,38z"/>
	<path style="fill:#B53441;" d="M209.95,37.01c-0.14-0.15-0.28-0.3-0.43-0.46c0.15,0.14,0.31,0.28,0.46,0.42
		C209.99,36.98,209.95,37.01,209.95,37.01z"/>
	<path style="fill:#7E1A25;" d="M204,35.98c0.33,0.33,0.66,0.67,0.99,1l-0.03,0.03c-0.33-0.33-0.67-0.66-1-0.99
		C203.96,36.01,204,35.98,204,35.98z"/>
	<path style="fill:#B2303E;" d="M206.05,32.94c0.13,0.17,0.27,0.35,0.4,0.52c-0.18-0.13-0.35-0.26-0.53-0.4L206.05,32.94z"/>
	<path style="fill:#BA3A47;" d="M197,32.97c0.15,0.17,0.29,0.33,0.44,0.5c-0.17-0.15-0.33-0.3-0.5-0.45
		C196.94,33.02,197,32.97,197,32.97z"/>
	<path style="fill:#7E1A25;" d="M200.94,33.02c-0.14-0.16-0.28-0.32-0.42-0.49c0.16,0.14,0.32,0.28,0.48,0.43
		C201,32.96,200.94,33.02,200.94,33.02z"/>
	<path style="fill:#BA3A47;" d="M196.94,33.02c-0.14-0.15-0.27-0.31-0.41-0.46c0.16,0.14,0.31,0.27,0.47,0.41L196.94,33.02z"/>
	<path style="fill:#771D26;" d="M110.97,30.98c0.33-0.33,0.67-0.67,1-1C111.64,30.32,111.31,30.65,110.97,30.98z"/>
	<path style="fill:#771D26;" d="M196.01,28.97c0.15,0.15,0.29,0.31,0.44,0.46c-0.16-0.14-0.33-0.27-0.49-0.41
		C195.95,29.02,196.01,28.97,196.01,28.97z"/>
	<path style="fill:#B53441;" d="M192.01,28.97c0.14,0.16,0.27,0.31,0.41,0.47c-0.16-0.14-0.31-0.27-0.47-0.41
		C191.95,29.03,192.01,28.97,192.01,28.97z"/>
	<path style="fill:#B73643;" d="M200.01,27.95c0.15,0.16,0.29,0.33,0.44,0.49c-0.17-0.14-0.34-0.28-0.51-0.42
		C199.94,28.03,200.01,27.95,200.01,27.95z"/>
	<path style="fill:#B73643;" d="M199.94,28.03c-0.14-0.17-0.28-0.33-0.42-0.5c0.16,0.14,0.33,0.28,0.49,0.42
		C200.01,27.95,199.94,28.03,199.94,28.03z"/>
	<path style="fill:#771D26;" d="M113.97,26.99c0.34-0.34,0.68-0.68,1.02-1.02C114.64,26.32,114.3,26.66,113.97,26.99z"/>
	<path style="fill:#AF2836;" d="M188.96,22.04c-0.34-0.34-0.69-0.68-1.03-1.02C188.28,21.36,188.62,21.7,188.96,22.04z"/>
	<path style="fill:#771D26;" d="M118.99,20.02c0.33-0.05,0.66-0.07,0.99-0.04c-0.31,0.36-0.62,0.72-0.93,1.07c0,0-0.11-0.1-0.12-0.1
		C118.96,20.64,118.98,20.33,118.99,20.02z"/>
	<path style="fill:#771D26;" d="M184.95,19c0.05,0.33,0.06,0.66,0.05,1c-0.35-0.33-0.69-0.66-1.04-0.98c0,0,0.06-0.07,0.06-0.07
		c0.34-0.26,0.66-0.23,0.95,0.07L184.95,19z"/>
	<path style="fill:#771D26;" d="M119.97,19.99c0.34-0.34,0.67-0.67,1.01-1.01C120.64,19.32,120.3,19.65,119.97,19.99z"/>
	<path style="fill:#AF2836;" d="M184.98,19.02c-0.32-0.04-0.63-0.06-0.95-0.07c-0.03-0.31-0.06-0.63-0.09-0.94
		C184.28,18.34,184.63,18.68,184.98,19.02z"/>
	<path style="fill:#B73643;" d="M187.01,16.96c0.14,0.17,0.29,0.34,0.43,0.51c-0.17-0.14-0.34-0.29-0.51-0.43
		C186.93,17.03,187.01,16.96,187.01,16.96z"/>
	<path style="fill:#AF2836;" d="M183.97,18.03c-0.34-0.34-0.69-0.68-1.03-1.02C183.28,17.36,183.63,17.7,183.97,18.03z"/>
	<path style="fill:#B73643;" d="M186.93,17.03c-0.13-0.16-0.27-0.32-0.4-0.47c0.16,0.13,0.32,0.26,0.48,0.4
		C187.01,16.96,186.93,17.03,186.93,17.03z"/>
	<path style="fill:#AF2836;" d="M182.96,17.04c-0.34-0.34-0.67-0.67-1.01-1.01C182.28,16.37,182.62,16.7,182.96,17.04z"/>
	<path style="fill:#AF2836;" d="M181.94,16.03c-0.33-0.33-0.67-0.67-1-1C181.28,15.36,181.61,15.7,181.94,16.03z"/>
	<path style="fill:#771D26;" d="M124.93,14.93c0.17-0.14,0.34-0.28,0.52-0.42c-0.13,0.18-0.27,0.36-0.4,0.54
		C125.04,15.05,124.93,14.93,124.93,14.93z"/>
	<path style="fill:#871A26;" d="M177.97,12.99c0.01,0.37,0.02,0.73,0.04,1.1c-0.36-0.35-0.71-0.69-1.07-1.04
		c0,0,0.05-0.06,0.05-0.06C177.31,12.64,177.65,12.65,177.97,12.99C177.98,13,177.97,12.99,177.97,12.99z"/>
	<path style="fill:#B02E3B;" d="M177.98,13c-0.33,0-0.67,0-1,0c0-0.33,0-0.67,0-1c0.33,0,0.67,0,1,0
		C177.98,12.33,177.98,12.67,177.98,13z"/>
	<path style="fill:#B53441;" d="M171.96,13.01c-0.14-0.15-0.29-0.3-0.43-0.46c0.15,0.14,0.31,0.28,0.46,0.42
		C171.99,12.98,171.96,13.01,171.96,13.01z"/>
	<path style="fill:#871A26;" d="M173.99,10.98c0.33,0.33,0.67,0.66,1,1C174.66,11.65,174.32,11.32,173.99,10.98z"/>
	<path style="fill:#B33240;" d="M241.94,129.01c-0.13-0.15-0.26-0.3-0.39-0.46c0.15,0.13,0.3,0.27,0.45,0.4L241.94,129.01z"/>
	<path style="fill:#871A26;" d="M174,9.96c0,0.34,0,0.68,0,1.02c-0.35-0.32-0.7-0.64-1.05-0.95c0,0,0.06-0.06,0.06-0.06
		C173.34,9.97,173.67,9.97,174,9.96z"/>
	<path style="fill:#B33240;" d="M363.5,218.39c1.3,0,2.61,0,3.91,0c0.02,0.39,0.05,0.78,0.07,1.17c-1.32,0.09-2.63,0.19-3.95,0.28
		C363.53,219.36,363.51,218.88,363.5,218.39z"/>
	<path style="fill:#B2303E;" d="M344.88,213.89c1.62,0.54,3.23,1.07,4.85,1.61c-0.15,0.44-0.3,0.88-0.45,1.32
		c-1.61-0.56-3.21-1.12-4.82-1.68C344.59,214.72,344.74,214.3,344.88,213.89z"/>
	<path style="fill:#B02E3B;" d="M309.25,214.76c1.44,0.74,2.88,1.47,4.32,2.21c-0.18,0.39-0.36,0.77-0.54,1.16
		c-1.54-0.69-3.08-1.37-4.62-2.06C308.68,215.63,308.96,215.19,309.25,214.76z"/>
	<path style="fill:#B2303E;" d="M375.44,226.61c-1.29,0.07-2.58,0.13-3.87,0.2c-0.06-0.44-0.11-0.88-0.17-1.33
		c1.29-0.16,2.59-0.32,3.88-0.48C375.34,225.54,375.39,226.08,375.44,226.61z"/>
	<path style="fill:#B53441;" d="M310.33,208.81c-1.29-0.56-2.57-1.12-3.86-1.67c0.16-0.39,0.32-0.79,0.48-1.18
		c1.29,0.53,2.59,1.07,3.88,1.6C310.67,207.98,310.5,208.39,310.33,208.81z"/>
	<path style="fill:#B02E3B;" d="M358.39,233.83c-1.24-0.15-2.48-0.3-3.72-0.45c0.03-0.34,0.05-0.68,0.08-1.02c1.23,0,2.46,0,3.69,0
		C358.43,232.86,358.41,233.35,358.39,233.83z"/>
	<path style="fill:#B2303E;" d="M349.16,237.78c1.33,0.4,2.66,0.81,3.99,1.21c-0.08,0.34-0.16,0.68-0.23,1.01
		c-1.46-0.25-2.93-0.49-4.39-0.74C348.73,238.77,348.95,238.28,349.16,237.78z"/>
	<path style="fill:#B33240;" d="M371.34,218.45c1.22-0.17,2.43-0.34,3.65-0.51c0.1,0.25,0.19,0.5,0.29,0.75
		c-0.65,0.41-1.26,1.02-1.97,1.16c-0.6,0.12-1.32-0.31-1.98-0.49C371.33,219.06,371.34,218.76,371.34,218.45z"/>
	<path style="fill:#B02E3B;" d="M341.73,227.45c1.24,0.49,2.48,0.98,3.71,1.47c-0.14,0.36-0.27,0.72-0.41,1.09
		c-1.27-0.47-2.54-0.95-3.81-1.42C341.39,228.21,341.56,227.83,341.73,227.45z"/>
	<path style="fill:#B2303E;" d="M319.08,212.83c-0.97-0.55-1.94-1.11-2.9-1.66c0.16-0.32,0.32-0.65,0.48-0.97
		c1.04,0.49,2.08,0.98,3.12,1.47C319.54,212.05,319.31,212.44,319.08,212.83z"/>
	<path style="fill:#B2303E;" d="M362.07,223.99c1.34,0.4,2.67,0.79,4.01,1.19c-0.06,0.28-0.12,0.55-0.18,0.83
		c-1.46-0.23-2.93-0.47-4.39-0.7C361.7,224.87,361.89,224.43,362.07,223.99z"/>
	<path style="fill:#B53441;" d="M390.72,222.31c-0.99,0.48-1.98,0.97-2.96,1.45c-0.18-0.32-0.37-0.64-0.55-0.97
		c0.96-0.57,1.92-1.13,2.88-1.7C390.29,221.5,390.51,221.91,390.72,222.31z"/>
	<path style="fill:#B02E3B;" d="M361.94,241.03c-1.52-0.15-3.05-0.3-4.57-0.45c0.05-0.39,0.11-0.78,0.16-1.17
		c1.45,0.25,2.89,0.49,4.34,0.74C361.89,240.44,361.92,240.74,361.94,241.03z"/>
	<path style="fill:#B2303E;" d="M370.45,234.51c-0.98,0-1.96,0-2.94,0c-0.04-0.3-0.09-0.59-0.13-0.89c1-0.16,1.99-0.31,2.99-0.47
		C370.39,233.61,370.42,234.06,370.45,234.51z"/>
	<path style="fill:#B2303E;" d="M302.26,220.8c-1.03-0.52-2.06-1.05-3.1-1.57c0.18-0.35,0.36-0.71,0.54-1.06
		c1.03,0.52,2.07,1.04,3.1,1.56C302.63,220.09,302.44,220.45,302.26,220.8z"/>
	<path style="fill:#B53441;" d="M417.77,201.89c-0.51,0.65-1.02,1.29-1.53,1.94c-0.31-0.22-0.62-0.44-0.93-0.66
		c0.48-0.7,0.95-1.41,1.43-2.11C417.09,201.33,417.43,201.61,417.77,201.89z"/>
	<path style="fill:#B33240;" d="M385.33,239.54c0.92-0.17,1.84-0.35,2.76-0.52c0.09,0.31,0.18,0.61,0.27,0.92
		c-0.9,0.31-1.79,0.62-2.69,0.93C385.55,240.42,385.44,239.98,385.33,239.54z"/>
	<path style="fill:#B33240;" d="M338.59,234.46c1.04,0.43,2.09,0.85,3.13,1.28c-0.11,0.29-0.22,0.59-0.33,0.88
		c-1.05-0.36-2.1-0.71-3.15-1.07C338.36,235.19,338.48,234.83,338.59,234.46z"/>
	<path style="fill:#B53441;" d="M309.81,222.99c1.16,0.38,2.33,0.77,3.49,1.15c-0.09,0.32-0.19,0.64-0.28,0.96
		c-1.18-0.33-2.37-0.65-3.55-0.98C309.58,223.74,309.69,223.36,309.81,222.99z"/>
	<path style="fill:#B53441;" d="M343.14,219.83c1.09,0.34,2.18,0.68,3.27,1.01c-0.1,0.35-0.19,0.7-0.29,1.05
		c-1.14-0.33-2.29-0.65-3.43-0.98C342.84,220.56,342.99,220.19,343.14,219.83z"/>
	<path style="fill:#B53441;" d="M379.62,225.12c1.16-0.37,2.32-0.74,3.49-1.11c0.11,0.38,0.22,0.77,0.33,1.15
		c-1.18,0.31-2.36,0.61-3.54,0.92C379.81,225.76,379.72,225.44,379.62,225.12z"/>
	<path style="fill:#B02E3B;" d="M338.81,213.04c-1.06-0.46-2.12-0.91-3.18-1.37c0.09-0.27,0.18-0.54,0.26-0.81
		c1.18,0.31,2.37,0.62,3.55,0.94C339.23,212.21,339.02,212.62,338.81,213.04z"/>
	<path style="fill:#B53441;" d="M244.97,188.98c0.33-0.02,0.65-0.02,0.98,0.02c0.59,0.7,1.18,1.39,1.78,2.09
		c-0.3,0.24-0.59,0.49-0.89,0.73C246.21,190.87,245.59,189.93,244.97,188.98z"/>
	<path style="fill:#B02E3B;" d="M335.1,226.9c-0.87-0.3-1.74-0.59-2.61-0.89c0.1-0.31,0.21-0.62,0.31-0.93
		c0.87,0.3,1.73,0.6,2.6,0.9C335.31,226.29,335.2,226.59,335.1,226.9z"/>
	<path style="fill:#B02E3B;" d="M329.88,210.01c-0.72-0.38-1.45-0.76-2.16-1.18c-0.02-0.01,0.28-0.69,0.32-0.67
		c0.8,0.24,1.59,0.53,2.38,0.81C330.24,209.31,330.06,209.66,329.88,210.01z"/>
	<path style="fill:#B73643;" d="M385.42,232.04c-0.88,0.29-1.76,0.58-2.64,0.86c-0.1-0.26-0.2-0.51-0.3-0.77
		c0.81-0.39,1.63-0.79,2.44-1.18C385.08,231.32,385.25,231.68,385.42,232.04z"/>
	<path style="fill:#B33240;" d="M352.54,222.32c0.89,0.28,1.79,0.55,2.68,0.83c-0.07,0.26-0.13,0.52-0.2,0.79
		c-0.92-0.21-1.84-0.42-2.76-0.63C352.36,222.98,352.45,222.65,352.54,222.32z"/>
	<path style="fill:#B73643;" d="M396.99,219c-0.89,0.75-1.78,1.5-2.68,2.24c-0.23-0.44-0.46-0.87-0.68-1.31
		c1.1-0.34,2.19-0.67,3.29-1.01L396.99,219z"/>
	<path style="fill:#B2303E;" d="M381.61,241.16c-0.82,0.3-1.64,0.59-2.47,0.89c-0.1-0.26-0.21-0.51-0.31-0.77
		c0.81-0.33,1.63-0.65,2.44-0.98C381.38,240.59,381.49,240.87,381.61,241.16z"/>
	<path style="fill:#B33240;" d="M404.45,223.09c0.49-0.26,0.97-0.58,1.49-0.73c0.09-0.03,0.39,0.64,0.59,0.99
		c-0.52,0.21-1.04,0.43-1.56,0.64C404.79,223.69,404.62,223.39,404.45,223.09z"/>
	<path style="fill:#B33240;" d="M333.92,233.03c-0.64,0.27-1.07,0.63-1.35,0.53c-0.38-0.13-0.64-0.6-0.95-0.92
		c0.35-0.19,0.72-0.56,1.05-0.52C333.03,232.17,333.34,232.59,333.92,233.03z"/>
	<path style="fill:#B53441;" d="M397.36,237.67c-0.8,0.4-1.6,0.79-2.4,1.19c-0.12-0.27-0.25-0.54-0.37-0.81
		c0.82-0.35,1.64-0.7,2.46-1.05C397.15,237.21,397.26,237.44,397.36,237.67z"/>
	<path style="fill:#B33240;" d="M276,199.93c0.88,0.26,1.76,0.52,2.64,0.77c-0.19,0.35-0.37,0.71-0.56,1.06
		c-0.72-0.58-1.44-1.17-2.16-1.75L276,199.93z"/>
	<path style="fill:#B73643;" d="M439.91,197.83c-0.16,0.53-0.26,1.1-0.52,1.58c-0.05,0.09-0.72-0.16-1.1-0.25
		c0.21-0.53,0.42-1.07,0.63-1.6C439.24,197.64,439.58,197.73,439.91,197.83z"/>
	<path style="fill:#B2303E;" d="M277.1,191.91c-0.53-0.15-1.08-0.26-1.56-0.5c-0.08-0.04,0.16-0.71,0.26-1.09
		c0.52,0.2,1.05,0.41,1.57,0.61C277.28,191.25,277.19,191.58,277.1,191.91z"/>
	<path style="fill:#B53441;" d="M293.81,208.05c0.53,0.15,1.09,0.25,1.57,0.5c0.08,0.04-0.17,0.71-0.26,1.09
		c-0.53-0.2-1.05-0.41-1.58-0.61C293.63,208.7,293.72,208.37,293.81,208.05z"/>
	<path style="fill:#B33240;" d="M302.73,212.07c0.66,0.24,1.33,0.49,1.99,0.73c-0.11,0.27-0.21,0.54-0.32,0.81
		c-0.65-0.27-1.31-0.54-1.96-0.81C302.54,212.56,302.64,212.32,302.73,212.07z"/>
	<path style="fill:#B73643;" d="M389.26,214.61c-0.81,0.39-1.62,0.78-2.44,1.18c-0.11-0.25-0.23-0.5-0.34-0.75
		c0.82-0.37,1.65-0.74,2.47-1.11C389.06,214.16,389.16,214.38,389.26,214.61z"/>
	<path style="fill:#B73643;" d="M326.98,214.94c0.89,0.26,1.78,0.51,2.66,0.77c-0.19,0.35-0.37,0.71-0.56,1.06
		c-0.72-0.59-1.44-1.18-2.17-1.76L326.98,214.94z"/>
	<path style="fill:#B53441;" d="M338.12,219.85c-0.57-0.37-1.15-0.73-1.72-1.1c0.1-0.22,0.21-0.44,0.31-0.67
		c0.69,0.24,1.37,0.48,2.06,0.71C338.55,219.15,338.34,219.5,338.12,219.85z"/>
	<path style="fill:#B73643;" d="M424.85,205.9c0.44-0.49,0.87-0.97,1.31-1.46c0.11,0.11,0.22,0.21,0.32,0.32
		c-0.48,0.44-0.96,0.88-1.45,1.32C425.04,206.08,424.85,205.9,424.85,205.9z"/>
	<path style="fill:#B53441;" d="M410.88,195.92c0.43-0.5,0.86-1,1.3-1.49c0.11,0.11,0.22,0.22,0.33,0.33
		c-0.5,0.43-0.99,0.87-1.49,1.3L410.88,195.92z"/>
	<path style="fill:#B53441;" d="M278.99,208.94c0.89,0.21,1.78,0.42,2.67,0.64c-0.11,0.29-0.22,0.57-0.33,0.86
		c-0.8-0.48-1.6-0.96-2.4-1.44L278.99,208.94z"/>
	<path style="fill:#B53441;" d="M320.98,220.94c0.9,0.16,1.79,0.32,2.69,0.48c-0.09,0.31-0.17,0.62-0.26,0.94
		c-0.83-0.45-1.66-0.9-2.49-1.35C320.93,221.01,320.98,220.94,320.98,220.94z"/>
	<path style="fill:#B73643;" d="M417.84,224.88c0.45-0.49,0.89-0.98,1.34-1.47c0.11,0.11,0.22,0.22,0.33,0.33
		c-0.49,0.44-0.98,0.88-1.48,1.32C418.03,225.07,417.84,224.88,417.84,224.88z"/>
	<path style="fill:#B53441;" d="M261.59,192.04c-0.2,0.17-0.4,0.34-0.6,0.51c-0.2-0.31-0.41-0.62-0.61-0.94
		c0.26-0.1,0.57-0.32,0.78-0.25C261.36,191.42,261.45,191.8,261.59,192.04z"/>
	<path style="fill:#B73643;" d="M398.63,228.17c-0.24,0.14-0.48,0.28-0.72,0.42c-0.13-0.33-0.26-0.67-0.39-1
		c0.27-0.07,0.61-0.26,0.79-0.16C398.5,227.52,398.53,227.9,398.63,228.17z"/>
	<path style="fill:#B73643;" d="M411.06,230.09c-0.45,0.47-0.91,0.94-1.36,1.41c-0.11-0.11-0.21-0.22-0.32-0.33
		c0.5-0.43,1-0.87,1.49-1.3L411.06,230.09z"/>
	<path style="fill:#B2303E;" d="M259.99,198.95c0.84,0.34,1.68,0.69,2.53,1.03c-0.16,0.28-0.31,0.57-0.47,0.85
		c-0.7-0.61-1.4-1.22-2.11-1.83L259.99,198.95z"/>
	<path style="fill:#BA3A47;" d="M369.76,241.25c0.79-0.06,1.57-0.13,2.36-0.19c0.02,0.22,0.03,0.44,0.05,0.67
		c-0.79,0.07-1.57,0.13-2.36,0.2C369.8,241.7,369.78,241.47,369.76,241.25z"/>
	<path style="fill:#B53441;" d="M408.98,210c-0.28,0.58-0.55,1.16-0.83,1.75c-0.21-0.15-0.43-0.3-0.64-0.45
		c0.47-0.45,0.94-0.9,1.41-1.35L408.98,210z"/>
	<path style="fill:#B73643;" d="M283.93,195.02c-0.58-0.28-1.16-0.56-1.74-0.84c0.35-0.42,0.71-0.84,1.06-1.25
		c0.25,0.67,0.5,1.34,0.75,2.01C284.01,194.93,283.93,195.02,283.93,195.02z"/>
	<path style="fill:#BA3A47;" d="M414.48,191.45c-0.08-0.29-0.3-0.62-0.21-0.81c0.1-0.21,0.48-0.28,0.74-0.41
		c0.08,0.25,0.28,0.57,0.2,0.73C415.08,191.19,414.74,191.29,414.48,191.45z"/>
	<path style="fill:#B33240;" d="M269.99,203.94c0.58,0.27,1.16,0.55,1.74,0.82c-0.35,0.41-0.7,0.83-1.04,1.24
		c-0.25-0.67-0.5-1.33-0.76-2L269.99,203.94z"/>
	<path style="fill:#B33240;" d="M252.96,194.99c-0.59-0.27-1.18-0.54-1.77-0.81c0.15-0.22,0.3-0.43,0.45-0.65
		c0.45,0.48,0.89,0.95,1.34,1.43L252.96,194.99z"/>
	<path style="fill:#BA3A47;" d="M433.89,206.93c0.29-0.58,0.57-1.17,0.86-1.75c0.43,0.36,0.85,0.73,1.28,1.09
		c-0.68,0.25-1.37,0.5-2.05,0.76C433.99,207.02,433.89,206.93,433.89,206.93z"/>
	<path style="fill:#B73643;" d="M284.01,194.93c0.59,0.29,1.18,0.57,1.77,0.86c-0.36,0.41-0.71,0.81-1.07,1.22
		c-0.26-0.67-0.51-1.33-0.77-2L284.01,194.93z"/>
	<path style="fill:#B73643;" d="M377.51,233.64c-0.65,0.08-1.09,0.13-1.53,0.18c0.17-0.26,0.3-0.66,0.54-0.73
		C376.7,233.02,377.02,233.35,377.51,233.64z"/>
	<path style="fill:#B33240;" d="M275.93,200.01c-0.58-0.28-1.15-0.56-1.73-0.84c0.35-0.42,0.7-0.83,1.05-1.25
		c0.25,0.67,0.5,1.34,0.75,2.01C276,199.93,275.93,200.01,275.93,200.01z"/>
	<path style="fill:#B73643;" d="M404,234.03c-0.39,0.56-0.78,1.11-1.18,1.67c-0.22-0.31-0.44-0.61-0.66-0.92
		c0.58-0.28,1.17-0.57,1.75-0.85L404,234.03z"/>
	<path style="fill:#B73643;" d="M290.98,198.95c0.59,0.28,1.17,0.55,1.76,0.83c-0.34,0.41-0.68,0.82-1.02,1.23
		c-0.26-0.66-0.53-1.33-0.79-1.99L290.98,198.95z"/>
	<path style="fill:#B73643;" d="M405.92,200.95c0.26-0.67,0.53-1.33,0.79-2c0.34,0.41,0.68,0.82,1.02,1.22
		c-0.58,0.28-1.17,0.56-1.75,0.84L405.92,200.95z"/>
	<path style="fill:#B73643;" d="M428.91,212.95c0.28-0.59,0.55-1.17,0.83-1.76c0.22,0.15,0.43,0.3,0.65,0.45
		c-0.47,0.45-0.95,0.9-1.42,1.36L428.91,212.95z"/>
	<path style="fill:#B73643;" d="M326.92,215.01c-0.45-0.14-0.9-0.29-1.35-0.43c0.09-0.13,0.26-0.38,0.27-0.37
		c0.39,0.23,0.76,0.48,1.14,0.73L326.92,215.01z"/>
	<path style="fill:#B73643;" d="M294.31,215.53c-0.11,0.07-0.23,0.15-0.34,0.22c-0.09-0.17-0.18-0.33-0.28-0.5
		c0.14-0.02,0.3-0.09,0.41-0.04C294.2,215.25,294.24,215.42,294.31,215.53z"/>
	<path style="fill:#B53441;" d="M334.29,217.6c-0.12,0.05-0.24,0.09-0.36,0.14c-0.04-0.18-0.07-0.35-0.11-0.53
		c0.13,0.02,0.28,0.02,0.38,0.08C334.28,217.33,334.27,217.49,334.29,217.6z"/>
	<path style="fill:#BA3A47;" d="M423.92,218.95c0.14-0.45,0.28-0.9,0.42-1.35c0.13,0.09,0.38,0.25,0.38,0.26
		c-0.23,0.39-0.49,0.76-0.75,1.14C423.97,219,423.92,218.95,423.92,218.95z"/>
	<path style="fill:#B53441;" d="M283.99,203.94c0.67,0.33,1.34,0.67,2.02,1l-0.07,0.08c-0.67-0.34-1.33-0.67-2-1.01L283.99,203.94z"
		/>
	<path style="fill:#B53441;" d="M320.93,221.01c-0.44-0.14-0.88-0.29-1.33-0.43c0.09-0.13,0.26-0.37,0.27-0.36
		c0.38,0.23,0.75,0.48,1.11,0.73L320.93,221.01z"/>
	<path style="fill:#B33240;" d="M266.97,194.97c0.45,0.13,0.9,0.26,1.35,0.39c-0.09,0.13-0.18,0.26-0.27,0.39
		c-0.37-0.26-0.74-0.51-1.11-0.77L266.97,194.97z"/>
	<path style="fill:#BA3A47;" d="M420.98,197c-0.14,0.45-0.28,0.89-0.43,1.34c-0.13-0.09-0.38-0.26-0.37-0.27
		c0.23-0.38,0.49-0.75,0.75-1.13L420.98,197z"/>
	<path style="fill:#B73643;" d="M290.93,199.01c-0.44-0.14-0.88-0.28-1.32-0.42c0.09-0.13,0.25-0.37,0.26-0.36
		c0.38,0.23,0.74,0.48,1.11,0.72L290.93,199.01z"/>
	<path style="fill:#BA3A47;" d="M428.86,200.9c0.18-0.44,0.35-0.87,0.53-1.31c0.12,0.11,0.37,0.28,0.35,0.31
		c-0.22,0.4-0.48,0.78-0.72,1.16L428.86,200.9z"/>
	<path style="fill:#B2303E;" d="M298.93,203.01c-0.44-0.15-0.88-0.29-1.32-0.44c0.09-0.13,0.26-0.37,0.27-0.36
		c0.38,0.23,0.75,0.48,1.12,0.73C299,202.94,298.93,203.01,298.93,203.01z"/>
	<path style="fill:#B2303E;" d="M314.3,202.53c-0.11,0.07-0.22,0.15-0.33,0.22c-0.09-0.16-0.18-0.33-0.27-0.49
		c0.14-0.02,0.29-0.09,0.4-0.04C314.2,202.25,314.24,202.42,314.3,202.53z"/>
	<path style="fill:#B33240;" d="M269.93,204.01c-0.66-0.34-1.33-0.68-1.99-1.02l0.04-0.04c0.67,0.33,1.34,0.66,2,0.99L269.93,204.01
		z"/>
	<path style="fill:#B53441;" d="M283.93,204.01c-0.44-0.14-0.88-0.28-1.31-0.43c0.09-0.13,0.25-0.37,0.26-0.36
		c0.38,0.23,0.74,0.47,1.11,0.72L283.93,204.01z"/>
	<path style="fill:#B73643;" d="M321.94,229c-0.66-0.34-1.33-0.68-1.99-1.02l0.02-0.02c0.68,0.32,1.35,0.65,2.03,0.97L321.94,229z"
		/>
	<path style="fill:#B73643;" d="M322,228.93c0.44,0.14,0.89,0.28,1.33,0.42c-0.09,0.13-0.25,0.38-0.26,0.37
		c-0.39-0.23-0.76-0.48-1.13-0.72L322,228.93z"/>
	<path style="fill:#B73643;" d="M410.88,229.88c0.39-0.24,0.78-0.49,1.19-0.7c0.03-0.02,0.2,0.23,0.3,0.36
		c-0.43,0.19-0.87,0.37-1.3,0.56L410.88,229.88z"/>
	<path style="fill:#BA3A47;" d="M390.36,230.52c-0.12,0.08-0.24,0.15-0.36,0.23c-0.09-0.17-0.19-0.34-0.28-0.51
		c0.14-0.02,0.31-0.09,0.43-0.05C390.25,230.23,390.29,230.41,390.36,230.52z"/>
	<path style="fill:#B33240;" d="M329.05,231.76c-0.13-0.05-0.26-0.1-0.39-0.14c0.15-0.14,0.29-0.28,0.44-0.42
		c0.1,0.1,0.2,0.21,0.3,0.31C329.28,231.59,329.16,231.68,329.05,231.76z"/>
	<path style="fill:#B73643;" d="M412.86,206.9c0.14-0.43,0.28-0.86,0.41-1.29c0.19,0.1,0.38,0.21,0.57,0.31
		c-0.28,0.37-0.56,0.75-0.84,1.12C413.01,207.04,412.86,206.9,412.86,206.9z"/>
	<path style="fill:#B2303E;" d="M323.23,206.33c-0.01,0.11,0.02,0.27-0.04,0.31c-0.1,0.07-0.25,0.06-0.38,0.09
		c0.02-0.18,0.03-0.36,0.05-0.54C322.98,206.24,323.11,206.28,323.23,206.33z"/>
	<path style="fill:#B73643;" d="M403.91,233.92c0.37-0.24,0.73-0.49,1.11-0.71c0.02-0.01,0.18,0.23,0.28,0.35
		c-0.43,0.15-0.86,0.31-1.3,0.46C404,234.03,403.91,233.92,403.91,233.92z"/>
	<path style="fill:#B73643;" d="M395,211.01c-0.38,0.25-0.76,0.51-1.16,0.74c-0.02,0.01-0.19-0.24-0.28-0.37
		c0.45-0.15,0.9-0.31,1.35-0.46L395,211.01z"/>
	<path style="fill:#B33240;" d="M380.32,217.52c-0.11,0.07-0.22,0.15-0.34,0.22c-0.09-0.16-0.18-0.33-0.27-0.49
		c0.14-0.02,0.29-0.09,0.41-0.04C380.21,217.24,380.25,217.41,380.32,217.52z"/>
	<path style="fill:#BA3A47;" d="M420.93,196.95c0.33-0.33,0.67-0.66,1-1c0,0,0.04,0.04,0.04,0.04c-0.33,0.34-0.66,0.67-0.99,1.01
		C420.98,197,420.93,196.95,420.93,196.95z"/>
	<path style="fill:#B2303E;" d="M259.94,199c-0.14-0.15-0.28-0.3-0.42-0.46c0.15,0.14,0.31,0.27,0.46,0.41L259.94,199z"/>
	<path style="fill:#B73643;" d="M405.98,201.01c-0.16,0.14-0.31,0.29-0.47,0.43c0.14-0.16,0.27-0.33,0.41-0.49
		C405.92,200.95,405.98,201.01,405.98,201.01z"/>
	<path style="fill:#BA3A47;" d="M429.02,201.06c-0.18,0.13-0.37,0.27-0.55,0.4c0.13-0.18,0.26-0.37,0.4-0.55
		C428.86,200.9,429.02,201.06,429.02,201.06z"/>
	<path style="fill:#B33240;" d="M267.94,202.99c-0.14-0.15-0.28-0.31-0.42-0.46c0.15,0.14,0.31,0.28,0.46,0.41
		C267.99,202.95,267.94,202.99,267.94,202.99z"/>
	<path style="fill:#B2303E;" d="M299,202.94c0.14,0.16,0.27,0.32,0.41,0.47c-0.16-0.13-0.32-0.27-0.48-0.4L299,202.94z"/>
	<path style="fill:#B53441;" d="M286,204.94c0.14,0.16,0.27,0.32,0.41,0.48c-0.16-0.13-0.32-0.27-0.48-0.4L286,204.94z"/>
	<path style="fill:#B73643;" d="M400.91,205.94c0.16-0.14,0.32-0.28,0.48-0.42c-0.14,0.17-0.27,0.33-0.41,0.5L400.91,205.94z"/>
	<path style="fill:#B73643;" d="M400.98,206.01c-0.34,0.33-0.68,0.65-1.02,0.98l-0.03-0.03c0.32-0.34,0.65-0.68,0.97-1.02
		L400.98,206.01z"/>
	<path style="fill:#B73643;" d="M425.04,206.08c-0.34,0.32-0.69,0.64-1.03,0.97c0,0-0.12-0.12-0.12-0.12
		c0.32-0.34,0.65-0.68,0.97-1.03C424.85,205.9,425.04,206.08,425.04,206.08z"/>
	<path style="fill:#B73643;" d="M399.96,206.99c-0.15,0.13-0.29,0.26-0.44,0.4c0.14-0.14,0.27-0.29,0.41-0.43L399.96,206.99z"/>
	<path style="fill:#B73643;" d="M413.01,207.04c-0.18,0.13-0.36,0.26-0.53,0.38c0.13-0.17,0.26-0.35,0.39-0.52
		C412.86,206.9,413.01,207.04,413.01,207.04z"/>
	<path style="fill:#B73643;" d="M424.01,207.05c-0.17,0.13-0.34,0.26-0.51,0.39c0.13-0.17,0.26-0.34,0.38-0.51L424.01,207.05z"/>
	<path style="fill:#BA3A47;" d="M433.99,207.02c-0.17,0.14-0.34,0.28-0.51,0.42c0.14-0.17,0.28-0.34,0.42-0.51
		C433.89,206.93,433.99,207.02,433.99,207.02z"/>
	<path style="fill:#B53441;" d="M278.94,209c-0.14-0.16-0.27-0.31-0.41-0.47c0.16,0.14,0.31,0.27,0.47,0.41L278.94,209z"/>
	<path style="fill:#B73643;" d="M395.93,209.96c0.15-0.13,0.3-0.27,0.45-0.4c-0.14,0.15-0.28,0.29-0.41,0.44L395.93,209.96z"/>
	<path style="fill:#B53441;" d="M408.93,209.94c0.16-0.14,0.32-0.27,0.48-0.41c-0.14,0.15-0.28,0.31-0.42,0.46L408.93,209.94z"/>
	<path style="fill:#B73643;" d="M394.91,210.92c0.34-0.32,0.68-0.64,1.03-0.96c0,0,0.03,0.03,0.03,0.03
		c-0.32,0.34-0.65,0.68-0.97,1.02C395,211.01,394.91,210.92,394.91,210.92z"/>
	<path style="fill:#BA3A47;" d="M420.88,210.92c0.17-0.15,0.35-0.29,0.52-0.44c-0.14,0.18-0.28,0.36-0.41,0.54L420.88,210.92z"/>
	<path style="fill:#BA3A47;" d="M420.99,211.02c-0.34,0.33-0.68,0.65-1.02,0.98l-0.06-0.06c0.32-0.34,0.65-0.68,0.97-1.02
		C420.88,210.92,420.99,211.02,420.99,211.02z"/>
	<path style="fill:#BA3A47;" d="M419.97,212c-0.16,0.13-0.32,0.27-0.48,0.4c0.14-0.15,0.28-0.3,0.42-0.46
		C419.91,211.94,419.97,212,419.97,212z"/>
	<path style="fill:#B73643;" d="M403.93,213.96c0.15-0.14,0.31-0.27,0.46-0.41c-0.14,0.15-0.29,0.29-0.43,0.44
		C403.97,213.99,403.93,213.96,403.93,213.96z"/>
	<path style="fill:#B73643;" d="M428.97,213c-0.16,0.14-0.32,0.27-0.48,0.41c0.14-0.15,0.29-0.31,0.43-0.46
		C428.91,212.95,428.97,213,428.97,213z"/>
	<path style="fill:#B73643;" d="M402.89,214.93c0.35-0.32,0.69-0.65,1.04-0.97c0,0,0.03,0.03,0.03,0.03
		c-0.32,0.34-0.65,0.69-0.97,1.03L402.89,214.93z"/>
	<path style="fill:#B73643;" d="M415.89,214.92c0.18-0.13,0.37-0.27,0.55-0.4c-0.14,0.18-0.28,0.36-0.42,0.53
		C416.02,215.05,415.89,214.92,415.89,214.92z"/>
	<path style="fill:#B73643;" d="M402.99,215.03c-0.17,0.13-0.34,0.27-0.51,0.4c0.14-0.17,0.28-0.33,0.41-0.5L402.99,215.03z"/>
	<path style="fill:#B73643;" d="M414.9,215.94c0.33-0.34,0.66-0.68,0.98-1.01l0.13,0.13c-0.34,0.32-0.68,0.65-1.02,0.97
		L414.9,215.94z"/>
	<path style="fill:#B73643;" d="M414.99,216.03c-0.16,0.13-0.32,0.26-0.48,0.39c0.13-0.16,0.26-0.32,0.39-0.48L414.99,216.03z"/>
	<path style="fill:#B73643;" d="M396.92,218.93c0.16-0.14,0.32-0.27,0.49-0.41c-0.14,0.16-0.28,0.32-0.41,0.48L396.92,218.93z"/>
	<path style="fill:#BA3A47;" d="M422.91,219.95c0.33-0.33,0.67-0.67,1-1c0,0,0.05,0.05,0.05,0.05c-0.33,0.34-0.66,0.67-0.99,1.01
		L422.91,219.95z"/>
	<path style="fill:#BA3A47;" d="M422.97,220c-0.16,0.14-0.33,0.28-0.49,0.43c0.14-0.16,0.29-0.32,0.43-0.48
		C422.91,219.95,422.97,220,422.97,220z"/>
	<path style="fill:#B73643;" d="M418.03,225.07c-0.19,0.13-0.38,0.26-0.58,0.39c0.13-0.19,0.26-0.38,0.39-0.57L418.03,225.07z"/>
	<path style="fill:#B73643;" d="M319.95,227.98c-0.14-0.15-0.28-0.3-0.42-0.45c0.09,0.02,0.22,0.01,0.28,0.07
		c0.08,0.09,0.11,0.23,0.17,0.35L319.95,227.98z"/>
	<path style="fill:#B02E3B;" d="M279.95,185.99c-0.14-0.15-0.28-0.3-0.42-0.46c0.15,0.14,0.3,0.28,0.45,0.43L279.95,185.99z"/>
	<path style="fill:#B02E3B;" d="M279.98,185.96c0.14,0.14,0.27,0.29,0.41,0.43c-0.15-0.13-0.29-0.27-0.44-0.4L279.98,185.96z"/>
	<path style="fill:#B33240;" d="M266.96,194.98c-0.14-0.15-0.28-0.29-0.42-0.44c0.09,0.02,0.22,0.02,0.27,0.07
		c0.08,0.09,0.11,0.23,0.16,0.35L266.96,194.98z"/>
	<path style="fill:#B33240;" d="M252.98,194.96c0.14,0.15,0.27,0.29,0.41,0.44c-0.14-0.14-0.29-0.27-0.43-0.41L252.98,194.96z"/>
	<path style="fill:#BA3A47;" d="M421.93,195.95c0.16-0.14,0.31-0.27,0.47-0.41c-0.14,0.15-0.28,0.3-0.42,0.46
		C421.97,196,421.93,195.95,421.93,195.95z"/>
	<path style="fill:#B53441;" d="M411.01,196.05c-0.17,0.13-0.34,0.26-0.52,0.38c0.13-0.17,0.25-0.35,0.38-0.52
		C410.88,195.92,411.01,196.05,411.01,196.05z"/>
	<path style="fill:#9E9E9E;" d="M292.8,124.25c-5.63-8.2-5.38-17.44-4.4-26.67c0.37-3.54,1.78-6.97,2.71-10.45
		c-0.07,4.31,0.55,8.77-0.35,12.9c-1.51,6.94-0.56,13.32,1.97,19.75C293.24,121.09,292.8,122.76,292.8,124.25z"/>
	<path style="fill:#6D6D6D;" d="M325.92,133c-0.33-3.42-0.29-6.93-1.1-10.24c-0.97-3.92,0.57-5.54,4.1-6.14
		c-2.03,3.03-2.39,6.16-1.45,9.76C328.03,128.55,329.63,131.57,325.92,133z"/>
	<path style="fill:#655A5B;" d="M317.77,94.45c-1.35-0.63-3.09-0.92-3.97-1.95c-2.53-3-4.72-6.29-7.04-9.47
		c1.45,0.9,3.2,1.53,4.28,2.75C313.46,88.51,315.55,91.54,317.77,94.45z"/>
	<path style="fill:#9E9E9E;" d="M311.29,141.15c-3.13-1.71-6.26-3.42-9.38-5.13C305.04,137.73,308.17,139.44,311.29,141.15z"/>
	<path style="fill:#9E9E9E;" d="M321.81,144.71c-2.61-0.58-5.22-1.16-7.84-1.74C317.13,141.1,319.72,141.78,321.81,144.71z"/>
	<path style="fill:#9E9E9E;" d="M311.35,135.36c-0.93-0.9-1.86-1.8-2.79-2.7c0.53-0.57,1.06-1.14,1.6-1.71
		c1.02,0.89,2.04,1.77,3.06,2.66C312.59,134.19,311.97,134.78,311.35,135.36z"/>
	<path style="fill:#8E8E8E;" d="M317.98,85.96c3.01,0.97,3.01,0.97,0.72,4.77c-0.36-2.21-0.56-3.46-0.77-4.72L317.98,85.96z"/>
	<path style="fill:#9E9E9E;" d="M308.1,126.66c0.88-0.62,1.77-1.25,2.63-1.85c0.5,0.6,0.87,1.02,0.86,1.04
		c-0.81,0.79-1.65,1.54-2.49,2.29C308.76,127.65,308.43,127.15,308.1,126.66z"/>
	<path style="fill:#6D6D6D;" d="M300.04,111.05c-1.4,1.39-2.81,2.77-4.21,4.16C297.23,113.82,298.63,112.44,300.04,111.05z"/>
	<path style="fill:#6D6D6D;" d="M307,98.97c-0.71,1.32-1.42,2.64-2.12,3.96C302.85,100.15,304.65,99.41,307,98.97z"/>
	<path style="fill:#9E9E9E;" d="M318.87,82.64c-0.16-0.22-0.32-0.45-0.48-0.67c0.32-0.17,0.65-0.33,0.97-0.5
		c0.1,0.27,0.33,0.6,0.25,0.8C319.53,82.46,319.13,82.52,318.87,82.64z"/>
	<path style="fill:#6D6D6D;" d="M302.14,109.88c-0.71,0.4-1.43,0.79-2.14,1.19C300.71,110.67,301.43,110.27,302.14,109.88z"/>
	<path style="fill:#8E8E8E;" d="M299.93,134.04c-0.44-0.33-0.88-0.66-1.32-0.99C299.05,133.37,299.49,133.7,299.93,134.04z"/>
	<path style="fill:#8E8E8E;" d="M300.92,135.04c-0.34-0.34-0.68-0.68-1.01-1.01C300.25,134.36,300.58,134.7,300.92,135.04z"/>
	<path style="fill:#9E9E9E;" d="M301.95,136.04c-0.35-0.35-0.7-0.7-1.05-1.04C301.25,135.34,301.6,135.69,301.95,136.04z"/>
	<path style="fill:#8E8E8E;" d="M317.93,86.01c-0.13-0.15-0.26-0.3-0.4-0.45c0.15,0.13,0.3,0.27,0.45,0.4
		C317.98,85.96,317.93,86.01,317.93,86.01z"/>
	<path style="fill:#927577;" d="M314.03,165.89c-5.38,1.67-10.77,3.34-16.15,5.01c-2.65-0.54-5.09,0.32-7.62,0.98
		c-7.29,1.9-10.89-0.5-12.26-7.89c-0.21-3.47,1.45-3.37,3.79-2c2.31,4.01,6.12,4.99,10.36,5.09c6-0.9,11.99-1.9,18.02-2.6
		C311.39,164.34,312.74,165.39,314.03,165.89z"/>
	<path style="fill:#927577;" d="M268.92,143.02c0.14-0.76,0.29-1.51,0.43-2.27c6.69,1.97,10.82,8.1,9.43,14.67
		c-0.35,1.63-2.17,2.95-3.31,4.41c-3.37-1.64-0.19-4.64-1.4-6.73c-0.01-1.4-0.03-2.79-0.04-4.19c0.64-0.69,0.49-1.33-0.12-1.94
		l0.07,0.07c-0.31-0.4-0.69-0.72-1.06-1.06C271.58,144.99,270.25,144.01,268.92,143.02z"/>
	<path style="fill:#D5B7BA;" d="M281.97,145c-0.89-0.16-1.77-0.32-2.66-0.48c-0.17-0.38-0.35-0.76-0.52-1.14
		c2.72-1.8,5.44-3.6,8.17-5.4c0,0,0.01,0.01,0.01,0.01c-0.23,1.09-0.45,2.19-0.81,3.88c1.64-0.7,2.85-1.22,4.71-2.01
		c-3.48,3.52-6.42,6.5-9.77,9.89c0.31-1.79,0.58-3.29,0.84-4.79L281.97,145z"/>
	<path style="fill:#DDBFC2;" d="M270.54,136.27c0.14-0.3,0.38-0.59,0.39-0.89c0.18-9.19,0.17-9.19,8.89-11.82
		c0.47,0.51,0.95,1.02,1.42,1.53c-0.9,0.69-1.72,1.59-2.73,2.04c-3.48,1.55-5.44,3.63-3.59,7.68c0.29,0.64-0.06,1.58-0.14,2.86
		c-1.6-0.39-2.94-0.72-4.28-1.05C270.49,136.62,270.54,136.27,270.54,136.27z"/>
	<path style="fill:#A3878A;" d="M278,163.98c2.83,7.15,7.96,8.43,14.82,6.16c1.44-0.48,3.36,0.46,5.06,0.75
		c-2.28,0.69-4.56,1.38-6.84,2.07c-3.98,0.51-7.97,2.16-11.92-0.12l-0.02-0.03c-1.01-2.84-3.81-5.19-2.35-8.7
		C277.16,164.08,277.58,164.03,278,163.98z"/>
	<path style="fill:#655A5B;" d="M276.75,164.12c0.78,2.9,1.57,5.8,2.35,8.7c-2.43-5.07-4.87-10.15-7.3-15.22
		c0.75-1.5,1.51-3,2.26-4.5c0.47,2.24,0.94,4.49,1.4,6.73C275.89,161.26,276.32,162.69,276.75,164.12z"/>
	<path style="fill:#D5B7BA;" d="M331.25,156.52c-2.09-1.27-3.93-2.38-5.77-3.5c1.76-1.56,3.43-3.18,5.27-4.57
		c0.52-0.4,1.93-0.47,2.25-0.1c0.55,0.63,0.95,1.85,0.72,2.6C333.14,152.78,332.18,154.5,331.25,156.52z"/>
	<path style="fill:#DDBFC2;" d="M285.72,153.6c0.56-5.36,4.06-8.18,8.66-10.07C293.33,148.39,289.16,150.71,285.72,153.6z"/>
	<path style="fill:#DDBFC2;" d="M292.15,167.08c-5.98,2.06-9.74,0.21-10.36-5.09C285.24,163.68,288.7,165.38,292.15,167.08z"/>
	<path style="fill:#D5B7BA;" d="M286.95,135.62c-2.67,1.62-4.85,2.93-7.22,4.36C280.48,135.64,281.6,134.92,286.95,135.62z"/>
	<path style="fill:#D5B7BA;" d="M286.96,137.98c0.37-0.26,0.74-0.51,1.1-0.77c0.09,0.13,0.17,0.27,0.26,0.4
		c-0.45,0.13-0.9,0.26-1.35,0.38C286.97,137.99,286.96,137.98,286.96,137.98z"/>
	<polygon style="fill:#6F2E31;" points="270.54,136.27 270.49,136.62 270.61,136.25 	"/>
	<path style="fill:#655A5B;" d="M279.12,172.85c3.97,0.04,7.95,0.08,11.92,0.12C287.05,174.19,283.05,177.46,279.12,172.85z"/>
	<path style="fill:#8E8E8E;" d="M318.07,111.34c1.94-1.29,4.18-2.33,5.66-4.02c0.48-0.55-0.69-3.1-1.67-4.25
		c-1.6-1.85-3.39-1.66-4.96,1.01c1.23,0.57,2.28,1.07,3.32,1.55c-0.08,0.38-0.14,0.95-0.2,0.95c-1.41,0.01-2.83-0.04-4.24-0.07
		c0.11-1.79-0.42-4.1,0.5-5.24c0.9-1.12,4.37-1.91,4.81-1.36c1.9,2.43,4.38,5.47,4.23,8.16c-0.18,3.48-3.7,5.14-7.49,4.76
		C317.39,112.31,317.42,111.81,318.07,111.34z"/>
	<path style="fill:#8E8E8E;" d="M311.76,110.21c-3.41-4.26-3.54-4.98-1.53-9.07c0.72,2.93,1.4,5.68,2.08,8.42
		C312.46,110.06,312.28,110.28,311.76,110.21z"/>
	<path style="fill:#9E9E9E;" d="M318.07,111.34c-0.02,0.5-0.04,1-0.05,1.5c-1.75-0.57-3.5-1.13-5.24-1.7
		c0.46-0.57,0.99-0.64,1.59-0.22C315.6,111.05,316.84,111.2,318.07,111.34z"/>
	<path style="fill:#8E8E8E;" d="M314.36,110.91c-0.53,0.07-1.06,0.15-1.59,0.22c-0.34-0.31-0.68-0.62-1.02-0.93
		c0.19-0.21,0.38-0.43,0.55-0.65C313,110.01,313.68,110.46,314.36,110.91z"/>
	<path style="fill:#DDBFC2;" d="M263.96,144.99c1.46,0.06,2.92,0.13,4.95,0.22c-1.29,2.69-2.38,4.98-3.49,7.28
		C261.23,150.5,261.23,150.5,263.96,144.99L263.96,144.99z"/>
	<path style="fill:#655A5B;" d="M273.91,146.97c0.04,0.65,0.08,1.3,0.12,1.94C273.98,148.27,273.94,147.62,273.91,146.97z"/>
	<path style="fill:#655A5B;" d="M272.92,145.98c0.35,0.35,0.7,0.71,1.06,1.06C273.62,146.68,273.27,146.33,272.92,145.98z"/>
	<path style="fill:#B7989B;" d="M281.97,145c0.35-0.25,0.69-0.51,1.04-0.76c-0.36,0.24-0.71,0.49-1.07,0.73L281.97,145z"/>
</g>
</svg>
