<?xml version="1.0" encoding="utf-8"?>
<!-- Generator: Adobe Illustrator 24.0.0, SVG Export Plug-In . SVG Version: 6.00 Build 0)  -->
<svg version="1.1" id="Calque_1" xmlns="http://www.w3.org/2000/svg" xmlns:xlink="http://www.w3.org/1999/xlink" x="0px" y="0px"
	 viewBox="0 0 218.25 95.06" style="enable-background:new 0 0 218.25 95.06;" xml:space="preserve">
<style type="text/css">
	.st0{fill:#87BC25;}
	.st1{fill:#158236;}
</style>
<path class="st0" d="M43.09,32.87c0,0,28.86-40.16,75.13-31.69c4.54,0.83,8.67,1.71,12.44,2.63c2.1,0.51-20.94,30.17-20.94,30.17
	S140.78,6.6,142.67,7.24c17.96,6.02,25.19,13.13,32.81,19.53c0.76,0.64-5.3,10.35-5.79,11.21c0,0,11.82-6.45,13.95-5.11
	c16.47,10.35,34.6,17.05,34.6,17.05s-27.99,49.58-92.38,44.82S47.3,46.99,47.3,46.99L43.09,32.87z"/>
<g>
	<path class="st1" d="M5.75,1.97c6.82,3.98,13.48,8.02,20.13,12.22c3.32,2.09,6.62,4.23,9.9,6.43c1.64,1.09,3.27,2.22,4.9,3.35
		l4.76,3.39c6.13,4.49,12.58,8.54,19.23,12.25c6.66,3.7,13.53,7.05,20.62,9.9c14.18,5.72,29.12,9.72,44.41,11.78
		c7.64,1,15.36,1.58,23.11,1.59c7.74,0.01,15.51-0.42,23.17-1.77c-7.55,1.88-15.33,2.85-23.12,3.38c-7.8,0.53-15.64,0.48-23.47,0
		c-15.66-1.02-31.24-4.05-46.29-8.94c-7.53-2.44-14.89-5.41-22.08-8.78c-7.18-3.38-14.21-7.14-20.94-11.39l-2.53-1.56l-2.4-1.53
		c-1.62-1.01-3.23-2.01-4.88-2.99c-3.28-1.97-6.6-3.9-9.96-5.79C13.62,19.72,6.8,16.03,0,12.5L5.75,1.97z"/>
</g>
<g>
	<path class="st1" d="M68.69,46.09c2.72-2.64,5.56-5.11,8.44-7.54c2.88-2.43,5.82-4.78,8.78-7.1c2.98-2.29,5.98-4.57,9.05-6.75
		c3.06-2.19,6.17-4.33,9.4-6.31c-2.72,2.64-5.56,5.12-8.44,7.54c-2.88,2.43-5.82,4.78-8.79,7.1c-2.99,2.29-5.98,4.57-9.06,6.75
		C75.02,41.97,71.92,44.1,68.69,46.09z"/>
</g>
<g>
	<path class="st1" d="M111.32,59.94c2.01-2.08,4.14-4.01,6.32-5.89c2.17-1.88,4.4-3.68,6.66-5.45c2.27-1.74,4.57-3.47,6.93-5.1
		c2.35-1.64,4.75-3.23,7.27-4.66c-2.01,2.09-4.14,4.02-6.31,5.89c-2.17,1.88-4.4,3.68-6.66,5.45c-2.28,1.74-4.57,3.47-6.93,5.1
		C116.24,56.92,113.84,58.51,111.32,59.94z"/>
</g>
</svg>
