<?xml version="1.0" encoding="utf-8"?>
<!-- Generator: Adobe Illustrator 24.0.0, SVG Export Plug-In . SVG Version: 6.00 Build 0)  -->
<svg version="1.1" id="Calque_1" xmlns="http://www.w3.org/2000/svg" xmlns:xlink="http://www.w3.org/1999/xlink" x="0px" y="0px"
	 viewBox="0 0 320.88 198.49" style="enable-background:new 0 0 320.88 198.49;" xml:space="preserve">
<g>
	<path style="fill:#D25558;" class="main-color" d="M82.78,106.8c-11.59-5.73-22.05-12.86-29.43-23.78c-3.57-5.28-5.06-11.2-4.35-17.5
		c0.93-8.24,6.55-12.77,13.56-15.79c5.66-2.44,11.67-3.71,17.87-3.84c4.82-0.1,9.64-0.1,14.45-0.15c0.26,0.23,0.56,0.5,0.85,0.46
		c9.04-1.25,17.39,1.51,25.79,4.25c8.12,2.65,16.68,3.15,25.01,4.77c16.27,3.15,31.56,9.51,47.24,14.53
		c11.08,3.55,22.2,7.03,33.09,11.18c0.75,0.29,1.63,0.36,2.11,1.15c-10.97-5.86-23.2-8.21-34.71-12.58
		c-8.25-3.13-16.74-5.61-24.92-8.92c-11.86-4.8-24.38-6.61-36.9-8.55c-9.9-1.53-19.53-4.2-28.75-8.19
		c-8.34-6.23-13.37-14.66-16.07-24.54c-2.26-8.25,2.67-15.35,11.11-16.68c4.03-0.63,7.8-0.15,11.76,0.68
		c9.53,1.99,18.26,5.87,27.07,9.78c6.96,3.09,14.27,5.41,21.42,8.06c2.96,0.4,5.08,2.46,7.35,4.03
		c18.57,12.76,38.75,22.56,58.89,32.47c8.93,4.39,17.34,9.81,26.42,13.95c-8.45-4.1-16.34-9.2-24.46-13.88
		c-14.27-8.22-29.93-13.77-43.73-22.87c-8.16-5.38-17.25-9.35-24.47-16.14c-1.86-2.93-2.25-6.19-2.01-9.54
		c0.31-4.44,3.33-7.4,7.57-8.58c4.6-1.27,8.75-0.3,13.03,1.21c8.78,3.08,17.33,6.52,24.3,12.97c1.42,0.41,2.8,0.8,3.99,1.84
		c11.53,10.15,22.78,20.62,33.85,29.69c-9.46-8.49-19.09-18.37-30.01-26.85c-2.19-1.7-5.24-3.23-4.98-6.9
		c8.85-12.85,24.06-12.1,33.67-2.85c6.94,6.67,13.63,13.59,20.43,20.4c8.7,8.71,17.48,17.35,26.1,26.15
		c9.66,9.86,19.16,19.88,28.76,29.8c1.26,1.3,2.78,2.35,4.08,3.63c1.04,1.03,2.19,2.1,2.8,3.39c0.76,1.58,0.1,2.93-1.79,3.33
		c-11.39,2.37-22.31,6.25-32.47,11.75c-7.54,4.08-14.7,9.07-21.43,14.41c-12.22,9.7-23.87,20.07-36.27,29.61
		c-18.29,14.07-37.91,25.72-58.51,35.91c-10.19,5.04-20.84,8.89-32.09,10.19c-5.64,0.65-11.6-0.25-17.26-1.31
		c-4.94-0.93-8.75-6.35-8.82-11.43c-0.04-2.59,0.66-5.18,1.02-7.77c10.41-4.37,20.98-8.3,31.48-12.45
		c21.03-8.31,42.46-15.92,61.75-27.91c13.68-8.51,27.79-16.41,40.64-26.26c-11,6.35-22.18,12.46-32.64,19.67
		c-11.88,8.18-24.83,14.16-37.93,19.92c-18.74,8.23-37.91,15.4-56.72,23.44c-2.12,0.91-4.26,1.95-6.7,1.64
		c-16.32,3.7-32.54,7.93-49.44,8.09c-2.64,0.03-5.28,0.59-7.92,0.76c-10.92,0.73-21.61-1.33-31.96-4.16
		c-8.83-2.42-16.91-6.82-21.29-15.93c-3-6.24-3.05-12.09,0.47-18.02c3.11-5.24,7.44-9.35,12.16-13.05
		c3.53-2.76,7.06-5.61,10.92-7.86c3.99-2.32,8.3-4.13,12.61-5.81c3.85-1.5,7.96-2.33,11.84-3.77c8.92-3.33,18.2-5,27.56-6.39
		c31.65-2.35,62.95-7.84,94.55-10.64c13.48-1.2,26.96-2.73,40.43-4.27c-13.81,0.04-27.35,2.75-41.05,3.86
		c-21.08,1.7-41.97,4.92-62.91,7.66c-6.76,0.88-13.43,2.35-20.31,1.94C86.47,108.09,84.46,108.16,82.78,106.8z"/>
	<path style="fill:#EB6A6D;" class="accent-color" d="M112.83,175.8c6.12-2.68,12.2-5.47,18.37-8.03c12.3-5.11,24.66-10.07,36.97-15.15
		c6.54-2.7,13.07-5.42,19.53-8.31c9.97-4.47,19.18-10.25,28.35-16.17c9.68-6.25,19.74-11.92,29.67-17.79
		c1.35-0.8,2.88-1.27,4.85-1.09c-0.95,1.01-1.75,2.25-2.88,2.98c-15.36,9.9-30.5,20.17-46.24,29.42
		c-9.34,5.49-19.57,9.53-29.53,13.92c-8.57,3.77-17.3,7.2-26.03,10.61c-9.33,3.65-18.73,7.12-28.13,10.59
		c-1.51,0.56-3.19,0.66-4.79,0.97C112.92,177.1,112.88,176.45,112.83,175.8z"/>
	<path style="fill:#E96A6D;" class="accent-color" d="M82.78,106.8c1.5-0.02,3-0.14,4.5-0.04c8.99,0.57,17.7-1.25,26.46-2.85
		c5.65-1.03,11.41-1.43,17.11-2.18c7.16-0.94,14.29-2.06,21.46-2.89c4.75-0.55,9.55-0.61,14.31-1.13
		c7.34-0.82,14.64-1.92,21.98-2.76c4.58-0.53,9.2-0.78,13.8-1.21c2.45-0.23,4.89-0.83,7.32-0.78c2.92,0.06,5.83,0.63,9.7,1.1
		c-1.64,0.86-2.4,1.51-3.24,1.65c-7.49,1.21-14.96,2.14-22.61,2.25c-6.16,0.08-12.3,1.82-18.47,2.64c-4.08,0.55-8.2,0.78-12.3,1.15
		c-7.54,0.68-15.11,1.2-22.63,2.08c-5.69,0.67-11.31,1.89-16.98,2.73c-3.58,0.53-7.2,0.73-10.79,1.17
		c-11.5,1.43-23.01,2.62-34.63,1.96c1.19-0.33,2.35-0.77,3.56-0.97C82.5,108.49,83.05,108.01,82.78,106.8z"/>
	<path style="fill:#EA6A6D;" class="accent-color" d="M103.69,43.83c1.93,0.31,3.94,0.38,5.78,0.97c10.34,3.28,20.8,5.78,31.64,7.09
		c10.59,1.28,20.94,4,30.81,8.31c3.15,1.38,6.52,2.26,9.77,3.44c6.15,2.22,12.27,4.5,18.42,6.71c1.54,0.55,3.12,1.08,4.72,1.38
		c9,1.68,17.02,6.04,25.46,9.24c0.41,0.16,0.71,0.64,2.04,1.91c-2.68-0.37-4.32-0.36-5.8-0.85c-7.62-2.54-15.17-5.29-22.8-7.8
		c-5.91-1.95-11.93-3.55-17.85-5.49c-6.52-2.14-12.89-4.72-19.46-6.67c-7.84-2.33-15.73-4.75-23.77-6.15
		c-10.35-1.81-20.74-3.22-30.63-7.02c-4.19-1.61-8.53-2.48-13.09-2.19c-1.33,0.08-2.7-0.61-4.06-0.94c3.09,0,6.18,0,9.63,0
		C104.17,44.94,103.93,44.38,103.69,43.83z"/>
	<path style="fill:#EA6A6D;" class="accent-color" d="M159,18.7c7.02,4.25,13.95,8.67,21.08,12.72c10.32,5.86,20.34,12.22,31.41,16.77
		c6.69,2.75,12.96,6.59,19.33,10.1c6.79,3.74,13.49,7.64,20.2,11.51c1.62,0.94,3.12,2.07,4.67,3.12c-0.18,0.35-0.35,0.71-0.53,1.06
		c-2.39-0.9-4.92-1.54-7.16-2.73c-8.9-4.72-17.66-9.68-26.56-14.41c-4.65-2.48-9.49-4.59-14.19-6.99
		c-7.18-3.66-14.46-7.18-21.44-11.22c-8.12-4.7-15.97-9.88-23.9-14.91c-1.09-0.69-1.95-1.72-2.92-2.59C159,20.32,159,19.51,159,18.7
		z"/>
	<path style="fill:#EA6A6D;"  class="accent-color"  d="M204.74,12.56c2.59,2.5,5.13,5.05,7.79,7.47c2.8,2.55,5.8,4.88,8.57,7.46
		c3.98,3.7,7.81,7.48,12.26,10.73c4.02,2.95,6.93,7.42,10.3,11.24c0.1,0.12-0.17,0.57-0.37,1.17c-0.56-0.23-1.2-0.32-1.62-0.68
		c-5.25-4.51-10.5-9-15.67-13.6c-4.15-3.69-8.14-7.54-12.27-11.25c-3.9-3.5-7.89-6.9-11.84-10.34
		C202.84,14.03,203.79,13.29,204.74,12.56z"/>
</g>
</svg>
