<?xml version="1.0" encoding="utf-8"?>
<!-- Generator: Adobe Illustrator 24.0.0, SVG Export Plug-In . SVG Version: 6.00 Build 0)  -->
<svg version="1.1" id="Calque_1" xmlns="http://www.w3.org/2000/svg" xmlns:xlink="http://www.w3.org/1999/xlink" x="0px" y="0px"
	 viewBox="0 0 189.81 194.66" style="enable-background:new 0 0 189.81 194.66;" xml:space="preserve">
<g>
	<path style="fill:#060607;" d="M56.93,132.44c6.91-16.34,13.66-32.76,20.76-49.02c11.58-26.48,23.35-52.87,35.2-79.23
		c0.8-1.79,3.24-4.44,4.31-4.18c2.21,0.54,5.19,2.42,5.77,4.37c2.16,7.29,4.14,14.75,5,22.28c3.57,31.36,6.73,62.76,10.01,94.15
		c0.83,7.93,1.6,15.88,2.39,23.81c-0.52,1.41-1.72,1.99-3.03,2.16c-3.49,0.47-6.46,2.15-9.44,3.85c-9.32,1.25-18.53,0.03-27.67-1.56
		c-13.12-2.29-25.81-6.05-37.82-11.9C60.2,136.1,57.83,135.08,56.93,132.44z"/>
	<path style="fill:#0A080A;" d="M148.29,162.75c11.39,4.07,22.92,7.79,34.06,12.43c3.07,1.28,5,5.29,7.45,8.04
		c-3.13,2.19-5.98,5.54-9.45,6.39c-18.35,4.51-37,5.58-55.93,4.83c-26.08-1.03-51.65-5.07-76.62-12.14
		c-13.17-3.73-25.64-10-38.28-15.47c-2.91-1.26-5.42-3.75-7.73-6.06c-3.05-3.06-2.07-6.05,1.68-7.36c4.79-1.68,9.79-3.19,14.81-3.73
		c10.4-1.1,20.87-1.51,31.32-2.2c1.7,0.06,2.74,1.16,3.52,2.45c2.57,4.26,6.74,6.32,11.1,8c13.91,5.38,28.3,8.31,43.25,8.32
		c7.61,0,15.21,0.85,22.81,0.13C137.2,169.65,142.82,166.58,148.29,162.75z"/>
	<path style="fill:#6C296A;" d="M132.04,167.45c-21.61,1.38-42.98,0.62-63.77-6.45c-7.7-2.62-14.7-5.89-18.66-13.52
		c2.44-5.01,4.88-10.02,7.31-15.03c19.67,11.4,41.09,16.34,63.6,17.22c2.65,0.1,5.3,0.1,7.95,0.15
		C130.95,155.43,132.12,161.32,132.04,167.45z"/>
	<path style="fill:#E8AF27;" d="M132.04,167.45c-1.19-5.88-2.37-11.77-3.56-17.65c2.11-1.22,4.14-2.6,6.35-3.59
		c1.73-0.78,3.69-1.07,5.54-1.58c0.18,1.56,0.36,3.12,0.53,4.68c-0.06,0.16-0.07,0.39-0.18,0.46c-6.1,3.91-6.28,4.63-3.06,12.27
		c2.62,0.99,4.45-2.03,6.99-1.5c1.21,0.74,2.42,1.47,3.63,2.21C144.38,168.49,136.02,170.91,132.04,167.45z"/>
	<path style="fill:#73306B;" d="M144.66,160.54c-2.54,1.43-5.08,2.85-8.23,4.62c-1.02-5.17-1.88-9.49-2.79-14.1
		c2.82-0.68,5.04-1.21,7.26-1.74C142.16,153.05,143.41,156.79,144.66,160.54z"/>
</g>
</svg>
