<?xml version="1.0" encoding="utf-8"?>
<!-- Generator: Adobe Illustrator 24.0.0, SVG Export Plug-In . SVG Version: 6.00 Build 0)  -->
<svg version="1.1" id="Calque_1" xmlns="http://www.w3.org/2000/svg" xmlns:xlink="http://www.w3.org/1999/xlink" x="0px" y="0px"
	 viewBox="0 0 279.96 141.55" style="enable-background:new 0 0 279.96 141.55;" xml:space="preserve">
<g>
	<path style="fill:#942421;" d="M279.96,78.01c0,0.67,0,1.33,0,2c-1.08,2.32-0.26,4.77-0.51,7.14c0,1.65,0,3.31,0,4.96
		c0.57,13.46-2.74,26.26-6.59,38.97c-0.45,1.49-1.25,2.87-2.63,3.48c-9.66,4.26-19.72,6.22-30.3,4.8c-1.61-3.6,1.26-6.28,2.05-9.35
		c1.87-7.24,2.36-14.71,3.98-21.97c0.82-2.26,0.52-4.63,0.58-6.95c-0.18-3.73,0.53-7.51-0.59-11.19c-0.18-0.43-0.32-0.88-0.43-1.33
		c-0.14-1.74,0.32-3.52-0.33-5.24c-0.16-0.62-0.25-1.26-0.36-1.89c-0.11-1.04-0.23-2.09-0.57-3.09c-0.14-0.41-0.24-0.82-0.33-1.24
		c-0.24-2.34-0.49-4.68-1.4-6.88c-0.16-0.38-0.28-0.78-0.39-1.18c-0.22-0.77-0.42-1.54-0.69-2.3c-0.16-0.36-0.28-0.73-0.41-1.1
		c-0.31-0.96-0.87-1.76-1.54-2.5c-1.35-1.98-1.92-4.27-2.54-6.53c-0.17-1.01-0.4-2.01-0.97-2.9c-0.42-0.7-0.86-1.39-0.99-2.22
		c-0.13-0.77-0.29-1.54-0.45-2.3c-0.12-0.34-0.21-0.69-0.32-1.03c-0.2-0.47-0.42-0.94-0.73-1.36c-0.25-0.24-0.49-0.48-0.75-0.71
		c-0.29-0.21-0.55-0.44-0.81-0.69c-0.51-0.59-0.84-1.26-1.02-2.02c-0.18-0.56-0.38-1.11-0.7-1.6c-0.25-0.26-0.49-0.53-0.73-0.74
		c0.02,0.05-0.42-0.07-0.38,0.01c8.86,14.54,13.82,30.3,16.34,47.01c2.47,16.36-0.88,31.89-5.6,47.31c-0.57,1.87-1.31,3.8-3.17,4.94
		c-5.7,1.53-11.58,0.84-17.33,1.02c-19.27,0.6-38.54-0.19-57.79-1.34c-2-0.12-3.99,0.14-5.98,0.04c-7.53-1.26-15.19-1.7-22.66-3.34
		c-2.56-0.56-5.37-0.76-6.74-3.6c-0.05-3.22,0.38-6.43,0.45-9.65c1.86-6.6,0.97-13.45,1.77-20.16c1.71-14.3,1.49-28.82,3.76-43.02
		c2.09-13.11,5.25-26.13,13.63-37.06c0.38-0.53,0.87-0.96,1.04-1.06c-0.09,0.12-0.54,0.53-0.97,0.97
		c-8.69,11.7-11.95,25.33-13.89,39.37c-1.94,14.06-2.12,28.29-3.67,42.39c-0.65,5.9-0.7,11.85-1.1,17.78
		c-1.68,3.24,0.01,7.05-1.75,10.28c-1.78,1.77-3.98,1.5-6.09,1.07c-16.16-3.31-31.27-9.02-44.21-19.6
		c-4.77-3.9-8.75-8.27-7.75-15.15c2.42-23.46,7.11-46.4,16.6-68.11c4.85-11.09,13-18.65,25-21.91c17.43-4.73,35.03-8.06,53.18-7.74
		c1.83,0.03,3.68-0.06,5.38,0.81c0.73,0.46,1.07,1.15,1.15,1.98c0,1.55-1.04,2.11-2.33,2.42c-0.82,0.76-1.43,1.74-2.44,2.3
		c-1.12,1.01-2.6,1.3-3.9,1.95c-0.61,0.85-1.3,1.61-2.23,2.14c-0.84,0.57-1.69,1.11-2.46,1.64c0.06-0.04-0.06,0.06-0.06,0.06
		s0.16-0.18,0.22-0.22c0.89-0.48,1.68-1.02,2.44-1.56c0.93-0.51,1.56-1.33,2.21-2.14c1.38-0.48,2.76-0.94,3.88-1.92
		c1.02-0.52,1.54-1.55,2.38-2.27c1.26-0.04,2.11-1.03,3.22-1.41c6.21,0.32,12.45,0.37,18.52,1.97c0.75,0.96,1.73,1.4,2.95,1.31
		c0.7,0.29,1.25,0.92,2,0.97c-0.06-0.02,0.15,0.12,0.15,0.12s-0.08-0.06-0.14-0.08c-0.68-0.18-1.2-0.54-1.73-0.92
		c-1.05-0.23-2.26-0.05-2.92-1.21c-0.45-0.99-0.34-1.9,0.39-2.72c1.28-0.75,2.61-0.47,3.87-0.05c17.8,5.97,36.27,10.04,52.96,19.11
		c20.82,11.32,31.96,28.82,33.72,52.37C279.5,76.82,279.46,77.49,279.96,78.01z"/>
	<path style="fill:#2A1110;" d="M0,105.01c3.49-4.97,8.96-5.19,13.93-4.62c6.45,0.74,12.85,0.44,19.26,0.54
		c9.81,0.15,19.62-0.04,29.43-0.19c2.11-0.03,4.21-0.52,6.31-0.8c-1.42,3.76,0.65,6.84,2.85,9.11c3.53,3.64,7.59,6.89,11.83,9.7
		c10.09,6.67,21.39,10.55,33.11,13.2c2.7,0.61,5.52,0.73,8.28,1.07c0.65-0.61,1.3-0.61,1.93,0.03c3.32,2.28,7.28,2.24,11.01,2.91
		c5.69,1.03,11.41,1.81,17.12,2.7c-2.38,2.86-5.83,2.23-8.8,2.24c-31.46,0.14-62.95,0.61-94.25-3.42
		c-15.04-1.94-29.22-6.37-41.92-15.06c-4.69-3.21-8.62-6.74-10.1-12.42C0,108.34,0,106.67,0,105.01z"/>
	<path style="fill:#A34341;" d="M279.05,87.15c-0.04-1.92-0.15-3.85-0.07-5.77c0.02-0.47,0.64-0.91,0.98-1.37c0,2.33,0,4.67,0,7
		C279.72,87.43,279.41,87.49,279.05,87.15z"/>
	<path style="fill:#E4C8C7;" d="M279.05,87.15c0.3-0.06,0.61-0.11,0.92-0.14c0,1.67,0,3.33,0,5c-0.27,0.05-0.55,0.06-0.82,0.05
		C279.11,90.42,279.08,88.79,279.05,87.15z"/>
	<path style="fill:#6A1716;" d="M239.96,138.86c-1.02,0.09-2.04,0.19-3.06,0.28c3.81-5.93,4.52-12.8,6.11-19.44
		c2.29-9.57,2.28-19.29,1.81-28.97c-0.22-4.64-1.89-9.2-2.84-13.8c-2.09-10.11-5.65-19.71-10.08-28.99
		c-1.68-3.51-3.9-6.75-5.97-10.28c2.87-1.46,2.5,1.96,3.96,2.36c0.37,0.33,0.76,0.64,1.07,1.03l-0.02-0.02
		c0.64,0.55,0.45,1.51,1.03,2.09c0.3,0.63,0.59,1.27,0.89,1.9c0.4,0.31,0.78,0.63,1.1,1.02l-0.02-0.02
		c0.63,0.53,0.45,1.46,1.02,2.02l-0.02-0.02c0.95,0.82,0.12,2.24,1.03,3.07c0.31,0.64,0.62,1.28,0.93,1.92
		c1.01,0.79,0.14,2.24,1.07,3.06c0.65,2.46,0.91,5.09,2.98,6.94c0.92,0.82,0.1,2.21,1,3.03l-0.02-0.02c0.94,0.8,0.12,2.2,1.01,3.02
		l-0.01-0.01c1.13,2.9,1.2,6.04,2.02,9.01l-0.02-0.02c0.95,0.82,0.13,2.24,1.02,3.08c0.02,0.65,0.03,1.3,0.05,1.95
		c0.7,1.64,0.69,3.28,0.01,4.92c-0.01,0.35-0.02,0.7-0.02,1.05c2.05,3.82,1.33,7.98,1.47,12.03c-0.24,2.31,0.54,4.7-0.5,6.96
		c-0.66,3.34-1.84,6.67-1.88,10.02c-0.09,6.91-2.68,13.06-4.89,19.36C240.04,137.86,240.03,138.37,239.96,138.86z"/>
	<path style="fill:#691615;" d="M146.98,22.02c-1.32,2.6-2.59,5.23-3.96,7.8c-3.99,7.52-6.64,15.39-8.26,23.83
		c-1.45,7.59-2.65,15.09-2.88,22.83c-0.22,7.35-0.83,14.75-2.09,21.99c-0.67,3.81-0.52,7.53-0.82,11.28
		c-0.34,4.24-0.78,8.47-1.23,12.71c-0.02,0.21-0.49,0.37-0.75,0.55l0,0c0-3.56,0-7.12,0-10.68c0-6.59,0.94-13.08,1.92-19.57
		c0.27-1.79-0.04-3.67,0.11-5.49c0.22-2.77,0.39-5.57,0.97-8.27c0.52-2.42-0.95-4.52-0.23-7.16c1.1-4.05,0.81-8.47,1.26-12.72
		c0.24-2.26,0.68-4.53,1.3-6.71c1.1-3.91,2.82-7.69,3.54-11.66c1.25-6.9,5.22-12.3,8.94-17.88
		C145.14,22.34,146.23,22.29,146.98,22.02C146.98,22.02,146.98,22.02,146.98,22.02z"/>
	<path style="fill:#2E1211;" d="M167.66,2.68c0.21-2.11,1.55-2.7,3.46-2.67c3.48,0.05,6.97-0.01,10.45,0.02
		c3.55,0.03,5.55,2.43,7.44,4.98c-0.02,1.01-0.03,2.03-0.05,3.04L188.99,8c-1.68-0.05-3.27-1.54-5.08-0.09
		c-0.5,0.4-1.61,0.13-2.43,0.04c-2.75-0.28-5.51-0.56-8.25-0.95c-1.43-0.21-2.83-0.66-4.25-1.01c-0.46-0.2-0.78-0.53-0.93-1.02
		C167.92,4.21,167.79,3.44,167.66,2.68z"/>
	<path style="fill:#B13634;" d="M186.9,42.12c-0.09,0.91-0.18,1.82-0.29,2.89c-3.34-2.02-4.67-4.73-3.43-7.24
		c0.41-0.82,1.68-1.42,2.68-1.7c1.35-0.38,2.22,0.31,2.06,1.87C187.4,39.29,186.91,40.65,186.9,42.12z"/>
	<path style="fill:#761A19;" d="M173.38,133.47c5.8-0.74,11.55-0.67,17.54,1.11C184.72,136.03,179.1,133.92,173.38,133.47z"/>
	<path style="fill:#691615;" d="M253.1,33.61c1.32,0.96,2.64,1.92,4.38,3.2c-1.45,1.23-2.5,2.11-3.75,3.16
		c-2.22-1.59-0.5-3.96-1.48-5.75C252.53,34.01,252.81,33.81,253.1,33.61z"/>
	<path style="fill:#6A1716;" d="M212.97,24.03c-2.73-1.95-5.45-3.89-8.18-5.84c0.25-0.31,0.5-0.62,0.75-0.92
		c3.62,0.84,6.31,2.83,7.44,6.74C212.98,24.01,212.97,24.03,212.97,24.03z"/>
	<path style="fill:#6A1716;" d="M225.52,35.62c-3.14-0.85-4.63-3.51-7.22-5.89C221.68,29.74,223.12,30.95,225.52,35.62z"/>
	<path style="fill:#681615;" d="M189.82,45.95c0.54-2.55,1.05-4.95,1.6-7.5c2.38,1,1.75,3.18,1.34,4.81
		C192.44,44.55,191.91,46.62,189.82,45.95z"/>
	<path style="fill:#6B1716;" d="M216.98,135.02c4.87,0,9.74,0,14.61,0c0,0.33-0.01,0.65-0.01,0.98c-4.87,0-9.73,0-14.6,0
		c-0.2-0.22-0.27-0.43-0.2-0.65C216.84,135.13,216.91,135.02,216.98,135.02z"/>
	<path style="fill:#A22E2C;" d="M247.01,101c-0.34-3.99-0.68-7.99-1.02-11.98c1.72,0.59,2.04,1.9,2,3.54
		c-0.07,2.81-0.02,5.63-0.03,8.45C247.65,101.47,247.33,101.5,247.01,101z"/>
	<path style="fill:#6A1716;" d="M186.9,42.12c-0.66-0.63-1.33-1.27-2.54-2.43c1.49-0.73,2.53-1.24,3.57-1.75
		C189.65,40.28,189.43,41.2,186.9,42.12z"/>
	<path style="fill:#691615;" d="M126.94,133.05c-0.64-0.01-1.29-0.02-1.93-0.03c1.14-3.25,0.19-6.9,1.98-10.02l0,0
		C126.97,126.36,126.95,129.7,126.94,133.05z"/>
	<path style="fill:#691615;" d="M109.98,18.08c0.04,2.07-1.36,3.01-3.58,4.28c-0.16-1.69-0.28-2.97-0.4-4.25
		C107.32,16.92,108.64,16.94,109.98,18.08z"/>
	<path style="fill:#AC3532;" d="M244.95,78.04c-1.75-2.76-2.05-5.85-2.02-9.01C245.37,71.64,244.98,74.88,244.95,78.04z"/>
	<path style="fill:#AB3330;" d="M109.98,18.08c-1.33,0.01-2.65,0.02-3.98,0.03c-0.1-1.41,0.43-2.11,1.97-2.11
		C109.49,16,110.08,16.64,109.98,18.08z"/>
	<path style="fill:#7D1C1B;" d="M156.52,131.78c-2,0-4,0-6,0c0-0.16,0-0.32,0-0.48c2,0,4,0,6,0
		C156.52,131.46,156.52,131.62,156.52,131.78z"/>
	<path style="fill:#A02B28;" d="M247.01,101c0.32,0,0.63,0,0.95,0c0,1.67,0.1,3.34-0.04,5c-0.06,0.69-0.63,1.34-0.96,2.01
		C246.98,105.68,247,103.34,247.01,101z"/>
	<path style="fill:#791B1A;" d="M171.3,132.86c-1.87,0-3.75,0-5.62,0c0-0.16,0-0.32,0-0.48c1.93,0,3.86,0,5.79,0
		C171.42,132.53,171.36,132.7,171.3,132.86z"/>
	<path style="fill:#681615;" d="M260.97,131.01c-1.36,1.81-3.03,0.77-4.63,0C257.88,131,259.43,131,260.97,131.01L260.97,131.01z"/>
	<path style="fill:#AD3431;" d="M135.57,129.77c-1.34,0-2.68,0-4.02,0c0-0.15-0.01-0.31-0.01-0.46c1.34,0,2.68,0,4.02,0
		C135.57,129.46,135.57,129.62,135.57,129.77z"/>
	<path style="fill:#691615;" d="M159.97,11.01c1.33-0.67,2.67-1.33,4-2c0,0,0.01,0.01,0.01,0.01c-0.66,2.01-2.27,2.13-4,2
		C159.99,11.03,159.97,11.01,159.97,11.01z"/>
	<path style="fill:#6A1716;" d="M201.67,14.94c0.69,0.23,1.38,0.46,2.08,0.69c-0.17,0.4-0.33,0.8-0.5,1.19
		c-0.67-0.31-1.34-0.62-2.01-0.93C201.38,15.58,201.52,15.26,201.67,14.94z"/>
	<path style="fill:#AD3431;" d="M246.01,87.97c0-1.64,0-3.28-0.01-4.92C247.53,84.69,247.53,86.33,246.01,87.97z"/>
	<path style="fill:#691615;" d="M154.98,15.02c0.49-1.43,1.48-2.11,3-2l0,0.01C157.49,14.45,156.5,15.14,154.98,15.02L154.98,15.02z
		"/>
	<path style="fill:#6A1716;" d="M168.05,4.98c0.31,0.34,0.62,0.68,0.93,1.02c-1,0.35-1.99,0.69-2.99,1.04c0,0-0.02-0.02-0.02-0.02
		C166.66,6.33,167.36,5.66,168.05,4.98z"/>
	<path style="fill:#691615;" d="M154.98,15.02c0.06,1.8-0.79,2.32-2.93,1.62C153.23,15.99,154.1,15.51,154.98,15.02L154.98,15.02z"
		/>
	<path style="fill:#B13634;" d="M237.97,56.08c-0.36-1.02-0.71-2.04-1.07-3.06C238.62,53.55,237.75,55,237.97,56.08z"/>
	<path style="fill:#AC3532;" d="M241.95,66.04c-0.33-1.01-0.67-2.02-1-3.03C241.28,64.02,241.62,65.03,241.95,66.04z"/>
	<path style="fill:#AC3532;" d="M242.94,69.04c-0.34-1.01-0.67-2.01-1.01-3.02C243.61,66.58,242.77,67.98,242.94,69.04z"/>
	<path style="fill:#6A1716;" d="M163.97,9.01c0.67-0.67,1.33-1.33,2-2l0.02,0.02c0.14,1.47-0.55,2.12-2,2L163.97,9.01z"/>
	<path style="fill:#691615;" d="M157.98,13.02c0.66-0.67,1.33-1.34,1.99-2c0,0,0.02,0.02,0.02,0.02
		C160.13,12.51,159.43,13.14,157.98,13.02C157.98,13.02,157.98,13.02,157.98,13.02z"/>
	<path style="fill:#AE3533;" d="M107.37,121.99c-0.67-0.08-1.34-0.16-2.01-0.23c0-0.2,0.01-0.39,0.01-0.59
		c0.7-0.04,1.4-0.09,2.1-0.13C107.44,121.35,107.4,121.67,107.37,121.99z"/>
	<path style="fill:#2E1211;" d="M188.95,8.04c0.99,0.32,1.98,0.64,2.98,0.96c0,0,0.01-0.02,0.01-0.02
		c-0.98-0.33-1.97-0.65-2.95-0.98C188.99,8,188.95,8.04,188.95,8.04z"/>
	<path style="fill:#B13634;" d="M116.62,124.77c-0.68,0.07-1.36,0.15-2.03,0.22c-0.02-0.21-0.05-0.42-0.07-0.63
		c0.68-0.08,1.35-0.16,2.03-0.24C116.57,124.33,116.6,124.55,116.62,124.77z"/>
	<path style="fill:#701817;" d="M265.31,129.2c0.71-0.05,1.42-0.11,2.12-0.16c0.01,0.22,0.03,0.44,0.04,0.65
		c-0.71,0.05-1.41,0.1-2.12,0.15C265.34,129.63,265.32,129.41,265.31,129.2z"/>
	<path style="fill:#691615;" d="M260.97,131c0.79-0.36,1.59-0.72,2.38-1.08c0.09,0.29,0.18,0.58,0.28,0.87
		C262.74,130.86,261.85,130.93,260.97,131L260.97,131z"/>
	<path style="fill:#AC3532;" d="M245.96,81.1c-0.34-1.03-0.68-2.05-1.02-3.08C246.65,78.59,245.75,80.03,245.96,81.1z"/>
	<path style="fill:#6B1716;" d="M251.58,132.02c0.67,0.08,1.35,0.15,2.02,0.23c0,0.2-0.01,0.39-0.01,0.59
		c-0.7,0.04-1.41,0.09-2.11,0.13C251.52,132.66,251.55,132.34,251.58,132.02z"/>
	<path style="fill:#AF3634;" d="M235.96,51.1c-0.34-1.02-0.69-2.05-1.03-3.07C236.63,48.59,235.75,50.03,235.96,51.1z"/>
	<path style="fill:#AF3634;" d="M231.96,43.12c-0.34-0.7-0.68-1.39-1.03-2.09C231.28,41.73,231.62,42.42,231.96,43.12z"/>
	<path style="fill:#6A1716;" d="M212.98,24.01c0.57,0.09,1.14,0.18,1.7,0.27c-0.09,0.22-0.18,0.43-0.28,0.65
		c-0.48-0.3-0.96-0.61-1.44-0.91C212.97,24.03,212.98,24.01,212.98,24.01z"/>
	<path style="fill:#691615;" d="M146.98,22.02c0.5-0.32,1-0.64,1.49-0.95c0.07,0.23,0.14,0.46,0.22,0.69
		C148.12,21.84,147.55,21.93,146.98,22.02L146.98,22.02z"/>
	<path style="fill:#AE3533;" d="M98.6,118.44c-0.22,0.16-0.43,0.41-0.66,0.43c-0.17,0.01-0.35-0.3-0.53-0.47
		c0.12-0.1,0.26-0.29,0.36-0.27C98.06,118.18,98.33,118.32,98.6,118.44z"/>
	<path style="fill:#741919;" d="M191.93,9c0.68,0.34,1.37,0.68,2.05,1.02c0,0-0.01,0.01-0.01,0.01c-0.68-0.35-1.35-0.7-2.03-1.05
		C191.94,8.98,191.93,9,191.93,9z"/>
	<path style="fill:#AF3634;" d="M234.95,48.05c-0.34-0.67-0.68-1.34-1.02-2.02C234.27,46.7,234.61,47.38,234.95,48.05z"/>
	<path style="fill:#741919;" d="M213.02,135.11c0.18,0.17,0.35,0.33,0.53,0.5c-0.28,0.1-0.55,0.23-0.84,0.28
		c-0.09,0.01-0.23-0.2-0.34-0.32C212.59,135.42,212.8,135.27,213.02,135.11z"/>
	<path style="fill:#AD3431;" d="M109.31,122.28c0.4,0.02,0.8,0.04,1.2,0.08c0,0-0.01,0.32-0.02,0.32c-0.4,0.02-0.8,0.01-1.2,0.01
		C109.3,122.56,109.3,122.42,109.31,122.28z"/>
	<path style="fill:#AF3634;" d="M233.95,46.05c-0.37-0.34-0.73-0.68-1.1-1.02C233.22,45.37,233.59,45.71,233.95,46.05z"/>
	<path style="fill:#AF3634;" d="M230.95,41.05c-0.36-0.34-0.71-0.69-1.07-1.03C230.24,40.36,230.6,40.71,230.95,41.05z"/>
	<path style="fill:#741919;" d="M196.5,11.25c0.08,0.1,0.16,0.19,0.24,0.29c-0.18-0.02-0.35-0.03-0.53-0.05
		C196.3,11.41,196.4,11.33,196.5,11.25z"/>
	<path style="fill:#741919;" d="M193.98,10.02c0.25,0.15,0.51,0.3,0.76,0.45c-0.26-0.15-0.52-0.29-0.77-0.44
		C193.97,10.03,193.98,10.02,193.98,10.02z"/>
	<path style="fill:#A7302E;" d="M112.46,123.77c-0.08-0.1-0.16-0.19-0.24-0.29c0.1-0.08,0.2-0.23,0.29-0.22
		c0.09,0.01,0.17,0.17,0.25,0.27C112.65,123.61,112.56,123.69,112.46,123.77z"/>
	<path style="fill:#741919;" d="M216.98,135.02c0,0.33,0,0.65,0,0.98c-0.26-0.16-0.52-0.33-0.78-0.49
		C216.45,135.34,216.72,135.18,216.98,135.02z"/>
	<path style="fill:#6D211F;" d="M185,4c0.25,0.16,0.5,0.32,0.75,0.47c-0.26-0.14-0.53-0.29-0.79-0.43C184.95,4.04,185,4,185,4z"/>
	<path style="fill:#6D211F;" d="M184.95,4.04c-0.25-0.16-0.5-0.32-0.75-0.48c0.26,0.14,0.53,0.29,0.79,0.43
		C185,4,184.95,4.04,184.95,4.04z"/>
</g>
</svg>
