<?xml version="1.0" encoding="utf-8"?>
<!-- Generator: Adobe Illustrator 24.0.0, SVG Export Plug-In . SVG Version: 6.00 Build 0)  -->
<svg version="1.1" id="Calque_1" xmlns="http://www.w3.org/2000/svg" xmlns:xlink="http://www.w3.org/1999/xlink" x="0px" y="0px"
	 viewBox="0 0 200.28 298.52" style="enable-background:new 0 0 200.28 298.52;" xml:space="preserve">
<g>
	<path style="fill:#3E99D4;" d="M161.8,258.11c1.2,6.43,5.14,8.17,11.35,7.48c4.58-0.51,9.29,0.14,13.94,0.34
		c1.49,0.06,2.99,0.25,4.46,0.49c4.35,0.69,7.68,3.13,8.56,7.34c0.85,4.05-1.48,7.35-4.86,9.66c-5.26,3.6-10.86,6.35-17.29,7.3
		c-8.54,1.26-17.08,2.54-25.55,4.15c-14.13,2.68-28.46,2.07-42.69,3.1c-20.16,1.45-40.18-0.2-60.18-1.85
		c-9.87-0.81-19.69-3.01-29.32-5.44c-5.05-1.27-9.68-4.29-14.4-6.71c-3.14-1.61-6.29-3.49-5.75-7.83c0.45-3.62,4.76-8.16,8.77-8.54
		c6.94-0.66,13.93-1.1,20.89-1.01c3.31,0.04,4.91-0.77,5.67-3.94c2.07-8.73,4.28-17.42,6.47-26.12c0.36-1.43,0.87-2.83,1.32-4.24
		c1.44,0.77,1.94,2.22,2.55,3.57c4.84,10.73,14.38,15.4,26.26,14.14c13.71-1.46,20.18-10.85,25.75-21.6
		c0.79-1.53,0.89-3.28-0.49-4.64c-1.44-1.4-3.12-0.76-4.69-0.21c-8.33,2.91-16.72,3.29-24.81-0.39c-7.96-3.62-15.38-8.1-17.68-17.56
		c0.25-1.57-0.44-3.2,0.29-4.73c0.72-3.72,1.44-7.45,2.16-11.17c0.24-1.02,1.01-1.83,1.12-2.91c0.2-0.85,0.73-1.57,0.96-2.41
		c0.66-2.96,3.11-5.08,3.86-7.96c-0.53-1.6-1.88-2.12-3.12-2.78c3.71-17.82,7.41-35.63,11.14-53.44c0.1-0.46,0.49-0.86,0.74-1.29
		c4.22-1.59,5.06,2.83,8.48,4.76c-1.18-5.96-0.14-10.86,5.69-13.71c-3.67-3.03-10-1.7-9.69-8.06c-0.23-2.05-0.47-4.1,0.05-6.15
		c4.32-28.82,13.43-56.49,20.44-84.66c0.87-3.5,3.58-6.74,6.04-9.58c2.42-2.79,8.26-1.49,10.86,2.31c1.56,2.29,2.87,4.93,3.56,7.61
		c4.69,18.14,9.2,36.34,13.73,54.52c0.32,1.28,0.33,2.63,0.48,3.95c-0.39,4.28-0.43,8.59-1.08,12.85c-0.9,5.91-2.39,7.22-8.45,7.44
		c-1.99,0.07-3.97-0.21-5.96-0.26c-1.77-0.05-3.58-0.78-5.71,0.27c3.17,3.43,7.25,5.38,10.55,8.3c3.96,3.5,4.12,5.56,0.89,10.16
		c-5.93,1.86-5.93,1.86-3.9,7.26c0.16,1.16-0.05,2.31-0.13,3.46c0.05,3,1.55,1.84,2.81,0.92c2.81-2.08,5.32-4.53,8.08-6.67
		c4.7-3.65,6.87-3.16,9.62,2.05c1.09,3.13,2.29,6.22,3.57,9.28c2.98,15.69,5.95,31.37,8.93,47.06c1.46,7.68,3.09,15.33,4.34,23.04
		c0.98,6.06,1.49,12.2,2.21,18.31c-1.86,4.12-1.3,8.41-0.76,12.66c0.89,7.02-0.41,8.62-7.52,8.96c-3.82,0.19-7.62-0.6-11.44-0.39
		c-1.93,0.11-3.96-0.11-5.97,1.05c0.73,2.18,2.63,2.58,4.2,3.19c4.96,1.93,9.73,4.25,14.51,6.57c4.38,2.13,4.88,3.53,2.36,7.66
		c-2.05,3.36-4.47,6.52-5.11,11.04c5.27-0.29,8.16-4.03,11.72-6.41C157.28,255.89,159.58,254.96,161.8,258.11z"/>
	<path style="fill:#F6C253;" d="M50.95,205.95c6.82,15.57,26.2,22.96,42.02,16.15c1.43-0.62,4.03-0.94,4.8-0.15
		c1.15,1.19,2.08,3.85,1.52,5.26c-7.57,19.14-23.96,30.95-44.86,20.75c-6.52-3.18-9.43-9.08-11.26-15.69
		c2.02-8.68,4.03-17.37,6.05-26.05C49.71,205.55,50.29,205.46,50.95,205.95z"/>
	<path style="fill:#F3C359;" d="M116.66,108.33c3.19-5.85,3.23-5.9-2.14-9.97c-3.78-2.86-7.67-5.57-11.52-8.35
		c0.09-0.43,0.19-0.85,0.28-1.28c1.97-0.08,3.95-0.35,5.9-0.2c17.86,1.4,14.49,1.8,16.28-13.54c0.2-1.74,0.91-3.42,1.39-5.13
		c3.06,16.2,6.11,32.39,9.17,48.59c-0.77,1.42-1.55,1.75-2.26-0.02c-0.35-0.88-0.06-2.01-1.02-2.66c-0.72-1.28-1.43-2.55-2.4-4.28
		c-7.56,1.82-11.12,9.48-18.64,12.61c0.13-2.01,0.23-3.49,0.33-4.98c0.6-1.17,1.09-2.36,1.18-3.7
		C113.81,112.8,114.53,110.22,116.66,108.33z"/>
	<path style="fill:#F2C258;" d="M161.8,258.11c-1.08-0.66-2.17-1.33-3.27-2c-5.7,3.41-9.91,9.45-18.56,10.08
		c3.23-6.43,6.09-12.13,9.08-18.08c-8.27-3.81-16.53-7.61-24.79-11.41c-0.06-0.44-0.11-0.87-0.17-1.31c1.66-0.56,3.3-1.49,4.98-1.6
		c3.47-0.22,6.97,0.08,10.45,0c3.72-0.08,7.44-0.35,11.58-0.56c-0.29-5.46-0.76-10.24-0.68-15.01c0.03-1.64,1.42-3.26,2.2-4.89
		C155.68,228.26,158.74,243.19,161.8,258.11z"/>
	<path style="fill:#EFC25C;" d="M72.59,102.14c0.24,3.14,1.85,4.55,5.08,4.73c1.85,0.1,3.66,1.11,6.45,2.02
		c-3.13,2.65-6.49,4.24-7.62,6.81c-1.14,2.6-0.08,6.18,0.04,9.85c-3.59-2.56-6.46-4.61-9.32-6.65c1.22-6.11,2.44-12.23,3.66-18.34
		C72.27,100.18,71.99,101.63,72.59,102.14z"/>
	<path style="fill:#E7C46B;" d="M55.33,173.61c5.33,0.12,5.73,0.73,3.18,5.15c-1.23,2.12-2.56,4.18-3.85,6.27
		c-0.32,0.5-0.74,0.61-1.26,0.31C54.04,181.43,54.68,177.52,55.33,173.61z"/>
	<path style="fill:#C5C497;" d="M132.73,115.77c1.09,0.9,2.19,1.79,3.28,2.69c0.38,2.15,0.75,4.31,1.13,6.46
		C135.68,121.88,134.2,118.82,132.73,115.77z"/>
	<path style="fill:#CECCA4;" d="M72.59,102.14c-0.57-0.53-1.15-1.07-1.72-1.6c0.29-1.6,0.58-3.21,0.87-4.81
		C72.02,97.87,72.3,100,72.59,102.14z"/>
	<path style="fill:#E3CC85;" d="M50.95,205.95c-0.58,0.09-1.16,0.18-1.73,0.27c0.38-1.79,0.75-3.58,1.13-5.37
		C50.55,202.55,50.75,204.25,50.95,205.95z"/>
	<path style="fill:#C3C397;" d="M53.4,185.34c0.42-0.1,0.84-0.21,1.26-0.31c-0.35,0.8-0.7,1.59-1.05,2.39l-0.39,0.3l-0.4-0.3
		C53.01,186.74,53.21,186.04,53.4,185.34z"/>
	<path style="fill:#E0DCBD;" d="M52.82,187.43c0.26-0.06,0.52-0.06,0.79-0.01c-0.37,0.75-0.73,1.5-1.1,2.25
		C52.62,188.93,52.72,188.18,52.82,187.43z"/>
	<path style="fill:#F1C157;" d="M101.25,187.32c-1.51-1.81-2.74-3.07-3.73-4.5c-2.06-2.96-4.4-3.18-7.12-0.99
		c-0.52,0.41-0.99,0.94-1.59,1.19c-1.25,0.53-2.56,0.9-3.85,1.34c0.2-1.48,0.19-3.03,0.64-4.42c0.51-1.56,1.43-2.98,2.38-4.87
		c-1.12-1.04-2.22-2.2-3.47-3.17c-1.23-0.95-2.61-1.7-3.92-2.53c0.08-0.42,0.16-0.85,0.25-1.27c2.17-0.25,4.35-0.73,6.51-0.67
		c2.54,0.07,3.9-0.73,4.7-3.29c0.89-2.88,2.38-5.58,3.61-8.36c0.38,0.06,0.76,0.13,1.14,0.19c0.65,2.81,1.52,5.6,1.87,8.44
		c0.33,2.72,1.81,3.49,4.22,3.88c2.15,0.35,4.21,1.21,6.42,1.87C108.94,170.94,101.71,186.34,101.25,187.32z"/>
	<path style="fill:#4DA2D1;" d="M116.66,108.33c-1.04,2.49-2.08,4.98-3.12,7.48c-0.24,0.53-0.57,0.57-0.98,0.19
		c-0.84-1.21-1.68-2.43-2.44-3.52C110.94,108.67,113.17,107.47,116.66,108.33z"/>
	<path style="fill:#6BA9BF;" d="M112.56,116c0.33-0.06,0.65-0.13,0.98-0.19c-0.5,1.11-1.01,2.21-1.51,3.32
		C112.2,118.09,112.38,117.04,112.56,116z"/>
</g>
</svg>
