<?xml version="1.0" encoding="utf-8"?>
<!-- Generator: Adobe Illustrator 24.0.0, SVG Export Plug-In . SVG Version: 6.00 Build 0)  -->
<svg version="1.1" id="Calque_1" xmlns="http://www.w3.org/2000/svg" xmlns:xlink="http://www.w3.org/1999/xlink" x="0px" y="0px"
	 viewBox="0 0 141.15 111.99" style="enable-background:new 0 0 141.15 111.99;" xml:space="preserve">
<g>
	<path style="fill:#84C59D;" d="M121.98,111.99c0-0.33,0-0.67,0-1c1.33-1.15,2.67-1.15,4,0c0,0.33,0,0.67,0,1
		C124.65,111.99,123.32,111.99,121.98,111.99z"/>
	<path style="fill:#EAF4EF;" d="M34,1c0-0.33,0-0.67,0-1c1,0,2,0,3,0c0,0.33,0,0.67,0,1C36,1.85,35,1.85,34,1z"/>
	<path style="fill:#C3E1CE;" d="M1,84.99c-0.33,0-0.67,0-1,0c0-1,0-2,0-3c0.33,0,0.67,0,1,0C1.85,82.99,1.85,83.99,1,84.99z"/>
	<path style="fill:#24994F;" d="M1,84.99c0-1,0-2,0-3c0.78-1.01,1.56-2.01,2.4-3.09c1.81,0,3.59,0,6.02,0
		c-2.91-2.63-2.51-5.68-2.35-8.6C7.11,69.5,8,68.12,8.55,68.1c3.14-0.15,6.42-0.71,9.04,1.94c2.05,2.07,4.27,3.97,6.41,5.95
		c1.46,2.63,1.18,5.8,2.78,8.39c-1.67-3.27-1.66-6.97-2.78-10.39c-0.28-2.23,0.81-3.91,2.07-5.62c1.07-1.45,2.45-1.41,3.93-1.37
		c1-0.81,2-0.81,3,0c1.67,2.85,4.19,5.32,4,9c1.12,2.51-0.11,5.14,0.45,7.89c0.59-3.08-0.42-6.26,1.54-8.89
		c0.12-0.62,0.02-1.47,0.39-1.81c1.04-0.95,2.31-1.65,3.42-2.52c2.65-2.08,2.82-2.09,6.18,0.33c1.29,1.84-0.37,4.17,1,6
		c2.03-0.95,3.43-3.14,6-3c1.33-0.92,2.67-1.1,4,0c0,0.49,0,0.98,0,1.78c1.48,0.17,2.82,0.73,4.37-0.56
		c2.11-1.75,4.83-1.3,7.33-1.17c1.64,0.09,2.52,1.2,2.3,2.95c-0.57,3.13-3.21,5.21-4.23,8.22c2.42-1.99,2.72-5.41,5.23-7.22
		c1.67,0,3.33,0,5,0c1-0.81,2-0.81,3,0c0.25,0.33,0.44,0.87,0.76,0.96c1.57,0.45,2.46,1.31,2.11,3.41c-0.26,1.6-1.44,2.67-1.91,4.13
		c1.37-1.25,1.53-2.96,1.91-4.13c0.96-0.38,2.11-0.02,2.56-0.44c2.72-2.47,5.95-1.96,9.38-1.87c0.38,1.41,0.57,3,1.26,4.33
		c0.51,0.99,1.56,1.13,1.93-0.4c1.33-1.06,2.67-1.06,4,0c4.49,0.31,5.72,2.1,4.37,6.16c-0.3,0.89-0.26,1.89-0.37,2.84
		c-1.27,1.21-2.46,2.51-4.08,3.92c1.69-1.34,2.79-2.72,4.08-3.92c1.33,0.33,2.06-0.54,2.88-1.36c2.12-2.13,4.02-4.54,7.24-5.74
		c1.62,1.11,3.08,2.24,2.95,4.81c-0.08,1.6,1.17,2.51,2.92,2.29c1.97-0.79,2.1,1.18,3,2c0.33,1,0.67,2,1,3
		c-0.94,0.85-1.56,2.01-2.84,2.76c1.14-0.08,1.87-0.84,2.84-0.76c2.82,0.38,5.65,0.76,8.66,1.16c0.99,1,2.16,2.17,3.5,3.52
		c-0.76,1.41-1.56,2.89-2.32,4.31c-2.08,0-3.9,0.14-5.68-0.04c-1.52-0.16-3.01-0.7-4.18-0.99c-1.13,1.15-2.06,2.09-2.99,3.04
		c-1.33,0-2.67,0-4,0c-2.56-2.31-5.11-4.61-7.5-6.77c-1.8-0.26-3.48-0.51-5.33-0.78c-0.34,1.46-0.73,3.28-1.24,5.08
		c-0.12,0.42-0.62,0.79-1.03,1.06c-2.07,1.35-5.71,0.16-7.23-2.5c-1.59,1.18-3.12,2.45-4.78,3.49c-2.01,1.26-5.84,0.12-6.75-2.01
		c-0.27-0.64-0.07-1.6,0.18-2.32c0.31-0.86,0.74-1.81,1.41-2.39c1.63-1.44,1.53-3.03,0.94-4.8c-0.43-0.02-0.97-0.17-1.05-0.03
		c-0.99,1.6-1.67,3.68-3.79,3.92c-3.2,0.35-6.41,0.09-9.19-1.84c-1.8-1.25-3.53-2.6-5.3-3.91c-0.18,0.18-0.44,0.39-0.64,0.65
		c-1.21,1.58-1.55,4.09-4.19,4.14c-2.94,0.05-5.69-0.57-7.82-2.82c-1.36-1.45-2.73-2.89-4.27-4.52c-1.69,1.16-2.48,3.34-4.67,3.37
		c-2.25,0.03-4.65,0.32-6.43-1.31c-1.46-1.34-2.54-3.1-4.41-5.45c0.4,3.62-0.35,6.04-1.74,8.49c-0.98,1.73-1.86,2.35-3.67,2.29
		c-1.94-0.06-3.39-0.49-4.53-2.39c-1.81-3.01-2.82-6.2-3.22-10.09c-1.84,3.96-3.79,7.15-7.53,8.8c-2.35,1.03-3.26,1-4.77-0.42
		c-1.76-1.66-1.87-2.53-0.71-5.12c0.44-0.98,0.87-1.97,1.28-2.97c0.05-0.11-0.07-0.3-0.06-0.26c-3.58-0.87-7.05-1.81-10.56-2.52
		C2.05,86.77,1.36,86.17,1,84.99z"/>
	<path style="fill:#278446;" d="M33,66.99c-1,0-2,0-3,0c0-6.16-0.11-12.33,0.03-18.49c0.13-5.4-1.78-10.65-1.03-16.08
		c-1.81-3.53-0.59-7.37-1.08-10.88c-3.65-2.19-6.43-5.19-8.84-8.44c-1.06-1.43-2.21-2.89-2.55-4.95c-0.43-2.62-0.68-2.83,1.3-4.5
		c1.43-1.2,2.58-0.69,3.83,0.33c1.72,1.4,3.54,2.69,5.32,4.02C29.32,5.67,31.66,3.33,34,1c1,0,2,0,3,0
		c0.28,0.12,0.64,0.16,0.84,0.36c3.64,3.58,4.07,4.16,2.07,8.67c-1.95,4.39-4.21,8.73-7.91,12.6c0,2.75-0.55,5.99,0.12,8.96
		c1.31,5.84,0.75,11.67,0.86,17.51C33.08,55.06,33,61.03,33,66.99z"/>
	<path style="fill:#278446;" d="M82.99,77.99c-1,0-2,0-3,0c-0.33-5.02-1.59-10.19-0.79-15.01c1.36-8.22,0.15-16.38,0.92-24.36
		c-2.3-2.3-4.49-4.34-6.51-6.54c-3.55-3.86-3.81-7.28,0.17-11.09c3.11,1.06,5.45,3.02,6.95,6.32c1.64-1.88,3.16-3.63,4.63-5.31
		c1.75,0.03,3.8-0.49,4.45,1.44c0.47,1.41,0.65,3.12-0.37,4.69c-1.09,1.7-1.7,3.63-3.16,5.19c-2.6,2.79-4.27,6.42-3.07,10.02
		c0.77,2.32,1.1,4.58,0.69,6.61C81.99,59.28,83.52,68.66,82.99,77.99z"/>
	<path style="fill:#1F8142;" d="M59.99,73.99c-1.33,0-2.67,0-4,0c0.33-0.86,0.93-1.72,0.95-2.59c0.11-3.5-0.02-7,0.08-10.5
		c0.04-1.57-0.61-2.4-1.99-2.92c-2.74-1.03-6.86-4.22-7.77-6.29c-0.62-1.4-1.06-2.96-1.22-4.48c-0.28-2.7,1.54-4.13,3.75-5.25
		c4.05,1.31,6.37,4.56,8.6,8.14c1.83-1.83,3.43-3.72,5.33-5.24c1.39-1.11,2.97-2.65,5.07-1.53c1.47,0.78,1.73,3.35,0.61,5.73
		c-1.18,2.53-2.04,5.24-5.2,6.33c-1.41,0.49-2.01,2.58-4.21,2.79C59.99,63.42,59.99,68.7,59.99,73.99z"/>
	<path style="fill:#238344;" d="M104.99,83.99c-1.33,0-2.67,0-4,0c0.42-5.17,0.83-10.35,1.23-15.27c-1.22-1.22-2.04-2.36-3.13-3.07
		c-3.06-1.99-2.87-5.53-3.97-8.37c-0.84-2.17,2.39-4.3,4.58-3.29c3.03,1.41,3.61,2,5.92,6.15c2.16-0.68,3.11-2.83,4.94-4.08
		c0.17-0.01,0.5-0.08,0.81-0.06c3.37,0.19,4.65,1.79,3.39,4.64c-0.87,1.98-2.12,3.86-3.53,5.51c-1,1.17-1.98,2.36-3.71,3.03
		c-1.69,0.65-2.49,2.79-2.51,4.82C104.96,77.33,104.99,80.66,104.99,83.99z"/>
	<path style="fill:#258345;" d="M127.98,94.99c-1-0.67-2-1.33-3-2c0-3.16,0-6.32,0-9.88c-1.5-1.07-3.3-2.15-4.84-3.52
		c-2.42-2.17-4.52-4.62-4.15-8.24c0.21-2.06,1.82-2.86,3.85-2.01c2.82,1.18,4.47,3.72,6.66,5.63c5.02-6.55,5.02-6.55,7.98-6.98
		c1.67,1.89,0.99,3.99,0.13,5.79c-1.7,3.56-3.12,7.38-6.63,9.48C127.98,87.34,127.98,91.16,127.98,94.99z"/>
	<path style="fill:#137936;" d="M39,74.99c0,3.3-0.06,6.61,0.03,9.9c0.05,1.71-0.54,2.77-2.26,3.13c-1.2-3.42-1.08-9.19,0.23-12.03
		C37.66,75.66,38.33,75.32,39,74.99z"/>
	<path style="fill:#187938;" d="M74.99,77.99c-0.53,3.68-3.04,6.35-4.94,9.3c-0.39,0.61-1.87,0.52-4,1.02
		c3.41-4.21,4.31-8.66,7.94-11.32C74.32,77.32,74.66,77.66,74.99,77.99z"/>
	<path style="fill:#127836;" d="M128.98,99.99c-0.84,2.24-2.89,2.58-4.85,2.96c-0.33,0.07-0.84-0.3-1.12-0.6
		c-0.15-0.16-0.11-0.78,0.05-0.9c1.62-1.19,3.27-2.33,4.95-3.44c0.23-0.15,0.64-0.02,0.97-0.02
		C128.98,98.65,128.98,99.32,128.98,99.99z"/>
	<path style="fill:#79C195;" d="M49.99,76.99c-0.04,0.81-0.76,1.33-0.9,0.42c-0.32-2.09-0.1-4.27-0.1-6.42
		c0.33,0.4,0.92,0.79,0.95,1.21C50.06,73.79,49.99,75.39,49.99,76.99z"/>
	<path style="fill:#137937;" d="M24,73.99c1.51,1.04,1.32,2.87,1.97,4.31c0.99,2.21,1.81,4.5,2.61,6.79
		c0.29,0.83,0.33,1.74,0.49,2.67c-1.99,0.55-2.45-0.57-3.1-1.75c-1.75-3.15-2.2-6.51-1.97-10.02C24,75.32,24,74.66,24,73.99z"/>
	<path style="fill:#127936;" d="M7.11,80.05c5.71-0.27,8.85,2.43,11.98,5.16C14.56,85.48,11.34,82.94,7.11,80.05z"/>
	<path style="fill:#127835;" d="M113.38,99.55c3.02-2.67,5.42-4.8,7.82-6.92c1.77,2.22,0.37,3.28-0.79,4.43
		C118.63,98.84,116.86,100.61,113.38,99.55z"/>
	<path style="fill:#127735;" d="M60.37,76.79c1.6,2.22-0.27,3.67-0.96,5.19c-0.57,1.24-0.73,3.3-3.53,2.84
		C57.39,82.08,56.61,78.37,60.37,76.79z"/>
	<path style="fill:#127936;" d="M85.79,81.59c1.06,2.09,1.02,3.64,0.09,5.01c-1.09,1.61-2.55,2.21-5.29,1.92
		C82.38,86.13,84.02,83.94,85.79,81.59z"/>
	<path style="fill:#137735;" d="M92.16,91.78c1.23-1.31,1.88-2.1,2.63-2.78c0.68-0.61,2.04-1.05,2.09-1.66
		c0.24-2.64,1.99-0.6,2.88-1.27c-0.24,2.85-2.59,3.98-4.15,5.63C95.2,92.16,93.91,91.78,92.16,91.78z"/>
	<path style="fill:#117634;" d="M109.68,92.49c-1.65,3.8-4.47,5.46-7.02,8.29c-0.59-1.89-1.91-2.84,0.5-3.88
		c1.41-0.61,2.39-2.17,3.66-3.19C107.39,93.25,108.2,93.1,109.68,92.49z"/>
</g>
</svg>
