<?xml version="1.0" encoding="utf-8"?>
<!-- Generator: Adobe Illustrator 24.0.0, SVG Export Plug-In . SVG Version: 6.00 Build 0)  -->
<svg version="1.1" id="Calque_1" xmlns="http://www.w3.org/2000/svg" xmlns:xlink="http://www.w3.org/1999/xlink" x="0px" y="0px"
	 viewBox="0 0 454.94 260.97" style="enable-background:new 0 0 454.94 260.97;" xml:space="preserve">
<g>
	<path style="fill:#7DC7C1;" d="M372.95,260.97c-4,0-8,0-12,0c-0.31-0.61-0.19-1.11,0.37-1.51c3.75-1.33,7.51-1.33,11.26-0.01
		C373.14,259.85,373.27,260.36,372.95,260.97z"/>
	<path style="fill:#A0D5D2;" d="M372.95,260.97c0-0.3,0.01-0.61,0.04-0.91c1.67-1.53,3.34-1.52,5.02-0.02
		c-0.12,0.3-0.14,0.61-0.06,0.93C376.29,260.97,374.62,260.97,372.95,260.97z"/>
	<path style="fill:#A0D5D2;" d="M454.94,205.97c-0.31-0.02-0.62,0-0.92,0.06c-1.26-1.37-1.26-2.74-0.03-4.13
		c0.32,0.03,0.63,0.05,0.95,0.06C454.94,203.31,454.94,204.64,454.94,205.97z"/>
	<path style="fill:#D9EDEC;" d="M360.88,260.05c0.08,0.3,0.11,0.61,0.08,0.92c-1,0-2,0-3,0c0.02-0.31,0.01-0.61-0.03-0.92
		C358.91,259.14,359.89,259.14,360.88,260.05z"/>
	<path style="fill:#1CA297;" d="M191.05,0.85c1.32,0.02,2.64,0.04,3.96,0.06c13.74,2.35,27.81,3.55,41.15,7.32
		c18.55,5.23,34.52,15.47,47.13,30.46c3.53,4.2,7.34,8.2,11.23,12.07c8.36,8.31,13.84,18.59,20.05,28.42
		c11.53,18.26,18.35,38.3,23.45,59.09c1.22,4.98,3.36,9.73,5.08,14.59c-9.35,5.81-19.46,9.98-29.58,14.24
		c-15.91,6.68-32.44,11.01-49.26,14.44c-1.96,0.4-3.91,0.95-5.88,0.1c-2.05-1.18-1.11-3.73-2.42-5.24
		c-0.89-0.44-1.35,0.17-1.82,0.77c-1.99,1.84-1.47,5.13-3.91,6.71c-8,2.68-16.4,2.66-24.65,3.4c-4.61,0.41-9.26,0.91-13.91,0.98
		c-1.74-0.4-3.47-1.14-5.21-1.15c-14.3-0.07-28.6-0.06-42.9,0.06c-3.31,0.03-6.61,0.66-9.92,0.88
		c-49.27,3.22-95.85-6.77-139.52-29.56c-14.16-7.39-11.03-3.58-13.31-20.46c0-4.02,0.01-8.04,0.01-12.06
		c-0.27-21.45,9.67-39.11,21.73-55.55c7.13-9.72,15.17-19.22,24.46-26.78c16.28-13.27,34.62-23.58,54.68-30.35
		c10.38-3.5,20.93-6.5,31.42-9.67c1.25-0.38,2.62-0.33,3.93-0.48c0,0,0.2,0.37,0.2,0.37c0,0,0.22,0.37,0.22,0.37
		s0.25-0.34,0.26-0.35c0.49-0.02,0.91-0.19,1.19-0.61c6.34-0.68,12.67-1.36,19.01-2.05c1.66,0.01,3.32,0.01,4.98,0.02
		c2.66,0,5.32,0,7.98,0.01c5.05,0.01,10.09,0.03,15.14,0.04C187.7,0.9,189.38,0.88,191.05,0.85z"/>
	<path style="fill:#1CA297;" d="M360.88,260.05c-0.98,0-1.97,0-2.95,0c-12.26-1.92-23.67-6.37-34.92-11.42
		c-16.36-7.34-33.17-13.78-49.13-21.89c-17.16-8.71-33.62-18.79-50.24-28.54c-3.81-2.23-6.98-5.55-10.45-8.36
		c0.87-0.9,2.03-1.29,3.16-1.15c8.75,1.09,17.4-0.76,26.1-0.83c1.99,0.29,3.87,3.06,6.03,0.28c8.64-2.38,17.61-2.96,26.31-5.12
		c11.8-2.92,23.42-6.43,34.3-11.76c11.91-5.83,24.64-9.86,36.11-16.63c11.85,5.16,23.65,10.43,35.55,15.45
		c22.28,9.41,44.64,18.64,66.93,28.04c2.24,0.94,4.21,2.5,6.31,3.78c0.01,1.38,0.02,2.75,0.03,4.13
		c-3.88,11.37-11.08,20.46-20.32,27.76c-8.17,6.46-16.71,12.58-25.64,17.93c-9.1,5.44-19.59,7.12-30.06,8.31
		c-1.67,0.01-3.35,0.01-5.02,0.02C368.95,260.05,364.92,260.05,360.88,260.05z"/>
	<path style="fill:#1A7871;" d="M244.04,189.08c-6.21,0.51-12.4,1.24-18.62,1.46c-4.07,0.15-8.16-0.44-12.24-0.7
		c-0.5-0.53-1-1.06-1.51-1.59c2.3-0.73,4.56-1.85,6.91-2.12c10.79-1.24,21.61-2.24,32.42-3.32c1.3-0.98,1.6-2.66,2.63-3.82
		c0.97-0.57,1.54,0.07,2.11,0.69c0.42,0.38,0.91,0.63,1.48,0.74c0.37,0.11,0.65,0.33,0.82,0.69c12.35-2.87,25.01-4.83,36.97-8.86
		c14.34-4.84,28.07-11.46,42.08-17.27c1.96-0.81,4-1.42,6.01-2.12c0.7,0.6,1.39,1.19,2.09,1.79c-1.59,1.37-2.97,3.23-4.81,4.05
		c-14.99,6.65-29.94,13.43-45.15,19.54c-15.14,6.07-31.18,8.71-47.29,10.79C246.67,190.08,245.36,189.84,244.04,189.08z"/>
	<path style="fill:#1B7C75;" d="M138.93,2.9c-0.65,0.37-1.29,0.73-1.94,1.1l0,0c0.02-0.29,0.04-0.59,0.07-0.88
		C137.68,3.05,138.3,2.98,138.93,2.9z"/>
	<path style="fill:#52BBB1;" d="M312.98,140.98c-0.01-1-0.03-1.99-0.04-2.99c1.11-2.24-1.31-2.69-2.03-4
		c-0.29-1.02-0.59-2.04-0.88-3.05c2.43-2.19,2.73-4.92,2-7.91c5.27-7.07,11.81-7.42,16.86-0.51c6.25,8.55,6.65,22.34-4.6,28.62
		c-7.24,4.04-18.42,1.5-23.1-5.33c-4.75-6.94-6.37-14.85-7.22-22.99c-1.6-15.39,2.22-30.14,5.22-45.2c8.07,12,16.02,23.8,24.3,36.11
		c-9.79-2.46-14.83,3.61-17.16,11.52c-1.6,5.44-0.98,11.7,4.62,15.75c1.83,1.04,3.5,2.4,5.35,2.79
		C315.25,143.09,313.24,143.06,312.98,140.98z"/>
	<path style="fill:#52BBB1;" d="M131.05,161.68c-6.26-2.02-12.59-3.84-18.74-6.16c-2.36-0.89-4.21-1.48-6.49-0.03
		c-1.21,0.78-2.77,1.38-4.18,1.38c-1.7,0-3.4-0.71-5.1-1.11c0.59-1.54,1.28-3.05,1.73-4.64c0.6-2.12,1.19-4.27,1.41-6.44
		c0.11-1.06-0.89-2.19-0.96-3.31c-0.12-1.87,0.1-3.76,0.18-5.64c1.67,0.4,3.71,0.33,4.94,1.29c3.32,2.62,5.49,1.83,8.58-0.78
		c11.74-9.94,34.35-6.5,42.47,6.51c1.07,1.71,0.31,5.74-1.08,7.6c-4.17,5.59-9.59,9.64-17.14,9.7c-1.79,0.01-3.57,0.63-5.36,0.97
		C131.22,161.24,131.13,161.46,131.05,161.68z"/>
	<path style="fill:#1B7C75;" d="M252,143.96c-0.01,1.34-0.03,2.68-0.04,4.02c-0.29,0.22-0.59,0.24-0.88,0.01
		c-6.2-19.71-12.47-39.4-18.55-59.15c-1.5-4.86-2.38-9.91-3.55-14.87c3.24,0.55,2.52,2.81,2.13,4.93
		c5.58,17.07,11.17,34.15,16.75,51.22c0.86,0.36,0.48,1.4,1.05,1.91l-0.01-0.02c0.98,0.79,0.16,2.18,1.01,3.01l-0.01-0.01
		C250.47,138.03,252,140.81,252,143.96z"/>
	<path style="fill:#1B8A82;" d="M80.01,141.96c-0.38,2.7-0.76,5.39-1.15,8.09c-1.21-15.33-1.11-30.5,1.77-45.54
		c0.87-4.52,1.48-9.09,2.41-13.6c0.28-1.38,1.21-2.63,1.84-3.95c0.32-0.44,0.64-0.47,0.98-0.02c-5.17,16.99-6.43,34.42-5.85,52.05
		C80.8,139.99,80.8,140.98,80.01,141.96z"/>
	<path style="fill:#1B867E;" d="M251.08,147.99c0.29-0.01,0.59-0.01,0.88-0.01c0.66,1.66,1.32,3.33,1.98,4.99
		c0.84,0.97,0.83,1.97,0.09,2.99c0.02,1.02,0.04,2.04,0.06,3.06c1.18,1.51,1.34,3.35,1.68,5.13c0.02,0.92,0.04,1.83,0.07,2.75
		c1.1,1.62,0.1,2.83-0.8,4.05c-0.63,0.28-1.26,0.57-1.9,0.85c-0.35-0.16-0.48-0.34-0.4-0.55c0.09-0.22,0.19-0.33,0.3-0.33
		c-0.04-1-0.08-2-0.12-2.99c-0.94-1.57-1.23-3.17-0.22-4.83c-0.54-1.67-1.08-3.33-1.62-5c-0.72-0.76-0.81-1.45,0.19-2.04
		c-0.09-1.7-0.18-3.4-0.27-5.1c-0.89-0.93-0.9-1.93-0.23-2.99L251.08,147.99z"/>
	<path style="fill:#1B867E;" d="M165.94,7.95l-0.39-0.05l-0.39,0.02c-2.23-0.66-4.67-0.88-6.16-3.04c-0.67-0.3-1.35-0.59-2.02-0.89
		c-1.32,0.51-2.11-0.33-2.89-1.16c2.42,0.27,4.93,0.24,7.24,0.89c2.65,0.75,5.13,2.11,7.68,3.21c1.31-0.47,2.15,0.3,2.96,1.13
		c0.02,0.29,0.04,0.59,0.06,0.88l-0.12,0.12c-0.98-0.02-1.97-0.04-2.95-0.05C167.58,9.73,166.8,8.74,165.94,7.95z"/>
	<path style="fill:#26ACA1;" d="M231.11,78.9c-0.71-1.64-1.42-3.29-2.13-4.93l0.02,0.02c-0.81-1.06-1.11-2.19-0.54-3.46
		c0.17-0.18,0.34-0.36,0.51-0.54c1.64,1.88,7.46,1.41,3.58,6.41C231.96,77.16,231.58,78.06,231.11,78.9z"/>
	<path style="fill:#47B5AB;" d="M294.16,70.14c5.07,3.89,1.14,6.78,0,9.8C294.16,76.92,294.16,73.91,294.16,70.14z"/>
	<path style="fill:#32B1A7;" d="M201.68,32.04c4.84-0.9,4.99-0.75,5.27,5.15c-0.71,0.41-1.38,0.37-1.98-0.22L205,37
		c-0.35-0.34-0.69-0.68-1.03-1.03L204,36c-0.35-0.34-0.69-0.68-1.03-1.03l0.03,0.03c-0.35-0.33-0.69-0.68-1.03-1.03L202,34
		C201.42,33.42,201.37,32.76,201.68,32.04z"/>
	<path style="fill:#77C5BF;" d="M312.02,123.03c2.64,2.52,1.57,6.74-2,7.91C310.69,128.3,311.36,125.67,312.02,123.03z"/>
	<path style="fill:#30ABA0;" d="M312.98,140.98c2.46,0.98,4.93,1.97,7.39,2.95c-3.77,1.03-7.14,0.8-9.42-2.94
		C311.63,140.99,312.3,140.99,312.98,140.98z"/>
	<path style="fill:#26ACA1;" d="M255.78,164.15c-0.56-1.71-1.12-3.42-1.68-5.13c1.12,1,2.31,1.94,3.27,3.08
		C257.48,162.24,256.34,163.44,255.78,164.15z"/>
	<path style="fill:#26ACA1;" d="M225.88,63.99c2.56-1.47,3.62-0.15,3.76,2.23c0.07,1.24-0.43,2.51-0.68,3.77l-0.23,0.16
		c-2.04-0.09-1.68-2.27-2.76-3.19l0.02,0.03c-0.51-0.51-0.5-1.17-0.52-1.82C225.45,64.73,225.58,64.33,225.88,63.99z"/>
	<path style="fill:#29AEA3;" d="M196.71,28.08c1.16-0.42,2.32-0.84,3.48-1.26c0.24,1.51,0.47,3.02,0.71,4.53
		c-0.73,0.33-1.38,0.2-1.93-0.38L199,31c-0.35-0.34-0.69-0.69-1.04-1.04l0.04,0.03C197.4,29.48,196.48,29.16,196.71,28.08z"/>
	<path style="fill:#29AEA3;" d="M254.09,179.07c-1.03,1.25-2.06,2.49-3.08,3.74c-0.59-2.93,0.65-5.08,2.89-6.81
		C254.83,176.97,254.9,178,254.09,179.07z"/>
	<path style="fill:#26ACA1;" d="M119,20.04c-0.11-1.35-0.22-2.7-0.33-4.05c1.17,0.01,2.34,0.03,3.52,0.04
		c0.45,0.71,0.38,1.35-0.21,1.95l0.02-0.01c-0.34,0.35-0.68,0.69-1.03,1.03l0.03-0.03c-0.33,0.35-0.68,0.69-1.03,1.03l0.03-0.03
		C119.68,20.33,119.35,20.35,119,20.04z"/>
	<path style="fill:#19726C;" d="M113.07,27.03c0.29-0.05,0.58-0.07,0.87-0.08l0.12,0.12c-1.6,2.39-3.2,4.77-4.8,7.16
		c-0.13-0.12-0.27-0.24-0.4-0.36c0.1-0.58,0.21-1.16,0.31-1.74c0.02-0.82,0.29-1.53,0.9-2.09l-0.01,0.02
		C110.7,28.7,111.46,27.44,113.07,27.03z"/>
	<path style="fill:#29AEA3;" d="M174.01,9.93c0.89-0.49,1.78-0.97,2.68-1.46c0.44,1.5,0.87,3.01,1.31,4.51
		c-0.17,0.13-0.34,0.26-0.5,0.4c-0.17-0.13-0.33-0.26-0.5-0.4l0,0c-0.53-0.59-1.46-0.4-2-1l0,0c-0.34-0.32-0.68-0.66-1-1l0.01,0
		c-0.31-0.24-0.41-0.47-0.3-0.71C173.8,10.05,173.9,9.93,174.01,9.93z"/>
	<path style="fill:#26ACA1;" d="M159.01,4.88c2.05,1.01,4.11,2.03,6.16,3.04C161.87,9.44,159.78,8.49,159.01,4.88z"/>
	<path style="fill:#52BBB1;" d="M290.93,65.57c-0.21,1.46-0.43,2.92-0.64,4.38c-0.63-0.08-1.26-0.16-1.89-0.23
		c0.15-1.47,0.3-2.95,0.46-4.42C289.55,65.39,290.24,65.48,290.93,65.57z"/>
	<path style="fill:#1A827A;" d="M100.06,51.05c-1.33,2.68-2.67,5.35-4,8.03c0,0-0.18-0.18-0.18-0.18c1.35-2.66,2.69-5.32,4.04-7.98
		C99.92,50.93,100.06,51.05,100.06,51.05z"/>
	<path style="fill:#26ACA1;" d="M252,143.96c-0.7-2.98-1.4-5.96-2.1-8.94C250.6,138,251.3,140.98,252,143.96z"/>
	<path style="fill:#32B1A7;" d="M250.17,33.11c0.36-0.7,0.63-1.95,1.08-2.01c2.3-0.33,2.76,0.25,2.77,2.88
		C252.47,34.88,251.4,33.63,250.17,33.11z"/>
	<path style="fill:#19726C;" d="M151.94,56.98c-1.21,0.08-2.42,0.15-3.63,0.23c0.23-1.06,0.45-2.13,0.68-3.19
		C151.76,53.22,152.74,54.22,151.94,56.98z"/>
	<path style="fill:#33B3A9;" d="M193.89,28.31c-0.79,0.45-1.59,0.89-2.38,1.34c-0.5-1.29-0.99-2.58-1.49-3.87
		c0.71-0.4,1.35-0.36,1.93,0.25l-0.01-0.01c0.56,0.58,1.48,0.41,2.03,1.01L193.94,27C194.49,27.46,194.47,27.89,193.89,28.31z"/>
	<path style="fill:#35B4AA;" d="M258.05,181.11c-0.28,0.06-0.57,0.09-0.86,0.08c-0.61,0.32-1.12,0.2-1.53-0.35
		c-0.16-1.96-1.49-4,0.39-5.83C259.67,176.08,257.22,179.13,258.05,181.11z"/>
	<path style="fill:#33B3A9;" d="M75.54,110.59c0,1.6,0,3.2,0,4.8c-0.33,0.01-0.66,0.02-0.99,0.02c0-1.6,0-3.2,0-4.8
		C74.88,110.61,75.21,110.6,75.54,110.59z"/>
	<path style="fill:#1B867E;" d="M256.05,175.01c-0.04,1.99-0.09,3.97-0.13,5.96c-0.29,0.36-0.59,0.38-0.92,0.05
		c-0.3-0.65-0.61-1.3-0.91-1.95c-0.06-1.02-0.13-2.05-0.19-3.07C254.62,175.67,255.34,175.34,256.05,175.01z"/>
	<path style="fill:#33B3A9;" d="M151.94,56.98c-0.98-0.99-1.97-1.98-2.95-2.96c0.88-3.55,2.66-1.26,3.61-0.3
		C153.52,54.66,155.1,56.52,151.94,56.98z"/>
	<path style="fill:#1B8A82;" d="M225.88,63.99c0.01,0.34,0.02,0.68,0.03,1.02c-0.37,0.46-0.73,0.46-1.1,0
		c-0.94-2.35-1.88-4.69-2.81-7.04c1.05-0.38,1.6,0.13,1.91,1.07C224.57,60.7,225.23,62.35,225.88,63.99z"/>
	<path style="fill:#1B7C75;" d="M225.98,66.97c0.92,1.06,1.84,2.13,2.76,3.19c0.09,1.28,0.17,2.56,0.26,3.84
		C227.99,71.65,226.98,69.31,225.98,66.97z"/>
	<path style="fill:#26ACA1;" d="M255.04,170.95c0.27-1.35,0.54-2.7,0.8-4.05c0.69,0.74,1.37,1.48,2.06,2.22
		C256.95,169.74,255.99,170.34,255.04,170.95z"/>
	<path style="fill:#32B1A7;" d="M72.33,148.13c0-1.52,0-3.05,0-4.57c0.33-0.01,0.66-0.01,0.99-0.02c0,1.52,0,3.05,0,4.57
		C72.98,148.11,72.66,148.12,72.33,148.13z"/>
	<path style="fill:#7DC7C1;" d="M310.91,133.99c1.23,0.9,2.47,1.79,3.7,2.69c-0.56,0.44-1.12,0.88-1.68,1.31
		C312.26,136.66,311.58,135.33,310.91,133.99z"/>
	<path style="fill:#29AEA3;" d="M113.07,27.03c-1,1.01-2.01,2.02-3.01,3.03c-0.35-0.69-0.71-1.37-1.06-2.06l-0.02-0.02
		C109.62,24.59,111.52,26.56,113.07,27.03z"/>
	<path style="fill:#2DB0A5;" d="M207.78,38.02c1-0.24,1.99-0.48,2.99-0.71c-0.31,0.92-0.62,1.85-0.93,2.77
		c-0.66,0.5-1.29,0.43-1.88-0.12l0.05,0.05C207.4,39.41,207.37,38.74,207.78,38.02z"/>
	<path style="fill:#2DB0A5;" d="M74.54,125.2c0,2.62,0,3.93,0,5.23c-0.29,0.04-0.59,0.08-0.88,0.12c-0.21-0.82-0.6-1.64-0.58-2.44
		C73.1,127.5,73.65,126.91,74.54,125.2z"/>
	<path style="fill:#33B3A9;" d="M250.78,147.98c0.08,1,0.15,1.99,0.23,2.99c-0.48,0.39-0.95,0.79-1.43,1.18
		C249.66,150.66,246.02,148.12,250.78,147.98z"/>
	<path style="fill:#35B4AA;" d="M186.92,23.12c-0.73,0.36-1.46,0.71-2.19,1.07c-0.24-1.12-0.47-2.24-0.71-3.36
		c0.7-0.4,1.36-0.42,1.96,0.2l-0.02-0.02C186.57,21.58,187.73,21.89,186.92,23.12z"/>
	<path style="fill:#2FB1A7;" d="M72.54,157.47c0-1.31,0-2.61,0-3.92c0.3-0.01,0.61-0.02,0.91-0.03c0,1.31,0,2.61,0,3.92
		C73.14,157.45,72.84,157.46,72.54,157.47z"/>
	<path style="fill:#1B7C75;" d="M121.97,17.98c0.07-0.65,0.14-1.3,0.21-1.95c1.19-0.74,2.39-1.48,3.58-2.23l0.35,0.29
		C124.73,15.39,123.35,16.68,121.97,17.98z"/>
	<path style="fill:#33B3A9;" d="M232.5,97.38c0.38,1.32,0.77,2.64,1.15,3.96c-0.35,0.11-0.71,0.21-1.06,0.32
		c-0.46-1.32-0.92-2.64-1.38-3.96C231.64,97.6,232.07,97.49,232.5,97.38z"/>
	<path style="fill:#26ACA1;" d="M254.04,155.96c-0.03-1-0.06-1.99-0.09-2.99c0.95,0.57,1.89,1.14,2.84,1.7
		C255.87,155.1,254.95,155.53,254.04,155.96z"/>
	<path style="fill:#1A827A;" d="M85.87,86.95c0,0-0.49,0.02-0.49,0.02l-0.49,0c0.32-2.09,0.64-4.17,0.96-6.26
		c0.4,0.06,0.79,0.13,1.19,0.19C86.65,82.92,86.26,84.93,85.87,86.95z"/>
	<path style="fill:#33B3A9;" d="M72.08,138.42c0.18-1.25,0.36-2.49,0.54-3.74c0.44,0.06,0.88,0.13,1.32,0.19
		c-0.15,1.25-0.3,2.5-0.44,3.75C73.02,138.56,72.55,138.49,72.08,138.42z"/>
	<path style="fill:#39B5AC;" d="M237.41,112.32c0.43,1.34,0.86,2.68,1.28,4.02c-0.35,0.12-0.69,0.25-1.04,0.37
		c-0.5-1.3-1-2.61-1.51-3.91C236.58,112.65,236.99,112.48,237.41,112.32z"/>
	<path style="fill:#2DB0A5;" d="M49.93,56.03c0.65,0.53,1.3,1.06,1.95,1.59c-1.02,0.78-2.05,1.57-3.07,2.35
		c-0.46-0.7-0.39-1.35,0.2-1.95l0.01-0.01C49.62,57.48,49.34,56.55,49.93,56.03z"/>
	<path style="fill:#33B3A9;" d="M252.7,163.1c0.07,1.61,0.15,3.22,0.22,4.83C250.91,166.41,249.53,164.86,252.7,163.1z"/>
	<path style="fill:#33B3A9;" d="M80.01,141.96c0-0.99,0-1.97,0-2.96c0.93,0.58,1.85,1.15,2.78,1.73
		C81.87,141.14,80.94,141.55,80.01,141.96z"/>
	<path style="fill:#35B4AA;" d="M223.91,59.05c-0.64-0.36-1.27-0.71-1.91-1.07l-0.01,0c-0.56-0.66-0.67-1.33,0.02-1.98
		c1.06,0.54,2.13,1.08,3.19,1.62C224.77,58.09,224.34,58.57,223.91,59.05z"/>
	<path style="fill:#33B3A9;" d="M236.15,82.51c0.55,1.27,1.09,2.53,1.64,3.8c-0.39,0.17-0.77,0.35-1.16,0.52
		c-0.61-1.23-1.23-2.46-1.84-3.69C235.24,82.93,235.7,82.72,236.15,82.51z"/>
	<path style="fill:#2FB1A7;" d="M85.43,103.45c0.12,0.95,0.24,1.89,0.36,2.84c-0.25,0.1-0.5,0.19-0.75,0.29
		c-0.33-0.53-0.84-1.04-0.93-1.61c-0.07-0.49,0.34-1.05,0.54-1.58C84.91,103.41,85.17,103.43,85.43,103.45z"/>
	<path style="fill:#2DB0A5;" d="M92.88,75.93c-0.59,0.95-1.18,1.9-1.77,2.86c-0.31-0.17-0.62-0.34-0.93-0.5
		c0.51-1.05,1.03-2.1,1.54-3.14C92.11,75.4,92.5,75.66,92.88,75.93z"/>
	<path style="fill:#33B3A9;" d="M84.42,110.45c0.12,0.95,0.24,1.89,0.36,2.84c-0.25,0.1-0.5,0.19-0.75,0.29
		c-0.33-0.53-0.84-1.04-0.93-1.61c-0.07-0.49,0.34-1.05,0.54-1.58C83.91,110.41,84.16,110.43,84.42,110.45z"/>
	<path style="fill:#35B4AA;" d="M80.88,87.91c-0.59,0.96-1.18,1.91-1.76,2.87c-0.31-0.17-0.62-0.33-0.93-0.5
		c0.51-1.05,1.03-2.11,1.54-3.16C80.12,87.39,80.5,87.65,80.88,87.91z"/>
	<path style="fill:#32B1A7;" d="M83.48,117.41c0.09,0.99,0.17,1.99,0.26,2.98c-0.4,0.04-0.81,0.08-1.21,0.12
		c-0.09-0.99-0.18-1.98-0.26-2.98C82.67,117.5,83.08,117.45,83.48,117.41z"/>
	<path style="fill:#2FB1A7;" d="M85.55,99.51c-0.12-0.95-0.24-1.89-0.35-2.84c0.25-0.09,0.5-0.19,0.75-0.28
		c0.33,0.53,0.84,1.04,0.92,1.61c0.07,0.49-0.35,1.05-0.55,1.58C86.07,99.56,85.81,99.53,85.55,99.51z"/>
	<path style="fill:#19726C;" d="M250.17,33.11c1.28,0.29,2.57,0.58,3.85,0.86c-0.32,0.6-0.64,1.21-0.96,1.81
		C252.1,34.9,251.13,34,250.17,33.11z"/>
	<path style="fill:#1A7871;" d="M183.94,19.03c-1.45-0.98-2.9-1.96-4.36-2.94c0.34-0.35,0.69-0.7,1.03-1.05
		c0.56,0.19,0.98,0.55,1.34,1.01l-0.04-0.04c0.43,0.33,0.77,0.73,1.03,1.19c0.35,0.59,0.7,1.18,1.05,1.76L183.94,19.03z"/>
	<path style="fill:#2FB1A7;" d="M81.44,156.48c-0.04-0.98-0.09-1.96-0.13-2.93c0.34-0.05,0.69-0.1,1.03-0.15c0.16,1,0.32,2,0.48,3
		C82.36,156.42,81.9,156.45,81.44,156.48z"/>
	<path style="fill:#19726C;" d="M114.93,25.95c0.04-0.53,0.08-1.05,0.13-1.58c0.16-0.57,0.53-1,1-1.34l-0.04,0.04
		c0.31-0.44,0.71-0.78,1.19-1.03c0.58-0.36,1.16-0.72,1.74-1.08l0.08,0.07c-1.33,1.68-2.65,3.35-3.98,5.03L114.93,25.95z"/>
	<path style="fill:#35B4AA;" d="M76.73,102.53c-0.19,0.94-0.37,1.88-0.56,2.82c-0.28-0.03-0.56-0.07-0.83-0.1c0-0.94,0-1.88,0-2.82
		C75.8,102.46,76.27,102.49,76.73,102.53z"/>
	<path style="fill:#33B3A9;" d="M165.94,7.95c1.01,0.36,2.01,0.71,3.02,1.07c-0.44,0.55-0.88,1.09-1.32,1.64
		C167.08,9.75,166.51,8.85,165.94,7.95z"/>
	<path style="fill:#35B4AA;" d="M242.57,102.7c-0.33-1.06-0.66-2.13-0.99-3.19c0.25-0.1,0.51-0.19,0.76-0.29
		c0.47,1.02,0.95,2.04,1.42,3.05C243.37,102.42,242.97,102.56,242.57,102.7z"/>
	<path style="fill:#2FB1A7;" d="M82.34,146.75c0.11,0.91,0.22,1.82,0.33,2.72c-0.33,0.06-0.66,0.12-0.99,0.18
		c-0.2-0.96-0.41-1.92-0.61-2.88C81.49,146.76,81.91,146.75,82.34,146.75z"/>
	<path style="fill:#33B3A9;" d="M245.4,138.68c-0.37-1.04-0.73-2.08-1.1-3.13c0.29-0.11,0.59-0.22,0.88-0.34
		c0.44,1.03,0.88,2.07,1.31,3.1C246.12,138.44,245.76,138.56,245.4,138.68z"/>
	<path style="fill:#35B4AA;" d="M220.17,49.2c0.55,0.95,1.1,1.89,1.65,2.84c-0.23,0.15-0.46,0.31-0.68,0.46
		c-0.68-0.85-1.35-1.7-2.03-2.54C219.46,49.7,219.82,49.45,220.17,49.2z"/>
	<path style="fill:#35B4AA;" d="M248.98,128.97c0.06-1.09,0.12-2.18,0.21-3.84C251.26,127.07,251.8,128.24,248.98,128.97
		L248.98,128.97z"/>
	<path style="fill:#2FB1A7;" d="M230.51,90.44c0.09,0.93,0.18,1.86,0.27,2.79c-0.3,0.06-0.59,0.12-0.89,0.18
		c-0.25-0.94-0.51-1.88-0.76-2.82C229.6,90.54,230.05,90.49,230.51,90.44z"/>
	<path style="fill:#19726C;" d="M49.02,58.02c-0.07,0.65-0.14,1.3-0.2,1.95c-0.95,0-1.89,0.01-2.84,0.01
		c-0.25-0.48-0.11-0.79,0.41-0.92C47.26,58.71,48.14,58.37,49.02,58.02z"/>
	<path style="fill:#1A827A;" d="M90.05,71.04c-0.25,1.49-0.49,2.98-0.74,4.47c-0.46-0.14-0.91-0.27-1.37-0.41
		c0.66-1.39,1.32-2.78,1.98-4.18L90.05,71.04z"/>
	<path style="fill:#39B5AC;" d="M224.46,71.25c0.41,1.04,0.82,2.08,1.23,3.12c-0.29,0.12-0.58,0.25-0.87,0.37
		c-0.46-1.01-0.91-2.02-1.37-3.03C223.79,71.56,224.13,71.41,224.46,71.25z"/>
	<path style="fill:#35B4AA;" d="M226.84,80.77c-0.46-1-0.92-2-1.39-3.01c0.3-0.15,0.59-0.29,0.89-0.44
		c0.48,0.99,0.97,1.97,1.45,2.96C227.47,80.45,227.16,80.61,226.84,80.77z"/>
	<path style="fill:#33B3A9;" d="M247.81,120.71c-0.31-0.84-0.62-1.67-0.93-2.51c0.26-0.11,0.52-0.22,0.78-0.33
		c0.34,0.83,0.68,1.65,1.02,2.48C248.39,120.47,248.1,120.59,247.81,120.71z"/>
	<path style="fill:#1B7C75;" d="M198.98,30.97c0.64,0.13,1.28,0.26,1.93,0.38c0.26,0.23,0.52,0.46,0.77,0.69
		c0.11,0.65,0.21,1.3,0.32,1.96C201,32.99,199.99,31.98,198.98,30.97z"/>
	<path style="fill:#32B1A7;" d="M171.97,8.07c-0.99-0.38-1.97-0.75-2.96-1.13c0.33-0.43,0.66-0.86,0.99-1.29
		C170.66,6.46,171.31,7.26,171.97,8.07z"/>
	<path style="fill:#19726C;" d="M109.26,34.22c-0.72,1.3-1.43,2.6-2.15,3.91l-0.29-0.34c0.08-0.8,0.16-1.59,0.24-2.39
		c0.14-0.62,0.58-1.01,1.04-1.4c0.26-0.03,0.52-0.08,0.77-0.14C108.98,33.99,109.12,34.11,109.26,34.22z"/>
	<path style="fill:#1A7871;" d="M186.92,23.12c-0.32-0.7-0.65-1.4-0.97-2.1c0.58,0.01,1.15,0.02,1.73,0.03
		c0.57,0.22,0.97,0.62,1.27,1.14c0.38,0.56,0.77,1.12,1.15,1.68l-0.33,0.31C188.82,23.83,187.87,23.47,186.92,23.12z"/>
	<path style="fill:#33B3A9;" d="M253.13,136.44c-0.4-0.79-0.8-1.59-1.2-2.38c0.3-0.14,0.61-0.29,0.91-0.43
		c0.37,0.8,0.73,1.61,1.1,2.41C253.68,136.17,253.41,136.3,253.13,136.44z"/>
	<path style="fill:#1A827A;" d="M92.04,67.03c-0.66,1.34-1.32,2.67-1.99,4.01l-0.12-0.11c0.66-1.34,1.33-2.67,1.99-4.01L92.04,67.03
		z"/>
	<path style="fill:#2FB1A7;" d="M81.98,163.86c-0.38-0.57-0.87-1.04-0.78-1.26c0.19-0.46,0.69-0.79,1.06-1.18
		c0.19,0.4,0.54,0.81,0.53,1.2C82.78,162.98,82.37,163.31,81.98,163.86z"/>
	<path style="fill:#33B3A9;" d="M95.56,51.76c-0.5,0.67-1,1.35-1.5,2.02c-0.25-0.16-0.5-0.33-0.75-0.49
		c0.45-0.74,0.91-1.48,1.36-2.23C94.97,51.29,95.27,51.53,95.56,51.76z"/>
	<path style="fill:#29AEA3;" d="M253.04,170.93c0.02,0.29,0.05,0.59,0.1,0.88c-0.41,0.58-0.82,1.15-1.24,1.73
		c-0.26-0.33-0.78-0.92-0.75-0.95C251.75,171.99,252.4,171.47,253.04,170.93z"/>
	<path style="fill:#29AEA3;" d="M191.83,24.11c0.65-2.48,0.65-2.48,2.8-0.51c-1.11,0.21-1.94,0.37-2.78,0.53L191.83,24.11z"/>
	<path style="fill:#35B4AA;" d="M221.54,66.76c-0.48-0.92-0.97-1.84-1.45-2.75c0.23-0.15,0.46-0.3,0.68-0.44
		c0.58,0.88,1.16,1.76,1.74,2.64C222.19,66.39,221.86,66.58,221.54,66.76z"/>
	<path style="fill:#39B5AC;" d="M154.09,2.84c0.96,0.39,1.93,0.77,2.89,1.16C156.02,3.61,155.05,3.22,154.09,2.84z"/>
	<path style="fill:#1B7C75;" d="M207.78,38.02c0.07,0.66,0.15,1.32,0.22,1.99c-1.01-1.01-2.02-2.03-3.04-3.04
		c0.66,0.07,1.32,0.15,1.98,0.22C207.23,37.47,207.5,37.75,207.78,38.02z"/>
	<path style="fill:#1A827A;" d="M210.99,42.97c1.01,0.99,2.03,1.98,3.04,2.97c0,0-0.11,0.11-0.11,0.11
		c-0.99-1.02-1.98-2.03-2.97-3.05C210.96,43.01,210.99,42.97,210.99,42.97z"/>
	<path style="fill:#35B4AA;" d="M238.89,91.04c0.44,0.57,0.86,0.88,0.9,1.23c0.04,0.32-0.34,0.68-0.53,1.03
		c-0.32-0.31-0.79-0.56-0.91-0.94C238.25,92.09,238.61,91.67,238.89,91.04z"/>
	<path style="fill:#33B3A9;" d="M77.04,97.92c-0.33-0.56-0.75-0.95-0.68-1.23c0.09-0.38,0.55-0.67,0.85-0.99
		c0.23,0.31,0.66,0.63,0.64,0.93C77.83,96.99,77.43,97.33,77.04,97.92z"/>
	<path style="fill:#35B4AA;" d="M240,121.05c0.4,0.59,0.79,0.94,0.82,1.31c0.02,0.29-0.42,0.61-0.66,0.92
		c-0.31-0.33-0.76-0.62-0.86-1.01C239.23,121.99,239.66,121.6,240,121.05z"/>
	<path style="fill:#39B5AC;" d="M247.22,142.1c0.4,0.71,0.81,1.43,1.21,2.14c-0.21,0.13-0.42,0.25-0.63,0.38
		c-0.44-0.69-0.88-1.38-1.32-2.07C246.72,142.4,246.97,142.25,247.22,142.1z"/>
	<path style="fill:#33B3A9;" d="M251.28,156.06c-0.06,0.68-0.13,1.36-0.19,2.04c-0.64-0.7-1.28-1.39-1.92-2.09
		C249.87,156.03,250.57,156.05,251.28,156.06z"/>
	<path style="fill:#1A7871;" d="M191.96,26.03c-0.64-0.08-1.29-0.17-1.93-0.25c-0.09-0.53-0.17-1.06-0.26-1.6l0.33-0.31
		c0.58,0.08,1.15,0.16,1.73,0.24c0,0,0.03,0.03,0.03,0.03C191.89,24.77,191.92,25.4,191.96,26.03z"/>
	<path style="fill:#39B5AC;" d="M212.74,49.46c0.38,0.5,0.77,1,1.15,1.5c-0.2,0.15-0.4,0.3-0.6,0.46c-0.38-0.5-0.76-1-1.14-1.5
		C212.34,49.76,212.54,49.61,212.74,49.46z"/>
	<path style="fill:#1B7C75;" d="M136.98,4c-0.3,0.59-0.61,1.17-0.91,1.76c-0.24-0.19-0.48-0.37-0.72-0.56
		C135.89,4.8,136.44,4.4,136.98,4L136.98,4z"/>
	<path style="fill:#1A7871;" d="M196.71,28.08c0.43,0.64,0.86,1.28,1.29,1.92c-1.07-0.6-2.13-1.2-3.2-1.8c0,0,0.29-0.35,0.29-0.35
		C195.64,27.93,196.17,28,196.71,28.08z"/>
	<path style="fill:#1B7C75;" d="M131.95,7.96c0.33-0.59,0.65-1.17,0.98-1.76c0.23,0.19,0.46,0.39,0.69,0.58
		c-0.54,0.41-1.08,0.82-1.62,1.23L131.95,7.96z"/>
	<path style="fill:#39B5AC;" d="M203.97,39c-0.59-0.27-1.17-0.53-1.76-0.8c0.15-0.21,0.3-0.43,0.45-0.64
		c0.44,0.47,0.88,0.95,1.32,1.42L203.97,39z"/>
	<path style="fill:#26ACA1;" d="M249.91,135.02c-0.34-1-0.67-2.01-1.01-3.01C249.24,133.02,249.57,134.02,249.91,135.02z"/>
	<path style="fill:#1A7871;" d="M185.97,21.03c-0.65-0.06-1.3-0.13-1.96-0.2c-0.02-0.6-0.05-1.2-0.07-1.8c0,0,0.06-0.05,0.06-0.05
		C184.66,19.66,185.31,20.35,185.97,21.03z"/>
	<path style="fill:#29AEA3;" d="M110.07,30.04c-0.3,0.7-0.6,1.39-0.9,2.09C109.47,31.43,109.77,30.73,110.07,30.04z"/>
	<path style="fill:#29AEA3;" d="M104.85,39.96c0.34-0.66,0.68-1.32,1.02-1.98c0.29,0.2,0.4,0.42,0.33,0.66
		c-0.07,0.24-0.15,0.36-0.24,0.36l0.03-0.04C105.63,39.33,105.53,39.97,104.85,39.96z"/>
	<path style="fill:#1A827A;" d="M105.92,40.96c-0.49,0.5-0.98,1-1.47,1.5c0.13-0.5,0.26-1,0.4-1.5
		C105.2,40.51,105.55,40.51,105.92,40.96z"/>
	<path style="fill:#26ACA1;" d="M248.91,132.03c-0.35-0.64-0.7-1.28-1.05-1.91c0.38-0.38,0.75-0.77,1.13-1.15l-0.01,0
		C248.95,129.99,248.93,131.01,248.91,132.03z"/>
	<path style="fill:#39B5AC;" d="M203.98,38.99c0.25,0.36,0.51,0.73,0.76,1.09c-0.13,0.09-0.26,0.17-0.39,0.26
		c-0.13-0.44-0.26-0.89-0.39-1.33C203.97,39,203.98,38.99,203.98,38.99z"/>
	<path style="fill:#19726C;" d="M105.92,40.96c-0.36,0-0.72,0.01-1.07,0.01c0-0.34,0.01-0.67,0.01-1.01c0.38-0.33,0.76-0.67,1.14-1
		C105.96,39.63,105.94,40.3,105.92,40.96z"/>
	<path style="fill:#1B8A82;" d="M222.01,55.99c-0.01,0.66-0.01,1.32-0.02,1.98c-0.34-0.66-0.69-1.31-1.03-1.97l0.03-0.02
		C221.33,55.98,221.67,55.99,222.01,55.99z"/>
	<path style="fill:#1B7C75;" d="M132,8.02c-0.66,0.34-1.32,0.68-1.98,1.02l-0.07-0.07c0.67-0.34,1.33-0.67,2-1.01L132,8.02z"/>
	<path style="fill:#19726C;" d="M49.93,56.03c-0.3,0.66-0.61,1.32-0.91,1.98c0-0.6,0-1.21,0-1.81c0.26-0.44,0.58-0.47,0.96-0.15
		C49.98,56.05,49.93,56.03,49.93,56.03z"/>
	<path style="fill:#1B8A82;" d="M220.96,56c-0.32-0.67-0.65-1.35-0.97-2.02c0,0-0.02,0.02-0.02,0.02c0.34,0.66,0.68,1.32,1.02,1.97
		C220.98,55.98,220.96,56,220.96,56z"/>
	<path style="fill:#1A827A;" d="M99.92,50.93c0.34-0.66,0.69-1.32,1.03-1.98l0.1,0.1c-0.33,0.67-0.66,1.34-0.98,2.01L99.92,50.93z"
		/>
	<path style="fill:#1A827A;" d="M91.92,66.93c0.12-0.45,0.24-0.9,0.36-1.34c0.19,0.1,0.39,0.19,0.58,0.29
		c-0.27,0.39-0.55,0.77-0.82,1.16L91.92,66.93z"/>
	<path style="fill:#1A827A;" d="M87.8,77.9c-0.05,0.14-0.1,0.29-0.15,0.43c-0.15-0.16-0.32-0.31-0.43-0.49
		c-0.02-0.04,0.2-0.22,0.31-0.33C87.62,77.64,87.71,77.77,87.8,77.9z"/>
	<path style="fill:#1B7C75;" d="M224.82,65.02c0.37,0,0.73,0,1.1,0c0.03,0.66,0.05,1.32,0.08,1.98
		C225.6,66.34,225.21,65.68,224.82,65.02z"/>
	<path style="fill:#1A827A;" d="M215,46.96c0.33,0.67,0.67,1.34,1,2.01l-0.04,0.04c-0.34-0.66-0.68-1.32-1.02-1.99L215,46.96z"/>
	<path style="fill:#1A7871;" d="M193.98,27.03c-0.68-0.34-1.35-0.67-2.03-1.01C192.63,26.35,193.3,26.69,193.98,27.03z"/>
	<path style="fill:#29AEA3;" d="M177.99,12.98c0.44,0.08,0.88,0.17,1.32,0.25c-0.28,0.25-0.56,0.5-0.84,0.75
		C177.92,13.83,177.76,13.5,177.99,12.98L177.99,12.98z"/>
	<path style="fill:#1B7C75;" d="M207.96,39.96c0.63,0.04,1.26,0.08,1.88,0.12c0.03,0.3,0.05,0.6,0.07,0.9
		c-0.31,0.4-0.62,0.4-0.94,0.01C208.64,40.65,208.3,40.31,207.96,39.96z"/>
	<path style="fill:#1B867E;" d="M174.99,11.98c0.67,0.33,1.33,0.67,2,1C176.32,12.65,175.66,12.31,174.99,11.98z"/>
	<path style="fill:#1B7C75;" d="M125.76,13.8c0.38-0.64,0.75-1.27,1.13-1.91l0.27,0.27c-0.35,0.65-0.7,1.29-1.06,1.94L125.76,13.8z"
		/>
	<path style="fill:#19726C;" d="M105.96,39c-0.03-0.34-0.06-0.68-0.08-1.02c0.31-0.08,0.62-0.14,0.94-0.19l0.29,0.34
		C106.72,38.42,106.34,38.71,105.96,39z"/>
	<path style="fill:#19726C;" d="M119.96,20c0.34-0.34,0.69-0.69,1.03-1.03C120.64,19.31,120.3,19.66,119.96,20z"/>
	<path style="fill:#1B7C75;" d="M203.97,35.97c0.34,0.34,0.69,0.69,1.03,1.03C204.66,36.66,204.31,36.31,203.97,35.97z"/>
	<path style="fill:#1B7C75;" d="M202.98,34.97c0.34,0.34,0.68,0.69,1.03,1.03C203.66,35.66,203.32,35.31,202.98,34.97z"/>
	<path style="fill:#1B7C75;" d="M201.98,33.97c0.34,0.34,0.68,0.68,1.03,1.03C202.66,34.65,202.32,34.31,201.98,33.97z"/>
	<path style="fill:#29AEA3;" d="M108.09,34.01c-0.35,0.47-0.69,0.93-1.04,1.4C107.4,34.94,107.74,34.47,108.09,34.01z"/>
	<path style="fill:#1A7871;" d="M197.97,29.97c0.35,0.35,0.69,0.69,1.04,1.04C198.66,30.66,198.31,30.31,197.97,29.97z"/>
	<path style="fill:#29AEA3;" d="M108.99,28c-0.14,0.13-0.28,0.27-0.42,0.4c0.02-0.09,0.02-0.21,0.07-0.26
		c0.09-0.08,0.22-0.11,0.33-0.16L108.99,28z"/>
	<path style="fill:#1B867E;" d="M172.03,8.95c0.34,0.32,0.68,0.64,1.03,0.96l-0.16,0.18c-0.33-0.34-0.65-0.68-0.98-1.02
		C171.92,9.07,172.03,8.95,172.03,8.95z"/>
	<path style="fill:#1B7C75;" d="M130.02,9.04c-0.33,0.34-0.66,0.67-0.99,1.01l-0.09-0.09c0.34-0.33,0.67-0.66,1.01-0.99L130.02,9.04
		z"/>
	<path style="fill:#1B867E;" d="M177.99,12.98c0.16,0.33,0.32,0.67,0.47,1c-0.49-0.33-0.98-0.67-1.48-1
		C177.32,12.98,177.66,12.98,177.99,12.98z"/>
	<path style="fill:#2FB1A7;" d="M182.95,17.22c-0.34-0.4-0.69-0.8-1.03-1.19C182.26,16.42,182.6,16.82,182.95,17.22z"/>
	<path style="fill:#19726C;" d="M120.96,19c0.34-0.34,0.69-0.68,1.03-1.03C121.64,18.31,121.3,18.66,120.96,19z"/>
	<path style="fill:#19726C;" d="M119,20.04c0.33-0.07,0.66-0.09,0.99-0.07c-0.32,0.35-0.64,0.71-0.96,1.07c0,0-0.07-0.07-0.07-0.07
		C118.97,20.66,118.99,20.35,119,20.04z"/>
	<path style="fill:#1B867E;" d="M173.99,10.98c0.33,0.33,0.67,0.67,1,1C174.66,11.65,174.33,11.32,173.99,10.98z"/>
	<path style="fill:#1A827A;" d="M96.06,59.08c-0.19,0.14-0.38,0.28-0.57,0.43c0.13-0.2,0.26-0.4,0.39-0.61L96.06,59.08z"/>
	<path style="fill:#29AEA3;" d="M188.95,22.19c-0.42-0.38-0.85-0.76-1.27-1.14C188.1,21.43,188.52,21.81,188.95,22.19z"/>
	<path style="fill:#2DB0A5;" d="M49.98,56.05c-0.33-0.01-0.65,0.04-0.96,0.15C49.35,56.15,49.67,56.1,49.98,56.05z"/>
	<path style="fill:#1B7C75;" d="M128.05,11.06c-0.3,0.37-0.59,0.74-0.89,1.1l-0.27-0.27c0.35-0.32,0.7-0.63,1.05-0.95L128.05,11.06z
		"/>
	<path style="fill:#1B8A82;" d="M219.99,53.98c-0.15-0.07-0.29-0.15-0.44-0.22c0.14,0.08,0.28,0.16,0.42,0.24L219.99,53.98z"/>
	<path style="fill:#1A827A;" d="M216,48.97c0.15,0.16,0.3,0.32,0.45,0.48c-0.17-0.14-0.33-0.29-0.5-0.43
		C215.96,49.02,216,48.97,216,48.97z"/>
	<path style="fill:#26ACA1;" d="M117.21,22.04c-0.4,0.34-0.8,0.68-1.19,1.03C116.42,22.73,116.81,22.38,117.21,22.04z"/>
	<path style="fill:#26ACA1;" d="M116.06,23.03c-0.33,0.45-0.67,0.89-1,1.34C115.39,23.92,115.72,23.47,116.06,23.03z"/>
	<path style="fill:#2DB0A5;" d="M46.39,59.06c-0.14,0.31-0.27,0.61-0.41,0.92C46.11,59.68,46.25,59.37,46.39,59.06z"/>
	<path style="fill:#1A827A;" d="M100.95,48.95c0.18-0.15,0.35-0.3,0.53-0.45c-0.14,0.18-0.28,0.36-0.43,0.55L100.95,48.95z"/>
	<path style="fill:#2FB1A7;" d="M181.95,16.06c-0.45-0.34-0.89-0.67-1.34-1.01C181.06,15.38,181.51,15.72,181.95,16.06z"/>
	<path style="fill:#1B867E;" d="M174.01,9.93c0,0.35-0.01,0.7-0.01,1.06c-0.37-0.3-0.73-0.6-1.1-0.89c0,0,0.16-0.18,0.16-0.18
		C173.38,9.93,173.69,9.94,174.01,9.93z"/>
	<path style="fill:#1A827A;" d="M214.03,45.94c0.32,0.34,0.65,0.68,0.97,1.02c0,0-0.07,0.07-0.07,0.07
		c-0.34-0.33-0.67-0.65-1.01-0.98C213.92,46.05,214.03,45.94,214.03,45.94z"/>
	<path style="fill:#35B4AA;" d="M215.98,43.98c0.14,0.15,0.28,0.29,0.42,0.44c-0.15-0.14-0.3-0.28-0.45-0.42
		C215.96,44.01,215.98,43.98,215.98,43.98z"/>
	<path style="fill:#35B4AA;" d="M214.99,42.98c0.33,0.33,0.67,0.67,1,1l-0.03,0.03c-0.33-0.33-0.67-0.67-1-1
		C214.96,43.01,214.99,42.98,214.99,42.98z"/>
	<path style="fill:#35B4AA;" d="M214.96,43.01c-0.14-0.15-0.27-0.29-0.41-0.44c0.15,0.14,0.29,0.28,0.44,0.41
		C214.99,42.98,214.96,43.01,214.96,43.01z"/>
	<path style="fill:#1A827A;" d="M210.96,43.01c-0.33-0.33-0.66-0.67-0.99-1l0.02-0.02c0.33,0.33,0.67,0.66,1,0.99L210.96,43.01z"/>
	<path style="fill:#1A827A;" d="M208.98,40.99c0.31,0,0.62,0,0.94-0.01c0.02,0.33,0.05,0.67,0.07,1L209.96,42
		C209.64,41.66,209.31,41.33,208.98,40.99z"/>
	<path style="fill:#1B7C75;" d="M129.03,10.05c-0.33,0.33-0.65,0.67-0.98,1.01c0,0-0.11-0.11-0.11-0.11c0.33-0.33,0.67-0.65,1-0.98
		C128.94,9.96,129.03,10.05,129.03,10.05z"/>
	<path style="fill:#19726C;" d="M115.05,26.07c-0.33,0.33-0.66,0.66-0.99,0.99c0,0-0.11-0.11-0.11-0.11c0.33-0.33,0.66-0.67,0.99-1
		C114.93,25.95,115.05,26.07,115.05,26.07z"/>
	<path style="fill:#1A7871;" d="M193.89,28.31c0.02-0.44,0.03-0.87,0.05-1.31c0.39,0.28,0.77,0.57,1.16,0.85l-0.29,0.35
		C194.49,28.17,194.19,28.21,193.89,28.31z"/>
	<path style="fill:#2FB1A7;" d="M333.12,233.87c-1.96-0.75-3.92-1.51-5.87-2.26c0.16-0.47,0.32-0.93,0.49-1.4
		c1.97,0.7,3.94,1.4,5.92,2.1C333.48,232.83,333.3,233.35,333.12,233.87z"/>
	<path style="fill:#32B1A7;" d="M308.67,222.15c1.96,0.8,3.93,1.59,5.89,2.39c-0.14,0.38-0.28,0.75-0.42,1.13
		c-1.99-0.73-3.98-1.46-5.96-2.19C308.34,223.03,308.51,222.59,308.67,222.15z"/>
	<path style="fill:#2DB0A5;" d="M314.22,218.85c-1.94-0.94-3.89-1.88-5.83-2.82c0.19-0.4,0.37-0.8,0.56-1.2
		c1.96,0.91,3.92,1.81,5.88,2.72C314.62,217.99,314.42,218.42,314.22,218.85z"/>
	<path style="fill:#32B1A7;" d="M329.17,216.88c-1.67-0.81-3.34-1.63-5-2.44c0.2-0.42,0.4-0.84,0.6-1.27
		c1.67,0.81,3.34,1.61,5.02,2.42C329.57,216.03,329.37,216.46,329.17,216.88z"/>
	<path style="fill:#2DB0A5;" d="M366.57,233.42c1.59,0,3.19,0,4.78,0c0,0.33,0.01,0.66,0.01,0.99c-1.6,0-3.19,0-4.79,0
		C366.57,234.08,366.57,233.75,366.57,233.42z"/>
	<path style="fill:#2FB1A7;" d="M346.97,230.83c-1.9-0.72-3.79-1.43-5.69-2.15c0.14-0.39,0.28-0.78,0.42-1.17
		c1.89,0.7,3.79,1.4,5.68,2.09C347.24,230.01,347.1,230.42,346.97,230.83z"/>
	<path style="fill:#32B1A7;" d="M397.18,227.76c1.21-0.89,2.42-1.77,3.63-2.66c0.29,0.34,0.57,0.68,0.86,1.02
		c-1.19,0.95-2.38,1.9-3.56,2.85C397.79,228.56,397.49,228.16,397.18,227.76z"/>
	<path style="fill:#2FB1A7;" d="M376.22,226.37c-1.55,0.13-3.1,0.25-4.64,0.38c-0.03-0.43-0.06-0.86-0.09-1.29c1.55,0,3.09,0,4.64,0
		C376.15,225.76,376.18,226.06,376.22,226.37z"/>
	<path style="fill:#33B3A9;" d="M363.48,218.39c1.3,0,2.61,0,3.91,0c0.03,0.38,0.07,0.75,0.1,1.13c-1.31,0.12-2.63,0.24-3.94,0.37
		C363.53,219.38,363.51,218.89,363.48,218.39z"/>
	<path style="fill:#2FB1A7;" d="M348.86,238c1.38,0.11,2.75,0.23,4.13,0.34c-0.01,0.34-0.02,0.67-0.03,1.01c-1.4,0-2.8,0-4.2,0
		C348.79,238.9,348.83,238.45,348.86,238z"/>
	<path style="fill:#35B4AA;" d="M306.92,205.85c1.53,0.68,3.07,1.35,4.6,2.03c-0.17,0.41-0.35,0.82-0.52,1.23
		c-1.53-0.68-3.07-1.36-4.6-2.03C306.57,206.66,306.74,206.25,306.92,205.85z"/>
	<path style="fill:#32B1A7;" d="M408.64,219.53c0.99-0.9,1.98-1.79,2.96-2.69c0.41,0.39,0.81,0.78,1.22,1.16
		c-0.91,0.97-1.82,1.95-2.72,2.92C409.61,220.46,409.13,220,408.64,219.53z"/>
	<path style="fill:#2FB1A7;" d="M349.29,216.83c-1.61-0.56-3.23-1.13-4.84-1.69c0.14-0.42,0.29-0.83,0.43-1.25
		c1.62,0.54,3.24,1.08,4.87,1.62C349.59,215.94,349.44,216.38,349.29,216.83z"/>
	<path style="fill:#35B4AA;" d="M244.04,189.08c1.3-0.02,2.61-0.05,3.91-0.07c-0.25,0.86-0.51,1.71-0.76,2.57
		C246.14,190.75,245.09,189.91,244.04,189.08z"/>
	<path style="fill:#2DB0A5;" d="M361.69,224.05c1.43,0.36,2.87,0.71,4.3,1.07c-0.03,0.28-0.07,0.56-0.1,0.84
		c-1.49-0.07-2.97-0.13-4.46-0.2C361.52,225.18,361.6,224.62,361.69,224.05z"/>
	<path style="fill:#2DB0A5;" d="M358.39,233.83c-1.24-0.15-2.48-0.3-3.71-0.45c0.03-0.34,0.05-0.68,0.08-1.02c1.23,0,2.46,0,3.69,0
		C358.42,232.86,358.41,233.35,358.39,233.83z"/>
	<path style="fill:#35B4AA;" d="M371.46,218.29c1.23,0,2.46,0,3.69,0c0.02,0.33,0.04,0.66,0.06,0.99c-1.24,0.07-2.47,0.15-3.71,0.22
		C371.49,219.1,371.47,218.69,371.46,218.29z"/>
	<path style="fill:#2FB1A7;" d="M299.77,218.11c1.25,0.61,2.49,1.21,3.74,1.82c-0.18,0.38-0.36,0.76-0.54,1.14
		c-1.26-0.58-2.52-1.15-3.78-1.73C299.38,218.94,299.58,218.52,299.77,218.11z"/>
	<path style="fill:#39B5AC;" d="M294.13,216.51c-1.53-0.79-3.06-1.58-4.59-2.37c0.16-0.35,0.31-0.69,0.47-1.04
		c1.59,0.78,3.18,1.56,4.77,2.34C294.56,215.8,294.34,216.15,294.13,216.51z"/>
	<path style="fill:#33B3A9;" d="M274.63,198.43c1.38,0.72,2.76,1.44,4.15,2.16c-0.22,0.4-0.43,0.79-0.65,1.19
		c-1.34-0.79-2.68-1.59-4.02-2.38C274.28,199.07,274.45,198.75,274.63,198.43z"/>
	<path style="fill:#2FB1A7;" d="M283.22,202.81c1.16,0.59,2.31,1.19,3.47,1.78c-0.16,0.38-0.33,0.76-0.49,1.14
		c-1.26-0.56-2.53-1.13-3.79-1.69C282.67,203.63,282.95,203.22,283.22,202.81z"/>
	<path style="fill:#33B3A9;" d="M387.17,222.71c1.02-0.52,2.03-1.04,3.05-1.55c0.18,0.36,0.36,0.71,0.55,1.07
		c-1.02,0.51-2.03,1.03-3.05,1.54C387.53,223.42,387.35,223.07,387.17,222.71z"/>
	<path style="fill:#2FB1A7;" d="M355.03,224.87c-0.95-0.59-1.91-1.18-2.86-1.77c0.17-0.31,0.33-0.61,0.5-0.92
		c1.05,0.51,2.1,1.02,3.15,1.53C355.56,224.1,355.29,224.48,355.03,224.87z"/>
	<path style="fill:#35B4AA;" d="M295.28,209.8c-1.29-0.57-2.57-1.13-3.86-1.7c0.12-0.31,0.25-0.62,0.37-0.93
		c1.32,0.5,2.64,1,3.95,1.5C295.59,209.05,295.43,209.43,295.28,209.8z"/>
	<path style="fill:#32B1A7;" d="M427.06,202.05c0.7-0.88,1.4-1.76,2.09-2.64c0.31,0.2,0.61,0.4,0.92,0.59
		c-0.58,0.99-1.15,1.99-1.73,2.98C427.92,202.67,427.49,202.36,427.06,202.05z"/>
	<path style="fill:#35B4AA;" d="M338.21,219.77c-1.22-0.53-2.45-1.05-3.67-1.58c0.11-0.32,0.22-0.64,0.34-0.96
		c1.25,0.43,2.5,0.87,3.75,1.3C338.49,218.94,338.35,219.36,338.21,219.77z"/>
	<path style="fill:#2FB1A7;" d="M319.03,212.88c-0.95-0.59-1.91-1.19-2.86-1.78c0.17-0.31,0.34-0.62,0.5-0.92
		c1.05,0.52,2.1,1.03,3.15,1.55C319.56,212.11,319.3,212.49,319.03,212.88z"/>
	<path style="fill:#33B3A9;" d="M320.07,219.85c1.21,0.54,2.41,1.08,3.62,1.62c-0.11,0.3-0.22,0.61-0.33,0.91
		c-1.29-0.41-2.58-0.82-3.86-1.23C319.68,220.72,319.88,220.29,320.07,219.85z"/>
	<path style="fill:#2FB1A7;" d="M300.85,204.91c-1.14-0.69-2.29-1.38-3.43-2.07c0.19-0.34,0.38-0.67,0.57-1.01
		c1.2,0.67,2.4,1.34,3.6,2.02C301.34,204.2,301.09,204.55,300.85,204.91z"/>
	<path style="fill:#33B3A9;" d="M285.26,196.54c-1.07-0.69-2.15-1.39-3.22-2.08c0.22-0.34,0.44-0.67,0.65-1.01
		c1.08,0.69,2.15,1.38,3.23,2.07C285.7,195.86,285.48,196.2,285.26,196.54z"/>
	<path style="fill:#33B3A9;" d="M338.76,234.41c1.24,0.53,2.48,1.06,3.72,1.59c-0.15,0.36-0.3,0.71-0.45,1.07
		c-1.31-0.54-2.62-1.07-3.93-1.61C338.31,235.11,338.54,234.76,338.76,234.41z"/>
	<path style="fill:#35B4AA;" d="M379.73,224.52c1.16-0.14,2.32-0.29,3.48-0.43c0.07,0.36,0.14,0.72,0.2,1.09
		c-1.21,0.28-2.43,0.55-3.64,0.83C379.76,225.51,379.75,225.02,379.73,224.52z"/>
	<path style="fill:#35B4AA;" d="M345.82,222.04c-1.07-0.46-2.13-0.91-3.2-1.37c0.09-0.27,0.18-0.54,0.26-0.81
		c1.19,0.31,2.38,0.63,3.58,0.94C346.25,221.21,346.03,221.63,345.82,222.04z"/>
	<path style="fill:#35B4AA;" d="M415.08,202.87c0.68-0.54,1.36-1.09,2.04-1.63c0.21,0.23,0.42,0.45,0.63,0.68
		c-0.59,0.64-1.17,1.27-1.76,1.91C415.68,203.51,415.38,203.19,415.08,202.87z"/>
	<path style="fill:#33B3A9;" d="M404.92,214.43c-0.95,0.55-1.9,1.1-2.86,1.65c-0.19-0.34-0.38-0.68-0.57-1.01
		c0.97-0.52,1.94-1.04,2.9-1.55C404.58,213.82,404.75,214.13,404.92,214.43z"/>
	<path style="fill:#2FB1A7;" d="M322.72,207.07c-1.14-0.51-2.27-1.01-3.41-1.52c0.12-0.34,0.25-0.68,0.37-1.03
		c1.2,0.55,2.41,1.09,3.61,1.64C323.1,206.46,322.91,206.76,322.72,207.07z"/>
	<path style="fill:#2FB1A7;" d="M267.98,202.96c1.29,0.43,2.58,0.87,3.86,1.3c-0.22,0.44-0.43,0.88-0.65,1.32
		c-1.08-0.86-2.17-1.72-3.25-2.59L267.98,202.96z"/>
	<path style="fill:#33B3A9;" d="M261.2,192.76c-0.92-0.59-1.85-1.17-2.77-1.76c0.16-0.28,0.32-0.57,0.49-0.85
		c0.96,0.55,1.91,1.09,2.87,1.64C261.58,192.12,261.39,192.44,261.2,192.76z"/>
	<path style="fill:#32B1A7;" d="M412.76,194.91c-0.51,0.64-1.01,1.28-1.52,1.92c-0.31-0.22-0.62-0.44-0.93-0.66
		c0.47-0.7,0.94-1.4,1.41-2.1C412.07,194.35,412.41,194.63,412.76,194.91z"/>
	<path style="fill:#35B4AA;" d="M438.13,199.07c0.56-0.84,1.13-1.68,1.69-2.52c0.3,0.14,0.59,0.29,0.89,0.43
		c-0.5,0.92-1.01,1.85-1.51,2.77C438.84,199.53,438.48,199.3,438.13,199.07z"/>
	<path style="fill:#35B4AA;" d="M402.02,234.44c0.96-0.51,1.92-1.03,2.88-1.54c0.17,0.28,0.34,0.56,0.51,0.84
		c-0.91,0.6-1.81,1.19-2.72,1.79C402.47,235.17,402.24,234.8,402.02,234.44z"/>
	<path style="fill:#33B3A9;" d="M385.36,239.55c0.9-0.17,1.8-0.34,2.7-0.51c0.09,0.31,0.18,0.61,0.27,0.92
		c-0.87,0.3-1.75,0.61-2.62,0.91C385.59,240.43,385.48,239.99,385.36,239.55z"/>
	<path style="fill:#32B1A7;" d="M372.37,242.81c-0.96-0.26-1.92-0.53-2.87-0.79c0.08-0.33,0.17-0.66,0.25-1
		c0.97,0.21,1.94,0.43,2.91,0.64C372.57,242.04,372.47,242.42,372.37,242.81z"/>
	<path style="fill:#39B5AC;" d="M322.93,229.86c-1.17-0.64-2.34-1.28-3.51-1.93c0.13-0.26,0.25-0.52,0.38-0.78
		c1.2,0.56,2.41,1.11,3.61,1.67C323.26,229.17,323.09,229.51,322.93,229.86z"/>
	<path style="fill:#35B4AA;" d="M281.29,210.5c-0.94-0.5-1.88-1.01-2.82-1.51c0.11-0.24,0.22-0.48,0.33-0.72
		c0.99,0.42,1.98,0.83,2.97,1.25C281.61,209.85,281.45,210.17,281.29,210.5z"/>
	<path style="fill:#2FB1A7;" d="M332.81,225.05c0.86,0.29,1.73,0.58,2.59,0.88c-0.1,0.31-0.21,0.62-0.31,0.93
		c-0.86-0.3-1.72-0.6-2.59-0.9C332.61,225.65,332.71,225.35,332.81,225.05z"/>
	<path style="fill:#35B4AA;" d="M392.42,229.82c-0.81,0.39-1.61,0.79-2.42,1.18c-0.14-0.31-0.28-0.61-0.42-0.92
		c0.81-0.36,1.63-0.72,2.44-1.08C392.15,229.27,392.29,229.55,392.42,229.82z"/>
	<path style="fill:#39B5AC;" d="M382.49,231.92c0.87-0.29,1.74-0.57,2.61-0.86c0.1,0.26,0.21,0.51,0.31,0.77
		c-0.81,0.39-1.61,0.78-2.42,1.16C382.83,232.63,382.66,232.28,382.49,231.92z"/>
	<path style="fill:#39B5AC;" d="M396.97,218.98c-0.88,0.75-1.76,1.51-2.64,2.26c-0.23-0.44-0.46-0.88-0.69-1.33
		c1.1-0.32,2.2-0.64,3.3-0.96L396.97,218.98z"/>
	<path style="fill:#39B5AC;" d="M289.94,198.11c0.92,0.55,1.85,1.1,2.77,1.65c-0.14,0.24-0.29,0.48-0.43,0.72
		c-0.92-0.55-1.85-1.1-2.77-1.65C289.65,198.59,289.8,198.35,289.94,198.11z"/>
	<path style="fill:#2FB1A7;" d="M277.55,191.28c-0.53,0.26-0.92,0.62-1.2,0.55c-0.37-0.09-0.66-0.51-0.98-0.79
		c0.31-0.26,0.65-0.75,0.91-0.71C276.65,190.39,276.98,190.83,277.55,191.28z"/>
	<path style="fill:#39B5AC;" d="M401.54,205.79c-0.65,0.55-1.29,1.1-1.94,1.64c-0.17-0.21-0.35-0.42-0.52-0.63
		c0.66-0.54,1.31-1.08,1.97-1.62C401.22,205.39,401.38,205.59,401.54,205.79z"/>
	<path style="fill:#39B5AC;" d="M411.56,206.37c0.61-0.56,1.22-1.12,1.82-1.67c0.31,0.27,0.62,0.54,0.94,0.81
		c-0.53,0.69-1.06,1.37-1.59,2.06C412.34,207.16,411.95,206.77,411.56,206.37z"/>
	<path style="fill:#33B3A9;" d="M302.7,212.2c0.61,0.14,1.22,0.27,1.81,0.46c0.02,0.01-0.12,0.53-0.18,0.81
		c-0.61-0.16-1.21-0.33-1.82-0.49C302.57,212.72,302.63,212.46,302.7,212.2z"/>
	<path style="fill:#35B4AA;" d="M394.52,238.09c0.78-0.39,1.57-0.77,2.35-1.16c0.11,0.22,0.22,0.43,0.33,0.65
		c-0.77,0.41-1.55,0.81-2.32,1.22C394.77,238.56,394.64,238.32,394.52,238.09z"/>
	<path style="fill:#39B5AC;" d="M414.11,215.94c0.76-0.44,1.52-0.87,2.29-1.31c0.14,0.15,0.29,0.31,0.43,0.46
		c-0.61,0.58-1.22,1.17-1.84,1.75C414.7,216.54,414.41,216.24,414.11,215.94z"/>
	<path style="fill:#35B4AA;" d="M382.47,216.96c-0.77,0.36-1.55,0.73-2.32,1.09c-0.11-0.23-0.22-0.47-0.33-0.7
		c0.77-0.36,1.55-0.73,2.32-1.09C382.24,216.49,382.36,216.73,382.47,216.96z"/>
	<path style="fill:#33B3A9;" d="M406.89,222.79c-0.53,0.48-0.81,0.92-1.15,0.98c-0.34,0.06-0.75-0.27-1.13-0.42
		c0.28-0.34,0.51-0.82,0.87-0.96C405.76,222.28,406.22,222.58,406.89,222.79z"/>
	<path style="fill:#39B5AC;" d="M410.99,230.01c-0.42,0.5-0.85,1-1.27,1.5c-0.11-0.11-0.22-0.22-0.33-0.33
		c0.51-0.42,1.02-0.83,1.53-1.25C410.92,229.94,410.99,230.01,410.99,230.01z"/>
	<path style="fill:#39B5AC;" d="M417.91,224.93c0.42-0.5,0.84-1.01,1.26-1.51c0.11,0.11,0.22,0.22,0.33,0.33
		c-0.51,0.42-1.01,0.84-1.52,1.25C417.98,225.01,417.91,224.93,417.91,224.93z"/>
	<path style="fill:#39B5AC;" d="M424.91,205.95c0.42-0.5,0.83-1.01,1.25-1.51c0.11,0.11,0.22,0.22,0.33,0.33
		c-0.5,0.42-1.01,0.83-1.51,1.25C424.98,206.01,424.91,205.95,424.91,205.95z"/>
	<path style="fill:#39B5AC;" d="M422.93,219.96c0.34-0.85,0.68-1.69,1.02-2.54c0.28,0.16,0.57,0.32,0.85,0.48
		c-0.62,0.7-1.23,1.39-1.85,2.09L422.93,219.96z"/>
	<path style="fill:#2FB1A7;" d="M259.98,198.96c0.84,0.34,1.69,0.67,2.53,1.01c-0.16,0.28-0.31,0.57-0.47,0.85
		c-0.69-0.61-1.39-1.23-2.08-1.84L259.98,198.96z"/>
	<path style="fill:#35B4AA;" d="M387.92,214.94c0.42-0.5,0.84-1,1.26-1.5c0.11,0.11,0.22,0.22,0.33,0.33
		c-0.51,0.41-1.02,0.83-1.53,1.24C387.97,215,387.92,214.94,387.92,214.94z"/>
	<path style="fill:#33B3A9;" d="M415.4,190.52c-0.16,0.26-0.26,0.61-0.49,0.74c-0.15,0.09-0.48-0.13-0.73-0.21
		c0.13-0.26,0.2-0.64,0.42-0.75C414.78,190.21,415.12,190.43,415.4,190.52z"/>
	<path style="fill:#39B5AC;" d="M417.98,225.01c-0.45,0.47-0.89,0.93-1.34,1.4c-0.15-0.21-0.3-0.42-0.45-0.63
		c0.58-0.28,1.15-0.56,1.73-0.84C417.91,224.93,417.98,225.01,417.98,225.01z"/>
	<path style="fill:#39B5AC;" d="M433.92,206.95c0.28-0.58,0.55-1.17,0.83-1.75c0.21,0.15,0.43,0.3,0.64,0.45
		c-0.47,0.45-0.94,0.9-1.42,1.35L433.92,206.95z"/>
	<path style="fill:#33B3A9;" d="M252.96,194.98c-0.59-0.26-1.18-0.53-1.76-0.79c0.15-0.21,0.3-0.43,0.45-0.64
		c0.44,0.47,0.89,0.95,1.33,1.42L252.96,194.98z"/>
	<path style="fill:#39B5AC;" d="M420.97,210.99c-0.45,0.47-0.9,0.95-1.34,1.42c-0.15-0.21-0.3-0.43-0.45-0.64
		c0.58-0.27,1.17-0.55,1.75-0.82L420.97,210.99z"/>
	<path style="fill:#39B5AC;" d="M420.94,196.97c0.44-0.48,0.88-0.95,1.33-1.43c0.15,0.21,0.3,0.43,0.45,0.64
		c-0.59,0.27-1.17,0.54-1.76,0.81C420.96,196.99,420.94,196.97,420.94,196.97z"/>
	<path style="fill:#39B5AC;" d="M394.93,210.95c0.44-0.47,0.89-0.94,1.33-1.41c0.15,0.21,0.3,0.43,0.45,0.64
		c-0.58,0.27-1.16,0.54-1.75,0.81C394.96,210.99,394.93,210.95,394.93,210.95z"/>
	<path style="fill:#35B4AA;" d="M387.97,215c-0.37,0.25-0.74,0.5-1.12,0.72c-0.01,0.01-0.17-0.24-0.26-0.37
		c0.44-0.14,0.88-0.28,1.32-0.42C387.92,214.94,387.97,215,387.97,215z"/>
	<path style="fill:#39B5AC;" d="M410.92,229.94c0.67-0.33,1.34-0.65,2.02-0.98l0.02,0.02c-0.66,0.34-1.31,0.69-1.97,1.03
		L410.92,229.94z"/>
	<path style="fill:#39B5AC;" d="M420.96,196.99c-0.13,0.45-0.26,0.89-0.39,1.34c-0.13-0.09-0.26-0.17-0.39-0.26
		c0.25-0.37,0.51-0.73,0.76-1.1C420.94,196.97,420.96,196.99,420.96,196.99z"/>
	<path style="fill:#39B5AC;" d="M406.94,200.97c0.13-0.45,0.26-0.89,0.39-1.34c0.13,0.09,0.26,0.17,0.39,0.26
		c-0.26,0.36-0.51,0.73-0.77,1.09L406.94,200.97z"/>
	<path style="fill:#39B5AC;" d="M406.95,200.98c-0.37,0.26-0.73,0.51-1.1,0.77c-0.09-0.13-0.17-0.26-0.26-0.39
		c0.45-0.13,0.89-0.26,1.34-0.39L406.95,200.98z"/>
	<path style="fill:#39B5AC;" d="M428.94,211.97c0.36-0.26,0.73-0.51,1.09-0.77c0.09,0.13,0.17,0.26,0.26,0.39
		c-0.45,0.13-0.89,0.26-1.34,0.39L428.94,211.97z"/>
	<path style="fill:#35B4AA;" d="M408.94,210.96c0.13-0.45,0.26-0.89,0.4-1.34c0.13,0.09,0.26,0.18,0.39,0.26
		c-0.26,0.37-0.51,0.73-0.77,1.1L408.94,210.96z"/>
	<path style="fill:#39B5AC;" d="M420.92,210.95c0.14-0.44,0.27-0.88,0.41-1.31c0.13,0.09,0.37,0.25,0.37,0.26
		c-0.23,0.37-0.48,0.73-0.73,1.1C420.97,210.99,420.92,210.95,420.92,210.95z"/>
	<path style="fill:#39B5AC;" d="M394.96,210.99c-0.37,0.25-0.73,0.5-1.11,0.74c-0.01,0-0.17-0.24-0.26-0.37
		c0.44-0.14,0.89-0.27,1.33-0.41L394.96,210.99z"/>
	<path style="fill:#35B4AA;" d="M408.96,210.98c-0.36,0.25-0.73,0.5-1.09,0.76c-0.09-0.13-0.17-0.26-0.26-0.39
		c0.44-0.13,0.89-0.26,1.33-0.39L408.96,210.98z"/>
	<path style="fill:#39B5AC;" d="M428.95,211.98c-0.13,0.45-0.26,0.89-0.38,1.34c-0.13-0.09-0.26-0.17-0.39-0.26
		c0.25-0.36,0.51-0.73,0.76-1.09L428.95,211.98z"/>
	<path style="fill:#33B3A9;" d="M252.98,194.97c0.14,0.14,0.27,0.28,0.41,0.43c-0.09-0.02-0.21-0.02-0.26-0.07
		c-0.08-0.09-0.11-0.22-0.16-0.34L252.98,194.97z"/>
	<path style="fill:#2FB1A7;" d="M259.95,198.99c-0.14-0.14-0.28-0.29-0.42-0.43c0.15,0.14,0.29,0.27,0.44,0.41L259.95,198.99z"/>
	<path style="fill:#39B5AC;" d="M396.94,218.96c0.15-0.14,0.29-0.28,0.44-0.41c-0.14,0.15-0.28,0.29-0.41,0.44
		C396.97,218.98,396.94,218.96,396.94,218.96z"/>
	<path style="fill:#39B5AC;" d="M422.96,219.99c-0.15,0.14-0.3,0.28-0.44,0.42c0.14-0.15,0.28-0.29,0.42-0.44
		C422.93,219.96,422.96,219.99,422.96,219.99z"/>
	<path style="fill:#39B5AC;" d="M433.97,207c-0.15,0.14-0.31,0.27-0.46,0.41c0.14-0.15,0.27-0.31,0.41-0.46L433.97,207z"/>
	<path style="fill:#39B5AC;" d="M412.94,228.96c0.14-0.14,0.28-0.27,0.42-0.41c-0.02,0.09-0.01,0.21-0.07,0.26
		c-0.09,0.08-0.22,0.12-0.33,0.17L412.94,228.96z"/>
	<path style="fill:#39B5AC;" d="M424.98,206.01c-0.34,0.33-0.67,0.66-1.01,0.99l-0.04-0.04c0.33-0.34,0.66-0.67,0.99-1.01
		C424.91,205.95,424.98,206.01,424.98,206.01z"/>
	<path style="fill:#2FB1A7;" d="M267.95,202.99c-0.14-0.15-0.27-0.29-0.41-0.44c0.15,0.14,0.29,0.27,0.44,0.41L267.95,202.99z"/>
	<path style="fill:#39B5AC;" d="M423.97,207c-0.15,0.14-0.3,0.27-0.44,0.41c0.13-0.15,0.27-0.3,0.4-0.45L423.97,207z"/>
	<path style="fill:#1CA297;" d="M255,181.02c0.3-0.03,0.61-0.05,0.92-0.05c0.42,0.07,0.84,0.15,1.26,0.22
		C256.46,181.13,255.73,181.08,255,181.02z"/>
	<path style="fill:#30ABA0;" d="M316.72,133.14c0.59-1.93,0.59-4.69,1.9-5.6c2.37-1.66,4.39-0.13,5.98,2.36
		c3.35,5.27,3.27,7.83-1.35,10.84c0.33-4.13,2.26-8.46-2.81-11.73c-0.75,1.51-1.47,2.97-2.2,4.42
		C317.73,133.33,317.23,133.24,316.72,133.14z"/>
	<path style="fill:#7DC7C1;" d="M299.17,117.46c0.31,4.28,0.62,8.56,0.93,12.83c-0.64,0.06-1.29,0.12-1.93,0.17
		c-0.48-4.25-0.95-8.49-1.43-12.74C297.55,117.64,298.36,117.55,299.17,117.46z"/>
	<path style="fill:#77C5BF;" d="M296.74,111.27c0.36-5.24,0.73-10.49,1.09-15.73c0.33,0.03,0.66,0.06,0.98,0.09
		c0,5.24,0,10.49,0,15.73C298.12,111.33,297.43,111.3,296.74,111.27z"/>
</g>
</svg>
