<?xml version="1.0" encoding="utf-8"?>
<!-- Generator: Adobe Illustrator 24.0.0, SVG Export Plug-In . SVG Version: 6.00 Build 0)  -->
<svg version="1.1" id="Calque_1" xmlns="http://www.w3.org/2000/svg" xmlns:xlink="http://www.w3.org/1999/xlink" x="0px" y="0px"
	 viewBox="0 0 454.94 333.96" style="enable-background:new 0 0 454.94 333.96;" xml:space="preserve">
<g>
	<path style="fill:#FEFDF5;" d="M134.97,23.81c0-3.56-0.38-7.16,0.07-10.67c0.77-6.06,3.94-7.49,9.2-4.61
		c0.41,0.23,0.92,0.28,1.56,0.46c2.39-3,4.79-6,7.18-8.99c1,0,2,0,3,0c0.09,0.49,0,1.16,0.29,1.44c3.71,3.52,5.44,7.8,4.63,13.21
		c1.98,0.14,3.42,0.27,4.87,0.35c7.36,0.38,12.35,8.73,8.97,15.25c-1.51,2.91-4.06,4.81-7.33,5.48c-3.72,0.76-7.42,1.36-10.38,4.16
		c-0.84,0.79-2.48,0.72-3.72,1.13c-1.51,0.5-3.26,0.75-4.43,1.69c-6.28,5.04-13.44,2.01-14.82-6.47c-0.32-1.96-0.29-3.97-0.43-5.96
		C133.12,27.91,135.05,26.07,134.97,23.81z"/>
	<path style="fill:#419836;" d="M0.79,210.98c0.01-4.34,0.02-8.68,0.03-13.02c-0.28-9.48,1.69-18.74,5.57-27.12
		c4.45-9.59,10.28-18.59,16.09-27.48c3.71-5.68,8.07-11.07,12.82-15.92c19.83-20.29,44-33.53,70.7-42.45
		c1.19,0.7,0.76,2.12,1.31,3.02c-0.03-2.47,0.11-4.96,1.6-7.17c1.72-0.29,2.55,0.97,3.51,2.01c0.79,1.08,0.45,2.57,1.59,4.08
		c0.81-3.49,1.03-7.41,5.9-6.76c0.37-0.09,0.75-0.18,1.12-0.27c1.78-1.17,3.68-1.97,5.87-1.76c2.12-0.41,4.24-0.82,6.36-1.23
		c2.94-0.93,3.94,2.62,6.41,2.76c0.4,0.26,0.72,0.59,1.01,1.34c0.53-1.32,0.36-2.88,1.9-3.31c1.77-0.87,1.76,3.64,4.01,1.32
		c2.23-1.45,0.92-5.39,4.25-6.06c1.25,0.37,2.49,1.02,3.75,1.06c2.43,0.09,4.86-0.16,7.3-0.28c1.84-1.48-1.08-3.83,0.96-5.28
		c0.54,0.1,1.08,0.21,1.62,0.31c1.36,1.94,3.18,3.12,5.56,3.37c0.67-0.08,1.33-0.11,2-0.01c0.65,0.18,1.29,0.37,1.7,0.97l0.28,0.08
		c2.73,1.24,5.5,1.53,8.34,0.33c2.95-0.33,5.88-0.58,8.77,0.33c0.59-0.02,1.19-0.04,1.78-0.06c1.37,1.01,1.18,2.58,1.34,3.98
		c0.18,1.57,0.87,1.96,2.24,1.25c2.54-1.43,2.08-5.33,5.17-6.29c1.26,0.37,2.27,1.18,3.37,1.84c0.73,0.81,1.59,1.11,2.65,0.65
		c1.16-0.22,2.24-0.15,3.09,0.81c1.06-0.03,2.11-0.06,3.17-0.08c0.82-0.37-0.57,2.5,1.09,0.78c0.83-0.86,1.65-1.45,2.88-1.27
		c0.92,0.23,1.73,0.66,2.37,1.37c0.86,1.26,0.37,2.74,0.39,4.27c1.51-0.82,2.15-2.31,3.6-2.74c2.21-0.18,4.22,0.25,5.79,1.96
		c2.15,2.8,3.86-0.63,5.83-0.43c3.04-0.52,6.04,0.9,9.09,0.18c2.53-0.13,5.07-0.26,7.6-0.39c0.1,0.52,0.19,1.05,0.29,1.57
		c-1.55,0.5-3.1,0.99-5.73,1.83c1.27,1.44,2.05,3.02,3.3,3.63c13.46,6.62,25.12,15.45,34.75,27.04c5.1,6.13,10.76,11.79,16.07,17.74
		c1.19,1.33,2.02,3,3.01,4.51c-1.62,1.55-3.42,0.71-5.15,0.35c-10.49-2.18-18.79,1.38-24.46,10.49c-1.75,2.81-2.89,5.95-4.72,8.7
		c-0.28,0.35-0.64,0.63-1.03,0.84c-1.18,0.27-2.29,0.65-2.71,1.98c-0.41,0.93-0.33,1.83,0.15,2.72c0.08,0.42,0.04,0.82-0.09,1.22
		c-0.3,0.58-0.72,1.05-1.18,1.5c-2.08,1.69-1.79,3.63-0.59,5.67c0.14,0.74,0.02,1.43-0.39,2.07c-3.35,5.24-2.04,10.96-1.17,16.38
		c2.46,15.21,12.73,23.99,26.03,29.74c6.88,2.98,14.23,4.82,21.69,5.53c4.3,0.41,8.88,0.46,12.91-1.96
		c5.34-2.14,10.21-5.49,16.06-6.32c1.15,3.65,2.3,7.3,3.46,10.95c-5.72,2.98-11.74,5.3-17.64,7.86
		c-19.07,8.28-38.51,15.51-58.74,20.47c-2.73,0.67-5.46,1.61-8.29,0.45c-1.97-1.09-1.08-3.56-2.38-4.94
		c-1.57,0.74-0.54,2.47-1.34,3.49c-0.34,0.62-0.81,1.02-1.51,1.03c0.66,0.25-1.03-0.07-0.39-0.25c0.64-0.18,0.26-1.01-0.08-0.46
		c-0.79,1.28-0.98,2.99-2.67,3.61c-7.5,2.28-15.3,2.52-22.99,3.13c-5.07,0.4-10.16,1.15-15.28,0.98c-1.74-0.39-3.47-1.12-5.21-1.13
		c-14.47-0.07-28.94-0.05-43.41,0.05c-2.64,0.02-5.28,0.62-7.93,0.77c-24.32,1.44-48.56,0.73-72.36-4.79
		c-23.33-5.42-46.2-12.42-67.46-23.85C2.49,225.35,2.47,225.39,0.79,210.98z"/>
	<path style="fill:#429837;" d="M453.99,274.91c0.01,1.37,0.03,2.74,0.04,4.11c-4.04,11.47-11.58,20.37-20.62,28.18
		c-7.56,6.53-15.34,12.67-24.35,17.2c-9.82,4.94-20.27,7.29-31.05,8.63c-1.67,0.01-3.34,0.01-5.02,0.02
		c-4.07,0.02-8.14,0.04-12.21,0.07c-7.74-1.81-15.88-2.64-23.14-5.6c-21.51-8.77-43.03-17.67-63.87-27.89
		c-17.25-8.46-33.61-18.78-50.22-28.52c-3.67-2.15-6.72-5.34-10.06-8.05c0.64-0.87,1.6-1.36,2.58-1.28
		c9.13,0.68,18.18-0.94,27.28-0.92c0.43,0.13,1,0.19,1.24,0.55c0.94,1.42,1.5,0.4,2.14-0.28c9.38-2.19,19.04-2.72,28.38-5.19
		c7.72-2.04,15.5-3.94,22.84-7.04c14.84-6.26,29.72-12.45,44.16-19.63c1.21-0.6,2.45-0.97,3.75-1.25
		c8.19,3.61,16.33,7.34,24.58,10.79c22.68,9.48,45.44,18.75,68.1,28.29C443.85,269.34,448.85,272.29,453.99,274.91z"/>
	<path style="fill:#86A22C;" d="M268.94,155.96c2.93-8.23,6.89-15.64,15.29-19.63c4.43-2.11,8.88-3.26,13.78-1.53
		c1.97,0.7,4.16,0.8,6.24,1.17c8.63,4.81,12.91,13.54,18.79,20.84c0.45,0.7,0.56,1.42,0.18,2.18c-3.61,0.72-5.76-0.88-6.79-4.26
		c0.67-0.69,0.89-1.27-0.4-1.43c-2.38-1.72-3.98-4.46-7.34-4.86c-6.48-0.78-13.46,5.8-13.38,12.81c0.02,2.03,0.47,3.99,1.29,5.82
		c1.58,3.54,1.64,6.01-2.79,7.84c-4.26,1.75-4.86,9.12-1.69,14.24c1.86,3.01,4.52,5.34,7.14,7.65c2.25,1.99,3.15,3.92,0.61,6.22
		c-3.12,2.83-1.32,4.74,1.29,6.16c4.19,2.27,8.73,1.74,13.2,1.06c2.62-0.4,5.17-1.47,7.84-0.31c0.3,0.13,0.7,0.2,0.98,0.08
		c4.48-1.99,7.57-5.81,10.96-9.05c2.29-2.19,1.66-5.87,0.46-9.02c-1.22-3.23-2.9-6.49-0.87-10.03c0.45-0.29,0.9-0.3,1.34,0.03
		c5.7,10.41,5.65,21.61,4.53,32.96c-5.23,2.31-10.46,4.61-15.68,6.92c-0.77,1.06-1.92,1.11-3.07,1.14c-2.79-0.08-5.57,0.14-8.35,0.3
		c-11.44-2.26-22.63-5.2-32.28-12.22c-1.73-1.26-3.75-2.27-4.09-4.73c-0.05-1.71-0.77-3.18-1.62-4.61
		C265.91,187.27,263.99,172.03,268.94,155.96z"/>
	<path style="fill:#347130;" d="M345.86,228.02c-7.05,3.53-13.97,7.36-21.18,10.53c-11.64,5.12-23.31,10.24-35.26,14.57
		c-11.94,4.33-24.36,7.09-37.13,7.92c-2.13,0.14-4.24,0.64-6.35,0.98c-0.32,0.44-0.64,0.43-0.95-0.02
		c-6.9,0.57-13.78,1.32-20.69,1.65c-3.59,0.17-7.21-0.37-10.82-0.59c-0.59-0.62-1.17-1.23-1.76-1.85c2.63-0.73,5.22-1.85,7.9-2.12
		c8.69-0.89,17.41-1.43,26.11-2.2c1.79-0.16,3.55-0.73,5.32-1.12c0.69-0.56,1.23-1.33,2.13-1.61c0.28-0.39,0.56-0.77,0.84-1.16
		c0.54-0.45,1.04-0.15,1.55,0.07c0.52,0.19,1.06,0.27,1.61,0.32c0.38,0.08,0.66,0.3,0.83,0.65c5.51-1.05,11.24-1.46,16.49-3.27
		c16.91-5.82,33.64-12.16,50.44-18.3c6.03-2.21,12.05-4.43,18.08-6.65C343.98,226.57,344.92,227.29,345.86,228.02z"/>
	<path style="fill:#8DA839;" d="M134.97,23.81c2.14,2.69-0.92,4.3-1.35,6.46c-5.85,4.79-8.27,11.1-7.82,18.49
		c0.12,1.89,0.92,3.9,1.93,5.54c2.61,4.25,5.45,8.36,8.36,12.4c0.42,0.59,1.74,0.52,2.64,0.76c1.02,0.8,0.49,1.58-0.02,2.36
		c-1.18,0.84-2.6,1.3-3.72,2.26c-4.08-6.22-8.11-12.47-12.27-18.64c-1-1.49-2.56-2.59-3.64-4.04c-1.08-1.44-2.1-3-2.76-4.66
		c-0.9-2.28-2.14-5.17,0.33-6.81c1.27-0.84,3.81,0.22,6.2,0.46C125.38,32.89,129.53,27.81,134.97,23.81z"/>
	<path style="fill:#86A22C;" d="M137.93,70.14c0.27-0.89,0.54-1.78,0.8-2.68c2.71-5.74,4.69-6.53,10.85-4.77
		c1.05,0.3,2.38-0.38,4.09-0.7c-0.45,1.19-0.77,2.02-1.09,2.85c-0.13,1.25-0.52,2.42-1,3.57c-0.26,0.83-0.49,1.66-0.73,2.5
		c-0.92,1.14-0.8,3.27-3.03,3.14c-1.51-1.73,0.15-3.8-0.57-5.73c-3.23,2.47-2.03,6.86-4.4,9.6c-0.45,2.12-0.9,4.24-1.51,7.12
		c-0.95-2.1-1.63-3.6-2.31-5.1C139.46,76.59,137.63,73.48,137.93,70.14z"/>
	<path style="fill:#8DA839;" d="M223.98,78.92c-1.17,1.69-2.33,3.38-3.5,5.07c-0.44-0.16-0.87-0.32-1.31-0.48
		c0.25-2.1,0.5-4.21,0.76-6.31c0.14-1.82,1.44-3.13,2.1-4.71c1-1.66,0.06-1.85-1.32-1.69c-0.68-0.05-1.28-0.26-1.74-0.79
		c1.08-0.7,2.48-2.24,3.2-1.97c4.31,1.6,7.52-1.32,11.2-2.25c0.39-0.1,0.87,0.22,1.78,0.46c-3.51,3.86-6.81,7.49-10.1,11.12
		C225.09,78.15,224.6,78.58,223.98,78.92z"/>
	<path style="fill:#6BA544;" d="M223.98,78.92c0.35-0.52,0.71-1.04,1.06-1.55c2.05,1.08,3.2,0.51,5.39-0.83
		c4-2.44,9.11-3.04,13.76-4.41c0.25,0.52,0.5,1.03,0.75,1.55c-2.17,1.61-4.35,3.22-7.35,5.45c3.2,0.4,5.29,0.66,7.38,0.93
		c-3.46,0.31-6.92,0.61-10.38,0.92c-1.53-1.64-3.06,0.97-4.59,0C227.99,80.28,225.99,79.6,223.98,78.92z"/>
	<path style="fill:#8DA839;" d="M181.06,73.86c-0.6,1.23-1.2,2.47-1.98,4.07c-1.74-1.63-3.4-3.19-5.06-4.75
		c0.33-0.76,1.1-1.64,0.92-2.24c-0.74-2.53-1.81-4.96-2.68-7.45c-0.45-1.29-0.74-2.65-1.11-3.97c0.35-0.25,0.69-0.5,1.04-0.75
		c0.94,0.66,2.27,1.11,2.75,2.01c2.14,4.01,4.03,8.16,6.01,12.26c0.31,0.14,0.44,0.31,0.37,0.51
		C181.23,73.75,181.15,73.86,181.06,73.86z"/>
	<path style="fill:#8DA839;" d="M196.92,79.96c-0.87,0.53-1.75,1.06-2.62,1.59c-0.43-0.82-1.11-1.61-1.22-2.47
		c-0.22-1.75-0.14-3.54-0.18-5.31c1.49-4.01,2.81-8.1,4.55-12.01c0.9-2.03,2.29-4.12,5.94-3.47c-0.54,1.61-1.03,3.05-1.52,4.49
		c-0.33,2.7-1.45,5.11-2.72,7.46C195.61,72.84,195.62,76.25,196.92,79.96z"/>
	<path style="fill:#9BB03F;" d="M322.8,159.45c0.08-0.88,0.16-1.76,0.24-2.63c6.59,7.14,9.47,16.05,12.03,25.12
		c-0.43,0.03-0.85,0.05-1.28,0.08c-3.5-1.55-3.77-5.46-5.74-8.13C324.98,169.71,323.82,164.53,322.8,159.45z"/>
	<path style="fill:#86A22C;" d="M210.76,76c-1.23-0.02-2.46-0.03-3.69-0.05c-0.74-0.08-1.2-0.51-1.45-1.18
		c-0.13-1.87,0.99-3.32,1.67-4.91c0.37-0.8,1.15-1.28,1.59-2.02c1.68-1.51,3.36-3.01,5.03-4.52c0.42,0.54,0.62,1.15,0.6,1.84
		c-1.11,1.95-2.46,3.8-3.24,5.87C210.71,72.54,210.91,74.34,210.76,76z"/>
	<path style="fill:#578331;" d="M218.97,70.01c0.66,0,1.33,0,1.99,0c0.79,0.65,0.97,1.52,0.9,2.48c-0.1,0.68-0.4,1.26-0.81,1.8
		c-0.42,0.48-0.89,0.92-1.36,1.35c-0.48,0.39-0.97,0.8-1.63,0.32c-1.75,1.53-3.49,3.07-5.24,4.6c-0.22-0.05-0.45-0.11-0.67-0.16
		c0.59-1.49,1.18-2.99,1.77-4.48C215.61,73.95,217.29,71.98,218.97,70.01z"/>
	<path style="fill:#4E7C40;" d="M172.34,72.92c-0.73,0.02-1.46,0.04-2.18,0.06c-2.78-0.47-2.08-3.28-3.24-4.84
		c-1.08-1.37-2.17-2.74-3.65-4.6c5.76-0.22,6.9,3.99,8.93,7.14C172.43,71.41,172.57,72.15,172.34,72.92z"/>
	<path style="fill:#8FBA7D;" d="M181.06,73.86c-0.05-0.27-0.09-0.55-0.12-0.83c2.38,0.18,3.88-0.5,4.58-3.17
		c0.48-1.84,2.02-3.41,3.09-5.1c0.43,0.2,0.86,0.4,1.3,0.6c-0.68,2.22-1.36,4.44-2.13,6.98c1.11,0.5,2.23,0.99,3.34,1.49
		C187.77,73.84,184.41,73.85,181.06,73.86z"/>
	<path style="fill:#74B25D;" d="M207.98,70.47c-0.61,1.52-1.22,3.04-1.83,4.56c-0.31,0.3-0.66,0.39-1.07,0.24
		c-1.03-0.77-2.07-1.55-3.1-2.32c0.16-0.39,0.38-0.74,0.63-1.06c0.51-0.66,0.93-1.37,1.41-2.05c0.3-0.3,0.6-0.59,0.89-0.88
		c1.17-0.45,2.34-0.9,3.51-1.35C208.47,68.59,208.5,69.57,207.98,70.47z"/>
	<path style="fill:#387E33;" d="M147.97,74.03c0.68-1.26,1.36-2.52,2.04-3.78c0.32-0.79,0.88-1.59,1.73-1.22
		c0.82,0.35,0.88,1.23,0.17,1.96c-0.36,0.66-0.72,1.31-1.08,1.97c-0.63,1.78-1.16,3.6-1.96,5.3c-0.33,0.7-1.25,1.13-1.9,1.68
		C145.38,77.65,145.4,75.63,147.97,74.03z"/>
	<path style="fill:#74B25D;" d="M151.92,70.99c-0.06-1.74-0.89-1.47-1.91-0.73c0.29-0.75,0.57-1.49,0.86-2.24
		c0.73-0.73,1.13-1.77,2.15-2.23C155.4,68.1,152.74,69.35,151.92,70.99z"/>
	<path style="fill:#8FBA7D;" d="M203.2,65.07c0.26-0.69,0.52-1.38,0.78-2.06c0.51-0.18,1.03-0.36,1.54-0.54
		c-0.31,0.87-0.61,1.74-0.92,2.62C204.13,65.44,203.67,65.44,203.2,65.07z"/>
	<path style="fill:#74B25D;" d="M203.2,65.07c0.47,0,0.94,0.01,1.4,0.01c-0.11,1.31-0.22,2.62-0.32,3.93
		c-0.15,0.12-0.3,0.24-0.44,0.36c-0.19,0.02-0.38,0.03-0.57,0.05c-0.18-0.06-0.36-0.12-0.54-0.18c-0.5-0.33-0.81-0.79-0.92-1.39
		C202.27,66.92,202.73,65.99,203.2,65.07z"/>
	<path style="fill:#6BA544;" d="M172.34,72.92c-0.05-0.74-0.1-1.49-0.14-2.23c0.51,0.81,1.02,1.61,1.54,2.42
		C173.26,73.04,172.8,72.98,172.34,72.92z"/>
	<path style="fill:#8DA839;" d="M119.9,80.17c-1.15,0.49-2.29,0.99-3.43,1.48c-0.61,2.65-1.24,5.37-2,8.65
		c-3.51-2.26-2-5.18-2.58-7.47c-0.82-1.8-3.73-2.98-1.64-5.63l-0.04-0.09c0.21-0.42,0.11-0.75-0.29-0.99
		c-0.15-0.69-0.3-1.37-0.45-2.06c0.05-0.45-0.11-0.8-0.48-1.05c-0.78-2.56-1.55-5.12-2.5-8.25c4.66,0.89,5.28,4.17,6.6,6.85
		c1.34,2.71,2.63,5.47,4.18,8.05C117.58,80.17,119,80.02,119.9,80.17z"/>
	<path style="fill:#9BB03F;" d="M126.9,78.15c-1.96,0.59-3.91,1.17-5.87,1.76c0.16-2.7,0.39-5.4,0.44-8.1
		c0.03-1.51-0.25-3.02-0.47-5.46c3.81,1.89,3.83,4.57,4.35,7.05C125.68,75.02,126.37,76.57,126.9,78.15z"/>
	<path style="fill:#578331;" d="M137.93,70.14c0.77,1.03,1.54,2.06,2.84,3.8c-0.38,1.33-1.06,3.67-1.73,6.02
		c-0.63,0.08-1.47,0.47-1.86,0.2c-1.39-0.96-2.62-2.14-3.91-3.23c0.83-0.41,1.65-0.82,2.73-1.35c-0.33-1.14-0.66-2.32-1-3.49
		c0.07-0.9,0.14-1.81,0.25-3.11C136.35,69.45,137.14,69.79,137.93,70.14z"/>
	<path style="fill:#367430;" d="M108.99,80.82c-0.36,2.82-0.72,5.63-1.08,8.45c-0.29,0.03-0.58,0.07-0.86,0.1
		c-0.35-1.46-0.7-2.92-1.05-4.38c-0.76-2.49-1.51-4.98-2.34-7.72c0.5-0.02,1.38-0.07,2.26-0.11c0.93,0.52,2.02,0.73,2.9,1.38
		C109.45,79.26,109.83,80,108.99,80.82z"/>
	<path style="fill:#6BA544;" d="M107.89,77.05c0.12,0.64,0.24,1.27,0.36,1.91c-0.78-0.6-1.55-1.19-2.33-1.79
		C106.58,77.13,107.24,77.09,107.89,77.05z"/>
	<path style="fill:#EDDC33;" d="M148.47,18.88c3.84,0.13,6.66,3.08,5.98,5.74c-0.4,1.59-1.88,3.51-3.34,4.07
		c-1.8,0.69-5.05-3.69-4.68-6.44C146.62,20.87,147.97,19.66,148.47,18.88z"/>
	<path style="fill:#367430;" d="M276.8,206.11c4.97,3.31,9.61,7.36,14.99,9.73c6.39,2.82,13.42,4.2,20.18,6.21
		c2.99,0.68,5.98,0.72,8.97-0.02c0.99-0.07,1.97-0.15,2.96-0.22c1.16,2.3-0.84,2.01-1.91,2.12c-18.91,2.01-35.7-3.21-50.01-15.59
		c-7.07-6.11-9.9-14.72-10.98-23.81c-0.39-3.28-0.01-6.65-0.01-9.97c0-2.08,0.67-3.59,3.03-3.74c0.94,0.85,1.21,2.01,1.17,3.17
		C264.84,186.23,267.83,197.25,276.8,206.11z"/>
	<path style="fill:#8EAB27;" d="M276.8,206.11c-7.35-3.99-10.44-10.88-11.75-18.51c-0.94-5.49-0.73-11.18-1.03-16.78
		c0-0.55,0.01-1.1,0.01-1.65c-0.02-0.19-0.03-0.38-0.05-0.57c-0.1-0.77-0.04-1.54-0.02-2.32c0.03-0.82,0.15-1.61,0.56-2.33
		c0.7-0.49,0.95-1.3,1.4-1.97c0.05-0.3,0.07-0.61,0.07-0.92c-0.39-0.29-0.53-0.66-0.4-1.13c0.55-1.46,0.91-3.03,2.38-3.92
		c0.32-0.01,0.64-0.02,0.96-0.05c0.18,1.01,0.62,2.06,0.49,3.03c-0.7,4.87-2.52,9.81-2.11,14.56c0.58,6.64,2.53,13.21,4.42,19.66
		c0.9,3.08,3.12,5.76,4.54,8.71C276.87,203.17,278.99,204.44,276.8,206.11z"/>
	<path style="fill:#387E33;" d="M85.89,159.94c-1.63,8.24-3.77,16.41-4.74,24.73c-1,8.54-0.77,17.22-1.22,25.83
		c-0.22,4.22-0.79,8.42-1.19,12.64c-0.37-0.02-0.74-0.04-1.1-0.07c0.41-10.08,0.67-20.18,1.29-30.24
		c0.43-6.92,1.08-13.86,2.21-20.69c0.74-4.47,2.53-8.78,3.85-13.15C85.38,159.2,85.69,159.52,85.89,159.94z"/>
	<path style="fill:#367430;" d="M250.84,221.05c-0.95-3.83-1.72-7.72-2.88-11.49c-3.86-12.49-7.87-24.94-11.8-37.41
		c-0.14-0.43-0.02-0.94,0.67-1.77c1.32,2.81,3,5.52,3.88,8.46c3.73,12.36,7.26,24.78,10.74,37.21c0.52,1.88,0.39,3.94,0.55,5.91
		c-0.34,0.26-0.71,0.3-1.11,0.15C250.62,221.78,250.62,221.42,250.84,221.05z"/>
	<path style="fill:#578331;" d="M147.97,74.03c-0.33,1.97-0.65,3.94-0.98,5.9c-0.55,0.48-1.1,0.96-1.65,1.44
		c-0.86-1.19-1.68-2.32-2.49-3.46c0.25-6.22,1.47-9.24,5.32-12.78C150.31,68.23,147.78,71.14,147.97,74.03z"/>
	<path style="fill:#347130;" d="M202.71,72.86l-0.37-0.01c0,0-0.36,0.1-0.36,0.1c-1,1.81-1.92,3.68-3.04,5.41
		c-0.44,0.68-1.33,1.08-2.01,1.61c-0.98-1.04-1.97-2.07-3.1-3.26c1.22-2.8,1.6-6.16,5.3-7.2l0.3,0.28c0.37,1.34,0.9,0.61,1.4,0.11
		l0.07,0.06c0.61-0.4,0.87-1.59,1.97-0.88l0.4,0C203.53,70.39,204.07,71.77,202.71,72.86z"/>
	<path style="fill:#387E33;" d="M251,221.96c0.33,0,0.66,0.01,1,0.01c0.6,1.65,1.55,3.26,1.74,4.95c0.57,4.87,0.95,9.76,1.12,14.66
		c0.04,1.07-1.14,2.19-1.75,3.28c-0.37-0.17-0.5-0.37-0.41-0.59c0.1-0.23,0.2-0.35,0.31-0.35c-0.03-1.33-0.06-2.66-0.09-3.99
		c-0.99-1.25-1.04-2.53-0.16-3.85c-0.28-1.72-0.55-3.43-0.83-5.15c-0.55-0.64-0.55-1.28-0.01-1.92c-0.32-1.68-0.64-3.36-0.96-5.04
		C250.35,223.28,250.44,222.61,251,221.96z"/>
	<path style="fill:#387E33;" d="M171.94,82.04c-1.29-0.04-2.59-0.09-3.88-0.13c-0.86,0.05-1.53-0.3-2.07-0.94
		c-3.01-1.33-6.01-2.65-9.01-3.98c-1.31,0.5-2.1-0.35-2.91-1.13c1.82-0.01,3.79-0.48,5.43,0.06c3.26,1.05,6.35,2.66,9.51,4.03
		c1.31-0.5,2.14,0.29,2.97,1.09c0.01,0.31,0.03,0.62,0.04,0.92L171.94,82.04z"/>
	<path style="fill:#4DA337;" d="M229.96,144.99c0.98-0.01,2.56-0.39,2.83,0.04c0.58,0.94,0.89,2.42,0.59,3.46
		c-0.37,1.27-1.5,2.32-2.3,3.46c-0.85-0.39-0.44-1.49-1.1-1.99l0.02,0.03c-0.77-1.4-0.7-2.9-0.53-4.41
		C229.63,145.38,229.8,145.19,229.96,144.99z"/>
	<path style="fill:#4DA337;" d="M193.92,99.02c1.56,0.07,3.19-0.12,4.66,0.28c1.13,0.31,2.04,1.38,3.05,2.11
		c-0.74,0.86-1.48,1.72-2.23,2.58c-0.58-0.2-1.03-0.59-1.44-1.04l0.04,0.03c-0.96-0.75-2.07-1.27-3.03-2.02l0.02,0.02
		c-0.36-0.32-0.66-0.7-1.02-1.02l0.03,0.02c-0.28-0.19-0.38-0.4-0.31-0.62C193.76,99.14,193.84,99.02,193.92,99.02z"/>
	<path style="fill:#4DA337;" d="M225.89,136.99c2.71-1.61,3.56-0.02,3.81,2.31c0.2,1.89,0.18,3.79,0.26,5.69
		c0,0-0.17,0.12-0.17,0.12c-3.2-0.29-2.21-3.69-3.82-5.16l0.02,0.03c-0.52-0.51-0.5-1.17-0.52-1.82
		C225.44,137.71,225.59,137.32,225.89,136.99z"/>
	<path style="fill:#4DA337;" d="M174,82.94c1.18-2.15,2.45-2.5,3.82-0.16c1.03,1.77,2.04,3.54,3.06,5.31
		c-0.84,0.46-1.51,0.4-1.91-0.59c-0.15-0.24-0.35-0.42-0.6-0.54c-0.57-0.18-1-0.56-1.39-0.99l-0.01-0.01c-0.54-0.59-1.46-0.4-2-1
		l0,0c-0.34-0.32-0.68-0.66-1-1l0.01,0c-0.31-0.23-0.41-0.46-0.3-0.7C173.8,83.05,173.9,82.94,174,82.94z"/>
	<path style="fill:#367430;" d="M229.99,80.97c1.24-0.97,2.48-1.94,4.34-3.4c0.11,1.52,0.18,2.46,0.25,3.4
		c-1.09,0.96-2.18,1.92-3.76,3.31C230.47,82.88,230.23,81.93,229.99,80.97z"/>
	<path style="fill:#367430;" d="M231.97,157.98c1.48,3.32,2.95,6.65,4.43,9.97c-0.53,0.2-1.07,0.39-1.6,0.59
		C233.69,165.08,231.87,161.88,231.97,157.98L231.97,157.98z"/>
	<path style="fill:#367430;" d="M225.98,139.96c1.27,1.72,2.54,3.44,3.82,5.16c0.07,1.62,0.13,3.25,0.2,4.87
		C228.66,146.65,227.32,143.3,225.98,139.96z"/>
	<path style="fill:#367430;" d="M264.98,164.02c-0.09,1-0.18,2-0.27,3c-0.31,0.64-0.23,1.42-0.71,1.99l0.04,0.15
		c-3-2.26-2.76-3.88,0.92-6.22c0.28,0.23,0.37,0.47,0.29,0.71C265.16,163.9,265.07,164.02,264.98,164.02z"/>
	<path style="fill:#367932;" d="M100.03,124.01c-1.33,2.67-2.66,5.35-4,8.02l-0.1-0.1c1.34-2.66,2.68-5.33,4.02-7.99L100.03,124.01z
		"/>
	<path style="fill:#54A93B;" d="M250.14,106.09c-0.23-0.21-0.47-0.42-0.7-0.63c1.08-0.47,2.2-1.41,3.21-1.3
		c1.23,0.14,3.23,0.75,1.36,2.8C252.46,107.87,251.38,106.62,250.14,106.09z"/>
	<path style="fill:#387E33;" d="M243.79,84.27c-1.32,0.9-2.64,1.79-3.96,2.69c-0.63-3.56,1.47-3.53,3.24-3.92
		C243.31,83.45,243.55,83.86,243.79,84.27z"/>
	<path style="fill:#54A93B;" d="M201.79,105.03c0.49-0.07,0.99-0.24,1.46-0.18c0.95,0.1,1.89,0.32,2.84,0.49
		c-0.38,0.93-0.76,1.85-1.14,2.78c-0.69,0.44-1.35,0.45-1.96-0.16l0.01,0.01c-0.35-0.32-0.69-0.66-1.01-1.01l0.01,0.01
		C201.39,106.39,201.41,105.73,201.79,105.03z"/>
	<path style="fill:#387E33;" d="M254.99,254c-0.32-0.33-0.64-0.65-0.96-0.98c0-1.58-0.04-3.16,0.1-4.72
		c0.01-0.15,1.25-0.18,1.91-0.26c0.46,0.54,0.78,1.14,0.85,1.87c0.05,0.7,0.05,1.4,0.01,2.1c-0.04,0.73-0.31,1.38-0.69,1.99
		C255.81,254.34,255.4,254.34,254.99,254z"/>
	<path style="fill:#316B2E;" d="M151.96,129.98c-1.17-0.02-2.33-0.04-3.5-0.06c0.51-0.99,1.03-1.98,1.54-2.97
		C152.08,127.03,153,127.87,151.96,129.98z"/>
	<path style="fill:#54A93B;" d="M75.47,183.48c0,1.65,0,3.3,0,4.96c-0.28,0.01-0.57,0.03-0.85,0.04c0-1.65,0-3.3,0-4.95
		C74.9,183.51,75.19,183.49,75.47,183.48z"/>
	<path style="fill:#367430;" d="M229.98,149.96c0.37,0.66,0.74,1.33,1.1,1.99c0.3,2.01,0.59,4.03,0.89,6.04l0.01-0.01
		C231.31,155.3,230.64,152.63,229.98,149.96z"/>
	<path style="fill:#316B2E;" d="M48.87,132.96c-1.1,0.43-2.48,1.99-2.83-0.69c0.22-0.52,0.57-0.93,1.01-1.26l-0.02,0.04
		c0.44-0.91,1.14-1.56,2.02-2.03l-0.04,0.04c0.32-0.32,0.64-0.33,0.98-0.03l-0.03-0.03C51.31,130.79,50,131.85,48.87,132.96z"/>
	<path style="fill:#52A738;" d="M73.66,226.42c0,1.35,0,2.7,0,4.05c-0.39,0.03-0.78,0.06-1.18,0.09c-0.13-1.36-0.25-2.72-0.38-4.07
		C72.62,226.47,73.14,226.45,73.66,226.42z"/>
	<path style="fill:#347130;" d="M120.86,91.88c1.34-1.34,2.67-2.68,4.01-4.01c0,0,0.22,0.22,0.22,0.22
		c-1.32,1.35-2.64,2.71-3.97,4.06L120.86,91.88z"/>
	<path style="fill:#58AB3D;" d="M255.95,253.96c0.04-0.65,0.08-1.3,0.12-1.96c0.49-0.69,0.49-1.38,0.01-2.07
		c-0.01-0.63-0.02-1.27-0.03-1.9c3.73,1,1.1,4.09,1.98,6.03c-0.3,0.05-0.6,0.07-0.9,0.08C256.69,254.4,256.29,254.34,255.95,253.96z
		"/>
	<path style="fill:#367932;" d="M85.89,159.94c-0.3-0.32-0.6-0.65-0.91-0.97c0.33-1.8,0.67-3.59,1-5.39
		c0.36,0.08,0.72,0.15,1.07,0.23C86.67,155.85,86.28,157.89,85.89,159.94z"/>
	<path style="fill:#54A93B;" d="M73.97,207.75c-0.12,1.27-0.23,2.54-0.35,3.81c-0.34-0.02-0.69-0.04-1.03-0.06c0-1.26,0-2.51,0-3.77
		C73.05,207.74,73.51,207.75,73.97,207.75z"/>
	<path style="fill:#54A93B;" d="M48.87,132.96c0.36-1.32,0.73-2.64,1.09-3.96c0.65,0.53,1.31,1.05,1.96,1.58
		C50.9,131.37,49.89,132.16,48.87,132.96z"/>
	<path style="fill:#59AD3F;" d="M237.45,185.16c0.45,1.4,0.91,2.8,1.36,4.19c-0.42,0.14-0.84,0.27-1.25,0.41
		c-0.47-1.39-0.93-2.79-1.4-4.18C236.59,185.44,237.02,185.3,237.45,185.16z"/>
	<path style="fill:#387E33;" d="M267.98,156.01c-0.66,1.35-1.31,2.71-1.97,4.06c-0.81-0.46-0.31-1.55-1.01-2.06
		C265.95,157.27,265.32,154.19,267.98,156.01z"/>
	<path style="fill:#58AB3D;" d="M151.96,129.98c-0.65-1.01-1.31-2.02-1.96-3.04c0.61-3.15,1.72-0.64,2.29-0.08
		C153.37,127.89,155.28,129.3,151.96,129.98z"/>
	<path style="fill:#58AB3D;" d="M222,128.99c1.09,0.61,2.19,1.21,3.28,1.82c-0.46,0.41-0.92,0.82-1.38,1.23
		c-1.12,0.48-1.4-0.49-1.91-1.08l0,0.01C221.43,130.31,221.33,129.65,222,128.99z"/>
	<path style="fill:#59AD3F;" d="M251,221.96c-0.02,0.67-0.04,1.34-0.05,2.01c-0.46,0.4-0.93,0.81-1.39,1.22
		c-0.17-1.56-1.81-3.58,1.28-4.13C250.89,221.36,250.95,221.66,251,221.96z"/>
	<path style="fill:#316B2E;" d="M250.14,106.09c1.29,0.29,2.58,0.58,3.88,0.87c-0.33,0.6-0.65,1.21-0.98,1.81
		C252.07,107.88,251.1,106.99,250.14,106.09z"/>
	<path style="fill:#316B2E;" d="M109.16,107.16c-1.04,1.63-2.08,3.26-3.11,4.88c-0.16-0.13-0.31-0.26-0.47-0.39
		c-0.09-0.62-0.06-1.21,0.48-1.65l-0.03,0.04c0.53-0.58,0.36-1.51,1.02-2.03l-0.01,0.03c0.34-0.64,0.77-1.18,1.55-1.31
		C108.78,106.88,108.97,107.02,109.16,107.16z"/>
	<path style="fill:#54A93B;" d="M83.51,186.52c0-1.02,0-2.05,0-3.07c0.28-0.01,0.57-0.02,0.85-0.03c0,1.02,0,2.05,0,3.07
		C84.07,186.5,83.79,186.51,83.51,186.52z"/>
	<path style="fill:#54A93B;" d="M252.76,236.08c0.05,1.28,0.11,2.57,0.16,3.85c-0.64-0.71-1.51-1.33-1.79-2.16
		C251.01,237.44,252.17,236.66,252.76,236.08z"/>
	<path style="fill:#59AD3F;" d="M226.73,153.79c-0.42-1.09-0.85-2.18-1.27-3.27c0.29-0.13,0.58-0.26,0.87-0.4
		c0.49,1.07,0.98,2.14,1.47,3.21C227.44,153.49,227.08,153.64,226.73,153.79z"/>
	<path style="fill:#54A93B;" d="M242.5,172.25c0.42,1.03,0.84,2.07,1.25,3.1c-0.35,0.15-0.69,0.3-1.04,0.44
		c-0.42-1.06-0.84-2.13-1.27-3.19C241.8,172.49,242.15,172.37,242.5,172.25z"/>
	<path style="fill:#58AB3D;" d="M251.91,229.01c0,0.64,0.01,1.28,0.01,1.92c-1.02-0.41-2.05-0.82-3.07-1.23
		c0.13-0.35,0.26-0.7,0.39-1.05C250.13,228.77,251.02,228.89,251.91,229.01z"/>
	<path style="fill:#58AB3D;" d="M236.2,155.46c0.29,1.23,0.57,2.46,0.86,3.68c-0.28,0.08-0.56,0.16-0.84,0.24
		c-0.43-1.13-0.87-2.26-1.3-3.39C235.34,155.82,235.77,155.64,236.2,155.46z"/>
	<path style="fill:#59AD3F;" d="M224.57,147.77c-0.39-1.08-0.77-2.16-1.16-3.24c0.3-0.12,0.6-0.25,0.9-0.37
		c0.5,1.06,1,2.12,1.51,3.18C225.4,147.49,224.99,147.63,224.57,147.77z"/>
	<path style="fill:#387E33;" d="M222,130.96c0.64,0.36,1.27,0.72,1.91,1.08c0.03,1.31,0.06,2.61,0.09,3.92l-0.05,0.04
		C223.3,134.32,222.65,132.64,222,130.96z"/>
	<path style="fill:#59AD3F;" d="M253.2,254.18c-0.71,0.54-1.42,1.07-2.13,1.61c0.37-1.35,0.75-2.71,1.4-5.09
		C252.86,252.54,253.03,253.36,253.2,254.18z"/>
	<path style="fill:#54A93B;" d="M85.84,176.5c-0.27,1-0.54,1.99-0.81,2.99c-0.3-0.06-0.6-0.12-0.9-0.18
		c0.09-0.99,0.18-1.98,0.28-2.97C84.89,176.39,85.37,176.45,85.84,176.5z"/>
	<path style="fill:#367932;" d="M205.08,75.27c0.36-0.08,0.71-0.16,1.07-0.24c0.31,0.31,0.61,0.62,0.92,0.93
		c-0.4,0.57-0.8,1.13-1.2,1.7C205.61,76.86,205.34,76.06,205.08,75.27z"/>
	<path style="fill:#347130;" d="M178.98,87.5c0.64,0.2,1.27,0.39,1.91,0.59l0.04-0.07c0.36,0.32,0.74,0.63,1.03,1.03l-0.02-0.02
		c0.4,0.29,0.71,0.67,1.03,1.03l-0.04-0.03c0.25,0.25,0.37,0.56,0.37,0.91C180.79,91.11,179.58,89.69,178.98,87.5z"/>
	<path style="fill:#367932;" d="M92.02,140c-0.25,1.16-0.5,2.33-0.75,3.49c-0.42-0.16-0.83-0.33-1.25-0.49
		c0.64-1.02,1.29-2.04,1.93-3.06L92.02,140z"/>
	<path style="fill:#54A93B;" d="M171.97,81.03c-0.99-0.36-1.98-0.72-2.97-1.09c0.32-0.45,0.63-0.9,0.95-1.34
		C170.63,79.41,171.3,80.22,171.97,81.03z"/>
	<path style="fill:#58AB3D;" d="M74.97,178.11c0.21-0.95,0.42-1.9,0.64-2.85c0.3,0.06,0.61,0.13,0.91,0.19
		c-0.18,0.91-0.37,1.83-0.55,2.74C75.64,178.16,75.3,178.13,74.97,178.11z"/>
	<path style="fill:#58AB3D;" d="M249.87,198.39c0.37,0.9,0.73,1.79,1.1,2.69c-0.32,0.13-0.63,0.25-0.95,0.38
		c-0.34-0.91-0.67-1.82-1.01-2.73C249.3,198.62,249.59,198.51,249.87,198.39z"/>
	<path style="fill:#367932;" d="M90.08,146.01c-0.43,0.87-0.86,1.73-1.28,2.6c-0.26-0.11-0.52-0.21-0.79-0.32
		c0.34-0.99,0.69-1.97,1.03-2.96C89.39,145.56,89.73,145.79,90.08,146.01z"/>
	<path style="fill:#58AB3D;" d="M221.19,125.53c-0.6-0.92-1.21-1.84-1.81-2.76c0.27-0.17,0.54-0.35,0.81-0.52
		c0.57,0.93,1.15,1.86,1.72,2.79C221.67,125.2,221.43,125.37,221.19,125.53z"/>
	<path style="fill:#58AB3D;" d="M202.71,110.4c0.74,0.83,1.48,1.67,2.23,2.5c-0.19,0.19-0.38,0.39-0.57,0.58
		c-0.8-0.75-1.6-1.49-2.4-2.24C202.21,110.96,202.46,110.68,202.71,110.4z"/>
	<path style="fill:#316B2E;" d="M111.16,104.14c-0.67,1.01-1.33,2.02-2,3.03l-0.35-0.31c-0.42-0.68-0.4-1.3,0.24-1.83l-0.03,0.04
		c0.35-0.63,0.78-1.18,1.55-1.32C110.77,103.87,110.97,104,111.16,104.14z"/>
	<path style="fill:#54A93B;" d="M231.7,173.71c0.48-0.53,0.73-0.82,0.98-1.1c0.33,0.45,0.71,0.88,0.96,1.38
		c0.06,0.12-0.41,0.68-0.45,0.66C232.73,174.4,232.3,174.1,231.7,173.71z"/>
	<path style="fill:#59AD3F;" d="M79.05,163.16c0.17-0.96,0.33-1.92,0.5-2.88c0.31,0.06,0.61,0.13,0.92,0.19
		c-0.24,0.95-0.47,1.89-0.71,2.84C79.52,163.25,79.28,163.2,79.05,163.16z"/>
	<path style="fill:#59AD3F;" d="M154.06,75.86c0.97,0.38,1.94,0.75,2.91,1.13c-0.76,0.11-1.54,0.36-2.27,0.25
		C154.43,77.2,154.27,76.34,154.06,75.86z"/>
	<path style="fill:#5DB044;" d="M72.2,220.13c0-1.06,0-2.12,0-3.18c0.17-0.01,0.34-0.03,0.52-0.04c0.09,1.03,0.17,2.06,0.26,3.09
		C72.72,220.04,72.46,220.08,72.2,220.13z"/>
	<path style="fill:#58AB3D;" d="M252.92,209.51c-0.34-0.82-0.68-1.64-1.02-2.46c0.21-0.11,0.43-0.22,0.64-0.33
		c0.45,0.76,0.91,1.52,1.36,2.28C253.57,209.17,253.24,209.34,252.92,209.51z"/>
	<path style="fill:#58AB3D;" d="M220.98,136.98c0.5,0.81,1,1.61,1.49,2.42c-0.3,0.11-0.6,0.23-0.9,0.34
		c-0.2-0.91-0.4-1.83-0.61-2.74L220.98,136.98z"/>
	<path style="fill:#59AD3F;" d="M245.7,211.81c-0.24-0.67-0.49-1.33-0.73-2c0.2-0.09,0.4-0.18,0.6-0.27
		c0.33,0.6,0.66,1.19,0.98,1.79C246.27,211.5,245.99,211.66,245.7,211.81z"/>
	<path style="fill:#316B2E;" d="M111.23,102.03c0.58-0.35,1.16-0.71,1.74-1.06l0.05,0.04c-0.62,1.04-1.23,2.08-1.85,3.13
		c0,0-0.38-0.32-0.38-0.32C110.42,103.1,110.43,102.46,111.23,102.03z"/>
	<path style="fill:#59AD3F;" d="M165.99,80.97c0.69,0.31,1.38,0.63,2.07,0.94c-0.02,0.35-0.04,0.71-0.06,1.06l-0.04,0.04
		C167.3,82.33,166.65,81.65,165.99,80.97z"/>
	<path style="fill:#4DA337;" d="M109.06,105.01c-0.08,0.61-0.16,1.22-0.24,1.83c-0.59,0.4-1.18,0.8-1.77,1.2
		C107.72,107.04,108.39,106.02,109.06,105.01z"/>
	<path style="fill:#5DB044;" d="M83.71,190.67c0,0.87,0,1.75,0,2.63c-0.15,0-0.3,0-0.45,0c0-0.87,0-1.75,0-2.62
		C83.41,190.67,83.56,190.67,83.71,190.67z"/>
	<path style="fill:#4DA337;" d="M111.23,102.03c-0.15,0.6-0.3,1.19-0.45,1.79c-0.58,0.41-1.17,0.82-1.75,1.23
		C109.76,104.04,110.5,103.04,111.23,102.03z"/>
	<path style="fill:#347130;" d="M194.98,100.96c1.01,0.67,2.02,1.35,3.03,2.02C197,102.31,195.99,101.64,194.98,100.96z"/>
	<path style="fill:#367430;" d="M265,158.01c0.34,0.69,0.67,1.38,1.01,2.06c0.01,0.33,0,0.66-0.02,0.99
		C262.99,160.91,265.38,159.01,265,158.01z"/>
	<path style="fill:#347130;" d="M193.92,99.02c0.06,0.32,0.09,0.64,0.08,0.96c-1.03-0.64-2.06-1.28-3.08-1.92
		c0,0,0.13-0.13,0.13-0.13c0.58,0.03,1.17,0.06,1.75,0.09c0.46,0.26,0.79,0.66,1.17,1.02L193.92,99.02z"/>
	<path style="fill:#59AD3F;" d="M247.15,217.24c-0.22-0.57-0.44-1.14-0.66-1.71c0.19-0.1,0.38-0.19,0.57-0.29
		c0.32,0.6,0.63,1.2,0.95,1.79C247.73,217.1,247.44,217.17,247.15,217.24z"/>
	<path style="fill:#5DB044;" d="M213.26,124.56c-0.42-0.52-0.85-1.03-1.27-1.55c0.21-0.17,0.42-0.34,0.62-0.51
		c0.42,0.53,0.83,1.05,1.25,1.58C213.66,124.24,213.46,124.4,213.26,124.56z"/>
	<path style="fill:#347130;" d="M128.01,84.01c-0.24,0.65-0.49,1.3-0.73,1.96c-0.25-0.14-0.5-0.28-0.75-0.41
		c0.48-0.53,0.96-1.06,1.44-1.58C127.97,83.97,128.01,84.01,128.01,84.01z"/>
	<path style="fill:#367932;" d="M201.79,105.03c0.07,0.65,0.14,1.29,0.21,1.94c-0.51-0.51-1.01-1.02-1.52-1.53
		C200.92,105.3,201.35,105.17,201.79,105.03z"/>
	<path style="fill:#367932;" d="M202.99,107.96c0.65,0.05,1.31,0.11,1.96,0.16c0.02,0.61,0.05,1.22,0.07,1.83l-0.07,0.07
		C204.29,109.33,203.64,108.65,202.99,107.96z"/>
	<path style="fill:#367932;" d="M105.93,113.96c-0.51,0.5-1.01,1-1.52,1.5c0.16-0.5,0.31-1,0.47-1.49
		C105.23,113.49,105.58,113.51,105.93,113.96z"/>
	<path style="fill:#52A738;" d="M49.05,129.01c-0.67,0.68-1.34,1.36-2.02,2.03C47.71,130.37,48.38,129.69,49.05,129.01z"/>
	<path style="fill:#387E33;" d="M225.89,136.99c0.01,0.34,0.01,0.67,0.02,1.01c-0.34,0.47-0.68,0.47-1.01,0
		c-0.32-0.66-0.63-1.33-0.95-1.99l0.05-0.04C224.63,136.31,225.26,136.65,225.89,136.99z"/>
	<path style="fill:#5DB044;" d="M253,243.92c0.02,0.32,0.06,0.63,0.11,0.94c-0.13,0.44-0.26,0.88-0.39,1.31
		c-0.22-0.09-0.44-0.17-0.66-0.26C252.38,245.25,252.69,244.59,253,243.92z"/>
	<path style="fill:#52A738;" d="M184.95,92c0.35,0.33,0.71,0.65,1.06,0.98c-0.35,0.43-0.69,0.4-1.03-0.01l0.02,0.02
		c-0.2-0.21-0.28-0.42-0.23-0.65C184.83,92.11,184.88,92,184.95,92z"/>
	<path style="fill:#59AD3F;" d="M239.98,194.97c0.29,0.36,0.58,0.72,0.88,1.09c-0.2,0.1-0.39,0.2-0.59,0.3
		c-0.1-0.46-0.2-0.91-0.31-1.37L239.98,194.97z"/>
	<path style="fill:#367932;" d="M91.95,139.95c0.08-0.44,0.15-0.88,0.23-1.32c0.14,0.04,0.27,0.09,0.41,0.13
		c-0.19,0.42-0.38,0.83-0.58,1.25C92.02,140,91.95,139.95,91.95,139.95z"/>
	<path style="fill:#347130;" d="M129.98,81.98c0.67-0.33,1.34-0.66,2.01-1l0,0c-0.66,0.34-1.33,0.67-1.99,1.01
		C129.99,82,129.98,81.98,129.98,81.98z"/>
	<path style="fill:#367430;" d="M224.9,138c0.34,0,0.68,0,1.01,0c0.03,0.66,0.06,1.32,0.08,1.98
		C225.63,139.32,225.26,138.66,224.9,138z"/>
	<path style="fill:#4DA337;" d="M113,100.04c0.08-0.47,0.15-0.94,0.23-1.42c0.25,0.12,0.51,0.25,0.76,0.37
		c0.28,0.23,0.37,0.45,0.27,0.67c-0.1,0.21-0.2,0.32-0.3,0.32l0.03-0.03C113.68,100.28,113.35,100.3,113,100.04z"/>
	<path style="fill:#387E33;" d="M174.99,84.97c0.67,0.33,1.33,0.67,2,1C176.32,85.64,175.66,85.31,174.99,84.97z"/>
	<path style="fill:#347130;" d="M117.09,97.08c-0.32,0.32-0.64,0.64-0.96,0.96c-0.34,0.32-0.68,0.31-1-0.03
		c0.58-0.39,1.15-0.78,1.73-1.16L117.09,97.08z"/>
	<path style="fill:#316B2E;" d="M188.04,95.92c0.65,0.35,1.31,0.7,1.96,1.05l-0.06,0.06c-0.67-0.33-1.35-0.66-2.02-0.99
		L188.04,95.92z"/>
	<path style="fill:#387E33;" d="M220.98,128.98c-0.33-0.67-0.66-1.34-0.99-2.01l-0.02,0.02
		C220.3,127.66,220.63,128.32,220.98,128.98L220.98,128.98z"/>
	<path style="fill:#347130;" d="M117.82,95.83c0.36-0.64,0.73-1.29,1.09-1.93l0.23,0.23c-0.35,0.66-0.7,1.31-1.05,1.97L117.82,95.83
		z"/>
	<path style="fill:#387E33;" d="M222,128.99c0,0.66,0,1.32,0,1.98c-0.34-0.66-0.68-1.33-1.02-1.99l-0.01,0.01
		C221.31,128.99,221.66,128.99,222,128.99z"/>
	<path style="fill:#367932;" d="M87.5,151.48c-0.11-0.1-0.32-0.22-0.3-0.29c0.06-0.26,0.19-0.49,0.29-0.74
		c0.11,0.1,0.31,0.22,0.3,0.29C87.73,151,87.6,151.24,87.5,151.48z"/>
	<path style="fill:#367932;" d="M99.95,123.95c0.34-0.66,0.68-1.33,1.02-1.99c0,0,0.05,0.05,0.05,0.05c-0.33,0.67-0.66,1.34-0.99,2
		L99.95,123.95z"/>
	<path style="fill:#367932;" d="M215.96,122c-0.34-0.66-0.68-1.33-1.02-1.99l0.04-0.04c0.33,0.67,0.66,1.34,0.99,2.01L215.96,122z"
		/>
	<path style="fill:#387E33;" d="M264.98,164.02c-0.01-0.36-0.01-0.72-0.02-1.07c0.32-0.32,0.64-0.65,0.96-0.97
		C265.61,162.66,265.3,163.34,264.98,164.02z"/>
	<path style="fill:#59AD3F;" d="M238.99,164.96c0.29,0.37,0.58,0.73,0.87,1.1c-0.2,0.1-0.39,0.2-0.59,0.3
		c-0.11-0.45-0.21-0.91-0.32-1.36L238.99,164.96z"/>
	<path style="fill:#316B2E;" d="M105.93,113.96c-0.35,0-0.7,0-1.05,0.01c0-0.34,0-0.69,0-1.03c-0.22-0.36-0.16-0.67,0.17-0.92
		l-0.03,0.04c0.22-0.46,0.52-0.51,0.88-0.15c0,0,0.15,0.14,0.15,0.14C106.01,112.68,105.97,113.32,105.93,113.96z"/>
	<path style="fill:#4DA337;" d="M105.9,111.91c-0.29,0.05-0.59,0.1-0.88,0.15c0.35-0.68,0.69-1.36,1.04-2.04
		C106.01,110.64,105.96,111.27,105.9,111.91z"/>
	<path style="fill:#4DA337;" d="M107.06,108.02c-0.34,0.68-0.68,1.35-1.02,2.03C106.38,109.37,106.72,108.7,107.06,108.02z"/>
	<path style="fill:#387E33;" d="M176.99,85.98c0.46,0.33,0.93,0.66,1.39,0.99C177.92,86.63,177.46,86.31,176.99,85.98z"/>
	<path style="fill:#387E33;" d="M173.99,83.97c0.33,0.33,0.67,0.67,1,1C174.66,84.64,174.32,84.31,173.99,83.97z"/>
	<path style="fill:#387E33;" d="M174,82.94c0,0.35,0,0.69-0.01,1.04c-0.36-0.31-0.71-0.63-1.07-0.94l0.09-0.09
		C173.35,82.94,173.68,82.94,174,82.94z"/>
	<path style="fill:#59AD3F;" d="M168,82.97c0.15,0.16,0.3,0.33,0.45,0.49c-0.16-0.15-0.33-0.3-0.49-0.45L168,82.97z"/>
	<path style="fill:#347130;" d="M129.01,83.01c-0.33,0.33-0.67,0.67-1,1l-0.04-0.04c0.33-0.33,0.67-0.67,1-1L129.01,83.01z"/>
	<polygon style="fill:#367932;" points="94.65,134.51 94.41,134.6 94.45,134.35 	"/>
	<path style="fill:#387E33;" d="M172.02,81.96c0.33,0.33,0.67,0.66,1,0.98l-0.09,0.09c-0.33-0.33-0.66-0.66-0.99-1L172.02,81.96z"/>
	<path style="fill:#347130;" d="M131.98,80.99c0.34-0.36,0.67-0.72,1.01-1.08c0,0,0.07,0.07,0.07,0.07
		C132.7,80.32,132.34,80.65,131.98,80.99L131.98,80.99z"/>
	<path style="fill:#578331;" d="M132.99,79.91c0.17-0.14,0.35-0.29,0.52-0.43c-0.15,0.17-0.3,0.34-0.45,0.5L132.99,79.91z"/>
	<path style="fill:#347130;" d="M129.99,82c-0.33,0.34-0.66,0.67-0.98,1.01l-0.04-0.04c0.34-0.33,0.67-0.66,1.01-0.99
		C129.98,81.98,129.99,82,129.99,82z"/>
	<path style="fill:#367932;" d="M96.03,132.03c-0.18,0.16-0.37,0.32-0.55,0.47c0.15-0.19,0.3-0.38,0.45-0.57L96.03,132.03z"/>
	<path style="fill:#59AD3F;" d="M239.96,194.98c-0.15-0.16-0.31-0.32-0.46-0.48c0.1,0.02,0.24,0.01,0.3,0.07
		c0.09,0.1,0.12,0.25,0.18,0.38L239.96,194.98z"/>
	<path style="fill:#52A738;" d="M47.06,131.01c-0.34,0.42-0.68,0.84-1.01,1.26C46.38,131.85,46.72,131.43,47.06,131.01z"/>
	<path style="fill:#316B2E;" d="M113,100.04c0.33-0.07,0.66-0.1,0.99-0.08c-0.33,0.35-0.65,0.7-0.98,1.05c0,0-0.04-0.04-0.05-0.04
		C112.98,100.66,112.99,100.35,113,100.04z"/>
	<path style="fill:#316B2E;" d="M113.96,99.99c-0.03-0.33-0.02-0.66,0.03-0.99c0.31-0.03,0.63-0.05,0.94-0.06l0.12,0.11
		C114.69,99.36,114.32,99.67,113.96,99.99z"/>
	<path style="fill:#52A738;" d="M49.99,129.02c-0.33-0.01-0.65,0-0.98,0.03C49.34,129.04,49.66,129.03,49.99,129.02z"/>
	<path style="fill:#4DA337;" d="M193.96,99.04c-0.39-0.34-0.78-0.68-1.17-1.02C193.19,98.36,193.58,98.7,193.96,99.04z"/>
	<path style="fill:#316B2E;" d="M115.13,98.01c0.33,0.01,0.67,0.02,1,0.03c-0.36,0.34-0.72,0.67-1.08,1.01l-0.12-0.11
		C114.93,98.61,115,98.3,115.13,98.01z"/>
	<path style="fill:#387E33;" d="M219.99,126.97c-0.15-0.14-0.3-0.29-0.46-0.43c0.09,0.03,0.22,0.02,0.27,0.08
		c0.08,0.1,0.11,0.24,0.17,0.37L219.99,126.97z"/>
	<path style="fill:#367932;" d="M215.99,121.97c0.16,0.16,0.32,0.33,0.49,0.49c-0.11-0.02-0.26-0.01-0.31-0.07
		c-0.1-0.11-0.13-0.26-0.19-0.4L215.99,121.97z"/>
	<path style="fill:#316B2E;" d="M190,96.96c0.35,0.32,0.69,0.65,1.04,0.97c0,0-0.13,0.13-0.13,0.13c-0.32-0.35-0.65-0.69-0.97-1.04
		C189.95,97.02,190,96.96,190,96.96z"/>
	<path style="fill:#347130;" d="M116.85,96.84c0.32-0.34,0.64-0.67,0.97-1.01c0,0,0.27,0.26,0.27,0.26
		c-0.33,0.33-0.66,0.65-0.99,0.98C117.09,97.08,116.85,96.84,116.85,96.84z"/>
	<path style="fill:#367932;" d="M100.97,121.96c0.17-0.16,0.35-0.33,0.52-0.49c-0.16,0.18-0.32,0.36-0.47,0.54
		C101.02,122.01,100.97,121.96,100.97,121.96z"/>
	<path style="fill:#316B2E;" d="M187.93,96.03c-0.33-0.34-0.66-0.67-0.99-1.01l0.08-0.08c0.34,0.33,0.68,0.65,1.02,0.98
		L187.93,96.03z"/>
	<path style="fill:#367932;" d="M214,118.95c0.33,0.34,0.66,0.68,0.99,1.02l-0.04,0.04c-0.34-0.33-0.67-0.66-1.01-0.99L214,118.95z"
		/>
	<path style="fill:#347130;" d="M193.98,99.96c0.34,0.34,0.68,0.68,1.02,1.02C194.66,100.64,194.32,100.3,193.98,99.96z"/>
	<path style="fill:#347130;" d="M184.98,92.96c0.34,0,0.69,0.01,1.03,0.01c0.03,0.33,0.03,0.65,0,0.98l-0.07,0.07
		C185.62,93.67,185.3,93.31,184.98,92.96z"/>
	<path style="fill:#367932;" d="M212,116.95c0.34,0.33,0.67,0.67,1.01,1l-0.07,0.07c-0.33-0.34-0.67-0.67-1-1.01L212,116.95z"/>
	<polygon style="fill:#367932;" points="103.46,117.66 103.38,117.4 103.61,117.44 	"/>
	<path style="fill:#367932;" d="M210.98,115.97c0.34,0.33,0.68,0.65,1.02,0.98l-0.06,0.06c-0.33-0.34-0.65-0.68-0.98-1.02
		L210.98,115.97z"/>
	<path style="fill:#347130;" d="M120.15,93.14c-0.34,0.33-0.68,0.66-1.02,0.99l-0.23-0.23c0.33-0.34,0.65-0.68,0.98-1.02
		L120.15,93.14z"/>
	<path style="fill:#347130;" d="M184.95,92c0.09,0.33,0.11,0.65,0.06,0.99C184.99,92.66,184.97,92.33,184.95,92z"/>
	<path style="fill:#367932;" d="M210.96,115.99c-0.33-0.33-0.66-0.67-0.99-1c0,0,0.01-0.01,0.01-0.01c0.34,0.33,0.67,0.66,1.01,0.99
		C210.98,115.97,210.96,115.99,210.96,115.99z"/>
	<path style="fill:#59AD3F;" d="M238.95,165c-0.15-0.17-0.31-0.33-0.46-0.5c0.17,0.15,0.33,0.31,0.5,0.46L238.95,165z"/>
	<path style="fill:#347130;" d="M121.12,92.14c-0.32,0.33-0.65,0.67-0.97,1c0,0-0.26-0.26-0.26-0.26c0.32-0.33,0.65-0.67,0.97-1
		L121.12,92.14z"/>
	<path style="fill:#52A738;" d="M183.28,90.92c-0.21-0.27-0.33-0.57-0.37-0.91c0.21,0.18,0.43,0.34,0.62,0.54
		C183.55,90.58,183.37,90.8,183.28,90.92z"/>
	<path style="fill:#367932;" d="M209.97,114.99c-0.33-0.33-0.67-0.67-1-1l0.01-0.01c0.33,0.33,0.67,0.67,1,1L209.97,114.99z"/>
	<path style="fill:#367932;" d="M207.99,112.97c0.33,0.33,0.66,0.67,1,1l-0.01,0.01c-0.33-0.33-0.67-0.66-1-1L207.99,112.97z"/>
	<path style="fill:#367932;" d="M213.94,119.02c-0.33-0.33-0.66-0.66-0.99-1l0.07-0.07c0.33,0.33,0.66,0.66,0.99,1L213.94,119.02z"
		/>
	<polygon style="fill:#367932;" points="93.65,136.51 93.41,136.6 93.45,136.35 	"/>
	<path style="fill:#52A738;" d="M182.96,90.05c-0.34-0.34-0.69-0.69-1.03-1.03C182.27,89.36,182.61,89.7,182.96,90.05z"/>
	<path style="fill:#52A738;" d="M181.95,89.04c-0.34-0.34-0.68-0.68-1.03-1.03C181.26,88.36,181.61,88.7,181.95,89.04z"/>
	<path style="fill:#367932;" d="M206.01,110.95c0.33,0.34,0.66,0.68,0.99,1.02l-0.04,0.04c-0.34-0.33-0.68-0.66-1.01-1
		L206.01,110.95z"/>
	<path style="fill:#367932;" d="M205.94,111.01c-0.33-0.33-0.67-0.66-1-0.99l0.07-0.07c0.33,0.33,0.66,0.67,0.99,1L205.94,111.01z"
		/>
	<path style="fill:#4DA337;" d="M105.05,112.01c-0.01,0.32-0.07,0.62-0.17,0.92C104.94,112.63,105,112.32,105.05,112.01z"/>
	<path style="fill:#347130;" d="M124.87,87.86c0.17-0.2,0.34-0.39,0.5-0.59c-0.1,0.27-0.19,0.54-0.29,0.81L124.87,87.86z"/>
	<path style="fill:#316B2E;" d="M186.93,95.02c-0.33-0.34-0.66-0.67-0.99-1.01c0,0,0.06-0.06,0.07-0.07
		c0.34,0.33,0.67,0.66,1.01,0.99C187.02,94.94,186.93,95.02,186.93,95.02z"/>
	<path style="fill:#367932;" d="M201.99,106.96c0.34,0.34,0.67,0.67,1.01,1.01C202.66,107.64,202.32,107.3,201.99,106.96z"/>
	<path style="fill:#58AB3D;" d="M220.97,136.99c-0.15-0.16-0.31-0.31-0.46-0.47c0.1,0.02,0.24,0.01,0.29,0.08
		c0.09,0.1,0.12,0.25,0.18,0.38L220.97,136.99z"/>
	<path style="fill:#347130;" d="M197.97,102.96c0.48,0.35,0.96,0.69,1.44,1.04C198.93,103.65,198.45,103.3,197.97,102.96z"/>
	<path style="fill:#367932;" d="M207,111.96c0.33,0.34,0.66,0.67,0.98,1.01l-0.02,0.02c-0.34-0.33-0.67-0.66-1.01-0.99L207,111.96z"
		/>
	<path style="fill:#52A738;" d="M376.26,299.39c-1.58,0.15-3.17,0.29-4.75,0.44c-0.06-0.5-0.11-1-0.17-1.5
		c1.56-0.14,3.11-0.29,4.67-0.43C376.09,298.4,376.18,298.89,376.26,299.39z"/>
	<path style="fill:#52A738;" d="M345.01,286.79c1.6,0.59,3.19,1.18,4.79,1.77c-0.16,0.43-0.31,0.87-0.47,1.3
		c-1.63-0.55-3.26-1.1-4.89-1.66C344.63,287.73,344.82,287.26,345.01,286.79z"/>
	<path style="fill:#54A93B;" d="M367.46,292.64c-1.35,0-2.7,0-4.04,0c-0.03-0.39-0.06-0.79-0.09-1.18c1.35-0.12,2.71-0.23,4.06-0.35
		C367.41,291.62,367.43,292.13,367.46,292.64z"/>
	<path style="fill:#52A738;" d="M348.96,310.77c1.44,0.41,2.87,0.82,4.31,1.24c-0.07,0.34-0.15,0.67-0.22,1.01
		c-1.51-0.22-3.03-0.44-4.54-0.66C348.66,311.83,348.81,311.3,348.96,310.77z"/>
	<path style="fill:#54A93B;" d="M375.27,292.43c-1.26,0.14-2.51,0.28-3.77,0.43c-0.07-0.46-0.15-0.92-0.22-1.38
		c1.29-0.19,2.58-0.38,3.86-0.57C375.18,291.41,375.22,291.92,375.27,292.43z"/>
	<path style="fill:#59AD3F;" d="M393.36,293.08c1.19-0.7,2.39-1.39,3.58-2.09c0.2,0.31,0.4,0.63,0.59,0.94
		c-1.16,0.75-2.33,1.51-3.49,2.26C393.82,293.82,393.59,293.45,393.36,293.08z"/>
	<path style="fill:#59AD3F;" d="M409.06,303.77c1.29-0.92,2.57-1.83,3.86-2.75c0.21,0.3,0.42,0.6,0.63,0.89
		c-1.3,0.9-2.59,1.8-3.89,2.7C409.45,304.33,409.25,304.05,409.06,303.77z"/>
	<path style="fill:#54A93B;" d="M390.76,295.25c-1.01,0.52-2.01,1.05-3.02,1.57c-0.21-0.33-0.41-0.66-0.62-0.99
		c0.97-0.59,1.95-1.18,2.92-1.77C390.28,294.45,390.52,294.85,390.76,295.25z"/>
	<path style="fill:#58AB3D;" d="M419.75,296.91c-0.99,0.87-1.99,1.75-2.98,2.62c-0.19-0.13-0.37-0.26-0.56-0.39
		c0.39-0.7,0.67-1.51,1.21-2.05c0.46-0.46,1.22-0.61,1.85-0.9C419.43,296.43,419.59,296.67,419.75,296.91z"/>
	<path style="fill:#52A738;" d="M367.32,306.47c1.04-0.09,2.07-0.18,3.11-0.26c0.04,0.41,0.08,0.83,0.12,1.24
		c-1.03,0.09-2.07,0.17-3.1,0.26C367.4,307.29,367.36,306.88,367.32,306.47z"/>
	<path style="fill:#5DB044;" d="M440.91,270.09c-0.8,1.09-1.59,2.18-2.39,3.26c-0.28-0.21-0.56-0.42-0.85-0.64
		c0.8-1.08,1.61-2.16,2.41-3.24C440.37,269.68,440.64,269.88,440.91,270.09z"/>
	<path style="fill:#58AB3D;" d="M346.09,294.96c-1.14-0.37-2.28-0.73-3.42-1.1c0.07-0.3,0.13-0.59,0.2-0.89
		c1.18,0.22,2.35,0.44,3.53,0.66C346.3,294.07,346.19,294.52,346.09,294.96z"/>
	<path style="fill:#59AD3F;" d="M322.93,302.92c-1.2-0.68-2.39-1.36-3.59-2.04c0.13-0.27,0.27-0.53,0.4-0.8
		c1.29,0.61,2.58,1.23,3.87,1.84C323.38,302.25,323.16,302.58,322.93,302.92z"/>
	<path style="fill:#54A93B;" d="M341.14,309.87c-1.01-0.54-2.02-1.09-3.03-1.63c0.11-0.24,0.23-0.49,0.34-0.73
		c1.13,0.4,2.26,0.81,3.38,1.21C341.6,309.1,341.37,309.48,341.14,309.87z"/>
	<path style="fill:#52A738;" d="M342.87,300.96c0.89,0.37,1.78,0.74,2.67,1.12c-0.09,0.26-0.17,0.52-0.26,0.77
		c-0.92-0.24-1.85-0.49-2.77-0.73C342.63,301.73,342.75,301.34,342.87,300.96z"/>
	<path style="fill:#59AD3F;" d="M393.4,284.19c0.92-0.6,1.84-1.21,2.77-1.81c0.17,0.27,0.34,0.54,0.51,0.81
		c-0.93,0.57-1.86,1.15-2.79,1.72C393.73,284.67,393.56,284.43,393.4,284.19z"/>
	<path style="fill:#5DB044;" d="M425.32,291.47c-0.95,0.63-1.91,1.25-2.86,1.88c-0.32-0.32-0.63-0.64-0.95-0.96
		c0.76-0.82,1.52-1.63,2.28-2.45C424.3,290.45,424.81,290.96,425.32,291.47z"/>
	<path style="fill:#59AD3F;" d="M379.59,298.34c1.15-0.4,2.3-0.79,3.4-1.17c0.2,0.28,0.29,0.4,0.38,0.52
		c-1.15,0.49-2.31,0.98-3.46,1.47C379.8,298.89,379.7,298.62,379.59,298.34z"/>
	<path style="fill:#54A93B;" d="M355.56,297.37c-1.1-0.28-2.19-0.55-3.29-0.83c0.07-0.3,0.14-0.6,0.22-0.9
		c1.09,0.29,2.18,0.58,3.27,0.87C355.69,296.79,355.63,297.08,355.56,297.37z"/>
	<path style="fill:#59AD3F;" d="M290,271.03c0.91,0.49,1.82,0.99,2.74,1.48c-0.13,0.29-0.26,0.58-0.38,0.87
		c-1.01-0.49-2.01-0.98-3.02-1.47C289.56,271.61,289.78,271.32,290,271.03z"/>
	<path style="fill:#58AB3D;" d="M410.36,269.23c0.47-0.7,0.95-1.39,1.42-2.09c0.3,0.19,0.61,0.39,0.91,0.58
		c-0.49,0.73-0.97,1.47-1.46,2.2C410.94,269.69,410.65,269.46,410.36,269.23z"/>
	<path style="fill:#59AD3F;" d="M385.48,305.01c-0.92,0.3-1.83,0.61-2.75,0.91c-0.1-0.26-0.21-0.52-0.31-0.78
		c0.85-0.41,1.69-0.82,2.54-1.23C385.13,304.28,385.3,304.65,385.48,305.01z"/>
	<path style="fill:#59AD3F;" d="M402.08,307.61c1-0.51,2-1.02,3-1.54c0.13,0.23,0.27,0.46,0.4,0.7c-0.94,0.6-1.88,1.2-2.82,1.79
		C402.46,308.24,402.27,307.93,402.08,307.61z"/>
	<path style="fill:#54A93B;" d="M397.76,310.17c-0.94,0.57-1.88,1.14-2.82,1.72c-0.16-0.27-0.32-0.55-0.48-0.82
		c0.95-0.54,1.9-1.08,2.84-1.62C397.46,309.69,397.61,309.93,397.76,310.17z"/>
	<path style="fill:#59AD3F;" d="M398.98,279.64c0.64-0.54,1.29-1.08,1.93-1.62c0.18,0.18,0.36,0.35,0.54,0.53
		c-0.6,0.65-1.2,1.3-1.8,1.95C399.43,280.22,399.21,279.93,398.98,279.64z"/>
	<path style="fill:#5DB044;" d="M389.32,287.75c-0.83,0.37-1.65,0.73-2.48,1.1c-0.12-0.23-0.23-0.47-0.35-0.7
		c0.79-0.43,1.58-0.86,2.38-1.29C389.02,287.16,389.17,287.46,389.32,287.75z"/>
	<path style="fill:#5DB044;" d="M414.35,289.13c0.66-0.58,1.31-1.17,1.97-1.75c0.18,0.17,0.36,0.34,0.54,0.52
		c-0.59,0.67-1.18,1.34-1.77,2.01C414.84,289.65,414.59,289.39,414.35,289.13z"/>
	<path style="fill:#58AB3D;" d="M326.97,287.95c0.93,0.23,1.86,0.46,2.79,0.69c-0.19,0.4-0.38,0.79-0.57,1.19
		c-0.75-0.61-1.5-1.23-2.25-1.84L326.97,287.95z"/>
	<path style="fill:#58AB3D;" d="M336.62,291.15c0.65,0.15,1.3,0.3,1.95,0.45c-0.07,0.3-0.14,0.59-0.2,0.89
		c-0.65-0.18-1.31-0.37-1.96-0.55C336.48,291.68,336.55,291.41,336.62,291.15z"/>
	<path style="fill:#5DB044;" d="M423.33,280.13c0.66-0.59,1.32-1.18,1.98-1.77c0.18,0.17,0.36,0.35,0.54,0.52
		c-0.59,0.68-1.19,1.35-1.78,2.03C423.83,280.65,423.58,280.39,423.33,280.13z"/>
	<path style="fill:#5DB044;" d="M392.54,302.95c-0.88,0.35-1.76,0.7-2.65,1.05c-0.09-0.23-0.18-0.47-0.27-0.7
		c0.88-0.36,1.75-0.72,2.63-1.09C392.34,302.46,392.44,302.7,392.54,302.95z"/>
	<path style="fill:#5DB044;" d="M421.57,283.77c-0.66,0.59-1.32,1.18-1.98,1.77c-0.18-0.17-0.36-0.35-0.54-0.52
		c0.59-0.67,1.19-1.35,1.78-2.02C421.08,283.26,421.33,283.52,421.57,283.77z"/>
	<path style="fill:#5DB044;" d="M432.93,279.79c0.63-0.6,1.26-1.21,1.89-1.81c0.41,0.41,0.82,0.83,1.23,1.24
		c-0.56,0.68-1.11,1.35-1.67,2.03C433.9,280.77,433.42,280.28,432.93,279.79z"/>
	<path style="fill:#5DB044;" d="M429.89,272.95c-0.39,0.55-0.78,1.1-1.17,1.65c-0.22-0.12-0.44-0.25-0.65-0.37
		c0.29-0.6,0.59-1.2,0.88-1.8C429.26,272.6,429.58,272.77,429.89,272.95z"/>
	<path style="fill:#54A93B;" d="M320.97,293.94c0.91,0.21,1.82,0.42,2.73,0.63c-0.11,0.3-0.22,0.59-0.33,0.89
		c-0.81-0.49-1.62-0.98-2.44-1.47L320.97,293.94z"/>
	<path style="fill:#5DB044;" d="M398.34,300.06c0.57-0.34,1.14-0.68,1.71-1.02c0.14,0.19,0.28,0.38,0.42,0.57
		c-0.52,0.43-1.04,0.86-1.55,1.29C398.72,300.62,398.53,300.34,398.34,300.06z"/>
	<path style="fill:#59AD3F;" d="M278.97,281.96c0.92,0.2,1.83,0.41,2.75,0.61c-0.11,0.3-0.22,0.6-0.33,0.89
		c-0.81-0.5-1.62-0.99-2.43-1.49L278.97,281.96z"/>
	<path style="fill:#59AD3F;" d="M290.95,287.95c-0.52-0.42-1.04-0.84-1.56-1.26c0.13-0.2,0.27-0.41,0.4-0.61
		c0.6,0.32,1.2,0.65,1.8,0.97C291.38,287.35,291.16,287.65,290.95,287.95z"/>
	<path style="fill:#58AB3D;" d="M283.97,276.95c0.85,0.36,1.7,0.72,2.55,1.09c-0.19,0.28-0.38,0.57-0.56,0.85
		c-0.67-0.64-1.34-1.28-2.01-1.91L283.97,276.95z"/>
	<path style="fill:#54A93B;" d="M276.98,272.95c0.53,0.42,1.06,0.85,1.58,1.27c-0.11,0.11-0.23,0.23-0.34,0.34
		c-0.43-0.52-0.85-1.05-1.28-1.57L276.98,272.95z"/>
	<path style="fill:#5DB044;" d="M411.96,279.94c0.43-0.52,0.85-1.03,1.28-1.55c0.2,0.14,0.41,0.27,0.61,0.41
		c-0.33,0.6-0.66,1.19-0.99,1.79C412.57,280.38,412.26,280.16,411.96,279.94z"/>
	<path style="fill:#54A93B;" d="M276.95,272.99c-0.91-0.21-1.82-0.42-2.73-0.63c0.11-0.3,0.22-0.59,0.33-0.89
		c0.81,0.49,1.62,0.98,2.43,1.47L276.95,272.99z"/>
	<path style="fill:#5DB044;" d="M388.21,312.79c-0.57,0.22-1.14,0.44-1.71,0.66c-0.1-0.19-0.2-0.38-0.3-0.57
		c0.6-0.32,1.21-0.64,1.81-0.95C388.08,312.21,388.15,312.5,388.21,312.79z"/>
	<path style="fill:#5DB044;" d="M372.06,314.78c-0.76,0-1.52,0-2.28,0c-0.01-0.17-0.03-0.33-0.04-0.5c0.79-0.09,1.57-0.19,2.36-0.28
		C372.08,314.26,372.07,314.52,372.06,314.78z"/>
	<path style="fill:#5DB044;" d="M245,262c0.32-0.04,0.63-0.04,0.95,0.02c0.07,0.55,0.14,1.11,0.2,1.66
		C245.76,263.12,245.38,262.56,245,262z"/>
	<path style="fill:#5DB044;" d="M415.45,263.49c-0.17,0.27-0.28,0.64-0.53,0.79c-0.15,0.09-0.5-0.13-0.76-0.21
		c0.14-0.28,0.22-0.69,0.44-0.8C414.79,263.16,415.16,263.4,415.45,263.49z"/>
	<path style="fill:#5DB044;" d="M405.94,273.96c0.45-0.49,0.91-0.98,1.36-1.47c0.15,0.22,0.31,0.44,0.46,0.67
		c-0.6,0.27-1.21,0.55-1.81,0.82L405.94,273.96z"/>
	<path style="fill:#59AD3F;" d="M310.97,296.95c0.78,0.06,1.57,0.12,2.35,0.18c-0.07,0.24-0.13,0.49-0.2,0.73
		c-0.73-0.29-1.45-0.59-2.18-0.88L310.97,296.95z"/>
	<path style="fill:#59AD3F;" d="M408.96,282.98c-0.28,0.6-0.55,1.21-0.83,1.81c-0.22-0.16-0.44-0.31-0.67-0.47
		c0.49-0.46,0.98-0.91,1.47-1.37C408.94,282.95,408.96,282.98,408.96,282.98z"/>
	<path style="fill:#59AD3F;" d="M428.93,285.95c0.28-0.6,0.56-1.21,0.83-1.81c0.22,0.16,0.45,0.31,0.67,0.47
		c-0.49,0.46-0.98,0.92-1.47,1.38L428.93,285.95z"/>
	<path style="fill:#58AB3D;" d="M402.92,287.93c0.46-0.49,0.93-0.97,1.39-1.46c0.16,0.22,0.31,0.44,0.47,0.66
		c-0.6,0.28-1.2,0.57-1.81,0.85L402.92,287.93z"/>
	<path style="fill:#5DB044;" d="M420.93,269.96c0.46-0.49,0.91-0.99,1.37-1.48c0.16,0.22,0.31,0.44,0.47,0.66
		c-0.6,0.28-1.21,0.56-1.81,0.85L420.93,269.96z"/>
	<path style="fill:#58AB3D;" d="M283.95,276.98c-0.45-0.1-0.9-0.21-1.35-0.31c0.1-0.19,0.2-0.39,0.3-0.58
		c0.36,0.29,0.72,0.58,1.07,0.87L283.95,276.98z"/>
	<path style="fill:#59AD3F;" d="M294.95,281.98c-0.47-0.11-0.94-0.21-1.42-0.32c0.11-0.19,0.23-0.39,0.34-0.58
		c0.36,0.29,0.73,0.59,1.09,0.88L294.95,281.98z"/>
	<path style="fill:#5DB044;" d="M420.96,269.98c-0.1,0.45-0.21,0.91-0.31,1.36c-0.2-0.1-0.39-0.2-0.59-0.3
		c0.29-0.36,0.58-0.72,0.87-1.08L420.96,269.98z"/>
	<path style="fill:#59AD3F;" d="M303.95,285.98c-0.47-0.11-0.94-0.22-1.41-0.32c0.11-0.19,0.23-0.39,0.34-0.58
		c0.36,0.29,0.73,0.59,1.09,0.88L303.95,285.98z"/>
	<path style="fill:#58AB3D;" d="M326.94,287.98c-0.45-0.11-0.91-0.22-1.36-0.32c0.1-0.2,0.2-0.39,0.3-0.59
		c0.37,0.29,0.73,0.58,1.1,0.87L326.94,287.98z"/>
	<path style="fill:#58AB3D;" d="M402.97,287.99c-0.36,0.29-0.72,0.58-1.09,0.87c-0.1-0.19-0.2-0.39-0.29-0.58
		c0.44-0.11,0.89-0.23,1.33-0.34L402.97,287.99z"/>
	<path style="fill:#54A93B;" d="M320.94,293.98c-0.45-0.11-0.9-0.22-1.35-0.33c0.1-0.19,0.2-0.39,0.3-0.58
		c0.36,0.29,0.73,0.58,1.09,0.87C320.97,293.94,320.94,293.98,320.94,293.98z"/>
	<path style="fill:#59AD3F;" d="M293.59,288.33c0.14-0.05,0.28-0.11,0.42-0.16c0.04,0.2,0.09,0.41,0.13,0.61
		c-0.15-0.03-0.33-0.02-0.45-0.1C293.61,288.63,293.61,288.45,293.59,288.33z"/>
	<path style="fill:#59AD3F;" d="M310.94,296.98c-0.46-0.11-0.91-0.21-1.37-0.32c0.1-0.2,0.2-0.39,0.3-0.59
		c0.36,0.29,0.73,0.58,1.09,0.88L310.94,296.98z"/>
	<path style="fill:#59AD3F;" d="M329.33,304.6c-0.14,0.05-0.28,0.11-0.42,0.16c-0.04-0.2-0.09-0.41-0.13-0.61
		c0.15,0.03,0.33,0.02,0.45,0.09C329.31,304.29,329.3,304.48,329.33,304.6z"/>
	<path style="fill:#59AD3F;" d="M331.59,305.33c0.14-0.05,0.28-0.11,0.42-0.16c0.04,0.21,0.09,0.41,0.13,0.62
		c-0.15-0.03-0.33-0.02-0.45-0.1C331.61,305.63,331.62,305.45,331.59,305.33z"/>
	<path style="fill:#5DB044;" d="M405.96,273.97c-0.16,0.16-0.32,0.32-0.47,0.48c0.02-0.1,0.01-0.25,0.07-0.3
		c0.1-0.09,0.26-0.13,0.39-0.19L405.96,273.97z"/>
	<path style="fill:#59AD3F;" d="M278.96,281.97c-0.15-0.16-0.31-0.32-0.46-0.48c0.1,0.02,0.24,0.01,0.3,0.08
		c0.09,0.1,0.12,0.25,0.17,0.38L278.96,281.97z"/>
	<path style="fill:#59AD3F;" d="M294.97,281.96c0.15,0.16,0.3,0.32,0.46,0.48c-0.1-0.02-0.24-0.01-0.3-0.08
		c-0.09-0.1-0.12-0.25-0.18-0.38C294.95,281.98,294.97,281.96,294.97,281.96z"/>
	<path style="fill:#59AD3F;" d="M408.94,282.95c0.16-0.15,0.33-0.3,0.49-0.45c-0.02,0.1-0.01,0.24-0.08,0.3
		c-0.1,0.09-0.26,0.12-0.39,0.17C408.96,282.98,408.94,282.95,408.94,282.95z"/>
	<path style="fill:#59AD3F;" d="M303.98,285.95c0.15,0.16,0.31,0.32,0.46,0.48c-0.1-0.02-0.25-0.01-0.3-0.07
		c-0.09-0.1-0.12-0.26-0.18-0.39L303.98,285.95z"/>
	<path style="fill:#59AD3F;" d="M428.96,285.98c-0.17,0.15-0.33,0.3-0.5,0.46c0.02-0.11,0.01-0.25,0.08-0.31
		c0.1-0.09,0.26-0.12,0.39-0.18L428.96,285.98z"/>
	<path style="fill:#FCFCF1;" d="M322.8,159.45c1.17,2.65,2.31,5.32,3.54,7.95c1.01,2.17,2.1,4.31,3.19,6.44
		c1.4,2.74,2.84,5.45,4.26,8.18c0.55,2.88,1.07,5.76,1.68,8.63c0.21,0.96,0.94,1.87,0.95,2.8c0.03,2.27-0.45,4.56-0.32,6.82
		c0.2,3.34-2.63,3.21-4.39,4.49c-1.82,1.32-3.06,3.42-4.78,4.92c-1.72,1.49-3.42,4.2-6.09,0.89c-0.39-0.48-2.05,0.03-3.11,0.15
		c-3.77,0.43-7.54,1.21-11.32,1.21c-2.2,0-4.63-0.83-6.57-1.97c-3.76-2.21-5.78-5.29-0.42-7.95c0.57-0.28,1.03-0.8,1.53-1.24
		c0.1-0.09,0.11-0.28,0.23-0.63c-2.39-2.13-4.94-4.22-7.28-6.52c-3.07-3.01-4.94-6.65-4.98-11.07c-0.06-6.6,1.75-8.77,8.77-10.04
		c-0.91-1.87-1.86-3.58-2.61-5.38c-2.74-6.66-0.84-12.36,4.83-16.24c1.28-0.88,1.63-3.12,2.15-4.19c2.41,0.2,4.36,0.57,6.3,0.49
		c4.38-0.19,6.5,2.72,8.56,5.82c0.3,0.29,0.4,0.63,0.28,1.03C319.06,155.83,320.93,157.64,322.8,159.45z"/>
	<path style="fill:#387E33;" d="M320.95,222.03c-2.99,0.01-5.98,0.01-8.97,0.02C314.97,222.05,317.96,222.04,320.95,222.03z"/>
	<path style="fill:#AABD5A;" d="M317.2,154.02c-0.09-0.34-0.18-0.68-0.28-1.03C317.01,153.34,317.1,153.68,317.2,154.02z"/>
	<path style="fill:#419836;" d="M255.95,253.96c0.39,0.06,0.78,0.12,1.17,0.18c-0.71-0.05-1.42-0.09-2.13-0.14
		C255.31,253.97,255.63,253.96,255.95,253.96z"/>
	<path style="fill:#578331;" d="M124.31,48.8c-2.29-3.25-3.89-5.53-5.84-8.29C123.58,40.77,124.93,42.66,124.31,48.8z"/>
	<path style="fill:#419836;" d="M223.39,71.96c-0.78,0.46-1.57,0.93-2.35,1.39c-0.03-1.11-0.05-2.23-0.08-3.34
		c1.14-0.33,2.29-0.66,3.43-0.99c0.16,0.24,0.32,0.49,0.48,0.73C224.38,70.49,223.89,71.22,223.39,71.96z"/>
	<path style="fill:#419836;" d="M220.26,74.03c-0.43,0.37-0.86,0.73-1.29,1.1C219.4,74.77,219.83,74.4,220.26,74.03z"/>
	<path style="fill:#429837;" d="M202.87,69.07c-0.66,0.29-1.32,0.59-1.97,0.88c0.3-0.7,0.6-1.4,0.91-2.1
		C202.16,68.26,202.51,68.66,202.87,69.07z"/>
	<path style="fill:#8DA839;" d="M200.83,69.89c-0.39,0.62-0.79,1.24-1.18,1.86c-0.19-0.08-0.38-0.17-0.57-0.25
		c0.12-0.57,0.24-1.14,0.36-1.72C199.89,69.82,200.36,69.86,200.83,69.89z"/>
	<path style="fill:#387E33;" d="M264,169.02c0.24-0.66,0.47-1.33,0.71-1.99C264.47,167.69,264.24,168.35,264,169.02z"/>
	<polygon style="fill:#8DA839;" points="198.25,73.44 198.59,73.29 198.55,73.66 	"/>
	<path style="fill:#419836;" d="M256.08,249.93c0,0.69-0.01,1.38-0.01,2.07C256.07,251.31,256.08,250.62,256.08,249.93z"/>
	<path style="fill:#C9CC9B;" d="M320.77,199.19c-3.32-4.62-3.65-11.52-0.44-15.73c0.88-1.15,2.59-2.09,4.03-2.3
		c1.76-0.26,2.99,1.58,4.03,4.65c-1.57-0.43-4.48-1.9-5.05-1.26c-1.61,1.79-2.79,4.37-3.12,6.78c-0.32,2.35,0.61,4.88,1,7.33
		C321.4,199.11,321.27,199.3,320.77,199.19z"/>
	<path style="fill:#D6E5C8;" d="M330.91,191.97c0.47,3.35,0.93,6.7,1.4,10.05c-0.45,0.04-0.9,0.07-1.35,0.11c0-3.4,0-6.81,0-10.21
		L330.91,191.97z"/>
	<path style="fill:#C9CC9B;" d="M321.22,198.65c1.08,0.17,2.16,0.34,3.57,0.56c-1.62,2.34-2.83,1.66-4.02-0.03
		C320.93,199.01,321.08,198.84,321.22,198.65z"/>
	<path style="fill:#C9CC9B;" d="M330.96,191.93c-0.3-0.72-0.6-1.43-0.9-2.15c0.25-0.04,0.49-0.09,0.74-0.13
		c0.04,0.78,0.08,1.55,0.11,2.33L330.96,191.93z"/>
</g>
</svg>
