<?xml version="1.0" encoding="utf-8"?>
<!-- Generator: Adobe Illustrator 24.0.0, SVG Export Plug-In . SVG Version: 6.00 Build 0)  -->
<svg version="1.1" id="Calque_1" xmlns="http://www.w3.org/2000/svg" xmlns:xlink="http://www.w3.org/1999/xlink" x="0px" y="0px"
	 viewBox="0 0 411.03 229.2" style="enable-background:new 0 0 411.03 229.2;" xml:space="preserve">
<g>
	<path style="fill:#CEE1A5;" d="M352.06,139.49c-24.76,1.17-48.31,7.53-70.53,18.09c-8.4,3.99-15.31,11.01-23.22,16.15
		c-15.69,10.18-29.66,22.41-43.9,34.45c-14.11,11.93-31.61,17.41-49.76,20.33c-18.99,3.05-34.47-4.19-47.96-16.9
		c-2.42-2.29-4.78-4.65-7.15-6.99c-6.52-6.42-11.51-6.91-19.12-2.03c-6.84,4.39-13.65,8.84-20.65,12.98
		c-11.69,6.91-24.14,10.44-37.75,6.92c-13.12-3.4-23-10.94-26.8-24.26c-3.57-12.47-0.84-20.73,9.13-26.22
		c0.58-0.32,1.15-0.67,1.7-1.04c7.55-5.06,7.76-10.44,0.61-16.28c-3.34-2.73-6.76-5.38-10.05-8.18c-9.16-7.79-9.04-24.28,1.91-32.67
		c11.8-9.05,23.62-17.5,38.45-20.1c10.92-1.92,22.05-2.68,33.08-3.96c3.61,2.1,7.83,2.1,11.66,3.42c2.08,0.72,4.19,1.29,3.78,4.2
		c-2.42,3.26-6.2,3.06-9.54,3.27c-16.36,1-32.41,3.74-48.25,7.82c-8.35,2.15-15.89,6.04-22.56,11.47
		c-5.96,4.85-6.4,10.11-1.24,15.89c3.66,4.1,7.54,8,11.03,12.26c1.91,2.33,3.64,4.77,5.03,7.44c3.42,6.56,2.9,10.88-2.07,16.41
		c-2.9,3.22-6.11,6.12-8.77,9.58c-2.3,2.99-3.23,6.24-2.67,9.83c2.38,15.41,10.86,23.67,27.41,19.92
		c14.75-3.34,28.4-9.6,42.03-15.78c6.55-2.97,13.07-3.6,19.94-3.08c2.92,0.22,5.43,1.59,7.64,3.43c5.12,4.26,10.56,8.24,15.12,13.06
		c10.12,10.69,22.88,11.88,36.06,9.92c20.43-3.04,38.61-11.25,53.17-26.41c10.97-11.42,22.62-22.13,34.09-33.04
		c7.82-7.43,17.86-10.9,27.58-14.78c15.73-6.29,32.36-8.94,49.01-11.44c2.22-0.08,4.43-0.09,6.65-0.01
		c4.27,0.63,8.52,1.45,12.74,2.33C349.86,135.89,352.9,135.88,352.06,139.49z"/>
	<path style="fill:#CCDF9E;" d="M352.06,139.49c-1.37-0.95-2.63-2.4-4.14-2.75c-4.29-1.01-8.68-1.58-13.04-2.32
		c2.68-4.1,7.23-3.51,11.11-4.11c17.02-2.6,33.87-0.84,50.61,2.62c1.47,0.3,2.93,0.66,4.43,0.74c0.5,0.03,1-0.05,1.56-0.38
		c1.33-1.81,0.34-3.78-0.05-5.65c-5.1-24.47-10.13-48.95-19.41-72.31c-2.48-6.23-5.5-12.15-8.78-17.93
		c-3.35-5.88-13.46-6.13-18.8-0.73c-1.29,1.31-2.34,2.83-3.3,4.39c-7.55,12.32-18.81,15.63-32.32,13.25
		c-17.31-3.04-31.75-11.79-44.61-23.28c-6.45-5.77-13.3-11.19-19.21-17.45c-6.7-7.09-27.27-6.98-34.8-3.19
		c-2.86,1.44-3.91,3.92-3.91,7c-0.01,6.22,1.14,12.27,2.81,18.22c0.64,2.27,1.18,4.5,1.11,6.87c-0.21,6.62-4.28,10.7-10.91,11.32
		c-10.47,0.98-20.01-2.72-29.77-5.49c-12.8-3.63-24.91-9.38-38.17-11.69c-13.98-2.44-27.84-5.11-42.12-2.82
		c-2.43,0.39-4.55,1.09-6.13,2.94c-8.68,10.16-8.75,19.03,0.45,29.87c3.22,3.8,7.24,6.89,9.84,11.27c4.12,6.93,3.77,11.08-1.6,17.12
		c-2.35,1.73-4.37,4.52-7.9,2.46c-2.28-5.13-7.8-2.85-11.38-4.98c-1.28-0.77-2.4-1.8-3.6-2.71c3.3-0.36,6.69-0.38,9.87-1.21
		c2.16-0.56,5.56-2.09,5.71-3.48c0.3-2.76-0.57-6.21-2.19-8.49c-3.03-4.28-7.52-7.56-10.37-11.93c-5.06-7.75-5.79-17.22-1.9-24.84
		c2.74-5.36,9.76-9.31,15.71-12.01c4.88-2.21,11.11-2.62,16.57-2.09c14.35,1.4,28.7,3.26,42.86,5.92
		c7.76,1.46,15.08,5.17,22.73,7.41c8.1,2.38,16.31,4.45,24.57,6.23c4.38,0.94,7.79-2.26,7.5-6.83c-0.21-3.41-0.95-6.86-1.95-10.14
		c-3.04-9.9-0.98-24.4,14.35-27.32c15.18-2.89,27.92,0.5,39.86,10.25c13.5,11.04,27.5,21.52,41.78,31.52
		c8.81,6.17,19.2,7.67,29.61,4.4c3.4-1.07,6.44-3.89,9.1-6.47c1.84-1.78,2.77-4.51,4.06-6.83c6.04-10.82,18.17-12.79,27.91-5.04
		c7.35,5.84,11.06,13.67,13.46,22.23c4.79,17.11,9.19,34.34,13.76,51.51c2.43,9.15,5.12,18.24,7.21,27.46
		c0.9,3.99,0.77,8.25,0.78,12.39c0,4.14-2.65,6.07-6.24,4.03c-13.29-7.55-27.83-6.7-42.24-6.94
		C359.05,139.46,355.55,139.5,352.06,139.49z"/>
	<path style="fill:#EDCB6C;" d="M95.03,97.47c2.35-0.97,4.7-1.93,7.04-2.9c2.99-0.3,5.78,0.7,8.62,1.35
		c13.78,0.62,27.49,2.01,41.21,3.15c2.51,0.21,4.96,0.5,7.23,1.68c6.56,3.33,13.88,3.04,20.87,4.21c5.4,0.9,10.92,0.92,16.39,1.28
		c7.94,0.53,15.8,1.5,23.43,4.39c10.94,4.14,22.62,5.37,34.09,7.36c22.95,3.97,45.8,8.48,68.75,12.39c2.12,0.36,5.89-0.34,5.4,4.02
		c-21.03,3.28-41.9,7.34-61.13,16.92c-5.86,2.92-11.5,6.81-16.3,11.26c-12.94,12-25.02,24.93-38.12,36.74
		c-9.99,9-22.27,14.4-35.17,18.23c-10.85,3.21-21.94,4.7-32.93,1.9c-5.24-1.34-10.17-4.63-14.69-7.83
		c-4.99-3.53-9.6-7.7-13.91-12.04c-8.78-8.83-18.51-7.38-28.53-3.14c-14.68,6.2-29.06,13.17-44.81,16.5
		c-20.38,4.32-28.54-12.61-27.13-27.16c0.28-2.91,3.35-5.58,5.25-8.28c0.76-1.08,1.78-1.99,2.76-2.89
		c10.07-9.15,10.55-13.32,0.1-26.11c-3.36-4.11-7.13-7.89-10.74-11.8c-5.25-5.68-5.24-11.81,0.51-16.86
		c10.06-8.85,22.27-13.16,35.22-15.25c14.38-2.32,28.85-4.06,43.27-6.09C92.85,98.33,93.93,97.82,95.03,97.47z"/>
	<path style="fill:#E9C25F;" d="M328.07,134.39c-1.94-0.95-3.78-2.38-5.82-2.76c-21.75-4.08-43.46-8.5-65.34-11.8
		c-16.24-2.45-32.09-6.13-47.85-10.62c-5.62-1.6-11.82-1.05-17.73-1.74c-9.67-1.13-19.32-2.41-28.96-3.81
		c-1.19-0.17-2.23-1.41-3.34-2.15c0.5-0.86,1.48-1.31,2.55-3.01c-17.54-1.21-34.43-3.96-51.59-1.99c-2.64-0.65-5.28-1.3-7.92-1.95
		c5.86-7.75,5.11-12.55-2.34-21.04c-4.44-5.06-8.96-10.31-12.11-16.19c-5.42-10.11,3.83-23.57,15-25.13
		c17.84-2.5,34.7,1.92,51.57,5.73c12.4,2.8,24.22,8.13,36.48,11.69c5.97,1.73,12.33,2.52,18.56,2.79
		c8.66,0.39,12.71-6.49,10.4-14.94c-1.9-6.95-2.61-14.25-3.56-21.44c-0.52-3.91,2.05-6.37,5.4-7.44c8.72-2.79,17.87-3.66,26.47-0.76
		c5.24,1.77,9.79,5.92,14.29,9.46c10.54,8.32,20.47,17.48,31.39,25.25c10.75,7.65,23.21,11.22,36.63,11.01
		c7.63-0.12,13.13-3.81,17.94-9.26c3.74-4.25,5.47-10.32,11.98-12.11c8.09-2.22,12.97-0.45,16.74,6.91
		c11.45,22.35,18.59,46.1,23.12,70.72c1.29,7.01,3.11,13.91,4.62,20.88c0.3,1.38,0.26,2.84,0.45,5.14c-5.49-1.03-10.28-2-15.11-2.81
		c-17.81-2.98-35.6-3.97-53.33,0.55c-0.62,0.16-1.17,0.56-1.75,0.85C332.61,134.41,330.34,134.4,328.07,134.39z"/>
	<path style="fill:#E2B148;" d="M109.99,96.52c2.66-0.67,5.35-2,7.98-1.91c13.91,0.44,27.82,1.18,41.72,1.99
		c1.77,0.1,3.47,1.3,5.21,1.99c-0.01,0.45-0.02,0.91-0.04,1.36c-1.94,0.52-3.88,1.04-5.83,1.56c-11.3-1.01-22.59-2.09-33.9-2.98
		c-4.71-0.37-9.45-0.27-14.17-0.5C110.61,98.02,110.31,97.05,109.99,96.52z"/>
	<path style="fill:#E6B852;" d="M42.99,160.81c1.95-1.37,3.73-3.21,5.89-4.03c11.28-4.26,22.62-8.37,34.03-12.27
		c2.64-0.9,5.63-0.8,8.74-0.06c-15.27,8.14-32.11,11.62-47.66,18.61C43.65,162.32,43.32,161.56,42.99,160.81z"/>
	<path style="fill:#E6B852;" d="M113.85,178.43c2.69-6.58,34.2-25.3,41.17-23.91C141.42,164.22,127.6,171.27,113.85,178.43z"/>
	<path style="fill:#E2B048;" d="M215.57,64.23c7.2-1.21,50.25,19.79,52.67,27.05c-18.45-8.89-35.84-17.27-53.22-25.64
		C215.2,65.17,215.38,64.7,215.57,64.23z"/>
	<path style="fill:#E2B048;" d="M318.06,67.64c11.56,9.22,23.83,17.71,33.75,29.8C346.57,98.54,323.44,78.16,318.06,67.64z"/>
</g>
</svg>
