<?xml version="1.0" encoding="utf-8"?>
<!-- Generator: Adobe Illustrator 24.0.0, SVG Export Plug-In . SVG Version: 6.00 Build 0)  -->
<svg version="1.1" xmlns="http://www.w3.org/2000/svg" xmlns:xlink="http://www.w3.org/1999/xlink" x="0px" y="0px"
	 viewBox="0 0 338.18 203.08" style="enable-background:new 0 0 338.18 203.08;" xml:space="preserve">
<g id="Calque_1">
</g>
<g id="Calque_2">
	<g>
		<path style="fill:#1D1E20;" d="M318.13,203.08c-8.61-0.41-16.62-3.11-24.56-6.17c-29.32-11.33-60.13-15.78-91.08-19.37
			c-52.15-6.05-104.58-7.68-157.01-9.01c-3.49-0.09-6.99-0.17-10.48-0.39c-12.71-0.82-25.07-2.6-34.13-13.01
			c0,0-1.39-1.55-0.64-4.96c10.93-19.51,30.48-26.25,49.68-33.51c1.47-0.56,3.45-0.34,3.82-2.54c1.93-2.48,4.74-2.13,7.34-2.1
			c50.02,0.54,99.63,5.27,148.85,14.29c24.54,4.5,49.28,7.93,73.78,12.67c4.02,0.78,8.34,0.62,11.88,3.23c0.05,1,0.09,2,0.14,3
			c0.01,0.36,0.11,0.69,0.31,0.99c9.55,5.39,19.16,10.69,27.25,18.28c6.27,5.88,11.35,12.53,13.87,20.9
			c2.47,8.19,0.61,12.64-7.13,16.68C329.41,202.38,319.04,203.12,318.13,203.08z"/>
		<path style="fill:#1D1E20;" d="M60.57,87.85c0.04-1.33,0.08-2.67,0.12-4c0.03-0.45,0.1-0.9,0.22-1.33
			c1.1-21.92,2.2-43.83,3.28-65.75c0.22-4.46,2.71-6.68,6.82-8.07c21.42-7.22,43.34-9.49,65.89-8.47
			c30.76,1.4,61.49,2.79,91.83,8.44c22.09,4.11,43.8,9.77,65.21,16.56c9.16,2.91,11.71,6.52,10.38,15.81
			c-3.3,23.01-6.96,45.97-9.46,69.09c-1.94,1.87-4.06,0.9-6.09,0.29c-26.38-7.96-53.44-12.57-80.67-16.37
			c-22.93-3.21-45.99-5.22-69.05-6.98c-16.76-1.28-33.56-1.28-50.37-0.52c-7.67,0.34-15.25,1.24-22.85,2.08
			C64.03,88.82,62.15,89.23,60.57,87.85z"/>
		<path style="fill:#3C4049;" d="M60.57,87.85c21.55-3.48,43.29-3.86,64.99-3c18.01,0.71,35.98,2.6,53.94,4.4
			c30.91,3.11,61.53,7.84,91.79,14.83c6.14,1.42,12.16,3.38,18.22,5.16c1.76,0.52,3.46,1.24,5.35,0.89c0.29,0.4,0.8,0.79,0.83,1.21
			c0.71,10.29,0.45,20.58-0.1,30.87c-10.72-1.24-21.22-3.71-31.85-5.45c-42.86-7.02-85.55-15.21-128.81-19.7
			c-19.92-2.07-39.9-2.7-59.92-2.92c-7.1-0.08-14.19-1.46-21.29-0.03c-1.39-1.07-0.25-2.19,0.11-3.11
			c2.4-6.07,3.82-12.38,4.64-18.83C58.69,90.51,59.02,88.88,60.57,87.85z"/>
		<path style="fill:#3C4049;" d="M60.9,82.52c-0.07,0.44-0.14,0.89-0.22,1.33C60.76,83.41,60.83,82.96,60.9,82.52z"/>
		<path style="fill:#3C4049;" d="M296.04,146.2c-0.69-0.15-0.94-0.43-0.31-0.99C295.83,145.54,295.93,145.87,296.04,146.2z"/>
		<path style="fill:#3C4049;" d="M323.5,199.52c-9.66,1.09-18.56-1.51-26.64-6.19c-31.62-18.32-65.99-28.14-101.93-32.45
			c-17.88-2.14-36.03-1.55-54.08-1.88c-26.5-0.48-52.68,2.23-78.95,5.11c-17.25,1.89-34.77,1.57-51.47-4.96
			c6.44-0.44,12.65,1.36,18.98,2.06c9.24,1.02,18.48,1.73,27.78,0.8c3.29-0.33,6.63-0.17,9.93-0.4c19.26-1.33,37.17-8.2,55.46-13.54
			c13.48-3.93,27.22-5.8,41.25-6.16c24.12-0.63,47.26,4.06,69.63,12.72c20.49,7.94,40.64,16.44,57.87,30.75
			c8.29,6.88,17.57,12.68,29,13.27C321.39,198.73,322.44,199.23,323.5,199.52z"/>
		<g>
			<path style="fill:#3C4049;" d="M56.17,116.7c0.01-0.02,0.08-0.11,0.09-0.03c0,0.04-0.01,0.08-0.01,0.13
				c-0.02,0.08-0.04,0.16-0.06,0.24l-0.15,0.47c-0.11,0.31-0.23,0.62-0.36,0.92c-0.25,0.61-0.52,1.21-0.81,1.81
				c-0.59,1.18-1.23,2.34-1.9,3.47c-1.34,2.27-2.88,4.43-4.52,6.5c-1.65,2.06-3.4,4.04-5.29,5.88c-0.94,0.92-1.91,1.82-2.89,2.7
				c-1.01,0.85-2.01,1.71-3.06,2.49c0.91-0.95,1.84-1.88,2.73-2.84c0.91-0.94,1.8-1.9,2.67-2.88c1.74-1.95,3.45-3.93,5.06-5.98
				c1.63-2.03,3.17-4.14,4.65-6.29c0.74-1.07,1.45-2.17,2.12-3.29c0.35-0.55,0.68-1.12,1-1.69c0.16-0.29,0.31-0.58,0.46-0.87
				l0.22-0.44c0.03-0.07,0.07-0.15,0.09-0.23C56.24,116.72,56.25,116.59,56.17,116.7z"/>
		</g>
		<g>
			<path style="fill:#3C4049;" d="M294.81,144.1c-0.05-0.13-0.07,0-0.06,0.08c0.01,0.08,0.02,0.16,0.03,0.24l0.09,0.48
				c0.06,0.32,0.13,0.64,0.21,0.96c0.15,0.64,0.33,1.27,0.51,1.89c0.35,1.26,0.74,2.51,1.17,3.74c0.86,2.46,1.79,4.9,2.83,7.3
				c1.02,2.4,2.14,4.76,3.3,7.1c0.58,1.17,1.19,2.33,1.82,3.48c0.6,1.17,1.25,2.3,1.88,3.46c-0.81-1.04-1.55-2.13-2.3-3.21
				c-0.72-1.1-1.41-2.23-2.07-3.37c-1.33-2.28-2.5-4.65-3.55-7.07c-1.03-2.43-1.94-4.91-2.64-7.46c-0.35-1.27-0.66-2.56-0.92-3.85
				c-0.12-0.65-0.22-1.3-0.3-1.96c-0.04-0.33-0.08-0.66-0.1-0.99l-0.02-0.5c0-0.08,0-0.17,0.01-0.25c0-0.04,0.01-0.08,0.02-0.12
				C294.77,143.98,294.81,144.08,294.81,144.1z"/>
		</g>
	</g>
</g>
</svg>
