<?xml version="1.0" encoding="utf-8"?>
<!-- Generator: Adobe Illustrator 24.0.0, SVG Export Plug-In . SVG Version: 6.00 Build 0)  -->
<svg version="1.1" id="Calque_1" xmlns="http://www.w3.org/2000/svg" xmlns:xlink="http://www.w3.org/1999/xlink" x="0px" y="0px"
	 viewBox="0 0 454.94 260.97" style="enable-background:new 0 0 454.94 260.97;" xml:space="preserve">
<g>
	<path style="fill:#D99357;" d="M170.98,0c5,0,10,0,15,0c0.31,0.63,0.17,1.14-0.41,1.54c-4.73,1.4-9.46,1.4-14.19,0.01
		C170.81,1.15,170.67,0.63,170.98,0z"/>
	<path style="fill:#F9EDE3;" d="M0,124.98c0.28-0.02,0.56-0.03,0.84-0.02c2.54,4.35,2.57,8.7-0.02,13.04l-0.41,0.01L0,137.98
		C0,133.65,0,129.32,0,124.98z"/>
	<path style="fill:#D99357;" d="M360.95,260.97c0.05-0.31,0.01-0.61-0.14-0.89c3.75-2.53,7.7-1.84,11.67-0.7
		c0.61,0.39,0.77,0.92,0.47,1.59C368.95,260.97,364.95,260.97,360.95,260.97z"/>
	<path style="fill:#E1B892;" d="M170.98,0c-0.01,0.3-0.03,0.59-0.08,0.88c-2.02,1.94-4.26,1.62-6.57,0.63
		c-0.55-0.4-0.67-0.91-0.35-1.52C166.31,0,168.65,0,170.98,0z"/>
	<path style="fill:#F5E1D0;" d="M163.98,0c0,0.28-0.03,0.56-0.07,0.83c-0.48,0.8-1.26,1.1-2.12,1.26c-1.45,0.12-2.86,0.09-3.85-1.25
		c0.03-0.28,0.04-0.56,0.04-0.85C159.98,0,161.98,0,163.98,0z"/>
	<path style="fill:#E9C09B;" d="M186.05,0.9c-0.06-0.3-0.09-0.6-0.07-0.9c1.67,0,3.33,0,5,0c0.33,0.56,0.23,1.05-0.28,1.45
		C189.03,2.25,187.45,2.39,186.05,0.9z"/>
	<path style="fill:#EDC8A8;" d="M372.95,260.97c-0.02-0.31,0-0.61,0.08-0.91c1.67-1.52,3.33-1.53,4.98,0.02
		c-0.09,0.29-0.11,0.59-0.06,0.89C376.29,260.97,374.62,260.97,372.95,260.97z"/>
	<path style="fill:#E1B892;" d="M454.94,205.97l-0.46-0.02l-0.45,0.08c-1.27-1.35-1.26-2.72-0.04-4.1c0.32,0.04,0.64,0.05,0.95,0.04
		C454.94,203.31,454.94,204.64,454.94,205.97z"/>
	<path style="fill:#F5E1D0;" d="M191.03,0.85c-0.04-0.28-0.06-0.57-0.05-0.85c1,0,2,0,3,0c0,0.28,0.02,0.55,0.04,0.83
		C193.03,1.84,192.03,1.83,191.03,0.85z"/>
	<path style="fill:#C86018;" d="M191.03,0.85c1-0.01,1.99-0.02,2.99-0.03c12.97,1.79,26.12,2.46,38.8,6.13
		c16.05,4.65,30.6,12.29,42.73,23.7c9.79,9.21,18.71,19.38,27.24,29.79c3.01,3.68,4.93,8.25,7.4,12.37
		c10.18,16.98,18.51,34.85,25.22,53.46c2.13,5.91,3.57,12.04,6.68,17.62c1.48,2.66,2.36,5.82,1.82,9.07
		c-1.23,1.96-3.27,2.88-5.26,3.59c-11.89,4.24-23.12,10.09-35.07,14.2c-12.43,4.28-25.12,7.57-37.87,10.66
		c-2.42,0.59-4.85,1.25-7.32,0.21c-1.99-1.13-1.09-3.62-2.38-5.06c-1.29-0.01-1.19,1.31-1.83,1.92c-1.42,1.4-1.88,3.44-3.24,4.88
		c-1.19,0.98-2.59,1.52-4.08,1.72c-11.65,1.55-23.36,2.51-35.1,3.13c-1.66-1.48-3.71-1.18-5.68-1.18
		c-11.97,0.01-23.94,0.17-35.91,0.01c-7.34-0.1-14.58,0.66-21.82,1.6c-5.18,0.67-10.26-0.14-15.36-0.72
		c0.14-2.5,2.27-1.97,3.69-2.26c2.95-0.62,5.51-2.15,6.58-4.73c2.28-5.47,5.43-10.4,8.49-15.4c1.37-3.55,2.64-7.11,1.34-10.98
		c-0.25-1.34-0.33-2.73-0.95-3.98c-0.33-0.61-0.65-1.23-0.91-1.88c-1.69-6.61-6.56-10.57-11.78-14.28
		c-9.9-7.03-20.08-13.66-29.7-21.09c-5.56-4.29-10.11-9.64-15.1-14.52c-2.74-2.68-5.5-5.32-8.64-7.53
		c-1.13-0.99-2.09-2.15-3.15-3.21c-4.22-4.21-9.88-3.57-13.08,1.43c-3.62,5.66-4.04,11.88-3.15,18.3c0.27,1.98,0.7,3.93,0.69,5.94
		c-0.19,2.53,0.61,4.84,1.61,7.1c1.66,5.94,3.87,11.65,7.04,16.97c1.27,2.12,1.12,4.12-0.94,5.75c-1.87,1.38-2.77,2.77-0.06,4.24
		c3.52,7.78,9.76,12.8,17,16.81c2.12,1.17,3.41,2.97,4.43,5.17c2.02,4.36,5.16,7.35,10.39,6.94c5.08-0.4,7.7,3.3,10.64,6.35
		c1.41,1.46,0.53,2.86-1.07,3.51c-1.56,0.64-3.24,0.68-4.73-0.42c-3.48-3.29-8.12-2.15-12.2-3.11c-5.86-1.38-12.03-1.4-17.74-3.55
		c5.66,2.2,11.76,2.43,17.67,3.5c3.71,0.67,7.57,0.6,11.08,2.24c1.72,1.99,0.09,2.08-1.31,2.31c-2.21,0.88-4.28-0.22-6.35-0.58
		c-27.41-4.68-54.08-11.89-79.38-23.69c-6.03-2.81-11.79-6.09-17.52-9.49c-2.52-1.49-3.47-3.39-3.84-5.9
		c-0.49-3.28-0.83-6.58-1.24-9.88c0.01-4.35,0.01-8.7,0.02-13.04c-0.28-8.94,2.52-17.28,4.97-25.69c0.14-0.48,0.12-1.03,0.34-1.45
		c11.24-21.45,23.77-42.09,43.7-56.63c16.91-12.33,35.06-22.73,55.23-29.08c7.9-2.49,15.57-5.64,23.68-7.5
		c1.95-0.45,3.9-0.78,5.88-0.97c0.2,0,0.41-0.01,0.61-0.02c0.2,0.36,0.24,0.75,0.15,1.15c-0.27,0.53-0.67,0.96-1.11,1.35
		c-0.44,0.36-0.98,0.59-1.41,0.97c-0.4,0.39-0.78,0.81-1.24,1.14c-0.49,0.26-1.1,0.25-1.52,0.68c-0.45,0.36-0.84,0.78-1.24,1.18
		c-0.42,0.41-0.85,0.81-1.19,1.29c-0.53,0.86-1.12,1.68-1.67,2.53c-0.42,0.47-0.88,0.9-1.31,1.36c-0.8,0.78-1.7,1.36-2.85,1.44
		c-2.28-0.24-2.42,1.23-2.34,2.89c-0.05,0.45-0.2,0.87-0.45,1.25c-0.54,0.71-0.98,1.53-1.91,1.83c-0.44,0.11-0.89,0.16-1.35,0.16
		c-1.95-0.34-2.11,0.86-1.97,2.31c-0.04,0.69-0.31,1.28-0.69,1.83c-2.11,0.61-2.56,2.48-3.17,4.21c-0.11,0.4-0.29,0.77-0.5,1.12
		c-0.42,0.66-1.05,1.15-1.42,1.85c-0.14,0.34-0.31,0.65-0.51,0.96c-0.27,0.44-0.53,0.89-0.76,1.36c-0.14,0.31-0.3,0.6-0.47,0.89
		c-0.24,0.43-0.47,0.88-0.72,1.31c-0.14,0.3-0.34,0.56-0.59,0.78c-0.47,0.58,0.6,0.53,0.42,1c-0.06,0.38-0.21,0.71-0.43,1.02
		c-0.51,0.63-0.43,1.48-0.77,2.17c-0.55,0.6-0.71,1.39-1.06,2.08c-0.56,0.59-0.63,1.42-1.06,2.08c-0.39,0.46-0.84,0.87-1.22,1.33
		c-0.48,0.68-0.55,1.57-1.14,2.19c-1.13,2.35-2.38,4.64-3.33,7.07c-0.36,0.53-0.83,0.97-1.27,1.42c-0.95,0.75-0.39,2-0.96,2.88
		c-0.39,0.49-0.86,0.91-1.26,1.39c-0.79,0.82-0.09,2.12-0.94,2.91c-1.15,1.38-1.17,3.2-1.84,4.77c-1.04,1.2-1.17,2.86-2.09,4.13
		c-0.92,0.85-0.2,2.27-1.08,3.13c-0.64,2.17-1.01,4.39-1.34,5.47c0.05,0.86-0.13,0.57-0.06,0.27c0.41-1.76,1.08-3.47,1.07-5.31
		c0.98-0.83,0.8-2.07,1.12-3.14c1.05-1.21,1.28-2.84,2.12-4.16c1.03-1.45,0.91-3.35,1.86-4.83c0.89-0.8,0.73-1.94,0.96-2.95
		c0.37-0.52,0.84-0.94,1.28-1.4c0.91-0.78,0.23-2.08,0.97-2.92c0.43-0.48,0.91-0.92,1.3-1.44c1.14-2.34,2.38-4.63,3.34-7.06
		c0.53-0.65,0.96-1.35,1.12-2.19c0.34-0.5,0.79-0.91,1.21-1.34c0.63-0.54,0.53-1.47,1.07-2.06c0.59-0.58,0.49-1.5,1.06-2.09
		c0.58-1.06,0.86-2.25,1.46-3.31c-0.01-0.64,0.04-1.27,0.34-1.86c0.91-1.46,1.97-2.84,2.58-4.47c0.45-0.9,1.45-1.44,1.66-2.5
		c0.12-0.37,0.27-0.72,0.45-1.06c0.27-0.5,0.53-1.01,0.82-1.5c0.2-0.32,0.44-0.61,0.72-0.86c0.44-0.34,0.93-0.62,1.26-1.09
		c0.19-0.33,0.4-0.65,0.61-0.97c0.22-0.33,0.47-0.63,0.74-0.93c0.13-0.15,0.27-0.3,0.41-0.45c0.27-0.32,0.56-0.61,0.86-0.9
		c0.85-0.94,2.18-1.37,2.73-2.61c0.25-0.34,0.5-0.69,0.75-1.04c0.08-0.2,0.17-0.39,0.25-0.59c0.19-0.39,0.45-0.72,0.75-1.03
		c0.31-0.29,0.65-0.54,1-0.78c1.26-0.73,2.36-1.66,3.32-2.74c0.44-0.43,0.88-0.85,1.29-1.31c0.6-0.8,1.15-1.63,1.64-2.5
		c0.34-0.48,0.77-0.87,1.17-1.28c0.4-0.39,0.8-0.8,1.2-1.18c0.53-0.55,1.41-0.39,1.93-0.97c0.4-0.37,0.78-0.77,1.19-1.12
		c0.3-0.21,0.62-0.38,0.97-0.5c0.59-0.45,1.14-0.95,1.53-1.6c0.21-0.33,0.46-0.6,0.77-0.84c0.33-0.2,0.69-0.33,1.07-0.42
		c0.58-0.03,1.14-0.12,1.55-0.59c4.11-1.37,8.38-0.87,12.59-1.1c0.62-0.17,1.25-0.35,1.9-0.29c0.42,0.11,0.71,0.36,0.84,0.78
		c0.32,2.49,2.13,0.4,3.08,0.98c1.49-0.03,2.5,0.78,3.33,1.89c0.85,1.35,1.9,2.14,3.55,1.28c0.96-0.15,1.7,0.22,2.28,0.95
		c0.58,0.79,1.12,1.68,2.35,1.03c0.8-0.27,1.59-0.35,2.38,0.03c0.5,0.33,0.9,0.77,1.33,1.19c0.27,0.26,0.58,0.49,0.91,0.68
		c0.18,0.06,0.35,0.12,0.53,0.17c0.32,0.17,0.61,0.39,0.89,0.63c0.14,0.11,0.27,0.23,0.41,0.34c0.43,0.31,0.88,0.58,1.34,0.84
		c0.31,0.18,0.57,0.42,0.79,0.71c0.25,0.27,0.5,0.53,0.76,0.79c0.1,0.16,0.2,0.31,0.3,0.47c0.17,0.34,0.39,0.66,0.65,0.94
		c0.42,0.43,0.85,0.84,1.36,1.17c1.37,0.62,2.39,1.7,3.49,2.68c0.45,0.5,0.69,1.09,0.74,1.75c-0.1,1.79,0.88,2.11,2.37,1.74
		c1.15,0.14,1.97,0.9,2.88,1.5c0.44,0.51,0.71,1.1,0.78,1.76c0.03,2.92,2.51,2.06,4.06,2.63c1.43,0.19,2.64,1.15,4.11,1.08
		c0.36-0.22,1-0.4,0.45-0.92c-0.48-0.45-1.17-0.19-1.77-0.04c-0.66,0.17-1.3,0.15-1.94-0.05c-0.44-0.09-0.85-0.24-1.24-0.44
		c-0.4-0.2-0.76-0.47-1.08-0.78c-0.14-0.17-0.28-0.34-0.42-0.51c-0.36-0.55-0.58-1.14-0.6-1.78c0-0.45,0.42-0.83,0.25-1.32
		c-0.16,0.11-0.35,0.32-0.56,0.62c-0.52,0.27-1.04,0.31-1.58,0.12c-0.54-0.5-1.18-0.87-1.74-1.34c-0.34-0.38-0.66-0.79-1.12-1.05
		c-0.48-0.15-0.96-0.32-1.42-0.55c-0.3-0.19-0.51-0.45-0.65-0.78c-0.06-0.34-0.02-0.68,0.09-1c0.47-0.4,0.43-0.45-0.15-0.18
		c-0.17,0.08-0.34,0.07-0.49,0.07c-0.34-0.07-0.64-0.22-0.89-0.45c-0.25-0.23-0.48-0.47-0.7-0.73c-0.23-0.24-0.46-0.48-0.67-0.74
		c-0.01,0.01-0.31-0.39-0.32-0.38c-0.23-0.24-0.43-0.5-0.61-0.77c-0.01,0.01-0.23-0.43-0.23-0.43c-0.45-0.55-0.43,0.38-0.75,0.23
		c-0.35-0.02-0.65-0.14-0.9-0.38c-0.36-0.36-0.72-0.71-1.05-1.1c-0.23-0.27-0.32-0.59-0.27-0.94c-0.18-0.77-1.1-0.94-1.34-1.67
		c-0.63-1.08-0.97-2.54-2.76-2.01c-0.43,0.06-0.85,0.03-1.27-0.08c-0.52-0.38-0.94-0.85-1.4-1.29c-0.28-0.32-0.56-0.63-0.84-0.94
		c-0.68-0.84-1.53-1.32-2.64-1.29c-0.94-0.06-1.64-0.52-2.18-1.27c-0.88-1.7-2.77-2.02-4.15-3.04c-0.23-0.26-0.31-0.52-0.25-0.79
		c0.06-0.28,0.12-0.41,0.19-0.41c0.64-0.11,1.28-0.22,1.92-0.33c2.33,0.02,4.66,0.03,6.99,0.05c5.05,0.01,10.1,0.01,15.15,0.02
		C187.71,0.89,189.37,0.87,191.03,0.85z"/>
	<path style="fill:#C86018;" d="M453.99,201.94c0.01,1.37,0.03,2.73,0.04,4.1c-4.13,11.41-11.61,20.32-20.63,28.19
		c-10.09,8.8-20.7,16.65-33.54,21.05c-7.11,2.44-14.44,3.77-21.85,4.8c-1.66-0.01-3.32-0.02-4.98-0.02
		c-4.07,0.01-8.15,0.01-12.22,0.02c-7.99-0.67-15.84-2.3-23.17-5.42c-21.36-9.1-43.14-17.29-63.84-27.86
		c-17.3-8.83-34.63-17.67-50.61-28.84c-3.39-2.37-6.95-4.56-9.59-7.86c0.75-1.05,1.91-1.47,3.04-1.37c8.6,0.75,17.12-0.72,25.67-0.9
		c2.12,0.32,4.19,3.15,6.42,0.15c9.27-1.99,18.61-3.52,27.97-4.95c1.24,0.21,2,1.03,2.55,2.08c0.34,0.14,0.17,0.63,0.5,0.84
		c0.13-0.54-0.46-0.72-0.47-1.16c-0.07-0.7,0.1-1.32,0.47-1.91c1.38-1.66,3.41-1.92,5.29-2.51c10.43-3.28,20.73-6.91,30.41-12.08
		c9.63-5.15,20.42-7.75,29.74-13.57c4.56,1.1,8.61,3.46,12.78,5.45c11.24,5.36,22.8,9.93,34.28,14.69
		c13.62,5.65,27.22,11.36,40.82,17.06c0.42,0.17,0.73,0.58,1.1,0.88c-0.42,0.31-0.84,0.62-0.67,0.54c-0.13,0.11,0.25-0.28,0.72-0.55
		c2.57,0.15,4.78,1.19,6.8,2.72c-0.37,0.91-0.78,1.8-1.64,2.37c0.93-0.48,1.21-1.45,1.66-2.28
		C445.62,197.15,450.27,198.59,453.99,201.94z"/>
	<path style="fill:#954916;" d="M277.97,183.99c-4.2-0.27-7.98,1.73-12.08,2.23c-4.21,0.51-8.33,1.82-12.64,1.76
		c-1.86-0.02-3.42,1.33-5.31,1.04c-1.3,1.06-2.61,0.83-3.92,0.02c-6.52,0.92-13.16,0.42-19.64,1.74c-0.99,0.2-2.01,0.35-2.93-0.09
		c-2.56-1.23-5.22-0.63-7.85-0.59c-0.89-0.37-1.53-0.98-1.86-1.89c2.81-1.9,6.02-2.26,9.27-2.2c8.6,0.16,17.01-1.74,25.56-2.18
		c1.44-0.07,3.28-0.31,4.42-1.72c0.78-0.93,1.57-1.84,2.7-2.38c0.63-0.16,1.16,0.01,1.57,0.51c0.33,0.14-0.34,0.71,0.3,0.72
		c0.26-0.29,0.58-0.49,0.96-0.59c0.62-0.06,1.13,0.1,1.48,0.65c6.06,0.35,11.63-2.06,17.37-3.32c11.39-2.5,22.46-6.23,33.41-10.21
		c6.8-2.47,13.34-5.66,20.03-8.45c5-2.09,10.06-4.05,15.09-6.08c0.43,0.59,0.85,1.18,1.28,1.76c-2.43,4.32-7.12,5.4-11.1,7
		c-7.19,2.88-14.34,5.78-21.28,9.25c-9.43,4.71-19.25,8.44-29.48,11.05c-1.24,0.32-2.55,0.67-3.36,1.84
		C279.33,184.57,278.66,184.57,277.97,183.99z"/>
	<path style="fill:#9C4F1A;" d="M111.99,185.98c1.88-0.23,4.03,0.78,5.76-1.44c-1.86-1.98-4.56-3.03-6.09-5.54
		c-1.06-1.74-3.67-0.97-5.63-1c-5.4-0.06-9.44-3.06-11.02-8.48c-0.58-1.98-1.95-2.85-3.56-3.8c-3.1-1.84-6.16-3.79-9.08-5.91
		c-4.09-2.98-6.29-7.38-8.37-11.83c-1.29-1.67-1.22-3.33,0.03-4.99c2.02-1.02,2.54-2.31,1.14-4.35c-3.67-5.35-5.97-11.29-7.2-17.65
		c0.35-0.3,0.75-0.45,1.22-0.45c0.97,0.22,1.41,0.95,1.71,1.8c0.26,0.74,0.44,1.51,0.83,2.2c0.21,0.3,0.41,0.6,0.62,0.9
		c0.23,0.27,0.44,0.55,0.66,0.84c0.22,0.27,0.4,0.57,0.56,0.88c0.23,0.45,0.44,0.91,0.68,1.35c0.18,0.28,0.34,0.57,0.48,0.87
		c0.17,0.29,0.33,0.58,0.51,0.87c0.21,0.27,0.41,0.54,0.63,0.81c0.26,0.25,0.51,0.5,0.77,0.75c0.15,0.12,0.28,0.24,0.43,0.36
		c0.33,0.22,0.64,0.46,0.97,0.68c0.18,0.1,0.35,0.22,0.53,0.32c0.39,0.21,0.76,0.45,1.13,0.69c4.61,4.13,4.52,4.04,0.36,8.38
		c-2.99,3.12-1.27,6.38,0.74,9.02c4.16,5.45,9.57,9.29,16.53,10.35c3.86,0.59,6.01,1.57,3.63,6.07c-1.49,2.81,0.42,4.78,3.17,5.61
		c2.61,0.79,5.27,0.53,7.88-0.28c1.56-0.49,3.14-1.29,4.75-0.16c1.2,7,6.37,9.12,13.38,5.49c6.23-3.22,11.37-8.17,17.72-11.21
		c1.58-0.75,2.97-2.35,5.03-1.31c0.39,1.81-0.96,2.7-1.99,3.76c-2.09,2.17-3.63,4.67-4.49,7.56c-1.84,6.15-5.27,10.26-12.33,9.95
		c-0.35-0.02-0.73,0.56-1.1,0.87c-7.95,0.62-15.89,0.09-23.82-0.39c0.46-0.71,1.73-0.43,1.87-1.54
		C111.33,185.62,111.66,185.63,111.99,185.98z"/>
	<path style="fill:#A65117;" d="M154.04,2.91c-0.03-0.31-0.07-0.61-0.12-0.91c-0.01-0.22-0.02-0.44-0.03-0.66
		c0.71-0.02,1.42-0.05,2.12-0.07c2.02,0.41,4.12,0.46,6.03,1.34c1.71,0.68,3.57,1.09,4.91,2.5c0.32,0.94,1.14,0.9,1.91,0.97
		c1.21,0.37,2.22,1.06,3.11,1.94c0.01,0.32,0.01,0.64,0.02,0.96l-0.04,0.04c-1,0-2,0-3,0c-1.36,0.7-2.14-0.27-2.98-1.05
		c-0.32-1.03-1.18-0.97-2-0.98c-1.51,0.25-2.87-0.03-3.98-1.15c-0.59-1.31-1.58-1.96-3.04-1.83C155.67,4.49,154.88,3.63,154.04,2.91
		z"/>
	<path style="fill:#D86A16;" d="M161.96,3.04c-2.18,0.08-4.05-0.87-5.94-1.77c0.64-0.14,1.28-0.28,1.92-0.42
		c1.35,0.1,2.7,0.21,4.05,0.31c-0.01,0.28-0.01,0.56-0.01,0.84c0.25,0.24,0.33,0.47,0.24,0.7C162.13,2.93,162.05,3.04,161.96,3.04z"
		/>
	<path style="fill:#D86A16;" d="M153.89,1.34c0.07,0.22,0.08,0.44,0.03,0.66c-0.77-0.05-1.54-0.1-2.3-0.15
		C152.27,1.19,153.04,1.07,153.89,1.34z"/>
	<path style="fill:#C86018;" d="M134.64,3.64c0.68-0.62,1.5-0.65,2.35-0.51c0.32,0.2,0.42,0.39,0.32,0.58
		C137.2,3.91,137.09,4,136.98,4l0,0c-0.61,0.52-1.24,0.58-1.9,0.11C134.94,3.95,134.79,3.8,134.64,3.64z"/>
	<path style="fill:#A65117;" d="M136.98,4c0-0.29,0-0.58,0.01-0.87c0.68-0.06,1.36-0.12,2.04-0.18C138.73,4.04,137.86,4.04,136.98,4
		z"/>
	<path style="fill:#FAD1AE;" d="M70.12,122.68c-0.08-0.72-0.21-1.4-0.92-1.79c-2.31-1.87-2.14-4.79-3.08-7.24
		c-0.36-4.58-1.26-9.09-1.1-13.74c0.18-5.04,2.26-9.29,5-13.18c2.74-3.89,9.92-3.93,13.11-0.44c1.33,1.46,2.63,2.94,3.95,4.41
		c2.11,3.6,4.84,6.7,7.6,9.81c9.9,11.17,21.65,20.08,33.89,28.48c6.44,4.43,12.32,9.6,17.85,15.17c2.95,2.97,3.72,7.54,7.52,9.8
		c2.48,4.2,0.54,8-1.06,11.83c-7.77,3.45-14.24,9-21.45,13.37c-3.69,2.24-7.52,2.31-11.54,1.88c-2.01-0.21-3.26-1.48-4.31-2.93
		c-0.51-1.74,0.82-3.12,0.63-4.71c-1.23-0.54-2.33,0.09-3.29,0.62c-2.66,1.47-5.52,1.3-8.28,0.88c-2.44-0.37-4.88-1.22-5.69-4.11
		c-0.78-2.78,0.06-4.85,2.74-5.92c-0.54-1.66-1.75-1.75-2.86-1.84c-8.35-0.7-14.52-5.07-19.61-11.39c-1.68-2.08-1.83-4.59-2.13-7.01
		c-0.22-1.77,0.67-3.23,2.46-3.91c1.07-0.41,2.17-0.73,3.48-1.16c-1.32-2.31-2.9-4.15-4.94-5.61c-0.39-0.3-0.76-0.61-1.08-0.99l0,0
		c-0.35-0.32-0.69-0.64-0.98-1.02l0,0c-0.38-0.3-0.75-0.61-0.95-1.07l0.03,0.02c-0.75-0.4-0.5-1.4-1.12-1.87l-0.04-0.06
		c-0.55-0.5-0.28-1.45-1.03-1.83l-0.06-0.12c-0.26-0.38-0.53-0.74-0.82-1.1l0.03,0.03C71.25,124.96,70.52,123.92,70.12,122.68z"/>
	<path style="fill:#F1DBC6;" d="M153.94,153.96c-1.13-0.1-2.32,0.29-3.63-0.44c-1.22-6.33-6.14-10.28-10.69-14.24
		c-6.56-5.7-13.21-11.46-20.74-15.81c-11.01-6.35-18.72-16.22-27.52-24.89c-1.96-1.93-5.07-4.08-4.27-7.87
		c1.83,1.13,3.5,2.45,4.98,4.04c10.73,11.6,22.57,21.86,35.97,30.31c4.61,2.91,9.12,6,13.45,9.31c4.87,3.71,9.68,7.61,10.86,14.2
		c-0.19,0.67,0.26,1.03,0.67,1.4C154.15,151.11,153.92,152.56,153.94,153.96z"/>
	<path style="fill:#9A4C16;" d="M252,143.96c-0.01,1.34-0.03,2.68-0.04,4.02c-0.32,0.3-0.64,0.32-0.96,0c0.1-3.21-1.3-6.15-2.27-9
		c-3.63-10.69-6.32-21.65-9.74-32.39c-0.96-3.04-2.85-5.81-2.7-9.19c2.77,4.04,4.49,8.47,5.7,13.19c1.08,4.21,1.61,8.62,3.92,12.45
		c1.13,1.84,0.95,4.12,2.02,5.98l-0.02-0.02c0.94,0.8,0.13,2.2,1.01,3.02l-0.01-0.02c0.95,0.8,0.13,2.19,1.01,3.02l-0.01-0.01
		c1.13,1.17-0.04,2.91,1.02,4.09c-0.02,0.29-0.02,0.58,0.02,0.88C251.75,141.19,252.34,142.45,252,143.96z"/>
	<path style="fill:#DE7016;" d="M44.48,168.87c-11.17-3.58-22.26-7.34-31.96-14.41c4.07,0.07,7.09,2.92,10.71,4.18
		c3.69,1.29,7.29,2.87,10.9,4.38c3.64,1.53,7.25,3.14,10.88,4.71C44.82,168.11,44.65,168.49,44.48,168.87z"/>
	<path style="fill:#D86A16;" d="M111.99,185.98c-0.32,0.01-0.65,0.02-0.97,0.02c-5.86-1.56-11.94-1.85-17.87-3.01
		c-4.26-0.83-8.63-1.21-12.52-3.81c2.86,0.3,5.8,0.28,8.56,0.98c5.74,1.44,11.63,1.76,17.4,2.87
		C108.61,183.42,111.38,182.83,111.99,185.98z"/>
	<path style="fill:#A65117;" d="M251,147.98c0.32,0,0.64,0,0.96,0c1.53,1.32,0.14,3.83,2.02,5c0.79,0.98,0.79,1.96,0.04,2.96
		c-0.7,4.45,0.98,8.71,1.02,13.09c0.51,0.63,0.51,1.26,0,1.88c-0.33,1.01-1.13,1.06-1.99,0.99c-0.33-0.19-0.46-0.4-0.37-0.62
		c0.09-0.23,0.19-0.34,0.29-0.34c-0.02-1.33-0.03-2.66-0.05-3.99c-1.02-1.27-1.06-2.57-0.11-3.9c0.79-2.17-0.93-3.44-1.81-5.02
		c-0.64-0.7-0.67-1.38,0.05-2.05c1.36-1.71,1.53-3.39-0.14-5.02c-0.83-0.96-0.78-1.95-0.11-2.97L251,147.98z"/>
	<path style="fill:#9A4C16;" d="M230.82,78.52c1.76,5.56,3.52,11.12,5.46,17.23C233.37,93.21,230.4,84.28,230.82,78.52z"/>
	<path style="fill:#D86A16;" d="M225.98,64.97c0.36-0.97,0.93-1.71,2.54-1.85c1.7,3.12,1.06,6.48,0.55,9.83
		c-1.77-1.61-1.73-4.16-3.09-5.99l0.01,0.02C225.41,66.32,225.39,65.65,225.98,64.97z"/>
	<path style="fill:#D86A16;" d="M196.83,28.04c1.11-0.16,1.09-1.59,2.32-2.05c1.33,1.09,3.2,1.89,2.66,4.14
		c-0.29,1.21-1.65,0.75-2.58,0.86C198.12,30.26,196.56,29.89,196.83,28.04z"/>
	<path style="fill:#A04E17;" d="M100.01,51.01c-0.17,3.25-1.42,5.96-4,8.01l-0.04-0.04c0.18-3.24,1.42-5.96,4-8L100.01,51.01z"/>
	<path style="fill:#D86A16;" d="M173.99,9.97c2.21-2.17,3.27-2.16,3.89,0.12c0.25,0.91,0.07,1.93,0.09,2.9
		c-0.17,0.13-0.33,0.25-0.5,0.38c-0.16-0.13-0.33-0.26-0.49-0.39l0,0c-0.54-0.6-1.47-0.4-2-1l0,0c-0.34-0.32-0.68-0.66-1-1l0.01,0
		c-0.3-0.22-0.4-0.45-0.3-0.68C173.79,10.08,173.89,9.97,173.99,9.97z"/>
	<path style="fill:#E47115;" d="M194.78,28.98c-1.49,0.23-2.92,0.74-4.44-0.22c-1.44-0.91-0.72-1.81-0.35-2.8
		c1.77-1.3,2.74,0.41,3.99,1.07l-0.02-0.02c0.37,0.31,0.67,0.68,1.01,1.02l-0.02-0.01C195.54,28.45,195.48,28.77,194.78,28.98z"/>
	<path style="fill:#D86A16;" d="M118.99,20.02c-0.13-0.3-0.21-0.63-0.4-0.9c-0.9-1.28-0.79-2.44,0.34-3.53
		c1.22-1.17,2.08,0.24,3.12,0.41c0.62,1.35-0.28,2.15-1.09,2.97l0.01,0c-0.32,0.35-0.66,0.68-1.01,1.01l0.01-0.01
		C119.66,20.34,119.33,20.35,118.99,20.02z"/>
	<path style="fill:#A65117;" d="M254.98,181c-0.12-0.57-0.45-0.92-1.03-1.02c-0.52-0.64-0.59-1.28-0.05-1.95
		c0.04-0.98-0.13-2.03,0.17-2.93c0.46-1.41,1.27-1.21,1.97-0.06c1.25,2.01,1.26,4-0.09,5.97l0.03-0.02
		C255.65,181.24,255.32,181.24,254.98,181z"/>
	<path style="fill:#DE7016;" d="M202.86,33.02c1.1-0.13,1.07-1.61,2.03-1.87c1.5,0.69,1.54,2.03,2.01,2.95
		c-0.64,0.92-1.34,0.85-1.98,0.95c-0.66,0.53-1.31,0.53-1.93-0.08l0.01,0.01C202.39,34.37,202.4,33.71,202.86,33.02z"/>
	<path style="fill:#8E4615;" d="M151.96,56.99c-1.26,0.68-2.63,1.55-3.59-0.26c-0.84-1.59,0.51-2.17,1.62-2.76
		C152.1,54.03,152.98,54.89,151.96,56.99z"/>
	<path style="fill:#E77416;" d="M255.95,181.01c0.03-1.99,0.06-3.98,0.09-5.97c1.1-0.03,1.91,0.28,1.92,1.59
		c0.01,1.47,0.03,2.93,0.04,4.4C257.32,181.02,256.64,181.01,255.95,181.01z"/>
	<path style="fill:#D86A16;" d="M109.04,32.05c-0.03-1.85,1.61-3.6-0.07-5.35c1.73-1.11,2.72,0.75,4.02,0.3
		c0.09,0.2,0.17,0.4,0.26,0.6c-0.22,0.66-0.77,1.02-1.28,1.41l0.03-0.03c-0.6,0.55-0.42,1.48-1.03,2.03l0.01-0.02
		C110.47,31.59,110.11,32.46,109.04,32.05z"/>
	<path style="fill:#E47115;" d="M250.04,33.06c-0.47-0.18-0.92-0.65-0.55-0.98c1.76-1.57,3.47-1.54,4.98,0.04
		c0.7,0.73,0.47,1.42-0.45,1.84C252.56,34.25,251.2,34.1,250.04,33.06z"/>
	<path style="fill:#B15D1F;" d="M66.12,113.66c1.6,2.17,2.17,4.78,3.08,7.24c-0.41,0.03-0.82,0.06-1.22,0.09
		C66.23,118.83,65.77,116.35,66.12,113.66z"/>
	<path style="fill:#DE6C13;" d="M161.96,3.04c0.01-0.35,0.01-0.7,0.02-1.04c2.3,0.01,4.55,0.1,4.98,3.11
		C165.04,5.04,163.24,4.67,161.96,3.04z"/>
	<path style="fill:#E27117;" d="M74.03,142.99c-0.01,1.66-0.02,3.33-0.03,4.99c-0.45,0.17-0.91,0.33-1.36,0.5
		C71.74,144.31,71.74,144.31,74.03,142.99z"/>
	<path style="fill:#9A4C16;" d="M225.98,66.97c2.72,1.12,2.04,4,3.09,5.99c-0.03,0.34-0.06,0.68-0.08,1.02l-0.04,0.04
		C227.1,72.03,225.89,69.77,225.98,66.97z"/>
	<path style="fill:#A04E17;" d="M87,79c0.2,2.64-0.2,5.16-1.7,7.76c-0.67-3.04-0.05-5.52,1.69-7.77L87,79z"/>
	<path style="fill:#8E4615;" d="M48.94,59.98c-1.14,0.33-2.71,2.23-2.93-0.81c0.28-0.45,0.62-0.84,1.03-1.17l-0.02,0.04
		c0.29-0.38,0.39-0.97,1.04-0.99c0.63-0.35,1.25-0.71,1.88-1.06C51.35,57.76,49.97,58.83,48.94,59.98z"/>
	<path style="fill:#DE6C13;" d="M73.07,158.59c-1.49-2.44-1.2-3.9-0.3-6.24C74.32,154.7,74.2,156.18,73.07,158.59z"/>
	<path style="fill:#954916;" d="M120.96,18.98c-0.26-1.22,0.75-1.97,1.09-2.97c0.98-0.3,1.72-1.26,2.89-1.06l0.08,0.08
		C124.67,17.38,123.45,18.83,120.96,18.98z"/>
	<path style="fill:#E06E13;" d="M113.02,24.98c-0.25-0.99-1.51-1.76-0.44-3.05c1.26-1.52,2.29-0.34,3.41,0.08
		c0.14,0.18,0.28,0.37,0.42,0.55c-0.03,0.23-0.07,0.46-0.1,0.68c-0.22,0.41-0.49,0.78-0.83,1.1c-0.18,0.15-0.35,0.3-0.53,0.45
		C114.33,25.16,113.71,25.44,113.02,24.98z"/>
	<path style="fill:#E47115;" d="M186.93,23.08c-0.33,0.52-0.66,1.03-1.24,1.93c-1.33-1.23-3.18-1.79-1.71-4.04
		c0.68-0.56,1.34-0.56,1.98,0.06l-0.01-0.02C186.56,21.57,187.68,21.88,186.93,23.08z"/>
	<path style="fill:#954916;" d="M250.04,33.06c1.38,0.06,2.95-0.71,3.97,0.9c-0.09,0.73,0.04,1.97-0.9,1.81
		C251.72,35.53,249.91,35.25,250.04,33.06z"/>
	<path style="fill:#E27117;" d="M222.01,55.99c1.54-0.11,2.94-0.02,3.37,1.9c0.34,1.49-0.85,0.9-1.44,1.13
		c-1.14,0.56-1.42-0.46-1.94-1.05l0,0C221.43,57.31,221.32,56.65,222.01,55.99z"/>
	<path style="fill:#D86A16;" d="M247.94,129.02c-2.05-1.53-1.94-3.79-2.02-5.98c0.23-0.17,0.46-0.35,0.69-0.52
		C247.39,124.61,248.29,126.69,247.94,129.02z"/>
	<path style="fill:#E06E13;" d="M232.26,71.08c0.56,1.37,1.11,2.74,1.71,4.2C232.09,75.06,232.09,75.06,232.26,71.08z"/>
	<path style="fill:#E47419;" d="M253.9,178.03c0.02,0.65,0.03,1.3,0.05,1.95c-0.46,1.45-1.43,2.18-2.97,2.14
		C251.35,180.31,251.2,178.15,253.9,178.03z"/>
	<path style="fill:#E47115;" d="M204.94,38.04c0,0.79,0,1.57,0,2.78c-1.68-0.79-2.53-1.69-2.87-2.95c0.56-0.88,1.23-0.81,1.86-0.85
		c0.34-0.5,0.68-0.5,1.02,0l-0.01-0.02c0.31,0.23,0.42,0.46,0.32,0.69C205.15,37.93,205.05,38.04,204.94,38.04z"/>
	<path style="fill:#DE6C13;" d="M254.03,155.94c-0.01-0.99-0.03-1.98-0.04-2.96c1.14,0.18,2.88-0.54,2.9,1.48
		C256.9,156.51,255.19,155.83,254.03,155.94z"/>
	<path style="fill:#DE6C13;" d="M160,5.84c1.31,0.45,3.03-0.55,3.98,1.15c-0.1,1.23-0.25,2.55-1.94,1.44
		C161.13,7.84,160.18,7.1,160,5.84z"/>
	<path style="fill:#E27117;" d="M237.27,86.61c-1.54-1-2.71-2.18-2-4.36C237.17,83.25,237.32,84.89,237.27,86.61z"/>
	<path style="fill:#E27117;" d="M48.94,59.98c-0.15-1.45,1.52-2.44,1-3.98c1.03,0.02,2.11,0.1,2.01,1.5
		C51.83,59.31,50.67,60.03,48.94,59.98z"/>
	<path style="fill:#E47419;" d="M236.56,112.31c1.6,1.09,1.9,2.64,2.39,5.1C236.31,115.7,236.92,113.83,236.56,112.31z"/>
	<path style="fill:#E27117;" d="M151.96,56.99c0.12-1.51-0.57-2.5-1.97-3.02c0.06-0.46,0.12-0.92,0.25-1.86
		c1.64,1.12,2.8,2.25,3.6,3.56C153.64,57.06,152.73,56.9,151.96,56.99z"/>
	<path style="fill:#E77416;" d="M250.82,148.02c0.04,0.99,0.07,1.98,0.11,2.97c-0.54,0.51-1.09,1.01-2.37,2.2
		C249.58,150.89,247.48,148.47,250.82,148.02z"/>
	<path style="fill:#E47115;" d="M255.05,170.92c0-0.63,0-1.26,0-1.88c1.2,0.04,1.95-0.7,2.56-2.05
		C258.39,169.9,257.9,171.34,255.05,170.92z"/>
	<path style="fill:#E06E13;" d="M252.83,163.06c0.04,1.3,0.07,2.6,0.11,3.9c-1.36,0.08-1.98-0.5-1.98-1.92
		C250.96,163.7,251.35,162.91,252.83,163.06z"/>
	<path style="fill:#8E4615;" d="M109.06,34.07c0.19,2.39-0.95,3.97-3.06,4.94c-0.14-0.13-0.28-0.27-0.43-0.4
		c-0.08-0.6-0.03-1.16,0.47-1.59l-0.02,0.02c0.55-0.57,0.37-1.5,1.02-2.01l-0.01,0.01c0.35-0.58,0.73-1.12,1.44-1.29
		C108.67,33.86,108.87,33.96,109.06,34.07z"/>
	<path style="fill:#E27117;" d="M232.59,101.87c-0.52-1.36-1.05-2.73-1.72-4.48C233.04,99.17,233.04,99.17,232.59,101.87z"/>
	<path style="fill:#DE7016;" d="M165.98,7.97c1.17-0.16,2,0.67,2.98,1.05c-0.08,0.76,0.07,1.86-1.04,1.74
		C166.39,10.6,165.93,9.39,165.98,7.97z"/>
	<path style="fill:#E47115;" d="M241.75,99.3c1.22,0.86,2.29,1.78,1.83,3.65C241.36,102.26,242.24,100.39,241.75,99.3z"/>
	<path style="fill:#E77416;" d="M225.75,77.3c1.23,0.86,2.28,1.79,1.83,3.65C225.35,80.27,226.25,78.38,225.75,77.3z"/>
	<path style="fill:#954916;" d="M117.09,22.03c0.62-0.35,1.24-0.71,1.86-1.06l0.08,0.07c0.02,2.09-1.43,3.07-2.97,3.98
		c-0.37,0.33-0.77,0.37-1.21,0.13c-0.27-0.43-0.23-0.81,0.19-1.12l-0.02,0.01c0.32-0.35,0.63-0.72,1-1.02l-0.01,0.01
		C116.27,22.58,116.67,22.29,117.09,22.03z"/>
	<path style="fill:#E77416;" d="M223.72,71.35c1.36,0.7,2.15,1.69,1.96,3.51C223.24,74.47,224.41,72.34,223.72,71.35z"/>
	<path style="fill:#D86A16;" d="M191.9,24.1c0.06-0.82,0.12-1.63,0.19-2.67c1.38,0.17,1.96,1.09,2.54,2.01
		c-0.45,0.67-1.56,0.66-1.68,1.66C192.12,25.28,191.78,24.93,191.9,24.1z"/>
	<path style="fill:#A65117;" d="M222,57.97c0.65,0.35,1.3,0.7,1.94,1.05c0,1.12,0,2.24,0,3.73C222.19,61.27,221.81,59.73,222,57.97z
		"/>
	<path style="fill:#954916;" d="M191.9,24.1c0.35,0.34,0.7,0.67,1.05,1.01c0.34,0.64,0.67,1.28,1.01,1.92
		c-1.54,0.44-2.52-1.24-3.99-1.07c-0.01-0.64-0.03-1.28-0.04-1.92l0.07-0.07C190.64,24.01,191.27,24.06,191.9,24.1z"/>
	<path style="fill:#E27117;" d="M244.65,135.34c1.68,0.77,1.27,2.21,2.59,4.08C244.41,138.18,244.47,136.75,244.65,135.34z"/>
	<path style="fill:#A04E17;" d="M92,67c0.07,1.96-0.32,3.74-2,5l-0.02-0.02c0.05-1.91-0.49-4.06,1.99-5.01L92,67z"/>
	<path style="fill:#E47115;" d="M222.23,52.99c-2.32-1.08-2.27-2.44-3.31-4.2C221.39,49.67,221.44,51.1,222.23,52.99z"/>
	<path style="fill:#D86A16;" d="M252,143.96c-0.72-1.23-1.23-2.51-1.04-3.98C252.67,140.94,253.94,142.03,252,143.96z"/>
	<path style="fill:#E27117;" d="M247.06,117.62c1.42,0.44,1.26,1.7,2.06,2.59C245.13,120.99,248.17,118.22,247.06,117.62z"/>
	<path style="fill:#954916;" d="M186.93,23.08c-0.33-0.69-0.65-1.38-0.98-2.06c0.62,0.01,1.25,0.01,1.87,0.02
		c0.45,0.28,0.82,0.65,1.14,1.07c0.35,0.62,0.7,1.24,1.05,1.86c0,0-0.07,0.07-0.07,0.07C188.75,24.3,187.98,23.26,186.93,23.08z"/>
	<path style="fill:#E47115;" d="M249.32,125.3c1.58,0.68,1.78,1.77,1.47,3.47C249.04,127.87,248.69,126.83,249.32,125.3z"/>
	<path style="fill:#E06E13;" d="M171.98,8.02c-1.46,0.03-2.47-0.65-3.11-1.94C170.6,5.29,171.44,5.81,171.98,8.02z"/>
	<path style="fill:#E06E13;" d="M230.61,93.74c-1.56-0.93-2.02-1.92-1.25-3.36C230.85,90.96,231.24,91.95,230.61,93.74z"/>
	<path style="fill:#E06E13;" d="M255.96,148.19c0.94,0.23,0.97,0.85,0.94,1.52c-0.04,0.83-0.63,1.22-1.27,0.97
		c-0.63-0.25-0.74-1.02-0.54-1.68C255.23,148.54,255.45,148.09,255.96,148.19z"/>
	<path style="fill:#E06E13;" d="M235.56,107.61c-1.42-0.63-1.88-1.6-1.23-3.32C235.85,105.1,236.34,106.06,235.56,107.61z"/>
	<path style="fill:#A04E17;" d="M87.99,75.99c-0.06-1.7,0-3.33,1.99-4L90,72C90.08,73.71,89.99,75.33,87.99,75.99L87.99,75.99z"/>
	<path style="fill:#954916;" d="M194.78,28.98c0.02-0.33,0.08-0.65,0.17-0.96c0.63,0.01,1.26,0.01,1.89,0.02
		c0.8,0.98,1.59,1.97,2.39,2.95C197.21,31.49,196.41,29.31,194.78,28.98z"/>
	<path style="fill:#954916;" d="M180.01,15.97c0.34-0.01,0.68-0.02,1.02-0.04c0.35-0.25,0.66-0.21,0.93,0.12l-0.01-0.02
		c0.38,0.3,0.72,0.64,1.03,1.02l-0.03-0.03c0.41,0.3,0.68,0.72,1.04,1.07c0,0.3,0,0.6,0.02,0.9L183.97,19
		c-2.12,0.06-3.12-1.4-4.02-2.98C179.95,16.02,180.01,15.97,180.01,15.97z"/>
	<path style="fill:#E77416;" d="M214.51,51.71c-2.09-0.38-2.63-1.28-3.25-2.38C212.99,48.85,213.4,50.05,214.51,51.71z"/>
	<path style="fill:#E77416;" d="M154.04,2.91c1.14-0.08,1.96,0.7,2.92,1.11c-0.88,1.91-1.87,0.32-2.79,0.06
		C153.34,3.84,153.11,3.4,154.04,2.91z"/>
	<path style="fill:#E47115;" d="M93.32,54.02c0.43-1.44,0.45-2.62,2.45-2.87C95.14,52.32,95.32,53.5,93.32,54.02z"/>
	<path style="fill:#E47115;" d="M252.43,133.38c0.67,0.86,1.46,1.67,1.31,2.99c-1.09,0.36-1.37-0.57-1.64-1.18
		C251.85,134.64,251.86,133.92,252.43,133.38z"/>
	<path style="fill:#E27117;" d="M241.18,128.09c2.19,0.25,1.64,1.71,2.21,2.49C241.59,130.53,241.89,129.23,241.18,128.09z"/>
	<path style="fill:#8E4615;" d="M109.04,32.05c0.65-0.36,1.29-0.72,1.94-1.08c0.06,1.46,0.31,3.04-1.91,3.1l-0.17-0.15
		c-0.5-0.68-0.49-1.31,0.15-1.89L109.04,32.05z"/>
	<path style="fill:#E27117;" d="M251.07,156c-0.02,0.68-0.03,1.36-0.05,2.05c-1.82-0.07-2.44-0.9-1.73-2.69
		C249.92,155.59,250.49,155.79,251.07,156z"/>
	<path style="fill:#E47419;" d="M245.78,142.09c2.41,0.28,2.41,1.46,2.77,2.8C246.62,144.68,247.03,143.21,245.78,142.09z"/>
	<path style="fill:#DE6C13;" d="M253.8,140.59c1.7-0.14,1.95,0.68,1.92,1.65c-0.01,0.18-0.46,0.52-0.67,0.49
		C253.51,142.54,254.3,141.4,253.8,140.59z"/>
	<path style="fill:#E27117;" d="M211.75,38.89c-1.81-0.15-2.49-0.85-2.68-2.67C210.47,36.83,211.17,37.52,211.75,38.89z"/>
	<path style="fill:#E06E13;" d="M91.5,74.95c0.59,1.77,0.86,2.93-0.66,4.16C90.29,77.53,91.09,76.55,91.5,74.95z"/>
	<path style="fill:#A04E17;" d="M213.96,46.01c-1.37-0.63-2.36-1.64-2.99-3.01l0.01-0.01c2-0.01,2.98,1.01,3.01,2.99L213.96,46.01z"
		/>
	<path style="fill:#E47115;" d="M87.27,66.88c-0.24-1.56,0.32-2.06,1.04-2.47c0.82,0.32,0.68,0.86,0.26,1.37
		C88.3,66.12,87.89,66.36,87.27,66.88z"/>
	<path style="fill:#E47115;" d="M247.04,110.95c-2.54-0.3-1.79-1.55-2.16-2.66C246.3,108.92,246.15,109.88,247.04,110.95z"/>
	<path style="fill:#D86A16;" d="M109.04,32.02c-0.05,0.63-0.1,1.26-0.15,1.89c-0.62,0.38-1.24,0.75-1.85,1.13
		C106.86,33.48,107.53,32.47,109.04,32.02z"/>
	<path style="fill:#E9781C;" d="M197.01,33.81c-0.51-0.04-0.85-0.33-0.78-0.86c0.07-0.48,0.4-0.86,0.94-0.67
		c0.24,0.08,0.49,0.37,0.57,0.62C197.91,33.47,197.53,33.71,197.01,33.81z"/>
	<path style="fill:#E47115;" d="M219.06,58.97c-1.39-0.73-1.98-1.21-1.97-2.14c0.62-0.83,1.06-0.15,1.38,0.26
		C218.71,57.4,218.73,57.89,219.06,58.97z"/>
	<path style="fill:#E47115;" d="M220.98,63.98c1.33,0.42,0.92,1.77,1.39,2.64c-1.78-0.17-1.3-1.55-1.4-2.63L220.98,63.98z"/>
	<path style="fill:#A04E17;" d="M105.96,40.98c-0.62,1.03-0.72,2.39-1.96,3.03l-0.03-0.03c0.12-1.06-0.48-2.36,0.96-3
		C105.27,40.51,105.62,40.51,105.96,40.98z"/>
	<path style="fill:#D86A16;" d="M250.94,139.1c-1.64-1.04-0.81-2.7-1.02-4.09C251.84,135.98,250.66,137.72,250.94,139.1z"/>
	<path style="fill:#E77416;" d="M238.07,91.28c1.37,0.43,1.82,1.07,1.76,2.21C238.46,93.49,238.19,92.7,238.07,91.28z"/>
	<path style="fill:#954916;" d="M128,11.01c0.12,1.52-0.63,2.47-1.99,3.02l-0.06-0.06c-0.08-1.51,0.63-2.47,2.02-2.98L128,11.01z"/>
	<path style="fill:#E77416;" d="M256.42,160.43c0.83,1.02,0.77,2.01,0.09,3.1C255.69,162.5,255.76,161.51,256.42,160.43z"/>
	<path style="fill:#D86A16;" d="M115.04,24.03c0.02,0.33,0.03,0.65,0.03,0.98c0.28,0.37,0.22,0.69-0.11,0.99l0.03-0.03
		c-0.33,0.36-0.7,0.67-1.03,1.03l0.02-0.03c-0.31,0.49-0.64,0.5-0.99,0.04c0,0-0.01-0.02-0.01-0.02c0.01-0.67,0.02-1.34,0.03-2.02
		C113.69,24.66,114.36,24.35,115.04,24.03z"/>
	<path style="fill:#A04E17;" d="M206.99,38.98c1.43-0.09,2.09,0.58,1.99,2.01L208.97,41c-1-0.33-1.68-0.99-2.01-1.99L206.99,38.98z"
		/>
	<path style="fill:#A04E17;" d="M204.95,37.03c-0.34,0-0.68,0-1.02,0c-0.31-0.69-0.63-1.37-0.94-2.06c0.64,0.03,1.28,0.05,1.93,0.08
		C204.93,35.71,204.94,36.37,204.95,37.03z"/>
	<path style="fill:#D86A16;" d="M249.93,135.02c-1.47-0.62-0.87-1.95-1.01-3.02C250.54,132.58,249.8,133.95,249.93,135.02z"/>
	<path style="fill:#9A4C16;" d="M136.04,5.01c-0.37,0.99-1.04,1.66-2.06,1.95c-0.28-0.21-0.37-0.43-0.28-0.64
		C133.8,6.11,133.89,6,133.98,6c0.11-0.56,0.46-0.89,1.01-0.99C135.34,4.57,135.69,4.59,136.04,5.01z"/>
	<path style="fill:#9A4C16;" d="M228.99,73.98c1.23,0.68,1.29,1.57,0.48,2.65c-0.83-0.77-0.43-1.74-0.52-2.61L228.99,73.98z"/>
	<path style="fill:#D86A16;" d="M248.94,132.02c-1.47-0.63-0.86-1.95-1.01-3.02C249.53,129.58,248.8,130.95,248.94,132.02z"/>
	<path style="fill:#E47419;" d="M171.98,12.99c0.81,0.06,1.69-0.01,1.92,1.39C172.7,14.62,172.31,13.86,171.98,12.99L171.98,12.99z"
		/>
	<path style="fill:#A04E17;" d="M86.98,78.98c0.16-1.06-0.47-2.38,1-3l0.01,0.01c-0.14,1.06,0.54,2.4-1,3L86.98,78.98z"/>
	<path style="fill:#954916;" d="M185.96,21.03c-0.66-0.02-1.32-0.04-1.98-0.06c0-0.66-0.01-1.31-0.01-1.97l0.01-0.01
		c0.32,0,0.64,0.01,0.97,0.01c0.3,0.38,0.95,0.39,1.04,0.99C185.98,20.34,185.97,20.68,185.96,21.03z"/>
	<path style="fill:#E9781C;" d="M252.99,170.95c0.01,0.32,0.03,0.64,0.07,0.96c-0.13,0.58,0.02,1.27-0.68,1.66
		C251.7,172.49,251.68,171.57,252.99,170.95z"/>
	<path style="fill:#8E4615;" d="M113,27.01c0.33-0.03,0.66-0.05,0.99-0.04c0.14,1.5-0.5,2.21-2.03,2.03
		C112.3,28.34,112.65,27.67,113,27.01z"/>
	<path style="fill:#A04E17;" d="M93.97,62.98c0.13-1.07-0.48-2.38,1.01-3L95,60c-0.13,1.07,0.48,2.38-1,3L93.97,62.98z"/>
	<path style="fill:#A04E17;" d="M91.97,66.98c0.14-1.07-0.47-2.38,1.01-3L93,64c-0.13,1.07,0.5,2.39-1,3L91.97,66.98z"/>
	<path style="fill:#A04E17;" d="M202.86,33.02c0.05,0.65,0.1,1.31,0.14,1.96c-1.06-0.26-1.7-0.96-2.06-1.95l0.07-0.07
		C201.62,32.98,202.24,33,202.86,33.02z"/>
	<path style="fill:#A65117;" d="M136.04,5.01c-0.35,0-0.69,0-1.04,0c-0.01-0.3,0.02-0.6,0.09-0.9c0.63-0.04,1.27-0.07,1.9-0.11
		C136.93,4.58,136.6,4.9,136.04,5.01z"/>
	<path style="fill:#954916;" d="M131.99,8c-0.3,1.08-1.15,1.03-2,1l0,0C130.3,7.97,131.14,7.98,131.99,8L131.99,8z"/>
	<path style="fill:#8E4615;" d="M110.96,30.99c-0.04-0.87,0.02-1.69,1.03-2.03C112.03,29.84,112.19,30.76,110.96,30.99z"/>
	<path style="fill:#D86A16;" d="M107.04,35.03c-0.01,0.84-0.03,1.67-1.02,2.01C106,36.19,105.86,35.27,107.04,35.03z"/>
	<path style="fill:#A65117;" d="M174.99,11.98c0.86-0.06,1.7-0.07,2,1C176.14,13.03,175.26,13.11,174.99,11.98z"/>
	<path style="fill:#A65117;" d="M222.01,55.99c0,0.66-0.01,1.32-0.01,1.98c-1.16-0.24-1.02-1.15-1.03-1.98l0,0
		C221.32,55.99,221.66,55.99,222.01,55.99z"/>
	<path style="fill:#D86A16;" d="M177.98,13c0.54,0.06,1.18-0.17,1.54,0.44c0.04,0.06-0.34,0.37-0.53,0.56
		c-0.33,0.42-0.66,0.39-0.99-0.01l-0.01-0.01c-0.23-0.22-0.31-0.43-0.24-0.65C177.83,13.1,177.91,12.99,177.98,13L177.98,13z"/>
	<path style="fill:#E47115;" d="M48.06,57.06c-0.17,0.51-0.49,0.87-1.04,0.99c0.03-0.57-0.24-1.24,0.45-1.58
		C47.56,56.43,47.86,56.85,48.06,57.06z"/>
	<path style="fill:#A65117;" d="M219.97,54c1.04,0.31,0.98,1.17,1.01,1.99l0,0c-1.11-0.28-0.98-1.18-0.99-2.01L219.97,54z"/>
	<path style="fill:#9A4C16;" d="M225.98,64.97c0,0.67,0.01,1.34,0.01,2.01C224.6,66.33,224.61,65.66,225.98,64.97z"/>
	<path style="fill:#8E4615;" d="M105.96,40.98c-0.34,0-0.68,0-1.02,0c0-0.34-0.01-0.68-0.01-1.02c-0.26-0.35-0.22-0.67,0.11-0.95
		l-0.02,0.03c0.27-0.49,0.58-0.49,0.93-0.09l0.06,0.06C105.99,39.67,105.97,40.32,105.96,40.98z"/>
	<path style="fill:#A04E17;" d="M99.97,50.97c0.02-0.83-0.02-1.68,1.01-1.99l0.03,0.03c0,0.83,0.05,1.69-1,2L99.97,50.97z"/>
	<path style="fill:#A04E17;" d="M214.98,46.98c1.08,0.3,1.01,1.16,1,2.01L215.97,49c-1.04-0.31-1.01-1.16-1.01-2L214.98,46.98z"/>
	<path style="fill:#DE6C13;" d="M185.99,19.99c-0.54-0.12-0.88-0.46-1.04-0.99c0.55,0.05,1.18-0.17,1.56,0.42
		C186.54,19.48,186.17,19.79,185.99,19.99z"/>
	<path style="fill:#A04E17;" d="M101.98,47.99c0-0.83-0.11-1.72,1-2L103,46c-0.01,0.83,0.03,1.68-1,2L101.98,47.99z"/>
	<path style="fill:#A04E17;" d="M104,44.01c-0.02,0.82,0.02,1.68-1,1.99l-0.02-0.02c0-0.83-0.11-1.72,1-2L104,44.01z"/>
	<path style="fill:#E77416;" d="M239.98,121.97c0.93,0.31,0.96,0.89,0.71,1.77c-0.82-0.56-0.69-1.18-0.73-1.75L239.98,121.97z"/>
	<path style="fill:#D86A16;" d="M105.94,38.95c-0.31,0.02-0.62,0.05-0.93,0.09c0-0.85-0.15-1.78,1.03-2.02
		C106.01,37.66,105.98,38.31,105.94,38.95z"/>
	<path style="fill:#954916;" d="M133.98,6c0,0.32,0,0.64-0.01,0.96l-0.49,0.05l-0.5,0L132.98,7C133.06,6.41,133.42,6.1,133.98,6z"/>
	<path style="fill:#954916;" d="M132.99,7c-0.09,0.58-0.44,0.9-1,1l0,0C132.05,7.4,132.4,7.08,132.99,7L132.99,7z"/>
	<path style="fill:#954916;" d="M128.98,9.99c0.1-0.56,0.44-0.9,1-1l0,0c-0.07,0.59-0.4,0.93-1,1L128.98,9.99z"/>
	<path style="fill:#A65117;" d="M172,8.98c0.55,0.11,0.89,0.44,1,1l-0.04,0.05c-0.56-0.1-0.91-0.43-1-1L172,8.98z"/>
	<path style="fill:#954916;" d="M128.99,10.01c-0.07,0.59-0.4,0.93-0.99,1l-0.02-0.02c0.1-0.56,0.44-0.9,1-1L128.99,10.01z"/>
	<path style="fill:#A65117;" d="M173.99,9.97c0,0.34,0,0.68,0,1.02c-0.59-0.06-0.93-0.39-1.04-0.96L173,9.98
		C173.33,9.98,173.66,9.98,173.99,9.97z"/>
	<path style="fill:#E47419;" d="M171.97,13c-0.24-0.14-0.48-0.28-0.72-0.43C171.94,11.94,171.81,12.73,171.97,13
		C171.98,12.99,171.97,13,171.97,13z"/>
	<path style="fill:#A65117;" d="M177.98,12.99c0.04,0.33,0.05,0.66,0.01,0.98c-0.62-0.05-0.96-0.38-1-1
		C177.32,12.97,177.65,12.97,177.98,12.99z"/>
	<path style="fill:#954916;" d="M124.94,14.95c0.11-0.56,0.43-0.91,1.01-0.98l0.06,0.06c-0.1,0.55-0.43,0.89-0.98,1.01L124.94,14.95
		z"/>
	<path style="fill:#A65117;" d="M178,13.98c0.33-0.04,0.66-0.03,0.99,0.01c0.02,0.32,0.03,0.63,0.01,0.95l-0.08,0.08
		C178.36,14.91,178.03,14.58,178,13.98z"/>
	<path style="fill:#DE6C13;" d="M181.95,16.05c-0.32,0.02-0.63-0.02-0.93-0.12c0.18-0.22,0.35-0.44,0.53-0.67
		C181.68,15.53,181.81,15.79,181.95,16.05z"/>
	<path style="fill:#DE6C13;" d="M182.96,17.05c-0.57-0.11-0.93-0.43-1.03-1.02C182.55,16.09,182.89,16.43,182.96,17.05z"/>
	<path style="fill:#E47419;" d="M186.97,17.01c-0.24-0.14-0.48-0.29-0.71-0.43c0.68-0.64,0.56,0.15,0.74,0.41
		C186.99,16.99,186.97,17.01,186.97,17.01z"/>
	<path style="fill:#DE6C13;" d="M183.97,18.09c-0.54-0.17-0.91-0.5-1.04-1.07C183.56,17.1,183.89,17.47,183.97,18.09z"/>
	<path style="fill:#E47419;" d="M186.99,16.99c0.24,0.15,0.48,0.29,0.72,0.44c-0.68,0.64-0.57-0.14-0.74-0.42L186.99,16.99z"/>
	<path style="fill:#954916;" d="M119.96,19.98c0.07-0.6,0.39-0.95,1.01-1.01C120.93,19.61,120.62,19.97,119.96,19.98z"/>
	<path style="fill:#A65117;" d="M173.99,10.98c0.59,0.07,0.95,0.38,1,1C174.4,11.91,174.06,11.58,173.99,10.98z"/>
	<path style="fill:#954916;" d="M118.99,20.02c0.33-0.06,0.65-0.08,0.98-0.05c-0.01,0.62-0.34,0.96-0.94,1.06l-0.08-0.07
		C118.97,20.65,118.99,20.34,118.99,20.02z"/>
	<path style="fill:#D86A16;" d="M188.96,22.1c-0.38-0.36-0.76-0.71-1.14-1.07C188.49,21.08,188.88,21.43,188.96,22.1z"/>
	<path style="fill:#D86A16;" d="M117.09,22.03c-0.18,0.52-0.5,0.9-1.08,1.01c-0.01-0.34-0.02-0.68-0.04-1.03
		C116.35,22.01,116.72,22.02,117.09,22.03z"/>
	<path style="fill:#8E4615;" d="M114.96,26c0.04-0.33,0.08-0.66,0.11-0.99c0.33-0.01,0.66,0,0.98,0.01
		C115.91,25.59,115.58,25.96,114.96,26z"/>
	<path style="fill:#8E4615;" d="M113.96,27c0.09-0.6,0.41-0.96,1.03-1.03C114.93,26.6,114.6,26.96,113.96,27z"/>
	<path style="fill:#954916;" d="M194.96,28.03c-0.66-0.02-1.03-0.33-1.01-1.02C194.54,27.09,194.91,27.4,194.96,28.03z"/>
	<path style="fill:#A04E17;" d="M215.98,48.99c0.24,0.14,0.49,0.28,0.73,0.43c-0.7,0.66-0.56-0.16-0.74-0.41
		C215.97,49,215.98,48.99,215.98,48.99z"/>
	<path style="fill:#A04E17;" d="M96.01,59.02C95.9,59.57,95.58,59.93,95,60l-0.02-0.02c0.1-0.56,0.41-0.91,0.98-1.01L96.01,59.02z"
		/>
	<path style="fill:#E47115;" d="M47.05,58.01c-0.12,0.58-0.49,0.95-1.03,1.17C46.06,58.52,46.37,58.1,47.05,58.01z"/>
	<path style="fill:#A04E17;" d="M100.98,48.98c0.11-0.56,0.41-0.92,1-1L102,48c-0.1,0.56-0.41,0.92-0.99,1L100.98,48.98z"/>
	<path style="fill:#A04E17;" d="M94,63c-0.11,0.56-0.41,0.92-1,1l-0.02-0.02c0.11-0.56,0.41-0.92,1-1L94,63z"/>
	<path style="fill:#E47419;" d="M215.98,43.99c0.24,0.14,0.48,0.29,0.72,0.43c-0.69,0.64-0.56-0.15-0.74-0.42L215.98,43.99z"/>
	<path style="fill:#E47115;" d="M220.96,64c-0.24-0.14-0.48-0.29-0.71-0.43c0.68-0.64,0.55,0.16,0.73,0.41L220.96,64z"/>
	<path style="fill:#E9C09B;" d="M153,149.97c-0.72-0.23-0.95-0.7-0.67-1.4C152.81,148.91,153.05,149.37,153,149.97z"/>
	<path style="fill:#E77416;" d="M239.96,121.99c-0.24-0.14-0.47-0.29-0.71-0.43c0.68-0.64,0.56,0.15,0.73,0.41L239.96,121.99z"/>
	<path style="fill:#D86A16;" d="M105.03,39.01c-0.01,0.32-0.04,0.64-0.11,0.95c-0.22-0.18-0.44-0.36-0.66-0.53
		C104.52,39.29,104.78,39.15,105.03,39.01z"/>
	<path style="fill:#E47419;" d="M214.98,42.99c0.57,0.1,0.9,0.43,1,1L215.97,44c-0.56-0.1-0.9-0.44-1-1L214.98,42.99z"/>
	<path style="fill:#A04E17;" d="M205.99,37.98c0.58,0.09,0.91,0.42,1,1l-0.02,0.02c-0.56-0.1-0.89-0.44-1-0.99L205.99,37.98z"/>
	<path style="fill:#A04E17;" d="M213.99,45.98c0.57,0.1,0.89,0.44,0.99,1L214.96,47c-0.58-0.08-0.9-0.43-1-1L213.99,45.98z"/>
	<path style="fill:#A04E17;" d="M204.94,38.04c0-0.34,0-0.69,0-1.03c0.61,0.04,0.95,0.37,1.05,0.97l-0.03,0.03
		C205.62,38.02,205.28,38.03,204.94,38.04z"/>
	<path style="fill:#E47419;" d="M214.97,43c-0.24-0.14-0.48-0.29-0.72-0.43c0.68-0.63,0.56,0.14,0.73,0.42L214.97,43z"/>
	<path style="fill:#A65117;" d="M219.98,53.99c-0.24-0.13-0.47-0.27-0.71-0.4c0.69-0.62,0.52,0.19,0.7,0.42L219.98,53.99z"/>
	<path style="fill:#A04E17;" d="M210.97,43c-0.56-0.11-0.89-0.44-1-1l0,0C210.56,42.07,210.89,42.41,210.97,43L210.97,43z"/>
	<path style="fill:#A04E17;" d="M209.97,42c-0.56-0.1-0.9-0.44-1-1l0.01-0.01C209.56,41.08,209.89,41.41,209.97,42L209.97,42z"/>
	<path style="fill:#954916;" d="M179.95,16.02c-0.57-0.1-0.9-0.45-1.02-1l0.08-0.08c0.55,0.13,0.91,0.45,1,1.02L179.95,16.02z"/>
	<path style="fill:#A04E17;" d="M200.94,33.03c-0.24-0.16-0.48-0.32-0.72-0.48c0.68-0.66,0.62,0.09,0.79,0.41L200.94,33.03z"/>
	<path style="fill:#DE6C13;" d="M309.34,215.63c2.27,0.03,4.04,0.91,5.36,2.61C312.29,218.59,310.67,217.34,309.34,215.63z"/>
	<path style="fill:#DE6C13;" d="M340.47,227.42c3.23,0.41,5.3,1.14,7.24,2.76C344.54,230.23,344.08,230.06,340.47,227.42z"/>
	<path style="fill:#E27117;" d="M362.16,219.16c2.56-1.44,4.03-1.44,6.08-0.3C366.34,220.4,364.81,220.08,362.16,219.16z"/>
	<path style="fill:#E06E13;" d="M371.23,226.07c1.46-1.37,2.94-1.33,4.99-0.25C374.36,227.44,372.8,227.03,371.23,226.07z"/>
	<path style="fill:#E27117;" d="M311.98,208.85c-2.72,0.15-4.32-0.73-6.05-2.76C308.65,205.94,310.26,206.82,311.98,208.85z"/>
	<path style="fill:#DE6C13;" d="M343.64,214.2c3.03-0.44,4.49,0.86,6.08,1.8C347.69,216.51,345.89,216.21,343.64,214.2z"/>
	<path style="fill:#E27117;" d="M244.02,189.04c1.31-0.01,2.62-0.02,3.92-0.02c-0.03,0.92,0.2,1.89-0.51,2.79
		C245.6,191.71,244.76,190.44,244.02,189.04z"/>
	<path style="fill:#E27117;" d="M274.14,198.91c1.96,0.06,3.63,0.63,5.07,2.66C276.36,202,275.71,199.59,274.14,198.91z"/>
	<path style="fill:#E47419;" d="M441.02,195.62c-0.13,2.25-1.05,4.05-3.45,5.77c-0.04-3.16,1.94-4.36,3.42-5.85L441.02,195.62z"/>
	<path style="fill:#DE6C13;" d="M353.95,232.35c1.97-0.44,3.34-0.69,4.68,0.15C356.99,234.13,356.99,234.13,353.95,232.35z"/>
	<path style="fill:#E77416;" d="M294.67,216.05c-2.05-0.24-4.03-0.76-6.02-3.02C291.51,213.4,293.13,214.61,294.67,216.05z"/>
	<path style="fill:#E47419;" d="M408.8,231.53c1.17-1.95,2.79-2.66,4.82-3.92C411.63,230.82,411.63,230.82,408.8,231.53z"/>
	<path style="fill:#E27117;" d="M329.62,216.31c-1.74,0.01-3.42-0.12-4.42-2.08C327.43,213.61,328.62,214.78,329.62,216.31z"/>
	<path style="fill:#E47115;" d="M370.36,219.07c2.96-0.95,2.96-0.95,5.27-0.65C374.42,220.4,372.9,220.22,370.36,219.07z"/>
	<path style="fill:#E06E13;" d="M348.13,238.43c2.31-0.99,3.81-0.13,5.62,1.24C351.61,239.97,349.85,240.61,348.13,238.43z"/>
	<path style="fill:#DE6C13;" d="M360.61,225.11c2.65-2.29,3.95,0.71,5.79,0.28C364.63,226.03,362.9,226.32,360.61,225.11z"/>
	<path style="fill:#DE6C13;" d="M357.34,239.25c1.72,0.36,3.44,0.72,5.16,1.08C360.64,240.82,358.71,241.69,357.34,239.25z"/>
	<path style="fill:#DE6C13;" d="M371.16,233.9c-1.54,1.4-2.7,1.3-4.3,0.17C368.31,232.68,369.47,232.73,371.16,233.9z"/>
	<path style="fill:#E47419;" d="M415.94,226.48c0.49-1.96,1.63-2.83,3.22-3.52C419.08,224.74,419.08,224.74,415.94,226.48z"/>
	<path style="fill:#E47115;" d="M309.28,223.28c2.19-0.74,3.34,0.52,4.42,1.95C312.24,224.71,310.2,225.56,309.28,223.28z"/>
	<path style="fill:#E47419;" d="M397.39,218.3c-0.81,1.61-1.69,3.09-4.16,2.42C394.14,218.73,395.91,218.75,397.39,218.3z"/>
	<path style="fill:#E06E13;" d="M320.27,212.6c-2.24,0.24-3.31-0.51-4.61-2.27C317.94,210.16,319.04,210.84,320.27,212.6z"/>
	<path style="fill:#E47115;" d="M291.49,207.3c1.48,0.44,3.17,0.37,4.86,1.97C293.72,210,292.48,208.95,291.49,207.3z"/>
	<path style="fill:#E47115;" d="M334.53,217.4c1.4,0.59,3.36,0.02,4.62,2.12C336.84,219.87,335.58,218.86,334.53,217.4z"/>
	<path style="fill:#E27117;" d="M390.64,221.63c-1.4,1.49-1.4,1.49-3.42,1.7C388.59,221.86,388.59,221.86,390.64,221.63z"/>
	<path style="fill:#E47419;" d="M426.81,203.52c-0.15,2.88-1.5,3.61-2.93,4.56C424.39,206.04,424.39,206.04,426.81,203.52z"/>
	<path style="fill:#E06E13;" d="M299.3,218.75c1.61-0.66,2.62,0.11,3.85,1.43C301.07,221.26,300.19,219.94,299.3,218.75z"/>
	<path style="fill:#E27117;" d="M258.82,190.01c1.14,0.56,2.52,0.7,2.98,2.19C259.73,192.12,259.73,192.12,258.82,190.01z"/>
	<path style="fill:#DE6C13;" d="M335.44,211.31c2.4-0.06,2.4-0.06,4.2,1.3c-0.55,0.12-1.02,0.36-1.44,0.29
		C337.12,212.71,336.15,212.26,335.44,211.31z"/>
	<path style="fill:#E47115;" d="M379.26,225.56c1.31-0.75,2.31-1.99,4-1.39C381.94,225.74,381.94,225.74,379.26,225.56z"/>
	<path style="fill:#E47419;" d="M396.77,228.75c0.89-2.01,2.19-2.25,3.33-2.68c0.18,0.14,0.43,0.3,0.42,0.34
		C399.87,227.7,399.12,228.86,396.77,228.75z"/>
	<path style="fill:#E47115;" d="M346.48,221.62c-1.66,0.95-2.69-0.39-3.98-1.03C344.81,220.2,344.81,220.2,346.48,221.62z"/>
	<path style="fill:#E06E13;" d="M338.19,234.57c1.29,0.3,2.78,0.11,3.99,1.72C339.78,236.19,339.78,236.19,338.19,234.57z"/>
	<path style="fill:#E27117;" d="M352,223.09c0.43-0.77,0.92-1.17,1.29-0.91c0.84,0.61,2.24,0.5,2.59,2.26
		C354.33,224.31,353.06,224.07,352,223.09z"/>
	<path style="fill:#E27117;" d="M415.12,203.28c-0.06-1.46,0.96-1.83,2.09-2.32C417.2,203.23,417.2,203.23,415.12,203.28z"/>
	<path style="fill:#E27117;" d="M384.88,239.85c1.29-1.12,2.35-1.02,3.47-0.62c-0.03,0.29,0.05,0.65-0.09,0.8
		C387.27,241.11,386.22,241.43,384.88,239.85z"/>
	<path style="fill:#E47115;" d="M394.3,238.48c0.61-1.41,1.91-1.64,3.13-1.99c0.57,0.48,0.4,1.07-0.08,1.2
		C396.34,237.95,395.63,239.47,394.3,238.48z"/>
	<path style="fill:#E06E13;" d="M381.99,240.77c-1.1,1.87-2.33,0.76-3.33,1.12C379.44,240.64,380.24,239.56,381.99,240.77z"/>
	<path style="fill:#E47419;" d="M411.09,207.65c0.99-1.23,1.56-2.5,3.09-2.51c0.17,0.16,0.4,0.36,0.39,0.37
		C413.72,206.56,413.17,208.11,411.09,207.65z"/>
	<path style="fill:#E77416;" d="M434.2,192.81c-1.12,1.09-1,3.15-3.37,3.94c0.7-2.06,0.98-3.79,3.32-3.93L434.2,192.81z"/>
	<path style="fill:#E27117;" d="M412.41,194.06c0.71,1.76-0.28,2.36-2.14,3C410.73,195.64,410.66,194.45,412.41,194.06z"/>
	<path style="fill:#E9781C;" d="M419.88,198.7c0.46-1.94,1.39-2.74,3.06-3.54C422.63,197.2,421.65,197.95,419.88,198.7z"/>
	<path style="fill:#E77416;" d="M289.1,198.13c2.07,0.03,2.93,0.92,4.75,2.39C291.3,200.26,290.06,199.9,289.1,198.13z"/>
	<path style="fill:#E06E13;" d="M323.38,206.36c-1.82,1.07-2.77-0.25-4.03-0.92C321.18,204.11,322.07,206.14,323.38,206.36z"/>
	<path style="fill:#E47115;" d="M278.04,207.84c1.88,0.69,3.3,0.74,4,2.78C280.32,210.16,279.01,209.98,278.04,207.84z"/>
	<path style="fill:#E77416;" d="M393.26,211.7c0.61-1.66,2.01-1.79,3.29-2.29C395.51,210.96,395.51,210.96,393.26,211.7z"/>
	<path style="fill:#E9781C;" d="M418.89,213.06c0.35-2.32,1.43-2.99,3.1-4.13C421.65,211.23,420.56,211.9,418.89,213.06z"/>
	<path style="fill:#E47419;" d="M404.68,213.75c-0.77,1.29-1.73,2.16-3.38,2.01C401.88,213.91,403.36,213.94,404.68,213.75z"/>
	<path style="fill:#E9781C;" d="M422.04,220.98c0.14-2.27,1.32-2.91,2.64-3.86C425.02,219.19,423.52,219.78,422.04,220.98z"/>
	<path style="fill:#E27117;" d="M406.79,222.21c-0.06,2.15-1.58,1.7-3.02,3.1C404.4,222.76,405.11,222.05,406.79,222.21z"/>
	<path style="fill:#DE6C13;" d="M335.87,226.33c-1.67,1.15-2.58,0.43-3.56-0.6C333.97,224.07,334.69,225.57,335.87,226.33z"/>
	<path style="fill:#E77416;" d="M328.51,231.55c1.75-1,2.76,0.21,4.09,0.85C330.73,233.88,329.8,231.77,328.51,231.55z"/>
	<path style="fill:#E77416;" d="M382.18,232.59c1.07-1.55,2.03-2.08,3.41-1.13C384.9,232.85,383.89,233.28,382.18,232.59z"/>
	<path style="fill:#E77416;" d="M405.82,232.94c-0.97,2.08-2.34,2.03-4.16,3.14C402.65,233.59,403.99,233.42,405.82,232.94z"/>
	<path style="fill:#E9781C;" d="M389.44,230.63c0.69-0.93,1.61-1.38,2.76-1.54c0.69,1.07-0.28,1.38-0.87,1.69
		C390.78,231.06,390.08,231.15,389.44,230.63z"/>
	<path style="fill:#E77416;" d="M319.96,227.97c1.4,0,2.89-0.21,3.85,1.98c-1.81-0.26-3.01-0.73-3.86-1.97L319.96,227.97z"/>
	<path style="fill:#E47419;" d="M429.57,199.33c0.55,1.09,0.46,1.88-0.27,2.4c-0.39,0.28-1.03,0.02-1.14-0.47
		C427.96,200.34,428.53,199.78,429.57,199.33z"/>
	<path style="fill:#E77416;" d="M405.4,202.05c0.1-1.73,1.31-2,2.18-3.2C407.99,200.91,407.06,201.51,405.4,202.05z"/>
	<path style="fill:#E06E13;" d="M314.77,202.59c-1.78,0.67-2.69,0.21-3.51-1.1C312.75,200.61,313.49,201.95,314.77,202.59z"/>
	<path style="fill:#DE6C13;" d="M277.51,191.61c-0.93,0.42-1.84,0.76-2.29-0.55c-0.07-0.2,0.16-0.71,0.34-0.77
		C276.7,189.95,277.27,190.55,277.51,191.61z"/>
	<path style="fill:#E47115;" d="M379.35,217.51c0.88-0.65,1.67-1.46,3-1.29c0.35,1.1-0.58,1.36-1.19,1.63
		C380.6,218.09,379.88,218.08,379.35,217.51z"/>
	<path style="fill:#E9781C;" d="M414.16,216.69c0.67-1.14,1.19-2.07,2.79-2.3C416.58,216.02,416.07,216.96,414.16,216.69z"/>
	<path style="fill:#E47419;" d="M386.15,215.68c0.91-1.58,1.87-1.9,3.15-1.59C388.75,215.42,387.75,215.74,386.15,215.68z"/>
	<path style="fill:#E27117;" d="M302.4,212.34c0.93-0.41,1.85-0.8,2.33,0.53c0.07,0.2-0.15,0.72-0.33,0.78
		C303.24,214.03,302.68,213.39,302.4,212.34z"/>
	<path style="fill:#E9781C;" d="M435.89,204.94c-0.8,1.51-1.44,2.18-2.48,2.72C432.85,205.81,433.89,205.39,435.89,204.94z"/>
	<path style="fill:#E77416;" d="M428.05,213.75c0.14-1.81,0.84-2.5,2.67-2.69C430.11,212.46,429.42,213.16,428.05,213.75z"/>
	<path style="fill:#E47115;" d="M409.86,209.21c-0.18,1.8-0.86,2.5-2.69,2.66C407.78,210.49,408.46,209.79,409.86,209.21z"/>
	<path style="fill:#E77416;" d="M401.57,204.89c-0.28,1.67-1.21,2.18-2.29,2.83C398.87,206.03,399.82,205.45,401.57,204.89z"/>
	<path style="fill:#E47115;" d="M320.97,220.96c1.03,0.09,2.23-0.3,3.23,1.38c-1.62,0.09-2.57-0.24-3.25-1.35L320.97,220.96z"/>
	<path style="fill:#E9781C;" d="M369.41,241.43c1.09-0.67,2.08-0.75,3.11,0.09C371.43,242.18,370.43,242.27,369.41,241.43z"/>
	<path style="fill:#DE6C13;" d="M277.97,183.99c0.66-0.04,1.32-0.08,1.98-0.11c0.01,0.7,0.02,1.4,0.02,2.1l-0.01,0.01
		C278.54,186.08,277.87,185.42,277.97,183.99z"/>
	<path style="fill:#E06E13;" d="M259.98,198.97c1.18-0.06,2.12,0.32,2.76,1.7c-1.63,0.41-2.26-0.52-2.78-1.68L259.98,198.97z"/>
	<path style="fill:#E47115;" d="M283.97,203.96c1.18-0.06,2.14,0.29,2.74,1.7c-1.6,0.42-2.24-0.52-2.76-1.67L283.97,203.96z"/>
	<path style="fill:#E47115;" d="M283.95,194.98c-0.8-0.06-1.69,0.02-1.91-1.38c1.2-0.26,1.59,0.51,1.93,1.36L283.95,194.98z"/>
	<path style="fill:#E27117;" d="M269.98,203.96c0.83,0.02,1.62,0.09,2.04,1.35c-1.32,0.3-1.71-0.48-2.06-1.32L269.98,203.96z"/>
	<path style="fill:#E77416;" d="M377.55,233.51c-0.65,0.54-1.31,0.69-2.18-0.01C376.16,232.73,376.83,232.84,377.55,233.51z"/>
	<path style="fill:#E77416;" d="M283.97,194.96c0.83,0.01,1.63,0.09,2.05,1.35c-1.33,0.29-1.72-0.49-2.06-1.33L283.97,194.96z"/>
	<path style="fill:#E9781C;" d="M414.57,191.67c-0.2-0.3-0.46-0.53-0.45-0.73c0.03-0.5,0.33-0.87,0.88-0.79
		c0.18,0.03,0.49,0.46,0.46,0.51C415.21,191.02,414.89,191.32,414.57,191.67z"/>
	<path style="fill:#E06E13;" d="M252.96,194.98c-0.81-0.05-1.7,0.02-1.93-1.37c1.21-0.28,1.59,0.51,1.94,1.36L252.96,194.98z"/>
	<path style="fill:#E27117;" d="M267.98,202.96c0.83,0.01,1.69-0.04,2,1l-0.02,0.03c-0.83-0.01-1.69,0.04-2-1.01L267.98,202.96z"/>
	<path style="fill:#E47115;" d="M283.95,203.99c-0.57-0.04-1.19,0.09-1.6-0.53c0.83-0.75,1.27-0.28,1.62,0.5L283.95,203.99z"/>
	<path style="fill:#E06E13;" d="M300.96,203.98c-0.83,0-1.69,0.06-2.01-0.99l0.03-0.03C299.8,202.98,300.66,202.93,300.96,203.98
		L300.96,203.98z"/>
	<path style="fill:#E47115;" d="M266.97,194.97c0.58,0.03,1.2-0.09,1.63,0.52C267.75,196.26,267.31,195.77,266.97,194.97
		L266.97,194.97z"/>
	<path style="fill:#E47115;" d="M320.95,220.99c-0.57-0.04-1.2,0.09-1.61-0.53c0.83-0.76,1.28-0.28,1.63,0.51L320.95,220.99z"/>
	<path style="fill:#E06E13;" d="M298.95,202.99c-0.57-0.04-1.19,0.08-1.6-0.53c0.83-0.76,1.27-0.28,1.62,0.5L298.95,202.99z"/>
	<path style="fill:#E27117;" d="M267.96,202.98c-0.24-0.14-0.48-0.29-0.72-0.43c0.68-0.63,0.57,0.14,0.74,0.41L267.96,202.98z"/>
	<path style="fill:#DE6C13;" d="M279.97,185.97c0.24,0.14,0.48,0.28,0.71,0.42C280,187.03,280.14,186.23,279.97,185.97
		L279.97,185.97z"/>
	<polygon style="fill:#DE6C13;" points="330.44,224.69 330.32,224.38 330.62,224.41 	"/>
	<path style="fill:#E06E13;" d="M252.98,194.97c0.24,0.14,0.47,0.29,0.71,0.43c-0.68,0.62-0.55-0.15-0.72-0.42L252.98,194.97z"/>
	<path style="fill:#E06E13;" d="M300.96,203.97c0.24,0.14,0.48,0.28,0.71,0.43C300.99,205.02,301.13,204.24,300.96,203.97
		L300.96,203.97z"/>
	<path style="fill:#E06E13;" d="M259.96,198.98c-0.24-0.14-0.48-0.29-0.72-0.43c0.68-0.64,0.56,0.15,0.74,0.41L259.96,198.98z"/>
	<path style="fill:#E47115;" d="M266.96,194.98c-0.24-0.14-0.48-0.29-0.72-0.43C266.93,193.93,266.81,194.7,266.96,194.98
		L266.96,194.98z"/>
	<path style="fill:#E77416;" d="M319.95,227.98c-0.24-0.14-0.48-0.29-0.72-0.43c0.68-0.62,0.56,0.14,0.73,0.42L319.95,227.98z"/>
	<path style="fill:#C86018;" d="M254.98,181c0.33,0,0.67-0.01,1-0.01c-0.16,0.25-0.33,0.5-0.49,0.74
		C255.32,181.49,255.15,181.24,254.98,181z"/>
	<path style="fill:#B15D1F;" d="M70.12,122.68c1.06,0.84,1.87,1.83,1.94,3.26C70.4,125.46,69.82,124.34,70.12,122.68z"/>
	<path style="fill:#B15D1F;" d="M74,129.02c0.95,0.28,1.12,1.02,1.12,1.87C73.9,130.78,73.99,129.88,74,129.02z"/>
	<path style="fill:#B15D1F;" d="M72.93,127.13c0.89,0.31,1.04,1.02,1.03,1.83C72.95,128.73,72.97,127.91,72.93,127.13z"/>
	<path style="fill:#B15D1F;" d="M76.03,131.94c0.61,0.07,0.9,0.44,0.98,1.02C76.4,132.89,76.07,132.56,76.03,131.94z"/>
	<path style="fill:#B15D1F;" d="M75.09,130.87c0.63,0.07,0.9,0.47,0.95,1.07C75.39,131.88,75.08,131.52,75.09,130.87z"/>
	<path style="fill:#B15D1F;" d="M77.01,132.96c0.6,0.07,0.91,0.44,1.08,0.99C77.47,133.91,77.09,133.59,77.01,132.96z"/>
	<path style="fill:#B15D1F;" d="M72.04,125.91c0.58,0.13,0.87,0.49,0.82,1.1C72.33,126.85,72.05,126.48,72.04,125.91z"/>
	<path style="fill:#E1B892;" d="M130.74,151.4c-2.32,0.72-4.45,1.37-6.58,2.03c2.19,5.74,7.28,8.46,11.8,6.49
		c2.91-1.27,4.27-4.42,2.34-6.9c-4.8-6.16-8.3-13.38-15.75-17.39c-4.88-2.63-9.07-6.57-13-10.61c-0.65-0.66-1.68-1.2-1.27-2.42
		c0.59-0.73,1.19-0.42,1.73-0.01c5.74,4.42,11.8,8.37,17.77,12.46c5.86,4.02,11.25,9.04,14.69,15.3c3.9,7.09-0.42,14.54-8.97,14.62
		c-5.65,0.05-10.3-3.58-11.43-9.02c-0.42-2.01-0.32-4.2,1.82-5.25C126.14,149.59,128.55,149.17,130.74,151.4z"/>
	<path style="fill:#E9C09B;" d="M98.23,112.92c-1.94,1.78-3.08,0.81-4.08-0.31c-3.05-3.43-6.33-6.71-8.96-10.44
		c-1.29-1.83-3.58-2.97-4.07-5.43c2.82,0.1,2.73,0.18,8.62,7.35C92.3,107.23,95.35,109.96,98.23,112.92z"/>
	<polygon style="fill:#F1DBC6;" points="82.52,88.27 82.64,88.59 82.33,88.55 	"/>
	<polygon style="fill:#E9C09B;" points="100.71,116.51 100.39,116.63 100.42,116.33 	"/>
	<polygon style="fill:#E9C09B;" points="80.71,94.52 80.39,94.63 80.43,94.33 	"/>
	<path style="fill:#D86A16;" d="M116.02,23.02c-0.11,0.56-0.42,0.92-1,1.02C115.09,23.44,115.43,23.1,116.02,23.02z"/>
</g>
</svg>
