<?xml version="1.0" encoding="utf-8"?>
<!-- Generator: Adobe Illustrator 25.2.1, SVG Export Plug-In . SVG Version: 6.00 Build 0)  -->
<svg version="1.1" id="Calque_1" xmlns="http://www.w3.org/2000/svg" xmlns:xlink="http://www.w3.org/1999/xlink" x="0px" y="0px"
	 viewBox="0 0 182 147" style="enable-background:new 0 0 182 147;" xml:space="preserve">
<style type="text/css">
	.st0{fill:#FFFFFF;}
</style>
<g>
	<path class="st0" d="M65.9,147c0.5-1.7-1.3-62.7-1.3-62.7s-51.1,0-64.6,0V66.3c1.4,0.1,50.7,0,64.6,0C64.6,47,65,22.1,65,0
		c-0.4-0.1,116.3,69.9,117,70.1C181.3,71.7,66.4,147,65.9,147z M80.8,121.9c24.5-16.5,48.9-34.2,73-50.4c-1.2,0.2-69.4-46.5-73-46.5
		c0,11.3,0,32,0,41.3c-0.7,0,24.6-0.6,25.1,0v17.9c-7.4,0.8-18.9-0.7-25.1,0C80.8,96.5,80.8,106.6,80.8,121.9z"/>
</g>
</svg>
