<?xml version="1.0" encoding="utf-8"?>
<!-- Generator: Adobe Illustrator 25.2.1, SVG Export Plug-In . SVG Version: 6.00 Build 0)  -->
<svg version="1.1" id="Calque_1" xmlns="http://www.w3.org/2000/svg" xmlns:xlink="http://www.w3.org/1999/xlink" x="0px" y="0px"
	 viewBox="0 0 182 147" style="enable-background:new 0 0 182 147;" xml:space="preserve">
<style type="text/css">
	.st0{fill:#FFFFFF;}
</style>
<g>
	<path class="st0" d="M0,70.1C0.7,69.9,117.3-0.1,117,0c0,22.1,0.4,47,0.4,66.3c13.9,0,63.2,0.1,64.6,0v17.9c-13.6,0-64.6,0-64.6,0
		s-1.8,61-1.3,62.7C115.6,147,0.7,71.7,0,70.1z M101.2,84.2c-6.3-0.7-17.7,0.8-25.1,0V66.3c0.5-0.6,25.9,0,25.1,0c0-9.3,0-30,0-41.3
		c-3.6,0-71.8,46.7-73,46.5c24.1,16.3,48.5,33.9,73,50.4C101.2,106.6,101.2,96.5,101.2,84.2z"/>
</g>
</svg>
